%TF.GenerationSoftware,KiCad,Pcbnew,10.0.4*%
%TF.CreationDate,2026-09-23T18:35:36+07:00*%
%TF.ProjectId,MonkiiBoard58,4d6f6e6b-6969-4426-9f61-726435382e6b,rev?*%
%TF.SameCoordinates,Original*%
%TF.FileFunction,Paste,Bot*%
%TF.FilePolarity,Positive*%
%FSLAX46Y46*%
G04 Gerber Fmt 4.6, Leading zero omitted, Abs format (unit mm)*
G04 Created by KiCad (PCBNEW 10.0.4) date 2026-09-23 18:35:36*
%MOMM*%
%LPD*%
G01*
G04 APERTURE LIST*
G04 Aperture macros list*
%AMRoundRect*
0 Rectangle with rounded corners*
0 $1 Rounding radius*
0 $2 $3 $4 $5 $6 $7 $8 $9 X,Y pos of 4 corners*
0 Add a 4 corners polygon primitive as box body*
4,1,4,$2,$3,$4,$5,$6,$7,$8,$9,$2,$3,0*
0 Add four circle primitives for the rounded corners*
1,1,$1+$1,$2,$3*
1,1,$1+$1,$4,$5*
1,1,$1+$1,$6,$7*
1,1,$1+$1,$8,$9*
0 Add four rect primitives between the rounded corners*
20,1,$1+$1,$2,$3,$4,$5,0*
20,1,$1+$1,$4,$5,$6,$7,0*
20,1,$1+$1,$6,$7,$8,$9,0*
20,1,$1+$1,$8,$9,$2,$3,0*%
G04 Aperture macros list end*
%ADD10R,0.900000X0.900000*%
%ADD11R,1.500000X0.900000*%
%ADD12R,0.900000X1.500000*%
%ADD13RoundRect,0.135000X0.135000X0.185000X-0.135000X0.185000X-0.135000X-0.185000X0.135000X-0.185000X0*%
G04 APERTURE END LIST*
D10*
%TO.C,U3*%
X230950000Y-119645000D03*
X230950000Y-118245000D03*
X230950000Y-116845000D03*
X229550000Y-119645000D03*
X229550000Y-118245000D03*
X229550000Y-116845000D03*
X228150000Y-119645000D03*
X228150000Y-118245000D03*
X228150000Y-116845000D03*
D11*
X236800000Y-110525000D03*
X236800000Y-111795000D03*
X236800000Y-113065000D03*
X236800000Y-114335000D03*
X236800000Y-115605000D03*
X236800000Y-116875000D03*
X236800000Y-118145000D03*
X236800000Y-119415000D03*
X236800000Y-120685000D03*
X236800000Y-121955000D03*
X236800000Y-123225000D03*
X236800000Y-124495000D03*
X236800000Y-125765000D03*
X236800000Y-127035000D03*
D12*
X235035000Y-128285000D03*
X233765000Y-128285000D03*
X232495000Y-128285000D03*
X231225000Y-128285000D03*
X229955000Y-128285000D03*
X228685000Y-128285000D03*
X227415000Y-128285000D03*
X226145000Y-128285000D03*
X224875000Y-128285000D03*
X223605000Y-128285000D03*
X222335000Y-128285000D03*
X221065000Y-128285000D03*
D11*
X219300000Y-127035000D03*
X219300000Y-125765000D03*
X219300000Y-124495000D03*
X219300000Y-123225000D03*
X219300000Y-121955000D03*
X219300000Y-120685000D03*
X219300000Y-119415000D03*
X219300000Y-118145000D03*
X219300000Y-116875000D03*
X219300000Y-115605000D03*
X219300000Y-114335000D03*
X219300000Y-113065000D03*
X219300000Y-111795000D03*
X219300000Y-110525000D03*
%TD*%
D13*
%TO.C,R2*%
X311960000Y-106175000D03*
X310940000Y-106175000D03*
%TD*%
M02*
