%TF.GenerationSoftware,KiCad,Pcbnew,10.0.4*%
%TF.CreationDate,2026-09-23T18:35:36+07:00*%
%TF.ProjectId,MonkiiBoard58,4d6f6e6b-6969-4426-9f61-726435382e6b,rev?*%
%TF.SameCoordinates,Original*%
%TF.FileFunction,Soldermask,Top*%
%TF.FilePolarity,Negative*%
%FSLAX46Y46*%
G04 Gerber Fmt 4.6, Leading zero omitted, Abs format (unit mm)*
G04 Created by KiCad (PCBNEW 10.0.4) date 2026-09-23 18:35:36*
%MOMM*%
%LPD*%
G01*
G04 APERTURE LIST*
G04 Aperture macros list*
%AMRoundRect*
0 Rectangle with rounded corners*
0 $1 Rounding radius*
0 $2 $3 $4 $5 $6 $7 $8 $9 X,Y pos of 4 corners*
0 Add a 4 corners polygon primitive as box body*
4,1,4,$2,$3,$4,$5,$6,$7,$8,$9,$2,$3,0*
0 Add four circle primitives for the rounded corners*
1,1,$1+$1,$2,$3*
1,1,$1+$1,$4,$5*
1,1,$1+$1,$6,$7*
1,1,$1+$1,$8,$9*
0 Add four rect primitives between the rounded corners*
20,1,$1+$1,$2,$3,$4,$5,0*
20,1,$1+$1,$4,$5,$6,$7,0*
20,1,$1+$1,$6,$7,$8,$9,0*
20,1,$1+$1,$8,$9,$2,$3,0*%
G04 Aperture macros list end*
%ADD10RoundRect,0.135000X0.185000X-0.135000X0.185000X0.135000X-0.185000X0.135000X-0.185000X-0.135000X0*%
%ADD11C,1.700000*%
%ADD12C,4.000000*%
%ADD13C,2.200000*%
%ADD14RoundRect,0.375000X-0.625000X-0.375000X0.625000X-0.375000X0.625000X0.375000X-0.625000X0.375000X0*%
%ADD15RoundRect,0.500000X-0.500000X-1.400000X0.500000X-1.400000X0.500000X1.400000X-0.500000X1.400000X0*%
%ADD16RoundRect,0.150000X-0.825000X-0.150000X0.825000X-0.150000X0.825000X0.150000X-0.825000X0.150000X0*%
%ADD17R,2.410000X3.300000*%
%ADD18RoundRect,0.135000X0.135000X0.185000X-0.135000X0.185000X-0.135000X-0.185000X0.135000X-0.185000X0*%
%ADD19RoundRect,0.140000X0.170000X-0.140000X0.170000X0.140000X-0.170000X0.140000X-0.170000X-0.140000X0*%
%ADD20R,1.700000X1.700000*%
%ADD21RoundRect,0.135000X-0.135000X-0.185000X0.135000X-0.185000X0.135000X0.185000X-0.135000X0.185000X0*%
%ADD22RoundRect,0.218750X-0.218750X-0.256250X0.218750X-0.256250X0.218750X0.256250X-0.218750X0.256250X0*%
%ADD23R,0.800000X1.000000*%
%ADD24C,0.900000*%
%ADD25R,1.500000X0.700000*%
%ADD26C,0.700000*%
%ADD27O,0.900000X2.400000*%
%ADD28O,0.900000X1.700000*%
%ADD29RoundRect,0.140000X-0.140000X-0.170000X0.140000X-0.170000X0.140000X0.170000X-0.140000X0.170000X0*%
%ADD30RoundRect,0.140000X0.140000X0.170000X-0.140000X0.170000X-0.140000X-0.170000X0.140000X-0.170000X0*%
%ADD31RoundRect,0.135000X-0.185000X0.135000X-0.185000X-0.135000X0.185000X-0.135000X0.185000X0.135000X0*%
%ADD32R,0.900000X1.700000*%
%ADD33C,3.050000*%
%ADD34R,2.000000X2.000000*%
%ADD35C,2.000000*%
%ADD36R,3.200000X2.000000*%
%ADD37RoundRect,0.150000X-0.587500X-0.150000X0.587500X-0.150000X0.587500X0.150000X-0.587500X0.150000X0*%
%ADD38RoundRect,0.250000X0.550000X0.550000X-0.550000X0.550000X-0.550000X-0.550000X0.550000X-0.550000X0*%
%ADD39C,1.600000*%
%ADD40RoundRect,0.250000X0.625000X-0.350000X0.625000X0.350000X-0.625000X0.350000X-0.625000X-0.350000X0*%
%ADD41O,1.750000X1.200000*%
G04 APERTURE END LIST*
D10*
%TO.C,R7*%
X269200000Y-113050000D03*
X269200000Y-112030000D03*
%TD*%
D11*
%TO.C,SW47*%
X251764800Y-193014600D03*
D12*
X256844800Y-193014600D03*
D11*
X261924800Y-193014600D03*
D13*
X259384800Y-187934600D03*
X253034800Y-190474600D03*
%TD*%
D11*
%TO.C,SW24*%
X270891000Y-154863800D03*
D12*
X275971000Y-154863800D03*
D11*
X281051000Y-154863800D03*
D13*
X278511000Y-149783800D03*
X272161000Y-152323800D03*
%TD*%
D11*
%TO.C,SW42*%
X156387800Y-193014600D03*
D12*
X161467800Y-193014600D03*
D11*
X166547800Y-193014600D03*
D13*
X164007800Y-187934600D03*
X157657800Y-190474600D03*
%TD*%
D14*
%TO.C,U2*%
X309300000Y-115800000D03*
X309300000Y-118100000D03*
D15*
X315600000Y-118100000D03*
D14*
X309300000Y-120400000D03*
%TD*%
D11*
%TO.C,SW10*%
X232664000Y-135712200D03*
D12*
X237744000Y-135712200D03*
D11*
X242824000Y-135712200D03*
D13*
X240284000Y-130632200D03*
X233934000Y-133172200D03*
%TD*%
D16*
%TO.C,U1*%
X288075000Y-106670000D03*
X288075000Y-107940000D03*
X288075000Y-109210000D03*
X288075000Y-110480000D03*
X293025000Y-110480000D03*
X293025000Y-109210000D03*
X293025000Y-107940000D03*
X293025000Y-106670000D03*
D17*
X290550000Y-108575000D03*
%TD*%
D11*
%TO.C,SW51*%
X99161600Y-212090000D03*
D12*
X104241600Y-212090000D03*
D11*
X109321600Y-212090000D03*
D13*
X106781600Y-207010000D03*
X100431600Y-209550000D03*
%TD*%
D18*
%TO.C,R5*%
X284875000Y-107925000D03*
X283855000Y-107925000D03*
%TD*%
D11*
%TO.C,SW59*%
X289966400Y-212115400D03*
D12*
X295046400Y-212115400D03*
D11*
X300126400Y-212115400D03*
D13*
X297586400Y-207035400D03*
X291236400Y-209575400D03*
%TD*%
D11*
%TO.C,SW49*%
X289941000Y-193014600D03*
D12*
X295021000Y-193014600D03*
D11*
X300101000Y-193014600D03*
D13*
X297561000Y-187934600D03*
X291211000Y-190474600D03*
%TD*%
D11*
%TO.C,SW45*%
X213563200Y-193014600D03*
D12*
X218643200Y-193014600D03*
D11*
X223723200Y-193014600D03*
D13*
X221183200Y-187934600D03*
X214833200Y-190474600D03*
%TD*%
D11*
%TO.C,SW20*%
X194513200Y-154838400D03*
D12*
X199593200Y-154838400D03*
D11*
X204673200Y-154838400D03*
D13*
X202133200Y-149758400D03*
X195783200Y-152298400D03*
%TD*%
D11*
%TO.C,SW29*%
X137312400Y-173888400D03*
D12*
X142392400Y-173888400D03*
D11*
X147472400Y-173888400D03*
D13*
X144932400Y-168808400D03*
X138582400Y-171348400D03*
%TD*%
D11*
%TO.C,SW28*%
X118237000Y-173888400D03*
D12*
X123317000Y-173888400D03*
D11*
X128397000Y-173888400D03*
D13*
X125857000Y-168808400D03*
X119507000Y-171348400D03*
%TD*%
D11*
%TO.C,SW16*%
X118364000Y-154838400D03*
D12*
X123444000Y-154838400D03*
D11*
X128524000Y-154838400D03*
D13*
X125984000Y-149758400D03*
X119634000Y-152298400D03*
%TD*%
D18*
%TO.C,R6*%
X298270000Y-108100000D03*
X297250000Y-108100000D03*
%TD*%
D19*
%TO.C,C4*%
X238625000Y-111475000D03*
X238625000Y-110515000D03*
%TD*%
D20*
%TO.C,J3*%
X275750000Y-110940000D03*
D11*
X275750000Y-113480000D03*
X275750000Y-116020000D03*
X275750000Y-118560000D03*
%TD*%
%TO.C,SW38*%
X309067200Y-173913800D03*
D12*
X314147200Y-173913800D03*
D11*
X319227200Y-173913800D03*
D13*
X316687200Y-168833800D03*
X310337200Y-171373800D03*
%TD*%
D11*
%TO.C,SW58*%
X270865600Y-212115400D03*
D12*
X275945600Y-212115400D03*
D11*
X281025600Y-212115400D03*
D13*
X278485600Y-207035400D03*
X272135600Y-209575400D03*
%TD*%
D11*
%TO.C,SW44*%
X194462400Y-193014600D03*
D12*
X199542400Y-193014600D03*
D11*
X204622400Y-193014600D03*
D13*
X202082400Y-187934600D03*
X195732400Y-190474600D03*
%TD*%
D11*
%TO.C,SW6*%
X156413200Y-135712200D03*
D12*
X161493200Y-135712200D03*
D11*
X166573200Y-135712200D03*
D13*
X164033200Y-130632200D03*
X157683200Y-133172200D03*
%TD*%
D11*
%TO.C,SW27*%
X99187000Y-173888400D03*
D12*
X104267000Y-173888400D03*
D11*
X109347000Y-173888400D03*
D13*
X106807000Y-168808400D03*
X100457000Y-171348400D03*
%TD*%
D11*
%TO.C,SW11*%
X251790200Y-135712200D03*
D12*
X256870200Y-135712200D03*
D11*
X261950200Y-135712200D03*
D13*
X259410200Y-130632200D03*
X253060200Y-133172200D03*
%TD*%
D11*
%TO.C,SW25*%
X289915600Y-154863800D03*
D12*
X294995600Y-154863800D03*
D11*
X300075600Y-154863800D03*
D13*
X297535600Y-149783800D03*
X291185600Y-152323800D03*
%TD*%
D19*
%TO.C,C5*%
X240900000Y-111475000D03*
X240900000Y-110515000D03*
%TD*%
D11*
%TO.C,SW57*%
X251739400Y-212115400D03*
D12*
X256819400Y-212115400D03*
D11*
X261899400Y-212115400D03*
D13*
X259359400Y-207035400D03*
X253009400Y-209575400D03*
%TD*%
D21*
%TO.C,R3*%
X302815000Y-107150000D03*
X303835000Y-107150000D03*
%TD*%
D11*
%TO.C,SW8*%
X194462400Y-135712200D03*
D12*
X199542400Y-135712200D03*
D11*
X204622400Y-135712200D03*
D13*
X202082400Y-130632200D03*
X195732400Y-133172200D03*
%TD*%
D11*
%TO.C,SW39*%
X99187000Y-193040000D03*
D12*
X104267000Y-193040000D03*
D11*
X109347000Y-193040000D03*
D13*
X106807000Y-187960000D03*
X100457000Y-190500000D03*
%TD*%
D11*
%TO.C,SW4*%
X118262400Y-135712200D03*
D12*
X123342400Y-135712200D03*
D11*
X128422400Y-135712200D03*
D13*
X125882400Y-130632200D03*
X119532400Y-133172200D03*
%TD*%
D22*
%TO.C,D1*%
X296687500Y-104075000D03*
X298262500Y-104075000D03*
%TD*%
D11*
%TO.C,SW14*%
X309067200Y-135737600D03*
D12*
X314147200Y-135737600D03*
D11*
X319227200Y-135737600D03*
D13*
X316687200Y-130657600D03*
X310337200Y-133197600D03*
%TD*%
D23*
%TO.C,SW1*%
X322095000Y-120950000D03*
X324305000Y-120950000D03*
D24*
X323205000Y-118800000D03*
X323205000Y-115800000D03*
D23*
X322095000Y-113650000D03*
X324305000Y-113650000D03*
D25*
X321445000Y-119550000D03*
X321445000Y-116550000D03*
X321445000Y-115050000D03*
%TD*%
D11*
%TO.C,SW34*%
X232664000Y-173913800D03*
D12*
X237744000Y-173913800D03*
D11*
X242824000Y-173913800D03*
D13*
X240284000Y-168833800D03*
X233934000Y-171373800D03*
%TD*%
D19*
%TO.C,C7*%
X245525000Y-111500000D03*
X245525000Y-110540000D03*
%TD*%
D11*
%TO.C,SW31*%
X175437800Y-173888400D03*
D12*
X180517800Y-173888400D03*
D11*
X185597800Y-173888400D03*
D13*
X183057800Y-168808400D03*
X176707800Y-171348400D03*
%TD*%
D11*
%TO.C,SW22*%
X232689400Y-154863800D03*
D12*
X237769400Y-154863800D03*
D11*
X242849400Y-154863800D03*
D13*
X240309400Y-149783800D03*
X233959400Y-152323800D03*
%TD*%
D21*
%TO.C,R9*%
X283665000Y-118950000D03*
X284685000Y-118950000D03*
%TD*%
D11*
%TO.C,SW30*%
X156387800Y-173888400D03*
D12*
X161467800Y-173888400D03*
D11*
X166547800Y-173888400D03*
D13*
X164007800Y-168808400D03*
X157657800Y-171348400D03*
%TD*%
D21*
%TO.C,R4*%
X302830000Y-109950000D03*
X303850000Y-109950000D03*
%TD*%
D26*
%TO.C,J1*%
X316875000Y-109175000D03*
X316025000Y-109175000D03*
X315175000Y-109175000D03*
X314325000Y-109175000D03*
X313475000Y-109175000D03*
X312625000Y-109175000D03*
X311775000Y-109175000D03*
X310925000Y-109175000D03*
X310925000Y-107825000D03*
X311775000Y-107825000D03*
X312625000Y-107825000D03*
X313475000Y-107825000D03*
X314325000Y-107825000D03*
X315175000Y-107825000D03*
X316025000Y-107825000D03*
X316875000Y-107825000D03*
D27*
X318225000Y-108195000D03*
D28*
X318225000Y-104815000D03*
D27*
X309575000Y-108195000D03*
D28*
X309575000Y-104815000D03*
%TD*%
D11*
%TO.C,SW5*%
X137363200Y-135712200D03*
D12*
X142443200Y-135712200D03*
D11*
X147523200Y-135712200D03*
D13*
X144983200Y-130632200D03*
X138633200Y-133172200D03*
%TD*%
D29*
%TO.C,C1*%
X311925000Y-124325000D03*
X312885000Y-124325000D03*
%TD*%
%TO.C,C2*%
X311820000Y-112650000D03*
X312780000Y-112650000D03*
%TD*%
D11*
%TO.C,SW21*%
X213563200Y-154863800D03*
D12*
X218643200Y-154863800D03*
D11*
X223723200Y-154863800D03*
D13*
X221183200Y-149783800D03*
X214833200Y-152323800D03*
%TD*%
D11*
%TO.C,SW23*%
X251764800Y-154838400D03*
D12*
X256844800Y-154838400D03*
D11*
X261924800Y-154838400D03*
D13*
X259384800Y-149758400D03*
X253034800Y-152298400D03*
%TD*%
D30*
%TO.C,C10*%
X260880000Y-113100000D03*
X259920000Y-113100000D03*
%TD*%
D11*
%TO.C,SW32*%
X194462400Y-173888400D03*
D12*
X199542400Y-173888400D03*
D11*
X204622400Y-173888400D03*
D13*
X202082400Y-168808400D03*
X195732400Y-171348400D03*
%TD*%
D11*
%TO.C,SW52*%
X118237000Y-212090000D03*
D12*
X123317000Y-212090000D03*
D11*
X128397000Y-212090000D03*
D13*
X125857000Y-207010000D03*
X119507000Y-209550000D03*
%TD*%
D11*
%TO.C,SW53*%
X137337800Y-212090000D03*
D12*
X142417800Y-212090000D03*
D11*
X147497800Y-212090000D03*
D13*
X144957800Y-207010000D03*
X138607800Y-209550000D03*
%TD*%
D11*
%TO.C,SW3*%
X99187000Y-135712200D03*
D12*
X104267000Y-135712200D03*
D11*
X109347000Y-135712200D03*
D13*
X106807000Y-130632200D03*
X100457000Y-133172200D03*
%TD*%
D11*
%TO.C,SW33*%
X213588600Y-173913800D03*
D12*
X218668600Y-173913800D03*
D11*
X223748600Y-173913800D03*
D13*
X221208600Y-168833800D03*
X214858600Y-171373800D03*
%TD*%
D19*
%TO.C,C6*%
X243225000Y-111475000D03*
X243225000Y-110515000D03*
%TD*%
D11*
%TO.C,SW41*%
X137337800Y-193014600D03*
D12*
X142417800Y-193014600D03*
D11*
X147497800Y-193014600D03*
D13*
X144957800Y-187934600D03*
X138607800Y-190474600D03*
%TD*%
D31*
%TO.C,R10*%
X281550000Y-116105000D03*
X281550000Y-117125000D03*
%TD*%
D29*
%TO.C,C3*%
X318115000Y-118050000D03*
X319075000Y-118050000D03*
%TD*%
D11*
%TO.C,SW40*%
X118262400Y-193014600D03*
D12*
X123342400Y-193014600D03*
D11*
X128422400Y-193014600D03*
D13*
X125882400Y-187934600D03*
X119532400Y-190474600D03*
%TD*%
D11*
%TO.C,SW26*%
X309067200Y-154863800D03*
D12*
X314147200Y-154863800D03*
D11*
X319227200Y-154863800D03*
D13*
X316687200Y-149783800D03*
X310337200Y-152323800D03*
%TD*%
D11*
%TO.C,SW36*%
X270865600Y-173913800D03*
D12*
X275945600Y-173913800D03*
D11*
X281025600Y-173913800D03*
D13*
X278485600Y-168833800D03*
X272135600Y-171373800D03*
%TD*%
D11*
%TO.C,SW48*%
X270865600Y-193014600D03*
D12*
X275945600Y-193014600D03*
D11*
X281025600Y-193014600D03*
D13*
X278485600Y-187934600D03*
X272135600Y-190474600D03*
%TD*%
D32*
%TO.C,SW2*%
X263500000Y-105650000D03*
X260100000Y-105650000D03*
%TD*%
D10*
%TO.C,R8*%
X269200000Y-118545000D03*
X269200000Y-117525000D03*
%TD*%
D11*
%TO.C,SW35*%
X251764800Y-173913800D03*
D12*
X256844800Y-173913800D03*
D11*
X261924800Y-173913800D03*
D13*
X259384800Y-168833800D03*
X253034800Y-171373800D03*
%TD*%
D11*
%TO.C,SW60*%
X309067200Y-212115400D03*
D12*
X314147200Y-212115400D03*
D11*
X319227200Y-212115400D03*
D13*
X316687200Y-207035400D03*
X310337200Y-209575400D03*
%TD*%
D11*
%TO.C,SW18*%
X156337000Y-154863800D03*
D12*
X161417000Y-154863800D03*
D11*
X166497000Y-154863800D03*
D13*
X163957000Y-149783800D03*
X157607000Y-152323800D03*
%TD*%
D11*
%TO.C,SW50*%
X309067200Y-193014600D03*
D12*
X314147200Y-193014600D03*
D11*
X319227200Y-193014600D03*
D13*
X316687200Y-187934600D03*
X310337200Y-190474600D03*
%TD*%
D11*
%TO.C,SW54*%
X156413200Y-212090000D03*
D12*
X161493200Y-212090000D03*
D11*
X166573200Y-212090000D03*
D13*
X164033200Y-207010000D03*
X157683200Y-209550000D03*
%TD*%
D11*
%TO.C,SW9*%
X213614000Y-135686800D03*
D12*
X218694000Y-135686800D03*
D11*
X223774000Y-135686800D03*
D13*
X221234000Y-130606800D03*
X214884000Y-133146800D03*
%TD*%
D19*
%TO.C,C9*%
X250150000Y-111525000D03*
X250150000Y-110565000D03*
%TD*%
D11*
%TO.C,SW37*%
X289941000Y-173913800D03*
D12*
X295021000Y-173913800D03*
D11*
X300101000Y-173913800D03*
D13*
X297561000Y-168833800D03*
X291211000Y-171373800D03*
%TD*%
D11*
%TO.C,SW7*%
X175437800Y-135712200D03*
D12*
X180517800Y-135712200D03*
D11*
X185597800Y-135712200D03*
D13*
X183057800Y-130632200D03*
X176707800Y-133172200D03*
%TD*%
D33*
%TO.C,SW56*%
X216306200Y-205105000D03*
D12*
X216306200Y-220345000D03*
D11*
X223126200Y-212105000D03*
D12*
X228206200Y-212105000D03*
D11*
X233286200Y-212105000D03*
D33*
X240106200Y-205105000D03*
D12*
X240106200Y-220345000D03*
D13*
X230746200Y-207025000D03*
X224396200Y-209565000D03*
%TD*%
D11*
%TO.C,SW17*%
X137287000Y-154863800D03*
D12*
X142367000Y-154863800D03*
D11*
X147447000Y-154863800D03*
D13*
X144907000Y-149783800D03*
X138557000Y-152323800D03*
%TD*%
D11*
%TO.C,SW12*%
X270865600Y-135737600D03*
D12*
X275945600Y-135737600D03*
D11*
X281025600Y-135737600D03*
D13*
X278485600Y-130657600D03*
X272135600Y-133197600D03*
%TD*%
D11*
%TO.C,SW46*%
X232664000Y-193014600D03*
D12*
X237744000Y-193014600D03*
D11*
X242824000Y-193014600D03*
D13*
X240284000Y-187934600D03*
X233934000Y-190474600D03*
%TD*%
D34*
%TO.C,ENC1*%
X96650000Y-111200000D03*
D35*
X96650000Y-116200000D03*
X96650000Y-113700000D03*
D36*
X104150000Y-108100000D03*
X104150000Y-119300000D03*
D35*
X111150000Y-116200000D03*
X111150000Y-111200000D03*
%TD*%
D37*
%TO.C,Q1*%
X284712500Y-115050000D03*
X284712500Y-116950000D03*
X286587500Y-116000000D03*
%TD*%
D21*
%TO.C,R1*%
X315165000Y-110850000D03*
X316185000Y-110850000D03*
%TD*%
D33*
%TO.C,SW55*%
X178180800Y-205105000D03*
D12*
X178180800Y-220345000D03*
D11*
X185000800Y-212105000D03*
D12*
X190080800Y-212105000D03*
D11*
X195160800Y-212105000D03*
D33*
X201980800Y-205105000D03*
D12*
X201980800Y-220345000D03*
D13*
X192620800Y-207025000D03*
X186270800Y-209565000D03*
%TD*%
D11*
%TO.C,SW13*%
X289915600Y-135737600D03*
D12*
X294995600Y-135737600D03*
D11*
X300075600Y-135737600D03*
D13*
X297535600Y-130657600D03*
X291185600Y-133197600D03*
%TD*%
D19*
%TO.C,C8*%
X247850000Y-111500000D03*
X247850000Y-110540000D03*
%TD*%
D11*
%TO.C,SW15*%
X99187000Y-154813000D03*
D12*
X104267000Y-154813000D03*
D11*
X109347000Y-154813000D03*
D13*
X106807000Y-149733000D03*
X100457000Y-152273000D03*
%TD*%
D11*
%TO.C,SW19*%
X175412400Y-154863800D03*
D12*
X180492400Y-154863800D03*
D11*
X185572400Y-154863800D03*
D13*
X183032400Y-149783800D03*
X176682400Y-152323800D03*
%TD*%
D11*
%TO.C,SW43*%
X175437800Y-193014600D03*
D12*
X180517800Y-193014600D03*
D11*
X185597800Y-193014600D03*
D13*
X183057800Y-187934600D03*
X176707800Y-190474600D03*
%TD*%
D38*
%TO.C,D29*%
X165260000Y-178250000D03*
D39*
X157640000Y-178250000D03*
%TD*%
D38*
%TO.C,D48*%
X298860000Y-197250000D03*
D39*
X291240000Y-197250000D03*
%TD*%
D38*
%TO.C,D35*%
X279760000Y-178250000D03*
D39*
X272140000Y-178250000D03*
%TD*%
D38*
%TO.C,D33*%
X241560000Y-178250000D03*
D39*
X233940000Y-178250000D03*
%TD*%
D38*
%TO.C,D43*%
X203360000Y-197250000D03*
D39*
X195740000Y-197250000D03*
%TD*%
D38*
%TO.C,D21*%
X241560000Y-159250000D03*
D39*
X233940000Y-159250000D03*
%TD*%
D38*
%TO.C,D17*%
X165210000Y-159250000D03*
D39*
X157590000Y-159250000D03*
%TD*%
D38*
%TO.C,D56*%
X260660000Y-216300000D03*
D39*
X253040000Y-216300000D03*
%TD*%
D38*
%TO.C,D23*%
X279810000Y-159250000D03*
D39*
X272190000Y-159250000D03*
%TD*%
D38*
%TO.C,D12*%
X298810000Y-140250000D03*
D39*
X291190000Y-140250000D03*
%TD*%
D38*
%TO.C,D38*%
X108060000Y-197250000D03*
D39*
X100440000Y-197250000D03*
%TD*%
D38*
%TO.C,D31*%
X203360000Y-178250000D03*
D39*
X195740000Y-178250000D03*
%TD*%
D38*
%TO.C,D51*%
X127110000Y-216250000D03*
D39*
X119490000Y-216250000D03*
%TD*%
D38*
%TO.C,D40*%
X146210000Y-197250000D03*
D39*
X138590000Y-197250000D03*
%TD*%
D38*
%TO.C,D37*%
X318010000Y-178250000D03*
D39*
X310390000Y-178250000D03*
%TD*%
D38*
%TO.C,D39*%
X127160000Y-197250000D03*
D39*
X119540000Y-197250000D03*
%TD*%
D38*
%TO.C,D45*%
X241560000Y-197250000D03*
D39*
X233940000Y-197250000D03*
%TD*%
D38*
%TO.C,D36*%
X298810000Y-178250000D03*
D39*
X291190000Y-178250000D03*
%TD*%
D38*
%TO.C,D59*%
X318010000Y-216250000D03*
D39*
X310390000Y-216250000D03*
%TD*%
D38*
%TO.C,D7*%
X203370000Y-140250000D03*
D39*
X195750000Y-140250000D03*
%TD*%
D38*
%TO.C,D8*%
X222510000Y-140250000D03*
D39*
X214890000Y-140250000D03*
%TD*%
D38*
%TO.C,D46*%
X260660000Y-197250000D03*
D39*
X253040000Y-197250000D03*
%TD*%
D38*
%TO.C,D55*%
X232010000Y-216250000D03*
D39*
X224390000Y-216250000D03*
%TD*%
D38*
%TO.C,D19*%
X203410000Y-159250000D03*
D39*
X195790000Y-159250000D03*
%TD*%
D38*
%TO.C,D58*%
X298910000Y-216250000D03*
D39*
X291290000Y-216250000D03*
%TD*%
D38*
%TO.C,D26*%
X108110000Y-178250000D03*
D39*
X100490000Y-178250000D03*
%TD*%
D38*
%TO.C,D42*%
X184410000Y-197250000D03*
D39*
X176790000Y-197250000D03*
%TD*%
D38*
%TO.C,D57*%
X279810000Y-216250000D03*
D39*
X272190000Y-216250000D03*
%TD*%
D38*
%TO.C,D27*%
X127110000Y-178200000D03*
D39*
X119490000Y-178200000D03*
%TD*%
D38*
%TO.C,D6*%
X184360000Y-140250000D03*
D39*
X176740000Y-140250000D03*
%TD*%
D38*
%TO.C,D16*%
X146253200Y-159258000D03*
D39*
X138633200Y-159258000D03*
%TD*%
D38*
%TO.C,D2*%
X108120000Y-140250000D03*
D39*
X100500000Y-140250000D03*
%TD*%
D38*
%TO.C,D49*%
X318010000Y-197250000D03*
D39*
X310390000Y-197250000D03*
%TD*%
D38*
%TO.C,D22*%
X260660000Y-159250000D03*
D39*
X253040000Y-159250000D03*
%TD*%
D38*
%TO.C,D10*%
X260710000Y-140250000D03*
D39*
X253090000Y-140250000D03*
%TD*%
D38*
%TO.C,D30*%
X184360000Y-178250000D03*
D39*
X176740000Y-178250000D03*
%TD*%
D38*
%TO.C,D24*%
X298810000Y-159250000D03*
D39*
X291190000Y-159250000D03*
%TD*%
D38*
%TO.C,D4*%
X146350000Y-140250000D03*
D39*
X138730000Y-140250000D03*
%TD*%
D38*
%TO.C,D14*%
X108110000Y-159250000D03*
D39*
X100490000Y-159250000D03*
%TD*%
D38*
%TO.C,D32*%
X222510000Y-178250000D03*
D39*
X214890000Y-178250000D03*
%TD*%
D38*
%TO.C,D54*%
X193910000Y-216250000D03*
D39*
X186290000Y-216250000D03*
%TD*%
D38*
%TO.C,D44*%
X222460000Y-197250000D03*
D39*
X214840000Y-197250000D03*
%TD*%
D38*
%TO.C,D52*%
X146210000Y-216250000D03*
D39*
X138590000Y-216250000D03*
%TD*%
D38*
%TO.C,D5*%
X165300000Y-140250000D03*
D39*
X157680000Y-140250000D03*
%TD*%
D38*
%TO.C,D34*%
X260660000Y-178250000D03*
D39*
X253040000Y-178250000D03*
%TD*%
D38*
%TO.C,D25*%
X317960000Y-159250000D03*
D39*
X310340000Y-159250000D03*
%TD*%
D38*
%TO.C,D20*%
X222460000Y-159250000D03*
D39*
X214840000Y-159250000D03*
%TD*%
D38*
%TO.C,D28*%
X146210000Y-178250000D03*
D39*
X138590000Y-178250000D03*
%TD*%
D38*
%TO.C,D11*%
X279710000Y-140250000D03*
D39*
X272090000Y-140250000D03*
%TD*%
D38*
%TO.C,D41*%
X165310000Y-197250000D03*
D39*
X157690000Y-197250000D03*
%TD*%
D38*
%TO.C,D13*%
X317960000Y-140250000D03*
D39*
X310340000Y-140250000D03*
%TD*%
D38*
%TO.C,D47*%
X279760000Y-197250000D03*
D39*
X272140000Y-197250000D03*
%TD*%
D40*
%TO.C,J2*%
X299775000Y-119100000D03*
D41*
X299775000Y-117100000D03*
%TD*%
D38*
%TO.C,D9*%
X241560000Y-140250000D03*
D39*
X233940000Y-140250000D03*
%TD*%
D38*
%TO.C,D50*%
X108010000Y-216250000D03*
D39*
X100390000Y-216250000D03*
%TD*%
D38*
%TO.C,D53*%
X165310000Y-216250000D03*
D39*
X157690000Y-216250000D03*
%TD*%
D38*
%TO.C,D3*%
X127100000Y-140250000D03*
D39*
X119480000Y-140250000D03*
%TD*%
D38*
%TO.C,D15*%
X127260000Y-159250000D03*
D39*
X119640000Y-159250000D03*
%TD*%
D38*
%TO.C,D18*%
X184310000Y-159250000D03*
D39*
X176690000Y-159250000D03*
%TD*%
M02*
