%TF.GenerationSoftware,KiCad,Pcbnew,10.0.4*%
%TF.CreationDate,2026-09-23T18:35:36+07:00*%
%TF.ProjectId,MonkiiBoard58,4d6f6e6b-6969-4426-9f61-726435382e6b,rev?*%
%TF.SameCoordinates,Original*%
%TF.FileFunction,Legend,Bot*%
%TF.FilePolarity,Positive*%
%FSLAX46Y46*%
G04 Gerber Fmt 4.6, Leading zero omitted, Abs format (unit mm)*
G04 Created by KiCad (PCBNEW 10.0.4) date 2026-09-23 18:35:36*
%MOMM*%
%LPD*%
G01*
G04 APERTURE LIST*
%ADD10C,0.150000*%
%ADD11C,0.120000*%
G04 APERTURE END LIST*
D10*
X162664285Y-176584819D02*
X162664285Y-175584819D01*
X162664285Y-175584819D02*
X162426190Y-175584819D01*
X162426190Y-175584819D02*
X162283333Y-175632438D01*
X162283333Y-175632438D02*
X162188095Y-175727676D01*
X162188095Y-175727676D02*
X162140476Y-175822914D01*
X162140476Y-175822914D02*
X162092857Y-176013390D01*
X162092857Y-176013390D02*
X162092857Y-176156247D01*
X162092857Y-176156247D02*
X162140476Y-176346723D01*
X162140476Y-176346723D02*
X162188095Y-176441961D01*
X162188095Y-176441961D02*
X162283333Y-176537200D01*
X162283333Y-176537200D02*
X162426190Y-176584819D01*
X162426190Y-176584819D02*
X162664285Y-176584819D01*
X161711904Y-175680057D02*
X161664285Y-175632438D01*
X161664285Y-175632438D02*
X161569047Y-175584819D01*
X161569047Y-175584819D02*
X161330952Y-175584819D01*
X161330952Y-175584819D02*
X161235714Y-175632438D01*
X161235714Y-175632438D02*
X161188095Y-175680057D01*
X161188095Y-175680057D02*
X161140476Y-175775295D01*
X161140476Y-175775295D02*
X161140476Y-175870533D01*
X161140476Y-175870533D02*
X161188095Y-176013390D01*
X161188095Y-176013390D02*
X161759523Y-176584819D01*
X161759523Y-176584819D02*
X161140476Y-176584819D01*
X160664285Y-176584819D02*
X160473809Y-176584819D01*
X160473809Y-176584819D02*
X160378571Y-176537200D01*
X160378571Y-176537200D02*
X160330952Y-176489580D01*
X160330952Y-176489580D02*
X160235714Y-176346723D01*
X160235714Y-176346723D02*
X160188095Y-176156247D01*
X160188095Y-176156247D02*
X160188095Y-175775295D01*
X160188095Y-175775295D02*
X160235714Y-175680057D01*
X160235714Y-175680057D02*
X160283333Y-175632438D01*
X160283333Y-175632438D02*
X160378571Y-175584819D01*
X160378571Y-175584819D02*
X160569047Y-175584819D01*
X160569047Y-175584819D02*
X160664285Y-175632438D01*
X160664285Y-175632438D02*
X160711904Y-175680057D01*
X160711904Y-175680057D02*
X160759523Y-175775295D01*
X160759523Y-175775295D02*
X160759523Y-176013390D01*
X160759523Y-176013390D02*
X160711904Y-176108628D01*
X160711904Y-176108628D02*
X160664285Y-176156247D01*
X160664285Y-176156247D02*
X160569047Y-176203866D01*
X160569047Y-176203866D02*
X160378571Y-176203866D01*
X160378571Y-176203866D02*
X160283333Y-176156247D01*
X160283333Y-176156247D02*
X160235714Y-176108628D01*
X160235714Y-176108628D02*
X160188095Y-176013390D01*
X165521904Y-176904819D02*
X165521904Y-175904819D01*
X164950476Y-176904819D02*
X165379047Y-176333390D01*
X164950476Y-175904819D02*
X165521904Y-176476247D01*
X296264285Y-195584819D02*
X296264285Y-194584819D01*
X296264285Y-194584819D02*
X296026190Y-194584819D01*
X296026190Y-194584819D02*
X295883333Y-194632438D01*
X295883333Y-194632438D02*
X295788095Y-194727676D01*
X295788095Y-194727676D02*
X295740476Y-194822914D01*
X295740476Y-194822914D02*
X295692857Y-195013390D01*
X295692857Y-195013390D02*
X295692857Y-195156247D01*
X295692857Y-195156247D02*
X295740476Y-195346723D01*
X295740476Y-195346723D02*
X295788095Y-195441961D01*
X295788095Y-195441961D02*
X295883333Y-195537200D01*
X295883333Y-195537200D02*
X296026190Y-195584819D01*
X296026190Y-195584819D02*
X296264285Y-195584819D01*
X294835714Y-194918152D02*
X294835714Y-195584819D01*
X295073809Y-194537200D02*
X295311904Y-195251485D01*
X295311904Y-195251485D02*
X294692857Y-195251485D01*
X294169047Y-195013390D02*
X294264285Y-194965771D01*
X294264285Y-194965771D02*
X294311904Y-194918152D01*
X294311904Y-194918152D02*
X294359523Y-194822914D01*
X294359523Y-194822914D02*
X294359523Y-194775295D01*
X294359523Y-194775295D02*
X294311904Y-194680057D01*
X294311904Y-194680057D02*
X294264285Y-194632438D01*
X294264285Y-194632438D02*
X294169047Y-194584819D01*
X294169047Y-194584819D02*
X293978571Y-194584819D01*
X293978571Y-194584819D02*
X293883333Y-194632438D01*
X293883333Y-194632438D02*
X293835714Y-194680057D01*
X293835714Y-194680057D02*
X293788095Y-194775295D01*
X293788095Y-194775295D02*
X293788095Y-194822914D01*
X293788095Y-194822914D02*
X293835714Y-194918152D01*
X293835714Y-194918152D02*
X293883333Y-194965771D01*
X293883333Y-194965771D02*
X293978571Y-195013390D01*
X293978571Y-195013390D02*
X294169047Y-195013390D01*
X294169047Y-195013390D02*
X294264285Y-195061009D01*
X294264285Y-195061009D02*
X294311904Y-195108628D01*
X294311904Y-195108628D02*
X294359523Y-195203866D01*
X294359523Y-195203866D02*
X294359523Y-195394342D01*
X294359523Y-195394342D02*
X294311904Y-195489580D01*
X294311904Y-195489580D02*
X294264285Y-195537200D01*
X294264285Y-195537200D02*
X294169047Y-195584819D01*
X294169047Y-195584819D02*
X293978571Y-195584819D01*
X293978571Y-195584819D02*
X293883333Y-195537200D01*
X293883333Y-195537200D02*
X293835714Y-195489580D01*
X293835714Y-195489580D02*
X293788095Y-195394342D01*
X293788095Y-195394342D02*
X293788095Y-195203866D01*
X293788095Y-195203866D02*
X293835714Y-195108628D01*
X293835714Y-195108628D02*
X293883333Y-195061009D01*
X293883333Y-195061009D02*
X293978571Y-195013390D01*
X299121904Y-195904819D02*
X299121904Y-194904819D01*
X298550476Y-195904819D02*
X298979047Y-195333390D01*
X298550476Y-194904819D02*
X299121904Y-195476247D01*
X277164285Y-176584819D02*
X277164285Y-175584819D01*
X277164285Y-175584819D02*
X276926190Y-175584819D01*
X276926190Y-175584819D02*
X276783333Y-175632438D01*
X276783333Y-175632438D02*
X276688095Y-175727676D01*
X276688095Y-175727676D02*
X276640476Y-175822914D01*
X276640476Y-175822914D02*
X276592857Y-176013390D01*
X276592857Y-176013390D02*
X276592857Y-176156247D01*
X276592857Y-176156247D02*
X276640476Y-176346723D01*
X276640476Y-176346723D02*
X276688095Y-176441961D01*
X276688095Y-176441961D02*
X276783333Y-176537200D01*
X276783333Y-176537200D02*
X276926190Y-176584819D01*
X276926190Y-176584819D02*
X277164285Y-176584819D01*
X276259523Y-175584819D02*
X275640476Y-175584819D01*
X275640476Y-175584819D02*
X275973809Y-175965771D01*
X275973809Y-175965771D02*
X275830952Y-175965771D01*
X275830952Y-175965771D02*
X275735714Y-176013390D01*
X275735714Y-176013390D02*
X275688095Y-176061009D01*
X275688095Y-176061009D02*
X275640476Y-176156247D01*
X275640476Y-176156247D02*
X275640476Y-176394342D01*
X275640476Y-176394342D02*
X275688095Y-176489580D01*
X275688095Y-176489580D02*
X275735714Y-176537200D01*
X275735714Y-176537200D02*
X275830952Y-176584819D01*
X275830952Y-176584819D02*
X276116666Y-176584819D01*
X276116666Y-176584819D02*
X276211904Y-176537200D01*
X276211904Y-176537200D02*
X276259523Y-176489580D01*
X274735714Y-175584819D02*
X275211904Y-175584819D01*
X275211904Y-175584819D02*
X275259523Y-176061009D01*
X275259523Y-176061009D02*
X275211904Y-176013390D01*
X275211904Y-176013390D02*
X275116666Y-175965771D01*
X275116666Y-175965771D02*
X274878571Y-175965771D01*
X274878571Y-175965771D02*
X274783333Y-176013390D01*
X274783333Y-176013390D02*
X274735714Y-176061009D01*
X274735714Y-176061009D02*
X274688095Y-176156247D01*
X274688095Y-176156247D02*
X274688095Y-176394342D01*
X274688095Y-176394342D02*
X274735714Y-176489580D01*
X274735714Y-176489580D02*
X274783333Y-176537200D01*
X274783333Y-176537200D02*
X274878571Y-176584819D01*
X274878571Y-176584819D02*
X275116666Y-176584819D01*
X275116666Y-176584819D02*
X275211904Y-176537200D01*
X275211904Y-176537200D02*
X275259523Y-176489580D01*
X280021904Y-176904819D02*
X280021904Y-175904819D01*
X279450476Y-176904819D02*
X279879047Y-176333390D01*
X279450476Y-175904819D02*
X280021904Y-176476247D01*
X238964285Y-176584819D02*
X238964285Y-175584819D01*
X238964285Y-175584819D02*
X238726190Y-175584819D01*
X238726190Y-175584819D02*
X238583333Y-175632438D01*
X238583333Y-175632438D02*
X238488095Y-175727676D01*
X238488095Y-175727676D02*
X238440476Y-175822914D01*
X238440476Y-175822914D02*
X238392857Y-176013390D01*
X238392857Y-176013390D02*
X238392857Y-176156247D01*
X238392857Y-176156247D02*
X238440476Y-176346723D01*
X238440476Y-176346723D02*
X238488095Y-176441961D01*
X238488095Y-176441961D02*
X238583333Y-176537200D01*
X238583333Y-176537200D02*
X238726190Y-176584819D01*
X238726190Y-176584819D02*
X238964285Y-176584819D01*
X238059523Y-175584819D02*
X237440476Y-175584819D01*
X237440476Y-175584819D02*
X237773809Y-175965771D01*
X237773809Y-175965771D02*
X237630952Y-175965771D01*
X237630952Y-175965771D02*
X237535714Y-176013390D01*
X237535714Y-176013390D02*
X237488095Y-176061009D01*
X237488095Y-176061009D02*
X237440476Y-176156247D01*
X237440476Y-176156247D02*
X237440476Y-176394342D01*
X237440476Y-176394342D02*
X237488095Y-176489580D01*
X237488095Y-176489580D02*
X237535714Y-176537200D01*
X237535714Y-176537200D02*
X237630952Y-176584819D01*
X237630952Y-176584819D02*
X237916666Y-176584819D01*
X237916666Y-176584819D02*
X238011904Y-176537200D01*
X238011904Y-176537200D02*
X238059523Y-176489580D01*
X237107142Y-175584819D02*
X236488095Y-175584819D01*
X236488095Y-175584819D02*
X236821428Y-175965771D01*
X236821428Y-175965771D02*
X236678571Y-175965771D01*
X236678571Y-175965771D02*
X236583333Y-176013390D01*
X236583333Y-176013390D02*
X236535714Y-176061009D01*
X236535714Y-176061009D02*
X236488095Y-176156247D01*
X236488095Y-176156247D02*
X236488095Y-176394342D01*
X236488095Y-176394342D02*
X236535714Y-176489580D01*
X236535714Y-176489580D02*
X236583333Y-176537200D01*
X236583333Y-176537200D02*
X236678571Y-176584819D01*
X236678571Y-176584819D02*
X236964285Y-176584819D01*
X236964285Y-176584819D02*
X237059523Y-176537200D01*
X237059523Y-176537200D02*
X237107142Y-176489580D01*
X241821904Y-176904819D02*
X241821904Y-175904819D01*
X241250476Y-176904819D02*
X241679047Y-176333390D01*
X241250476Y-175904819D02*
X241821904Y-176476247D01*
X200764285Y-195584819D02*
X200764285Y-194584819D01*
X200764285Y-194584819D02*
X200526190Y-194584819D01*
X200526190Y-194584819D02*
X200383333Y-194632438D01*
X200383333Y-194632438D02*
X200288095Y-194727676D01*
X200288095Y-194727676D02*
X200240476Y-194822914D01*
X200240476Y-194822914D02*
X200192857Y-195013390D01*
X200192857Y-195013390D02*
X200192857Y-195156247D01*
X200192857Y-195156247D02*
X200240476Y-195346723D01*
X200240476Y-195346723D02*
X200288095Y-195441961D01*
X200288095Y-195441961D02*
X200383333Y-195537200D01*
X200383333Y-195537200D02*
X200526190Y-195584819D01*
X200526190Y-195584819D02*
X200764285Y-195584819D01*
X199335714Y-194918152D02*
X199335714Y-195584819D01*
X199573809Y-194537200D02*
X199811904Y-195251485D01*
X199811904Y-195251485D02*
X199192857Y-195251485D01*
X198907142Y-194584819D02*
X198288095Y-194584819D01*
X198288095Y-194584819D02*
X198621428Y-194965771D01*
X198621428Y-194965771D02*
X198478571Y-194965771D01*
X198478571Y-194965771D02*
X198383333Y-195013390D01*
X198383333Y-195013390D02*
X198335714Y-195061009D01*
X198335714Y-195061009D02*
X198288095Y-195156247D01*
X198288095Y-195156247D02*
X198288095Y-195394342D01*
X198288095Y-195394342D02*
X198335714Y-195489580D01*
X198335714Y-195489580D02*
X198383333Y-195537200D01*
X198383333Y-195537200D02*
X198478571Y-195584819D01*
X198478571Y-195584819D02*
X198764285Y-195584819D01*
X198764285Y-195584819D02*
X198859523Y-195537200D01*
X198859523Y-195537200D02*
X198907142Y-195489580D01*
X203621904Y-195904819D02*
X203621904Y-194904819D01*
X203050476Y-195904819D02*
X203479047Y-195333390D01*
X203050476Y-194904819D02*
X203621904Y-195476247D01*
X238964285Y-157584819D02*
X238964285Y-156584819D01*
X238964285Y-156584819D02*
X238726190Y-156584819D01*
X238726190Y-156584819D02*
X238583333Y-156632438D01*
X238583333Y-156632438D02*
X238488095Y-156727676D01*
X238488095Y-156727676D02*
X238440476Y-156822914D01*
X238440476Y-156822914D02*
X238392857Y-157013390D01*
X238392857Y-157013390D02*
X238392857Y-157156247D01*
X238392857Y-157156247D02*
X238440476Y-157346723D01*
X238440476Y-157346723D02*
X238488095Y-157441961D01*
X238488095Y-157441961D02*
X238583333Y-157537200D01*
X238583333Y-157537200D02*
X238726190Y-157584819D01*
X238726190Y-157584819D02*
X238964285Y-157584819D01*
X238011904Y-156680057D02*
X237964285Y-156632438D01*
X237964285Y-156632438D02*
X237869047Y-156584819D01*
X237869047Y-156584819D02*
X237630952Y-156584819D01*
X237630952Y-156584819D02*
X237535714Y-156632438D01*
X237535714Y-156632438D02*
X237488095Y-156680057D01*
X237488095Y-156680057D02*
X237440476Y-156775295D01*
X237440476Y-156775295D02*
X237440476Y-156870533D01*
X237440476Y-156870533D02*
X237488095Y-157013390D01*
X237488095Y-157013390D02*
X238059523Y-157584819D01*
X238059523Y-157584819D02*
X237440476Y-157584819D01*
X236488095Y-157584819D02*
X237059523Y-157584819D01*
X236773809Y-157584819D02*
X236773809Y-156584819D01*
X236773809Y-156584819D02*
X236869047Y-156727676D01*
X236869047Y-156727676D02*
X236964285Y-156822914D01*
X236964285Y-156822914D02*
X237059523Y-156870533D01*
X241821904Y-157904819D02*
X241821904Y-156904819D01*
X241250476Y-157904819D02*
X241679047Y-157333390D01*
X241250476Y-156904819D02*
X241821904Y-157476247D01*
X162614285Y-157584819D02*
X162614285Y-156584819D01*
X162614285Y-156584819D02*
X162376190Y-156584819D01*
X162376190Y-156584819D02*
X162233333Y-156632438D01*
X162233333Y-156632438D02*
X162138095Y-156727676D01*
X162138095Y-156727676D02*
X162090476Y-156822914D01*
X162090476Y-156822914D02*
X162042857Y-157013390D01*
X162042857Y-157013390D02*
X162042857Y-157156247D01*
X162042857Y-157156247D02*
X162090476Y-157346723D01*
X162090476Y-157346723D02*
X162138095Y-157441961D01*
X162138095Y-157441961D02*
X162233333Y-157537200D01*
X162233333Y-157537200D02*
X162376190Y-157584819D01*
X162376190Y-157584819D02*
X162614285Y-157584819D01*
X161090476Y-157584819D02*
X161661904Y-157584819D01*
X161376190Y-157584819D02*
X161376190Y-156584819D01*
X161376190Y-156584819D02*
X161471428Y-156727676D01*
X161471428Y-156727676D02*
X161566666Y-156822914D01*
X161566666Y-156822914D02*
X161661904Y-156870533D01*
X160757142Y-156584819D02*
X160090476Y-156584819D01*
X160090476Y-156584819D02*
X160519047Y-157584819D01*
X165471904Y-157904819D02*
X165471904Y-156904819D01*
X164900476Y-157904819D02*
X165329047Y-157333390D01*
X164900476Y-156904819D02*
X165471904Y-157476247D01*
X258064285Y-214634819D02*
X258064285Y-213634819D01*
X258064285Y-213634819D02*
X257826190Y-213634819D01*
X257826190Y-213634819D02*
X257683333Y-213682438D01*
X257683333Y-213682438D02*
X257588095Y-213777676D01*
X257588095Y-213777676D02*
X257540476Y-213872914D01*
X257540476Y-213872914D02*
X257492857Y-214063390D01*
X257492857Y-214063390D02*
X257492857Y-214206247D01*
X257492857Y-214206247D02*
X257540476Y-214396723D01*
X257540476Y-214396723D02*
X257588095Y-214491961D01*
X257588095Y-214491961D02*
X257683333Y-214587200D01*
X257683333Y-214587200D02*
X257826190Y-214634819D01*
X257826190Y-214634819D02*
X258064285Y-214634819D01*
X256588095Y-213634819D02*
X257064285Y-213634819D01*
X257064285Y-213634819D02*
X257111904Y-214111009D01*
X257111904Y-214111009D02*
X257064285Y-214063390D01*
X257064285Y-214063390D02*
X256969047Y-214015771D01*
X256969047Y-214015771D02*
X256730952Y-214015771D01*
X256730952Y-214015771D02*
X256635714Y-214063390D01*
X256635714Y-214063390D02*
X256588095Y-214111009D01*
X256588095Y-214111009D02*
X256540476Y-214206247D01*
X256540476Y-214206247D02*
X256540476Y-214444342D01*
X256540476Y-214444342D02*
X256588095Y-214539580D01*
X256588095Y-214539580D02*
X256635714Y-214587200D01*
X256635714Y-214587200D02*
X256730952Y-214634819D01*
X256730952Y-214634819D02*
X256969047Y-214634819D01*
X256969047Y-214634819D02*
X257064285Y-214587200D01*
X257064285Y-214587200D02*
X257111904Y-214539580D01*
X255683333Y-213634819D02*
X255873809Y-213634819D01*
X255873809Y-213634819D02*
X255969047Y-213682438D01*
X255969047Y-213682438D02*
X256016666Y-213730057D01*
X256016666Y-213730057D02*
X256111904Y-213872914D01*
X256111904Y-213872914D02*
X256159523Y-214063390D01*
X256159523Y-214063390D02*
X256159523Y-214444342D01*
X256159523Y-214444342D02*
X256111904Y-214539580D01*
X256111904Y-214539580D02*
X256064285Y-214587200D01*
X256064285Y-214587200D02*
X255969047Y-214634819D01*
X255969047Y-214634819D02*
X255778571Y-214634819D01*
X255778571Y-214634819D02*
X255683333Y-214587200D01*
X255683333Y-214587200D02*
X255635714Y-214539580D01*
X255635714Y-214539580D02*
X255588095Y-214444342D01*
X255588095Y-214444342D02*
X255588095Y-214206247D01*
X255588095Y-214206247D02*
X255635714Y-214111009D01*
X255635714Y-214111009D02*
X255683333Y-214063390D01*
X255683333Y-214063390D02*
X255778571Y-214015771D01*
X255778571Y-214015771D02*
X255969047Y-214015771D01*
X255969047Y-214015771D02*
X256064285Y-214063390D01*
X256064285Y-214063390D02*
X256111904Y-214111009D01*
X256111904Y-214111009D02*
X256159523Y-214206247D01*
X260921904Y-214954819D02*
X260921904Y-213954819D01*
X260350476Y-214954819D02*
X260779047Y-214383390D01*
X260350476Y-213954819D02*
X260921904Y-214526247D01*
X277214285Y-157584819D02*
X277214285Y-156584819D01*
X277214285Y-156584819D02*
X276976190Y-156584819D01*
X276976190Y-156584819D02*
X276833333Y-156632438D01*
X276833333Y-156632438D02*
X276738095Y-156727676D01*
X276738095Y-156727676D02*
X276690476Y-156822914D01*
X276690476Y-156822914D02*
X276642857Y-157013390D01*
X276642857Y-157013390D02*
X276642857Y-157156247D01*
X276642857Y-157156247D02*
X276690476Y-157346723D01*
X276690476Y-157346723D02*
X276738095Y-157441961D01*
X276738095Y-157441961D02*
X276833333Y-157537200D01*
X276833333Y-157537200D02*
X276976190Y-157584819D01*
X276976190Y-157584819D02*
X277214285Y-157584819D01*
X276261904Y-156680057D02*
X276214285Y-156632438D01*
X276214285Y-156632438D02*
X276119047Y-156584819D01*
X276119047Y-156584819D02*
X275880952Y-156584819D01*
X275880952Y-156584819D02*
X275785714Y-156632438D01*
X275785714Y-156632438D02*
X275738095Y-156680057D01*
X275738095Y-156680057D02*
X275690476Y-156775295D01*
X275690476Y-156775295D02*
X275690476Y-156870533D01*
X275690476Y-156870533D02*
X275738095Y-157013390D01*
X275738095Y-157013390D02*
X276309523Y-157584819D01*
X276309523Y-157584819D02*
X275690476Y-157584819D01*
X275357142Y-156584819D02*
X274738095Y-156584819D01*
X274738095Y-156584819D02*
X275071428Y-156965771D01*
X275071428Y-156965771D02*
X274928571Y-156965771D01*
X274928571Y-156965771D02*
X274833333Y-157013390D01*
X274833333Y-157013390D02*
X274785714Y-157061009D01*
X274785714Y-157061009D02*
X274738095Y-157156247D01*
X274738095Y-157156247D02*
X274738095Y-157394342D01*
X274738095Y-157394342D02*
X274785714Y-157489580D01*
X274785714Y-157489580D02*
X274833333Y-157537200D01*
X274833333Y-157537200D02*
X274928571Y-157584819D01*
X274928571Y-157584819D02*
X275214285Y-157584819D01*
X275214285Y-157584819D02*
X275309523Y-157537200D01*
X275309523Y-157537200D02*
X275357142Y-157489580D01*
X280071904Y-157904819D02*
X280071904Y-156904819D01*
X279500476Y-157904819D02*
X279929047Y-157333390D01*
X279500476Y-156904819D02*
X280071904Y-157476247D01*
X296214285Y-138584819D02*
X296214285Y-137584819D01*
X296214285Y-137584819D02*
X295976190Y-137584819D01*
X295976190Y-137584819D02*
X295833333Y-137632438D01*
X295833333Y-137632438D02*
X295738095Y-137727676D01*
X295738095Y-137727676D02*
X295690476Y-137822914D01*
X295690476Y-137822914D02*
X295642857Y-138013390D01*
X295642857Y-138013390D02*
X295642857Y-138156247D01*
X295642857Y-138156247D02*
X295690476Y-138346723D01*
X295690476Y-138346723D02*
X295738095Y-138441961D01*
X295738095Y-138441961D02*
X295833333Y-138537200D01*
X295833333Y-138537200D02*
X295976190Y-138584819D01*
X295976190Y-138584819D02*
X296214285Y-138584819D01*
X294690476Y-138584819D02*
X295261904Y-138584819D01*
X294976190Y-138584819D02*
X294976190Y-137584819D01*
X294976190Y-137584819D02*
X295071428Y-137727676D01*
X295071428Y-137727676D02*
X295166666Y-137822914D01*
X295166666Y-137822914D02*
X295261904Y-137870533D01*
X294309523Y-137680057D02*
X294261904Y-137632438D01*
X294261904Y-137632438D02*
X294166666Y-137584819D01*
X294166666Y-137584819D02*
X293928571Y-137584819D01*
X293928571Y-137584819D02*
X293833333Y-137632438D01*
X293833333Y-137632438D02*
X293785714Y-137680057D01*
X293785714Y-137680057D02*
X293738095Y-137775295D01*
X293738095Y-137775295D02*
X293738095Y-137870533D01*
X293738095Y-137870533D02*
X293785714Y-138013390D01*
X293785714Y-138013390D02*
X294357142Y-138584819D01*
X294357142Y-138584819D02*
X293738095Y-138584819D01*
X299071904Y-138904819D02*
X299071904Y-137904819D01*
X298500476Y-138904819D02*
X298929047Y-138333390D01*
X298500476Y-137904819D02*
X299071904Y-138476247D01*
X105464285Y-195584819D02*
X105464285Y-194584819D01*
X105464285Y-194584819D02*
X105226190Y-194584819D01*
X105226190Y-194584819D02*
X105083333Y-194632438D01*
X105083333Y-194632438D02*
X104988095Y-194727676D01*
X104988095Y-194727676D02*
X104940476Y-194822914D01*
X104940476Y-194822914D02*
X104892857Y-195013390D01*
X104892857Y-195013390D02*
X104892857Y-195156247D01*
X104892857Y-195156247D02*
X104940476Y-195346723D01*
X104940476Y-195346723D02*
X104988095Y-195441961D01*
X104988095Y-195441961D02*
X105083333Y-195537200D01*
X105083333Y-195537200D02*
X105226190Y-195584819D01*
X105226190Y-195584819D02*
X105464285Y-195584819D01*
X104559523Y-194584819D02*
X103940476Y-194584819D01*
X103940476Y-194584819D02*
X104273809Y-194965771D01*
X104273809Y-194965771D02*
X104130952Y-194965771D01*
X104130952Y-194965771D02*
X104035714Y-195013390D01*
X104035714Y-195013390D02*
X103988095Y-195061009D01*
X103988095Y-195061009D02*
X103940476Y-195156247D01*
X103940476Y-195156247D02*
X103940476Y-195394342D01*
X103940476Y-195394342D02*
X103988095Y-195489580D01*
X103988095Y-195489580D02*
X104035714Y-195537200D01*
X104035714Y-195537200D02*
X104130952Y-195584819D01*
X104130952Y-195584819D02*
X104416666Y-195584819D01*
X104416666Y-195584819D02*
X104511904Y-195537200D01*
X104511904Y-195537200D02*
X104559523Y-195489580D01*
X103369047Y-195013390D02*
X103464285Y-194965771D01*
X103464285Y-194965771D02*
X103511904Y-194918152D01*
X103511904Y-194918152D02*
X103559523Y-194822914D01*
X103559523Y-194822914D02*
X103559523Y-194775295D01*
X103559523Y-194775295D02*
X103511904Y-194680057D01*
X103511904Y-194680057D02*
X103464285Y-194632438D01*
X103464285Y-194632438D02*
X103369047Y-194584819D01*
X103369047Y-194584819D02*
X103178571Y-194584819D01*
X103178571Y-194584819D02*
X103083333Y-194632438D01*
X103083333Y-194632438D02*
X103035714Y-194680057D01*
X103035714Y-194680057D02*
X102988095Y-194775295D01*
X102988095Y-194775295D02*
X102988095Y-194822914D01*
X102988095Y-194822914D02*
X103035714Y-194918152D01*
X103035714Y-194918152D02*
X103083333Y-194965771D01*
X103083333Y-194965771D02*
X103178571Y-195013390D01*
X103178571Y-195013390D02*
X103369047Y-195013390D01*
X103369047Y-195013390D02*
X103464285Y-195061009D01*
X103464285Y-195061009D02*
X103511904Y-195108628D01*
X103511904Y-195108628D02*
X103559523Y-195203866D01*
X103559523Y-195203866D02*
X103559523Y-195394342D01*
X103559523Y-195394342D02*
X103511904Y-195489580D01*
X103511904Y-195489580D02*
X103464285Y-195537200D01*
X103464285Y-195537200D02*
X103369047Y-195584819D01*
X103369047Y-195584819D02*
X103178571Y-195584819D01*
X103178571Y-195584819D02*
X103083333Y-195537200D01*
X103083333Y-195537200D02*
X103035714Y-195489580D01*
X103035714Y-195489580D02*
X102988095Y-195394342D01*
X102988095Y-195394342D02*
X102988095Y-195203866D01*
X102988095Y-195203866D02*
X103035714Y-195108628D01*
X103035714Y-195108628D02*
X103083333Y-195061009D01*
X103083333Y-195061009D02*
X103178571Y-195013390D01*
X108321904Y-195904819D02*
X108321904Y-194904819D01*
X107750476Y-195904819D02*
X108179047Y-195333390D01*
X107750476Y-194904819D02*
X108321904Y-195476247D01*
X200764285Y-176584819D02*
X200764285Y-175584819D01*
X200764285Y-175584819D02*
X200526190Y-175584819D01*
X200526190Y-175584819D02*
X200383333Y-175632438D01*
X200383333Y-175632438D02*
X200288095Y-175727676D01*
X200288095Y-175727676D02*
X200240476Y-175822914D01*
X200240476Y-175822914D02*
X200192857Y-176013390D01*
X200192857Y-176013390D02*
X200192857Y-176156247D01*
X200192857Y-176156247D02*
X200240476Y-176346723D01*
X200240476Y-176346723D02*
X200288095Y-176441961D01*
X200288095Y-176441961D02*
X200383333Y-176537200D01*
X200383333Y-176537200D02*
X200526190Y-176584819D01*
X200526190Y-176584819D02*
X200764285Y-176584819D01*
X199859523Y-175584819D02*
X199240476Y-175584819D01*
X199240476Y-175584819D02*
X199573809Y-175965771D01*
X199573809Y-175965771D02*
X199430952Y-175965771D01*
X199430952Y-175965771D02*
X199335714Y-176013390D01*
X199335714Y-176013390D02*
X199288095Y-176061009D01*
X199288095Y-176061009D02*
X199240476Y-176156247D01*
X199240476Y-176156247D02*
X199240476Y-176394342D01*
X199240476Y-176394342D02*
X199288095Y-176489580D01*
X199288095Y-176489580D02*
X199335714Y-176537200D01*
X199335714Y-176537200D02*
X199430952Y-176584819D01*
X199430952Y-176584819D02*
X199716666Y-176584819D01*
X199716666Y-176584819D02*
X199811904Y-176537200D01*
X199811904Y-176537200D02*
X199859523Y-176489580D01*
X198288095Y-176584819D02*
X198859523Y-176584819D01*
X198573809Y-176584819D02*
X198573809Y-175584819D01*
X198573809Y-175584819D02*
X198669047Y-175727676D01*
X198669047Y-175727676D02*
X198764285Y-175822914D01*
X198764285Y-175822914D02*
X198859523Y-175870533D01*
X203621904Y-176904819D02*
X203621904Y-175904819D01*
X203050476Y-176904819D02*
X203479047Y-176333390D01*
X203050476Y-175904819D02*
X203621904Y-176476247D01*
X124514285Y-214584819D02*
X124514285Y-213584819D01*
X124514285Y-213584819D02*
X124276190Y-213584819D01*
X124276190Y-213584819D02*
X124133333Y-213632438D01*
X124133333Y-213632438D02*
X124038095Y-213727676D01*
X124038095Y-213727676D02*
X123990476Y-213822914D01*
X123990476Y-213822914D02*
X123942857Y-214013390D01*
X123942857Y-214013390D02*
X123942857Y-214156247D01*
X123942857Y-214156247D02*
X123990476Y-214346723D01*
X123990476Y-214346723D02*
X124038095Y-214441961D01*
X124038095Y-214441961D02*
X124133333Y-214537200D01*
X124133333Y-214537200D02*
X124276190Y-214584819D01*
X124276190Y-214584819D02*
X124514285Y-214584819D01*
X123038095Y-213584819D02*
X123514285Y-213584819D01*
X123514285Y-213584819D02*
X123561904Y-214061009D01*
X123561904Y-214061009D02*
X123514285Y-214013390D01*
X123514285Y-214013390D02*
X123419047Y-213965771D01*
X123419047Y-213965771D02*
X123180952Y-213965771D01*
X123180952Y-213965771D02*
X123085714Y-214013390D01*
X123085714Y-214013390D02*
X123038095Y-214061009D01*
X123038095Y-214061009D02*
X122990476Y-214156247D01*
X122990476Y-214156247D02*
X122990476Y-214394342D01*
X122990476Y-214394342D02*
X123038095Y-214489580D01*
X123038095Y-214489580D02*
X123085714Y-214537200D01*
X123085714Y-214537200D02*
X123180952Y-214584819D01*
X123180952Y-214584819D02*
X123419047Y-214584819D01*
X123419047Y-214584819D02*
X123514285Y-214537200D01*
X123514285Y-214537200D02*
X123561904Y-214489580D01*
X122038095Y-214584819D02*
X122609523Y-214584819D01*
X122323809Y-214584819D02*
X122323809Y-213584819D01*
X122323809Y-213584819D02*
X122419047Y-213727676D01*
X122419047Y-213727676D02*
X122514285Y-213822914D01*
X122514285Y-213822914D02*
X122609523Y-213870533D01*
X127371904Y-214904819D02*
X127371904Y-213904819D01*
X126800476Y-214904819D02*
X127229047Y-214333390D01*
X126800476Y-213904819D02*
X127371904Y-214476247D01*
X143614285Y-195584819D02*
X143614285Y-194584819D01*
X143614285Y-194584819D02*
X143376190Y-194584819D01*
X143376190Y-194584819D02*
X143233333Y-194632438D01*
X143233333Y-194632438D02*
X143138095Y-194727676D01*
X143138095Y-194727676D02*
X143090476Y-194822914D01*
X143090476Y-194822914D02*
X143042857Y-195013390D01*
X143042857Y-195013390D02*
X143042857Y-195156247D01*
X143042857Y-195156247D02*
X143090476Y-195346723D01*
X143090476Y-195346723D02*
X143138095Y-195441961D01*
X143138095Y-195441961D02*
X143233333Y-195537200D01*
X143233333Y-195537200D02*
X143376190Y-195584819D01*
X143376190Y-195584819D02*
X143614285Y-195584819D01*
X142185714Y-194918152D02*
X142185714Y-195584819D01*
X142423809Y-194537200D02*
X142661904Y-195251485D01*
X142661904Y-195251485D02*
X142042857Y-195251485D01*
X141471428Y-194584819D02*
X141376190Y-194584819D01*
X141376190Y-194584819D02*
X141280952Y-194632438D01*
X141280952Y-194632438D02*
X141233333Y-194680057D01*
X141233333Y-194680057D02*
X141185714Y-194775295D01*
X141185714Y-194775295D02*
X141138095Y-194965771D01*
X141138095Y-194965771D02*
X141138095Y-195203866D01*
X141138095Y-195203866D02*
X141185714Y-195394342D01*
X141185714Y-195394342D02*
X141233333Y-195489580D01*
X141233333Y-195489580D02*
X141280952Y-195537200D01*
X141280952Y-195537200D02*
X141376190Y-195584819D01*
X141376190Y-195584819D02*
X141471428Y-195584819D01*
X141471428Y-195584819D02*
X141566666Y-195537200D01*
X141566666Y-195537200D02*
X141614285Y-195489580D01*
X141614285Y-195489580D02*
X141661904Y-195394342D01*
X141661904Y-195394342D02*
X141709523Y-195203866D01*
X141709523Y-195203866D02*
X141709523Y-194965771D01*
X141709523Y-194965771D02*
X141661904Y-194775295D01*
X141661904Y-194775295D02*
X141614285Y-194680057D01*
X141614285Y-194680057D02*
X141566666Y-194632438D01*
X141566666Y-194632438D02*
X141471428Y-194584819D01*
X146471904Y-195904819D02*
X146471904Y-194904819D01*
X145900476Y-195904819D02*
X146329047Y-195333390D01*
X145900476Y-194904819D02*
X146471904Y-195476247D01*
X315414285Y-176584819D02*
X315414285Y-175584819D01*
X315414285Y-175584819D02*
X315176190Y-175584819D01*
X315176190Y-175584819D02*
X315033333Y-175632438D01*
X315033333Y-175632438D02*
X314938095Y-175727676D01*
X314938095Y-175727676D02*
X314890476Y-175822914D01*
X314890476Y-175822914D02*
X314842857Y-176013390D01*
X314842857Y-176013390D02*
X314842857Y-176156247D01*
X314842857Y-176156247D02*
X314890476Y-176346723D01*
X314890476Y-176346723D02*
X314938095Y-176441961D01*
X314938095Y-176441961D02*
X315033333Y-176537200D01*
X315033333Y-176537200D02*
X315176190Y-176584819D01*
X315176190Y-176584819D02*
X315414285Y-176584819D01*
X314509523Y-175584819D02*
X313890476Y-175584819D01*
X313890476Y-175584819D02*
X314223809Y-175965771D01*
X314223809Y-175965771D02*
X314080952Y-175965771D01*
X314080952Y-175965771D02*
X313985714Y-176013390D01*
X313985714Y-176013390D02*
X313938095Y-176061009D01*
X313938095Y-176061009D02*
X313890476Y-176156247D01*
X313890476Y-176156247D02*
X313890476Y-176394342D01*
X313890476Y-176394342D02*
X313938095Y-176489580D01*
X313938095Y-176489580D02*
X313985714Y-176537200D01*
X313985714Y-176537200D02*
X314080952Y-176584819D01*
X314080952Y-176584819D02*
X314366666Y-176584819D01*
X314366666Y-176584819D02*
X314461904Y-176537200D01*
X314461904Y-176537200D02*
X314509523Y-176489580D01*
X313557142Y-175584819D02*
X312890476Y-175584819D01*
X312890476Y-175584819D02*
X313319047Y-176584819D01*
X318271904Y-176904819D02*
X318271904Y-175904819D01*
X317700476Y-176904819D02*
X318129047Y-176333390D01*
X317700476Y-175904819D02*
X318271904Y-176476247D01*
X124564285Y-195584819D02*
X124564285Y-194584819D01*
X124564285Y-194584819D02*
X124326190Y-194584819D01*
X124326190Y-194584819D02*
X124183333Y-194632438D01*
X124183333Y-194632438D02*
X124088095Y-194727676D01*
X124088095Y-194727676D02*
X124040476Y-194822914D01*
X124040476Y-194822914D02*
X123992857Y-195013390D01*
X123992857Y-195013390D02*
X123992857Y-195156247D01*
X123992857Y-195156247D02*
X124040476Y-195346723D01*
X124040476Y-195346723D02*
X124088095Y-195441961D01*
X124088095Y-195441961D02*
X124183333Y-195537200D01*
X124183333Y-195537200D02*
X124326190Y-195584819D01*
X124326190Y-195584819D02*
X124564285Y-195584819D01*
X123659523Y-194584819D02*
X123040476Y-194584819D01*
X123040476Y-194584819D02*
X123373809Y-194965771D01*
X123373809Y-194965771D02*
X123230952Y-194965771D01*
X123230952Y-194965771D02*
X123135714Y-195013390D01*
X123135714Y-195013390D02*
X123088095Y-195061009D01*
X123088095Y-195061009D02*
X123040476Y-195156247D01*
X123040476Y-195156247D02*
X123040476Y-195394342D01*
X123040476Y-195394342D02*
X123088095Y-195489580D01*
X123088095Y-195489580D02*
X123135714Y-195537200D01*
X123135714Y-195537200D02*
X123230952Y-195584819D01*
X123230952Y-195584819D02*
X123516666Y-195584819D01*
X123516666Y-195584819D02*
X123611904Y-195537200D01*
X123611904Y-195537200D02*
X123659523Y-195489580D01*
X122564285Y-195584819D02*
X122373809Y-195584819D01*
X122373809Y-195584819D02*
X122278571Y-195537200D01*
X122278571Y-195537200D02*
X122230952Y-195489580D01*
X122230952Y-195489580D02*
X122135714Y-195346723D01*
X122135714Y-195346723D02*
X122088095Y-195156247D01*
X122088095Y-195156247D02*
X122088095Y-194775295D01*
X122088095Y-194775295D02*
X122135714Y-194680057D01*
X122135714Y-194680057D02*
X122183333Y-194632438D01*
X122183333Y-194632438D02*
X122278571Y-194584819D01*
X122278571Y-194584819D02*
X122469047Y-194584819D01*
X122469047Y-194584819D02*
X122564285Y-194632438D01*
X122564285Y-194632438D02*
X122611904Y-194680057D01*
X122611904Y-194680057D02*
X122659523Y-194775295D01*
X122659523Y-194775295D02*
X122659523Y-195013390D01*
X122659523Y-195013390D02*
X122611904Y-195108628D01*
X122611904Y-195108628D02*
X122564285Y-195156247D01*
X122564285Y-195156247D02*
X122469047Y-195203866D01*
X122469047Y-195203866D02*
X122278571Y-195203866D01*
X122278571Y-195203866D02*
X122183333Y-195156247D01*
X122183333Y-195156247D02*
X122135714Y-195108628D01*
X122135714Y-195108628D02*
X122088095Y-195013390D01*
X127421904Y-195904819D02*
X127421904Y-194904819D01*
X126850476Y-195904819D02*
X127279047Y-195333390D01*
X126850476Y-194904819D02*
X127421904Y-195476247D01*
X238964285Y-195584819D02*
X238964285Y-194584819D01*
X238964285Y-194584819D02*
X238726190Y-194584819D01*
X238726190Y-194584819D02*
X238583333Y-194632438D01*
X238583333Y-194632438D02*
X238488095Y-194727676D01*
X238488095Y-194727676D02*
X238440476Y-194822914D01*
X238440476Y-194822914D02*
X238392857Y-195013390D01*
X238392857Y-195013390D02*
X238392857Y-195156247D01*
X238392857Y-195156247D02*
X238440476Y-195346723D01*
X238440476Y-195346723D02*
X238488095Y-195441961D01*
X238488095Y-195441961D02*
X238583333Y-195537200D01*
X238583333Y-195537200D02*
X238726190Y-195584819D01*
X238726190Y-195584819D02*
X238964285Y-195584819D01*
X237535714Y-194918152D02*
X237535714Y-195584819D01*
X237773809Y-194537200D02*
X238011904Y-195251485D01*
X238011904Y-195251485D02*
X237392857Y-195251485D01*
X236535714Y-194584819D02*
X237011904Y-194584819D01*
X237011904Y-194584819D02*
X237059523Y-195061009D01*
X237059523Y-195061009D02*
X237011904Y-195013390D01*
X237011904Y-195013390D02*
X236916666Y-194965771D01*
X236916666Y-194965771D02*
X236678571Y-194965771D01*
X236678571Y-194965771D02*
X236583333Y-195013390D01*
X236583333Y-195013390D02*
X236535714Y-195061009D01*
X236535714Y-195061009D02*
X236488095Y-195156247D01*
X236488095Y-195156247D02*
X236488095Y-195394342D01*
X236488095Y-195394342D02*
X236535714Y-195489580D01*
X236535714Y-195489580D02*
X236583333Y-195537200D01*
X236583333Y-195537200D02*
X236678571Y-195584819D01*
X236678571Y-195584819D02*
X236916666Y-195584819D01*
X236916666Y-195584819D02*
X237011904Y-195537200D01*
X237011904Y-195537200D02*
X237059523Y-195489580D01*
X241821904Y-195904819D02*
X241821904Y-194904819D01*
X241250476Y-195904819D02*
X241679047Y-195333390D01*
X241250476Y-194904819D02*
X241821904Y-195476247D01*
X296214285Y-176584819D02*
X296214285Y-175584819D01*
X296214285Y-175584819D02*
X295976190Y-175584819D01*
X295976190Y-175584819D02*
X295833333Y-175632438D01*
X295833333Y-175632438D02*
X295738095Y-175727676D01*
X295738095Y-175727676D02*
X295690476Y-175822914D01*
X295690476Y-175822914D02*
X295642857Y-176013390D01*
X295642857Y-176013390D02*
X295642857Y-176156247D01*
X295642857Y-176156247D02*
X295690476Y-176346723D01*
X295690476Y-176346723D02*
X295738095Y-176441961D01*
X295738095Y-176441961D02*
X295833333Y-176537200D01*
X295833333Y-176537200D02*
X295976190Y-176584819D01*
X295976190Y-176584819D02*
X296214285Y-176584819D01*
X295309523Y-175584819D02*
X294690476Y-175584819D01*
X294690476Y-175584819D02*
X295023809Y-175965771D01*
X295023809Y-175965771D02*
X294880952Y-175965771D01*
X294880952Y-175965771D02*
X294785714Y-176013390D01*
X294785714Y-176013390D02*
X294738095Y-176061009D01*
X294738095Y-176061009D02*
X294690476Y-176156247D01*
X294690476Y-176156247D02*
X294690476Y-176394342D01*
X294690476Y-176394342D02*
X294738095Y-176489580D01*
X294738095Y-176489580D02*
X294785714Y-176537200D01*
X294785714Y-176537200D02*
X294880952Y-176584819D01*
X294880952Y-176584819D02*
X295166666Y-176584819D01*
X295166666Y-176584819D02*
X295261904Y-176537200D01*
X295261904Y-176537200D02*
X295309523Y-176489580D01*
X293833333Y-175584819D02*
X294023809Y-175584819D01*
X294023809Y-175584819D02*
X294119047Y-175632438D01*
X294119047Y-175632438D02*
X294166666Y-175680057D01*
X294166666Y-175680057D02*
X294261904Y-175822914D01*
X294261904Y-175822914D02*
X294309523Y-176013390D01*
X294309523Y-176013390D02*
X294309523Y-176394342D01*
X294309523Y-176394342D02*
X294261904Y-176489580D01*
X294261904Y-176489580D02*
X294214285Y-176537200D01*
X294214285Y-176537200D02*
X294119047Y-176584819D01*
X294119047Y-176584819D02*
X293928571Y-176584819D01*
X293928571Y-176584819D02*
X293833333Y-176537200D01*
X293833333Y-176537200D02*
X293785714Y-176489580D01*
X293785714Y-176489580D02*
X293738095Y-176394342D01*
X293738095Y-176394342D02*
X293738095Y-176156247D01*
X293738095Y-176156247D02*
X293785714Y-176061009D01*
X293785714Y-176061009D02*
X293833333Y-176013390D01*
X293833333Y-176013390D02*
X293928571Y-175965771D01*
X293928571Y-175965771D02*
X294119047Y-175965771D01*
X294119047Y-175965771D02*
X294214285Y-176013390D01*
X294214285Y-176013390D02*
X294261904Y-176061009D01*
X294261904Y-176061009D02*
X294309523Y-176156247D01*
X299071904Y-176904819D02*
X299071904Y-175904819D01*
X298500476Y-176904819D02*
X298929047Y-176333390D01*
X298500476Y-175904819D02*
X299071904Y-176476247D01*
X315414285Y-214584819D02*
X315414285Y-213584819D01*
X315414285Y-213584819D02*
X315176190Y-213584819D01*
X315176190Y-213584819D02*
X315033333Y-213632438D01*
X315033333Y-213632438D02*
X314938095Y-213727676D01*
X314938095Y-213727676D02*
X314890476Y-213822914D01*
X314890476Y-213822914D02*
X314842857Y-214013390D01*
X314842857Y-214013390D02*
X314842857Y-214156247D01*
X314842857Y-214156247D02*
X314890476Y-214346723D01*
X314890476Y-214346723D02*
X314938095Y-214441961D01*
X314938095Y-214441961D02*
X315033333Y-214537200D01*
X315033333Y-214537200D02*
X315176190Y-214584819D01*
X315176190Y-214584819D02*
X315414285Y-214584819D01*
X313938095Y-213584819D02*
X314414285Y-213584819D01*
X314414285Y-213584819D02*
X314461904Y-214061009D01*
X314461904Y-214061009D02*
X314414285Y-214013390D01*
X314414285Y-214013390D02*
X314319047Y-213965771D01*
X314319047Y-213965771D02*
X314080952Y-213965771D01*
X314080952Y-213965771D02*
X313985714Y-214013390D01*
X313985714Y-214013390D02*
X313938095Y-214061009D01*
X313938095Y-214061009D02*
X313890476Y-214156247D01*
X313890476Y-214156247D02*
X313890476Y-214394342D01*
X313890476Y-214394342D02*
X313938095Y-214489580D01*
X313938095Y-214489580D02*
X313985714Y-214537200D01*
X313985714Y-214537200D02*
X314080952Y-214584819D01*
X314080952Y-214584819D02*
X314319047Y-214584819D01*
X314319047Y-214584819D02*
X314414285Y-214537200D01*
X314414285Y-214537200D02*
X314461904Y-214489580D01*
X313414285Y-214584819D02*
X313223809Y-214584819D01*
X313223809Y-214584819D02*
X313128571Y-214537200D01*
X313128571Y-214537200D02*
X313080952Y-214489580D01*
X313080952Y-214489580D02*
X312985714Y-214346723D01*
X312985714Y-214346723D02*
X312938095Y-214156247D01*
X312938095Y-214156247D02*
X312938095Y-213775295D01*
X312938095Y-213775295D02*
X312985714Y-213680057D01*
X312985714Y-213680057D02*
X313033333Y-213632438D01*
X313033333Y-213632438D02*
X313128571Y-213584819D01*
X313128571Y-213584819D02*
X313319047Y-213584819D01*
X313319047Y-213584819D02*
X313414285Y-213632438D01*
X313414285Y-213632438D02*
X313461904Y-213680057D01*
X313461904Y-213680057D02*
X313509523Y-213775295D01*
X313509523Y-213775295D02*
X313509523Y-214013390D01*
X313509523Y-214013390D02*
X313461904Y-214108628D01*
X313461904Y-214108628D02*
X313414285Y-214156247D01*
X313414285Y-214156247D02*
X313319047Y-214203866D01*
X313319047Y-214203866D02*
X313128571Y-214203866D01*
X313128571Y-214203866D02*
X313033333Y-214156247D01*
X313033333Y-214156247D02*
X312985714Y-214108628D01*
X312985714Y-214108628D02*
X312938095Y-214013390D01*
X318271904Y-214904819D02*
X318271904Y-213904819D01*
X317700476Y-214904819D02*
X318129047Y-214333390D01*
X317700476Y-213904819D02*
X318271904Y-214476247D01*
X200298094Y-138584819D02*
X200298094Y-137584819D01*
X200298094Y-137584819D02*
X200059999Y-137584819D01*
X200059999Y-137584819D02*
X199917142Y-137632438D01*
X199917142Y-137632438D02*
X199821904Y-137727676D01*
X199821904Y-137727676D02*
X199774285Y-137822914D01*
X199774285Y-137822914D02*
X199726666Y-138013390D01*
X199726666Y-138013390D02*
X199726666Y-138156247D01*
X199726666Y-138156247D02*
X199774285Y-138346723D01*
X199774285Y-138346723D02*
X199821904Y-138441961D01*
X199821904Y-138441961D02*
X199917142Y-138537200D01*
X199917142Y-138537200D02*
X200059999Y-138584819D01*
X200059999Y-138584819D02*
X200298094Y-138584819D01*
X199393332Y-137584819D02*
X198726666Y-137584819D01*
X198726666Y-137584819D02*
X199155237Y-138584819D01*
X203631904Y-138904819D02*
X203631904Y-137904819D01*
X203060476Y-138904819D02*
X203489047Y-138333390D01*
X203060476Y-137904819D02*
X203631904Y-138476247D01*
X311616666Y-105459819D02*
X311949999Y-104983628D01*
X312188094Y-105459819D02*
X312188094Y-104459819D01*
X312188094Y-104459819D02*
X311807142Y-104459819D01*
X311807142Y-104459819D02*
X311711904Y-104507438D01*
X311711904Y-104507438D02*
X311664285Y-104555057D01*
X311664285Y-104555057D02*
X311616666Y-104650295D01*
X311616666Y-104650295D02*
X311616666Y-104793152D01*
X311616666Y-104793152D02*
X311664285Y-104888390D01*
X311664285Y-104888390D02*
X311711904Y-104936009D01*
X311711904Y-104936009D02*
X311807142Y-104983628D01*
X311807142Y-104983628D02*
X312188094Y-104983628D01*
X311235713Y-104555057D02*
X311188094Y-104507438D01*
X311188094Y-104507438D02*
X311092856Y-104459819D01*
X311092856Y-104459819D02*
X310854761Y-104459819D01*
X310854761Y-104459819D02*
X310759523Y-104507438D01*
X310759523Y-104507438D02*
X310711904Y-104555057D01*
X310711904Y-104555057D02*
X310664285Y-104650295D01*
X310664285Y-104650295D02*
X310664285Y-104745533D01*
X310664285Y-104745533D02*
X310711904Y-104888390D01*
X310711904Y-104888390D02*
X311283332Y-105459819D01*
X311283332Y-105459819D02*
X310664285Y-105459819D01*
X219438094Y-138584819D02*
X219438094Y-137584819D01*
X219438094Y-137584819D02*
X219199999Y-137584819D01*
X219199999Y-137584819D02*
X219057142Y-137632438D01*
X219057142Y-137632438D02*
X218961904Y-137727676D01*
X218961904Y-137727676D02*
X218914285Y-137822914D01*
X218914285Y-137822914D02*
X218866666Y-138013390D01*
X218866666Y-138013390D02*
X218866666Y-138156247D01*
X218866666Y-138156247D02*
X218914285Y-138346723D01*
X218914285Y-138346723D02*
X218961904Y-138441961D01*
X218961904Y-138441961D02*
X219057142Y-138537200D01*
X219057142Y-138537200D02*
X219199999Y-138584819D01*
X219199999Y-138584819D02*
X219438094Y-138584819D01*
X218295237Y-138013390D02*
X218390475Y-137965771D01*
X218390475Y-137965771D02*
X218438094Y-137918152D01*
X218438094Y-137918152D02*
X218485713Y-137822914D01*
X218485713Y-137822914D02*
X218485713Y-137775295D01*
X218485713Y-137775295D02*
X218438094Y-137680057D01*
X218438094Y-137680057D02*
X218390475Y-137632438D01*
X218390475Y-137632438D02*
X218295237Y-137584819D01*
X218295237Y-137584819D02*
X218104761Y-137584819D01*
X218104761Y-137584819D02*
X218009523Y-137632438D01*
X218009523Y-137632438D02*
X217961904Y-137680057D01*
X217961904Y-137680057D02*
X217914285Y-137775295D01*
X217914285Y-137775295D02*
X217914285Y-137822914D01*
X217914285Y-137822914D02*
X217961904Y-137918152D01*
X217961904Y-137918152D02*
X218009523Y-137965771D01*
X218009523Y-137965771D02*
X218104761Y-138013390D01*
X218104761Y-138013390D02*
X218295237Y-138013390D01*
X218295237Y-138013390D02*
X218390475Y-138061009D01*
X218390475Y-138061009D02*
X218438094Y-138108628D01*
X218438094Y-138108628D02*
X218485713Y-138203866D01*
X218485713Y-138203866D02*
X218485713Y-138394342D01*
X218485713Y-138394342D02*
X218438094Y-138489580D01*
X218438094Y-138489580D02*
X218390475Y-138537200D01*
X218390475Y-138537200D02*
X218295237Y-138584819D01*
X218295237Y-138584819D02*
X218104761Y-138584819D01*
X218104761Y-138584819D02*
X218009523Y-138537200D01*
X218009523Y-138537200D02*
X217961904Y-138489580D01*
X217961904Y-138489580D02*
X217914285Y-138394342D01*
X217914285Y-138394342D02*
X217914285Y-138203866D01*
X217914285Y-138203866D02*
X217961904Y-138108628D01*
X217961904Y-138108628D02*
X218009523Y-138061009D01*
X218009523Y-138061009D02*
X218104761Y-138013390D01*
X222771904Y-138904819D02*
X222771904Y-137904819D01*
X222200476Y-138904819D02*
X222629047Y-138333390D01*
X222200476Y-137904819D02*
X222771904Y-138476247D01*
X258064285Y-195584819D02*
X258064285Y-194584819D01*
X258064285Y-194584819D02*
X257826190Y-194584819D01*
X257826190Y-194584819D02*
X257683333Y-194632438D01*
X257683333Y-194632438D02*
X257588095Y-194727676D01*
X257588095Y-194727676D02*
X257540476Y-194822914D01*
X257540476Y-194822914D02*
X257492857Y-195013390D01*
X257492857Y-195013390D02*
X257492857Y-195156247D01*
X257492857Y-195156247D02*
X257540476Y-195346723D01*
X257540476Y-195346723D02*
X257588095Y-195441961D01*
X257588095Y-195441961D02*
X257683333Y-195537200D01*
X257683333Y-195537200D02*
X257826190Y-195584819D01*
X257826190Y-195584819D02*
X258064285Y-195584819D01*
X256635714Y-194918152D02*
X256635714Y-195584819D01*
X256873809Y-194537200D02*
X257111904Y-195251485D01*
X257111904Y-195251485D02*
X256492857Y-195251485D01*
X255683333Y-194584819D02*
X255873809Y-194584819D01*
X255873809Y-194584819D02*
X255969047Y-194632438D01*
X255969047Y-194632438D02*
X256016666Y-194680057D01*
X256016666Y-194680057D02*
X256111904Y-194822914D01*
X256111904Y-194822914D02*
X256159523Y-195013390D01*
X256159523Y-195013390D02*
X256159523Y-195394342D01*
X256159523Y-195394342D02*
X256111904Y-195489580D01*
X256111904Y-195489580D02*
X256064285Y-195537200D01*
X256064285Y-195537200D02*
X255969047Y-195584819D01*
X255969047Y-195584819D02*
X255778571Y-195584819D01*
X255778571Y-195584819D02*
X255683333Y-195537200D01*
X255683333Y-195537200D02*
X255635714Y-195489580D01*
X255635714Y-195489580D02*
X255588095Y-195394342D01*
X255588095Y-195394342D02*
X255588095Y-195156247D01*
X255588095Y-195156247D02*
X255635714Y-195061009D01*
X255635714Y-195061009D02*
X255683333Y-195013390D01*
X255683333Y-195013390D02*
X255778571Y-194965771D01*
X255778571Y-194965771D02*
X255969047Y-194965771D01*
X255969047Y-194965771D02*
X256064285Y-195013390D01*
X256064285Y-195013390D02*
X256111904Y-195061009D01*
X256111904Y-195061009D02*
X256159523Y-195156247D01*
X260921904Y-195904819D02*
X260921904Y-194904819D01*
X260350476Y-195904819D02*
X260779047Y-195333390D01*
X260350476Y-194904819D02*
X260921904Y-195476247D01*
X229414285Y-214584819D02*
X229414285Y-213584819D01*
X229414285Y-213584819D02*
X229176190Y-213584819D01*
X229176190Y-213584819D02*
X229033333Y-213632438D01*
X229033333Y-213632438D02*
X228938095Y-213727676D01*
X228938095Y-213727676D02*
X228890476Y-213822914D01*
X228890476Y-213822914D02*
X228842857Y-214013390D01*
X228842857Y-214013390D02*
X228842857Y-214156247D01*
X228842857Y-214156247D02*
X228890476Y-214346723D01*
X228890476Y-214346723D02*
X228938095Y-214441961D01*
X228938095Y-214441961D02*
X229033333Y-214537200D01*
X229033333Y-214537200D02*
X229176190Y-214584819D01*
X229176190Y-214584819D02*
X229414285Y-214584819D01*
X227938095Y-213584819D02*
X228414285Y-213584819D01*
X228414285Y-213584819D02*
X228461904Y-214061009D01*
X228461904Y-214061009D02*
X228414285Y-214013390D01*
X228414285Y-214013390D02*
X228319047Y-213965771D01*
X228319047Y-213965771D02*
X228080952Y-213965771D01*
X228080952Y-213965771D02*
X227985714Y-214013390D01*
X227985714Y-214013390D02*
X227938095Y-214061009D01*
X227938095Y-214061009D02*
X227890476Y-214156247D01*
X227890476Y-214156247D02*
X227890476Y-214394342D01*
X227890476Y-214394342D02*
X227938095Y-214489580D01*
X227938095Y-214489580D02*
X227985714Y-214537200D01*
X227985714Y-214537200D02*
X228080952Y-214584819D01*
X228080952Y-214584819D02*
X228319047Y-214584819D01*
X228319047Y-214584819D02*
X228414285Y-214537200D01*
X228414285Y-214537200D02*
X228461904Y-214489580D01*
X226985714Y-213584819D02*
X227461904Y-213584819D01*
X227461904Y-213584819D02*
X227509523Y-214061009D01*
X227509523Y-214061009D02*
X227461904Y-214013390D01*
X227461904Y-214013390D02*
X227366666Y-213965771D01*
X227366666Y-213965771D02*
X227128571Y-213965771D01*
X227128571Y-213965771D02*
X227033333Y-214013390D01*
X227033333Y-214013390D02*
X226985714Y-214061009D01*
X226985714Y-214061009D02*
X226938095Y-214156247D01*
X226938095Y-214156247D02*
X226938095Y-214394342D01*
X226938095Y-214394342D02*
X226985714Y-214489580D01*
X226985714Y-214489580D02*
X227033333Y-214537200D01*
X227033333Y-214537200D02*
X227128571Y-214584819D01*
X227128571Y-214584819D02*
X227366666Y-214584819D01*
X227366666Y-214584819D02*
X227461904Y-214537200D01*
X227461904Y-214537200D02*
X227509523Y-214489580D01*
X232271904Y-214904819D02*
X232271904Y-213904819D01*
X231700476Y-214904819D02*
X232129047Y-214333390D01*
X231700476Y-213904819D02*
X232271904Y-214476247D01*
X200814285Y-157584819D02*
X200814285Y-156584819D01*
X200814285Y-156584819D02*
X200576190Y-156584819D01*
X200576190Y-156584819D02*
X200433333Y-156632438D01*
X200433333Y-156632438D02*
X200338095Y-156727676D01*
X200338095Y-156727676D02*
X200290476Y-156822914D01*
X200290476Y-156822914D02*
X200242857Y-157013390D01*
X200242857Y-157013390D02*
X200242857Y-157156247D01*
X200242857Y-157156247D02*
X200290476Y-157346723D01*
X200290476Y-157346723D02*
X200338095Y-157441961D01*
X200338095Y-157441961D02*
X200433333Y-157537200D01*
X200433333Y-157537200D02*
X200576190Y-157584819D01*
X200576190Y-157584819D02*
X200814285Y-157584819D01*
X199290476Y-157584819D02*
X199861904Y-157584819D01*
X199576190Y-157584819D02*
X199576190Y-156584819D01*
X199576190Y-156584819D02*
X199671428Y-156727676D01*
X199671428Y-156727676D02*
X199766666Y-156822914D01*
X199766666Y-156822914D02*
X199861904Y-156870533D01*
X198814285Y-157584819D02*
X198623809Y-157584819D01*
X198623809Y-157584819D02*
X198528571Y-157537200D01*
X198528571Y-157537200D02*
X198480952Y-157489580D01*
X198480952Y-157489580D02*
X198385714Y-157346723D01*
X198385714Y-157346723D02*
X198338095Y-157156247D01*
X198338095Y-157156247D02*
X198338095Y-156775295D01*
X198338095Y-156775295D02*
X198385714Y-156680057D01*
X198385714Y-156680057D02*
X198433333Y-156632438D01*
X198433333Y-156632438D02*
X198528571Y-156584819D01*
X198528571Y-156584819D02*
X198719047Y-156584819D01*
X198719047Y-156584819D02*
X198814285Y-156632438D01*
X198814285Y-156632438D02*
X198861904Y-156680057D01*
X198861904Y-156680057D02*
X198909523Y-156775295D01*
X198909523Y-156775295D02*
X198909523Y-157013390D01*
X198909523Y-157013390D02*
X198861904Y-157108628D01*
X198861904Y-157108628D02*
X198814285Y-157156247D01*
X198814285Y-157156247D02*
X198719047Y-157203866D01*
X198719047Y-157203866D02*
X198528571Y-157203866D01*
X198528571Y-157203866D02*
X198433333Y-157156247D01*
X198433333Y-157156247D02*
X198385714Y-157108628D01*
X198385714Y-157108628D02*
X198338095Y-157013390D01*
X203671904Y-157904819D02*
X203671904Y-156904819D01*
X203100476Y-157904819D02*
X203529047Y-157333390D01*
X203100476Y-156904819D02*
X203671904Y-157476247D01*
X296314285Y-214584819D02*
X296314285Y-213584819D01*
X296314285Y-213584819D02*
X296076190Y-213584819D01*
X296076190Y-213584819D02*
X295933333Y-213632438D01*
X295933333Y-213632438D02*
X295838095Y-213727676D01*
X295838095Y-213727676D02*
X295790476Y-213822914D01*
X295790476Y-213822914D02*
X295742857Y-214013390D01*
X295742857Y-214013390D02*
X295742857Y-214156247D01*
X295742857Y-214156247D02*
X295790476Y-214346723D01*
X295790476Y-214346723D02*
X295838095Y-214441961D01*
X295838095Y-214441961D02*
X295933333Y-214537200D01*
X295933333Y-214537200D02*
X296076190Y-214584819D01*
X296076190Y-214584819D02*
X296314285Y-214584819D01*
X294838095Y-213584819D02*
X295314285Y-213584819D01*
X295314285Y-213584819D02*
X295361904Y-214061009D01*
X295361904Y-214061009D02*
X295314285Y-214013390D01*
X295314285Y-214013390D02*
X295219047Y-213965771D01*
X295219047Y-213965771D02*
X294980952Y-213965771D01*
X294980952Y-213965771D02*
X294885714Y-214013390D01*
X294885714Y-214013390D02*
X294838095Y-214061009D01*
X294838095Y-214061009D02*
X294790476Y-214156247D01*
X294790476Y-214156247D02*
X294790476Y-214394342D01*
X294790476Y-214394342D02*
X294838095Y-214489580D01*
X294838095Y-214489580D02*
X294885714Y-214537200D01*
X294885714Y-214537200D02*
X294980952Y-214584819D01*
X294980952Y-214584819D02*
X295219047Y-214584819D01*
X295219047Y-214584819D02*
X295314285Y-214537200D01*
X295314285Y-214537200D02*
X295361904Y-214489580D01*
X294219047Y-214013390D02*
X294314285Y-213965771D01*
X294314285Y-213965771D02*
X294361904Y-213918152D01*
X294361904Y-213918152D02*
X294409523Y-213822914D01*
X294409523Y-213822914D02*
X294409523Y-213775295D01*
X294409523Y-213775295D02*
X294361904Y-213680057D01*
X294361904Y-213680057D02*
X294314285Y-213632438D01*
X294314285Y-213632438D02*
X294219047Y-213584819D01*
X294219047Y-213584819D02*
X294028571Y-213584819D01*
X294028571Y-213584819D02*
X293933333Y-213632438D01*
X293933333Y-213632438D02*
X293885714Y-213680057D01*
X293885714Y-213680057D02*
X293838095Y-213775295D01*
X293838095Y-213775295D02*
X293838095Y-213822914D01*
X293838095Y-213822914D02*
X293885714Y-213918152D01*
X293885714Y-213918152D02*
X293933333Y-213965771D01*
X293933333Y-213965771D02*
X294028571Y-214013390D01*
X294028571Y-214013390D02*
X294219047Y-214013390D01*
X294219047Y-214013390D02*
X294314285Y-214061009D01*
X294314285Y-214061009D02*
X294361904Y-214108628D01*
X294361904Y-214108628D02*
X294409523Y-214203866D01*
X294409523Y-214203866D02*
X294409523Y-214394342D01*
X294409523Y-214394342D02*
X294361904Y-214489580D01*
X294361904Y-214489580D02*
X294314285Y-214537200D01*
X294314285Y-214537200D02*
X294219047Y-214584819D01*
X294219047Y-214584819D02*
X294028571Y-214584819D01*
X294028571Y-214584819D02*
X293933333Y-214537200D01*
X293933333Y-214537200D02*
X293885714Y-214489580D01*
X293885714Y-214489580D02*
X293838095Y-214394342D01*
X293838095Y-214394342D02*
X293838095Y-214203866D01*
X293838095Y-214203866D02*
X293885714Y-214108628D01*
X293885714Y-214108628D02*
X293933333Y-214061009D01*
X293933333Y-214061009D02*
X294028571Y-214013390D01*
X299171904Y-214904819D02*
X299171904Y-213904819D01*
X298600476Y-214904819D02*
X299029047Y-214333390D01*
X298600476Y-213904819D02*
X299171904Y-214476247D01*
X105514285Y-176584819D02*
X105514285Y-175584819D01*
X105514285Y-175584819D02*
X105276190Y-175584819D01*
X105276190Y-175584819D02*
X105133333Y-175632438D01*
X105133333Y-175632438D02*
X105038095Y-175727676D01*
X105038095Y-175727676D02*
X104990476Y-175822914D01*
X104990476Y-175822914D02*
X104942857Y-176013390D01*
X104942857Y-176013390D02*
X104942857Y-176156247D01*
X104942857Y-176156247D02*
X104990476Y-176346723D01*
X104990476Y-176346723D02*
X105038095Y-176441961D01*
X105038095Y-176441961D02*
X105133333Y-176537200D01*
X105133333Y-176537200D02*
X105276190Y-176584819D01*
X105276190Y-176584819D02*
X105514285Y-176584819D01*
X104561904Y-175680057D02*
X104514285Y-175632438D01*
X104514285Y-175632438D02*
X104419047Y-175584819D01*
X104419047Y-175584819D02*
X104180952Y-175584819D01*
X104180952Y-175584819D02*
X104085714Y-175632438D01*
X104085714Y-175632438D02*
X104038095Y-175680057D01*
X104038095Y-175680057D02*
X103990476Y-175775295D01*
X103990476Y-175775295D02*
X103990476Y-175870533D01*
X103990476Y-175870533D02*
X104038095Y-176013390D01*
X104038095Y-176013390D02*
X104609523Y-176584819D01*
X104609523Y-176584819D02*
X103990476Y-176584819D01*
X103133333Y-175584819D02*
X103323809Y-175584819D01*
X103323809Y-175584819D02*
X103419047Y-175632438D01*
X103419047Y-175632438D02*
X103466666Y-175680057D01*
X103466666Y-175680057D02*
X103561904Y-175822914D01*
X103561904Y-175822914D02*
X103609523Y-176013390D01*
X103609523Y-176013390D02*
X103609523Y-176394342D01*
X103609523Y-176394342D02*
X103561904Y-176489580D01*
X103561904Y-176489580D02*
X103514285Y-176537200D01*
X103514285Y-176537200D02*
X103419047Y-176584819D01*
X103419047Y-176584819D02*
X103228571Y-176584819D01*
X103228571Y-176584819D02*
X103133333Y-176537200D01*
X103133333Y-176537200D02*
X103085714Y-176489580D01*
X103085714Y-176489580D02*
X103038095Y-176394342D01*
X103038095Y-176394342D02*
X103038095Y-176156247D01*
X103038095Y-176156247D02*
X103085714Y-176061009D01*
X103085714Y-176061009D02*
X103133333Y-176013390D01*
X103133333Y-176013390D02*
X103228571Y-175965771D01*
X103228571Y-175965771D02*
X103419047Y-175965771D01*
X103419047Y-175965771D02*
X103514285Y-176013390D01*
X103514285Y-176013390D02*
X103561904Y-176061009D01*
X103561904Y-176061009D02*
X103609523Y-176156247D01*
X108371904Y-176904819D02*
X108371904Y-175904819D01*
X107800476Y-176904819D02*
X108229047Y-176333390D01*
X107800476Y-175904819D02*
X108371904Y-176476247D01*
X181814285Y-195584819D02*
X181814285Y-194584819D01*
X181814285Y-194584819D02*
X181576190Y-194584819D01*
X181576190Y-194584819D02*
X181433333Y-194632438D01*
X181433333Y-194632438D02*
X181338095Y-194727676D01*
X181338095Y-194727676D02*
X181290476Y-194822914D01*
X181290476Y-194822914D02*
X181242857Y-195013390D01*
X181242857Y-195013390D02*
X181242857Y-195156247D01*
X181242857Y-195156247D02*
X181290476Y-195346723D01*
X181290476Y-195346723D02*
X181338095Y-195441961D01*
X181338095Y-195441961D02*
X181433333Y-195537200D01*
X181433333Y-195537200D02*
X181576190Y-195584819D01*
X181576190Y-195584819D02*
X181814285Y-195584819D01*
X180385714Y-194918152D02*
X180385714Y-195584819D01*
X180623809Y-194537200D02*
X180861904Y-195251485D01*
X180861904Y-195251485D02*
X180242857Y-195251485D01*
X179909523Y-194680057D02*
X179861904Y-194632438D01*
X179861904Y-194632438D02*
X179766666Y-194584819D01*
X179766666Y-194584819D02*
X179528571Y-194584819D01*
X179528571Y-194584819D02*
X179433333Y-194632438D01*
X179433333Y-194632438D02*
X179385714Y-194680057D01*
X179385714Y-194680057D02*
X179338095Y-194775295D01*
X179338095Y-194775295D02*
X179338095Y-194870533D01*
X179338095Y-194870533D02*
X179385714Y-195013390D01*
X179385714Y-195013390D02*
X179957142Y-195584819D01*
X179957142Y-195584819D02*
X179338095Y-195584819D01*
X184671904Y-195904819D02*
X184671904Y-194904819D01*
X184100476Y-195904819D02*
X184529047Y-195333390D01*
X184100476Y-194904819D02*
X184671904Y-195476247D01*
X277214285Y-214584819D02*
X277214285Y-213584819D01*
X277214285Y-213584819D02*
X276976190Y-213584819D01*
X276976190Y-213584819D02*
X276833333Y-213632438D01*
X276833333Y-213632438D02*
X276738095Y-213727676D01*
X276738095Y-213727676D02*
X276690476Y-213822914D01*
X276690476Y-213822914D02*
X276642857Y-214013390D01*
X276642857Y-214013390D02*
X276642857Y-214156247D01*
X276642857Y-214156247D02*
X276690476Y-214346723D01*
X276690476Y-214346723D02*
X276738095Y-214441961D01*
X276738095Y-214441961D02*
X276833333Y-214537200D01*
X276833333Y-214537200D02*
X276976190Y-214584819D01*
X276976190Y-214584819D02*
X277214285Y-214584819D01*
X275738095Y-213584819D02*
X276214285Y-213584819D01*
X276214285Y-213584819D02*
X276261904Y-214061009D01*
X276261904Y-214061009D02*
X276214285Y-214013390D01*
X276214285Y-214013390D02*
X276119047Y-213965771D01*
X276119047Y-213965771D02*
X275880952Y-213965771D01*
X275880952Y-213965771D02*
X275785714Y-214013390D01*
X275785714Y-214013390D02*
X275738095Y-214061009D01*
X275738095Y-214061009D02*
X275690476Y-214156247D01*
X275690476Y-214156247D02*
X275690476Y-214394342D01*
X275690476Y-214394342D02*
X275738095Y-214489580D01*
X275738095Y-214489580D02*
X275785714Y-214537200D01*
X275785714Y-214537200D02*
X275880952Y-214584819D01*
X275880952Y-214584819D02*
X276119047Y-214584819D01*
X276119047Y-214584819D02*
X276214285Y-214537200D01*
X276214285Y-214537200D02*
X276261904Y-214489580D01*
X275357142Y-213584819D02*
X274690476Y-213584819D01*
X274690476Y-213584819D02*
X275119047Y-214584819D01*
X280071904Y-214904819D02*
X280071904Y-213904819D01*
X279500476Y-214904819D02*
X279929047Y-214333390D01*
X279500476Y-213904819D02*
X280071904Y-214476247D01*
X124514285Y-176534819D02*
X124514285Y-175534819D01*
X124514285Y-175534819D02*
X124276190Y-175534819D01*
X124276190Y-175534819D02*
X124133333Y-175582438D01*
X124133333Y-175582438D02*
X124038095Y-175677676D01*
X124038095Y-175677676D02*
X123990476Y-175772914D01*
X123990476Y-175772914D02*
X123942857Y-175963390D01*
X123942857Y-175963390D02*
X123942857Y-176106247D01*
X123942857Y-176106247D02*
X123990476Y-176296723D01*
X123990476Y-176296723D02*
X124038095Y-176391961D01*
X124038095Y-176391961D02*
X124133333Y-176487200D01*
X124133333Y-176487200D02*
X124276190Y-176534819D01*
X124276190Y-176534819D02*
X124514285Y-176534819D01*
X123561904Y-175630057D02*
X123514285Y-175582438D01*
X123514285Y-175582438D02*
X123419047Y-175534819D01*
X123419047Y-175534819D02*
X123180952Y-175534819D01*
X123180952Y-175534819D02*
X123085714Y-175582438D01*
X123085714Y-175582438D02*
X123038095Y-175630057D01*
X123038095Y-175630057D02*
X122990476Y-175725295D01*
X122990476Y-175725295D02*
X122990476Y-175820533D01*
X122990476Y-175820533D02*
X123038095Y-175963390D01*
X123038095Y-175963390D02*
X123609523Y-176534819D01*
X123609523Y-176534819D02*
X122990476Y-176534819D01*
X122657142Y-175534819D02*
X121990476Y-175534819D01*
X121990476Y-175534819D02*
X122419047Y-176534819D01*
X127371904Y-176854819D02*
X127371904Y-175854819D01*
X126800476Y-176854819D02*
X127229047Y-176283390D01*
X126800476Y-175854819D02*
X127371904Y-176426247D01*
X181288094Y-138584819D02*
X181288094Y-137584819D01*
X181288094Y-137584819D02*
X181049999Y-137584819D01*
X181049999Y-137584819D02*
X180907142Y-137632438D01*
X180907142Y-137632438D02*
X180811904Y-137727676D01*
X180811904Y-137727676D02*
X180764285Y-137822914D01*
X180764285Y-137822914D02*
X180716666Y-138013390D01*
X180716666Y-138013390D02*
X180716666Y-138156247D01*
X180716666Y-138156247D02*
X180764285Y-138346723D01*
X180764285Y-138346723D02*
X180811904Y-138441961D01*
X180811904Y-138441961D02*
X180907142Y-138537200D01*
X180907142Y-138537200D02*
X181049999Y-138584819D01*
X181049999Y-138584819D02*
X181288094Y-138584819D01*
X179859523Y-137584819D02*
X180049999Y-137584819D01*
X180049999Y-137584819D02*
X180145237Y-137632438D01*
X180145237Y-137632438D02*
X180192856Y-137680057D01*
X180192856Y-137680057D02*
X180288094Y-137822914D01*
X180288094Y-137822914D02*
X180335713Y-138013390D01*
X180335713Y-138013390D02*
X180335713Y-138394342D01*
X180335713Y-138394342D02*
X180288094Y-138489580D01*
X180288094Y-138489580D02*
X180240475Y-138537200D01*
X180240475Y-138537200D02*
X180145237Y-138584819D01*
X180145237Y-138584819D02*
X179954761Y-138584819D01*
X179954761Y-138584819D02*
X179859523Y-138537200D01*
X179859523Y-138537200D02*
X179811904Y-138489580D01*
X179811904Y-138489580D02*
X179764285Y-138394342D01*
X179764285Y-138394342D02*
X179764285Y-138156247D01*
X179764285Y-138156247D02*
X179811904Y-138061009D01*
X179811904Y-138061009D02*
X179859523Y-138013390D01*
X179859523Y-138013390D02*
X179954761Y-137965771D01*
X179954761Y-137965771D02*
X180145237Y-137965771D01*
X180145237Y-137965771D02*
X180240475Y-138013390D01*
X180240475Y-138013390D02*
X180288094Y-138061009D01*
X180288094Y-138061009D02*
X180335713Y-138156247D01*
X184621904Y-138904819D02*
X184621904Y-137904819D01*
X184050476Y-138904819D02*
X184479047Y-138333390D01*
X184050476Y-137904819D02*
X184621904Y-138476247D01*
X143657485Y-157592819D02*
X143657485Y-156592819D01*
X143657485Y-156592819D02*
X143419390Y-156592819D01*
X143419390Y-156592819D02*
X143276533Y-156640438D01*
X143276533Y-156640438D02*
X143181295Y-156735676D01*
X143181295Y-156735676D02*
X143133676Y-156830914D01*
X143133676Y-156830914D02*
X143086057Y-157021390D01*
X143086057Y-157021390D02*
X143086057Y-157164247D01*
X143086057Y-157164247D02*
X143133676Y-157354723D01*
X143133676Y-157354723D02*
X143181295Y-157449961D01*
X143181295Y-157449961D02*
X143276533Y-157545200D01*
X143276533Y-157545200D02*
X143419390Y-157592819D01*
X143419390Y-157592819D02*
X143657485Y-157592819D01*
X142133676Y-157592819D02*
X142705104Y-157592819D01*
X142419390Y-157592819D02*
X142419390Y-156592819D01*
X142419390Y-156592819D02*
X142514628Y-156735676D01*
X142514628Y-156735676D02*
X142609866Y-156830914D01*
X142609866Y-156830914D02*
X142705104Y-156878533D01*
X141276533Y-156592819D02*
X141467009Y-156592819D01*
X141467009Y-156592819D02*
X141562247Y-156640438D01*
X141562247Y-156640438D02*
X141609866Y-156688057D01*
X141609866Y-156688057D02*
X141705104Y-156830914D01*
X141705104Y-156830914D02*
X141752723Y-157021390D01*
X141752723Y-157021390D02*
X141752723Y-157402342D01*
X141752723Y-157402342D02*
X141705104Y-157497580D01*
X141705104Y-157497580D02*
X141657485Y-157545200D01*
X141657485Y-157545200D02*
X141562247Y-157592819D01*
X141562247Y-157592819D02*
X141371771Y-157592819D01*
X141371771Y-157592819D02*
X141276533Y-157545200D01*
X141276533Y-157545200D02*
X141228914Y-157497580D01*
X141228914Y-157497580D02*
X141181295Y-157402342D01*
X141181295Y-157402342D02*
X141181295Y-157164247D01*
X141181295Y-157164247D02*
X141228914Y-157069009D01*
X141228914Y-157069009D02*
X141276533Y-157021390D01*
X141276533Y-157021390D02*
X141371771Y-156973771D01*
X141371771Y-156973771D02*
X141562247Y-156973771D01*
X141562247Y-156973771D02*
X141657485Y-157021390D01*
X141657485Y-157021390D02*
X141705104Y-157069009D01*
X141705104Y-157069009D02*
X141752723Y-157164247D01*
X146515104Y-157912819D02*
X146515104Y-156912819D01*
X145943676Y-157912819D02*
X146372247Y-157341390D01*
X145943676Y-156912819D02*
X146515104Y-157484247D01*
X105048094Y-138584819D02*
X105048094Y-137584819D01*
X105048094Y-137584819D02*
X104809999Y-137584819D01*
X104809999Y-137584819D02*
X104667142Y-137632438D01*
X104667142Y-137632438D02*
X104571904Y-137727676D01*
X104571904Y-137727676D02*
X104524285Y-137822914D01*
X104524285Y-137822914D02*
X104476666Y-138013390D01*
X104476666Y-138013390D02*
X104476666Y-138156247D01*
X104476666Y-138156247D02*
X104524285Y-138346723D01*
X104524285Y-138346723D02*
X104571904Y-138441961D01*
X104571904Y-138441961D02*
X104667142Y-138537200D01*
X104667142Y-138537200D02*
X104809999Y-138584819D01*
X104809999Y-138584819D02*
X105048094Y-138584819D01*
X104095713Y-137680057D02*
X104048094Y-137632438D01*
X104048094Y-137632438D02*
X103952856Y-137584819D01*
X103952856Y-137584819D02*
X103714761Y-137584819D01*
X103714761Y-137584819D02*
X103619523Y-137632438D01*
X103619523Y-137632438D02*
X103571904Y-137680057D01*
X103571904Y-137680057D02*
X103524285Y-137775295D01*
X103524285Y-137775295D02*
X103524285Y-137870533D01*
X103524285Y-137870533D02*
X103571904Y-138013390D01*
X103571904Y-138013390D02*
X104143332Y-138584819D01*
X104143332Y-138584819D02*
X103524285Y-138584819D01*
X315414285Y-195584819D02*
X315414285Y-194584819D01*
X315414285Y-194584819D02*
X315176190Y-194584819D01*
X315176190Y-194584819D02*
X315033333Y-194632438D01*
X315033333Y-194632438D02*
X314938095Y-194727676D01*
X314938095Y-194727676D02*
X314890476Y-194822914D01*
X314890476Y-194822914D02*
X314842857Y-195013390D01*
X314842857Y-195013390D02*
X314842857Y-195156247D01*
X314842857Y-195156247D02*
X314890476Y-195346723D01*
X314890476Y-195346723D02*
X314938095Y-195441961D01*
X314938095Y-195441961D02*
X315033333Y-195537200D01*
X315033333Y-195537200D02*
X315176190Y-195584819D01*
X315176190Y-195584819D02*
X315414285Y-195584819D01*
X313985714Y-194918152D02*
X313985714Y-195584819D01*
X314223809Y-194537200D02*
X314461904Y-195251485D01*
X314461904Y-195251485D02*
X313842857Y-195251485D01*
X313414285Y-195584819D02*
X313223809Y-195584819D01*
X313223809Y-195584819D02*
X313128571Y-195537200D01*
X313128571Y-195537200D02*
X313080952Y-195489580D01*
X313080952Y-195489580D02*
X312985714Y-195346723D01*
X312985714Y-195346723D02*
X312938095Y-195156247D01*
X312938095Y-195156247D02*
X312938095Y-194775295D01*
X312938095Y-194775295D02*
X312985714Y-194680057D01*
X312985714Y-194680057D02*
X313033333Y-194632438D01*
X313033333Y-194632438D02*
X313128571Y-194584819D01*
X313128571Y-194584819D02*
X313319047Y-194584819D01*
X313319047Y-194584819D02*
X313414285Y-194632438D01*
X313414285Y-194632438D02*
X313461904Y-194680057D01*
X313461904Y-194680057D02*
X313509523Y-194775295D01*
X313509523Y-194775295D02*
X313509523Y-195013390D01*
X313509523Y-195013390D02*
X313461904Y-195108628D01*
X313461904Y-195108628D02*
X313414285Y-195156247D01*
X313414285Y-195156247D02*
X313319047Y-195203866D01*
X313319047Y-195203866D02*
X313128571Y-195203866D01*
X313128571Y-195203866D02*
X313033333Y-195156247D01*
X313033333Y-195156247D02*
X312985714Y-195108628D01*
X312985714Y-195108628D02*
X312938095Y-195013390D01*
X318271904Y-195904819D02*
X318271904Y-194904819D01*
X317700476Y-195904819D02*
X318129047Y-195333390D01*
X317700476Y-194904819D02*
X318271904Y-195476247D01*
X258064285Y-157584819D02*
X258064285Y-156584819D01*
X258064285Y-156584819D02*
X257826190Y-156584819D01*
X257826190Y-156584819D02*
X257683333Y-156632438D01*
X257683333Y-156632438D02*
X257588095Y-156727676D01*
X257588095Y-156727676D02*
X257540476Y-156822914D01*
X257540476Y-156822914D02*
X257492857Y-157013390D01*
X257492857Y-157013390D02*
X257492857Y-157156247D01*
X257492857Y-157156247D02*
X257540476Y-157346723D01*
X257540476Y-157346723D02*
X257588095Y-157441961D01*
X257588095Y-157441961D02*
X257683333Y-157537200D01*
X257683333Y-157537200D02*
X257826190Y-157584819D01*
X257826190Y-157584819D02*
X258064285Y-157584819D01*
X257111904Y-156680057D02*
X257064285Y-156632438D01*
X257064285Y-156632438D02*
X256969047Y-156584819D01*
X256969047Y-156584819D02*
X256730952Y-156584819D01*
X256730952Y-156584819D02*
X256635714Y-156632438D01*
X256635714Y-156632438D02*
X256588095Y-156680057D01*
X256588095Y-156680057D02*
X256540476Y-156775295D01*
X256540476Y-156775295D02*
X256540476Y-156870533D01*
X256540476Y-156870533D02*
X256588095Y-157013390D01*
X256588095Y-157013390D02*
X257159523Y-157584819D01*
X257159523Y-157584819D02*
X256540476Y-157584819D01*
X256159523Y-156680057D02*
X256111904Y-156632438D01*
X256111904Y-156632438D02*
X256016666Y-156584819D01*
X256016666Y-156584819D02*
X255778571Y-156584819D01*
X255778571Y-156584819D02*
X255683333Y-156632438D01*
X255683333Y-156632438D02*
X255635714Y-156680057D01*
X255635714Y-156680057D02*
X255588095Y-156775295D01*
X255588095Y-156775295D02*
X255588095Y-156870533D01*
X255588095Y-156870533D02*
X255635714Y-157013390D01*
X255635714Y-157013390D02*
X256207142Y-157584819D01*
X256207142Y-157584819D02*
X255588095Y-157584819D01*
X260921904Y-157904819D02*
X260921904Y-156904819D01*
X260350476Y-157904819D02*
X260779047Y-157333390D01*
X260350476Y-156904819D02*
X260921904Y-157476247D01*
X258114285Y-138584819D02*
X258114285Y-137584819D01*
X258114285Y-137584819D02*
X257876190Y-137584819D01*
X257876190Y-137584819D02*
X257733333Y-137632438D01*
X257733333Y-137632438D02*
X257638095Y-137727676D01*
X257638095Y-137727676D02*
X257590476Y-137822914D01*
X257590476Y-137822914D02*
X257542857Y-138013390D01*
X257542857Y-138013390D02*
X257542857Y-138156247D01*
X257542857Y-138156247D02*
X257590476Y-138346723D01*
X257590476Y-138346723D02*
X257638095Y-138441961D01*
X257638095Y-138441961D02*
X257733333Y-138537200D01*
X257733333Y-138537200D02*
X257876190Y-138584819D01*
X257876190Y-138584819D02*
X258114285Y-138584819D01*
X256590476Y-138584819D02*
X257161904Y-138584819D01*
X256876190Y-138584819D02*
X256876190Y-137584819D01*
X256876190Y-137584819D02*
X256971428Y-137727676D01*
X256971428Y-137727676D02*
X257066666Y-137822914D01*
X257066666Y-137822914D02*
X257161904Y-137870533D01*
X255971428Y-137584819D02*
X255876190Y-137584819D01*
X255876190Y-137584819D02*
X255780952Y-137632438D01*
X255780952Y-137632438D02*
X255733333Y-137680057D01*
X255733333Y-137680057D02*
X255685714Y-137775295D01*
X255685714Y-137775295D02*
X255638095Y-137965771D01*
X255638095Y-137965771D02*
X255638095Y-138203866D01*
X255638095Y-138203866D02*
X255685714Y-138394342D01*
X255685714Y-138394342D02*
X255733333Y-138489580D01*
X255733333Y-138489580D02*
X255780952Y-138537200D01*
X255780952Y-138537200D02*
X255876190Y-138584819D01*
X255876190Y-138584819D02*
X255971428Y-138584819D01*
X255971428Y-138584819D02*
X256066666Y-138537200D01*
X256066666Y-138537200D02*
X256114285Y-138489580D01*
X256114285Y-138489580D02*
X256161904Y-138394342D01*
X256161904Y-138394342D02*
X256209523Y-138203866D01*
X256209523Y-138203866D02*
X256209523Y-137965771D01*
X256209523Y-137965771D02*
X256161904Y-137775295D01*
X256161904Y-137775295D02*
X256114285Y-137680057D01*
X256114285Y-137680057D02*
X256066666Y-137632438D01*
X256066666Y-137632438D02*
X255971428Y-137584819D01*
X260971904Y-138904819D02*
X260971904Y-137904819D01*
X260400476Y-138904819D02*
X260829047Y-138333390D01*
X260400476Y-137904819D02*
X260971904Y-138476247D01*
X181764285Y-176584819D02*
X181764285Y-175584819D01*
X181764285Y-175584819D02*
X181526190Y-175584819D01*
X181526190Y-175584819D02*
X181383333Y-175632438D01*
X181383333Y-175632438D02*
X181288095Y-175727676D01*
X181288095Y-175727676D02*
X181240476Y-175822914D01*
X181240476Y-175822914D02*
X181192857Y-176013390D01*
X181192857Y-176013390D02*
X181192857Y-176156247D01*
X181192857Y-176156247D02*
X181240476Y-176346723D01*
X181240476Y-176346723D02*
X181288095Y-176441961D01*
X181288095Y-176441961D02*
X181383333Y-176537200D01*
X181383333Y-176537200D02*
X181526190Y-176584819D01*
X181526190Y-176584819D02*
X181764285Y-176584819D01*
X180859523Y-175584819D02*
X180240476Y-175584819D01*
X180240476Y-175584819D02*
X180573809Y-175965771D01*
X180573809Y-175965771D02*
X180430952Y-175965771D01*
X180430952Y-175965771D02*
X180335714Y-176013390D01*
X180335714Y-176013390D02*
X180288095Y-176061009D01*
X180288095Y-176061009D02*
X180240476Y-176156247D01*
X180240476Y-176156247D02*
X180240476Y-176394342D01*
X180240476Y-176394342D02*
X180288095Y-176489580D01*
X180288095Y-176489580D02*
X180335714Y-176537200D01*
X180335714Y-176537200D02*
X180430952Y-176584819D01*
X180430952Y-176584819D02*
X180716666Y-176584819D01*
X180716666Y-176584819D02*
X180811904Y-176537200D01*
X180811904Y-176537200D02*
X180859523Y-176489580D01*
X179621428Y-175584819D02*
X179526190Y-175584819D01*
X179526190Y-175584819D02*
X179430952Y-175632438D01*
X179430952Y-175632438D02*
X179383333Y-175680057D01*
X179383333Y-175680057D02*
X179335714Y-175775295D01*
X179335714Y-175775295D02*
X179288095Y-175965771D01*
X179288095Y-175965771D02*
X179288095Y-176203866D01*
X179288095Y-176203866D02*
X179335714Y-176394342D01*
X179335714Y-176394342D02*
X179383333Y-176489580D01*
X179383333Y-176489580D02*
X179430952Y-176537200D01*
X179430952Y-176537200D02*
X179526190Y-176584819D01*
X179526190Y-176584819D02*
X179621428Y-176584819D01*
X179621428Y-176584819D02*
X179716666Y-176537200D01*
X179716666Y-176537200D02*
X179764285Y-176489580D01*
X179764285Y-176489580D02*
X179811904Y-176394342D01*
X179811904Y-176394342D02*
X179859523Y-176203866D01*
X179859523Y-176203866D02*
X179859523Y-175965771D01*
X179859523Y-175965771D02*
X179811904Y-175775295D01*
X179811904Y-175775295D02*
X179764285Y-175680057D01*
X179764285Y-175680057D02*
X179716666Y-175632438D01*
X179716666Y-175632438D02*
X179621428Y-175584819D01*
X184621904Y-176904819D02*
X184621904Y-175904819D01*
X184050476Y-176904819D02*
X184479047Y-176333390D01*
X184050476Y-175904819D02*
X184621904Y-176476247D01*
X296214285Y-157584819D02*
X296214285Y-156584819D01*
X296214285Y-156584819D02*
X295976190Y-156584819D01*
X295976190Y-156584819D02*
X295833333Y-156632438D01*
X295833333Y-156632438D02*
X295738095Y-156727676D01*
X295738095Y-156727676D02*
X295690476Y-156822914D01*
X295690476Y-156822914D02*
X295642857Y-157013390D01*
X295642857Y-157013390D02*
X295642857Y-157156247D01*
X295642857Y-157156247D02*
X295690476Y-157346723D01*
X295690476Y-157346723D02*
X295738095Y-157441961D01*
X295738095Y-157441961D02*
X295833333Y-157537200D01*
X295833333Y-157537200D02*
X295976190Y-157584819D01*
X295976190Y-157584819D02*
X296214285Y-157584819D01*
X295261904Y-156680057D02*
X295214285Y-156632438D01*
X295214285Y-156632438D02*
X295119047Y-156584819D01*
X295119047Y-156584819D02*
X294880952Y-156584819D01*
X294880952Y-156584819D02*
X294785714Y-156632438D01*
X294785714Y-156632438D02*
X294738095Y-156680057D01*
X294738095Y-156680057D02*
X294690476Y-156775295D01*
X294690476Y-156775295D02*
X294690476Y-156870533D01*
X294690476Y-156870533D02*
X294738095Y-157013390D01*
X294738095Y-157013390D02*
X295309523Y-157584819D01*
X295309523Y-157584819D02*
X294690476Y-157584819D01*
X293833333Y-156918152D02*
X293833333Y-157584819D01*
X294071428Y-156537200D02*
X294309523Y-157251485D01*
X294309523Y-157251485D02*
X293690476Y-157251485D01*
X299071904Y-157904819D02*
X299071904Y-156904819D01*
X298500476Y-157904819D02*
X298929047Y-157333390D01*
X298500476Y-156904819D02*
X299071904Y-157476247D01*
X143278094Y-138584819D02*
X143278094Y-137584819D01*
X143278094Y-137584819D02*
X143039999Y-137584819D01*
X143039999Y-137584819D02*
X142897142Y-137632438D01*
X142897142Y-137632438D02*
X142801904Y-137727676D01*
X142801904Y-137727676D02*
X142754285Y-137822914D01*
X142754285Y-137822914D02*
X142706666Y-138013390D01*
X142706666Y-138013390D02*
X142706666Y-138156247D01*
X142706666Y-138156247D02*
X142754285Y-138346723D01*
X142754285Y-138346723D02*
X142801904Y-138441961D01*
X142801904Y-138441961D02*
X142897142Y-138537200D01*
X142897142Y-138537200D02*
X143039999Y-138584819D01*
X143039999Y-138584819D02*
X143278094Y-138584819D01*
X141849523Y-137918152D02*
X141849523Y-138584819D01*
X142087618Y-137537200D02*
X142325713Y-138251485D01*
X142325713Y-138251485D02*
X141706666Y-138251485D01*
X146611904Y-138904819D02*
X146611904Y-137904819D01*
X146040476Y-138904819D02*
X146469047Y-138333390D01*
X146040476Y-137904819D02*
X146611904Y-138476247D01*
X105514285Y-157584819D02*
X105514285Y-156584819D01*
X105514285Y-156584819D02*
X105276190Y-156584819D01*
X105276190Y-156584819D02*
X105133333Y-156632438D01*
X105133333Y-156632438D02*
X105038095Y-156727676D01*
X105038095Y-156727676D02*
X104990476Y-156822914D01*
X104990476Y-156822914D02*
X104942857Y-157013390D01*
X104942857Y-157013390D02*
X104942857Y-157156247D01*
X104942857Y-157156247D02*
X104990476Y-157346723D01*
X104990476Y-157346723D02*
X105038095Y-157441961D01*
X105038095Y-157441961D02*
X105133333Y-157537200D01*
X105133333Y-157537200D02*
X105276190Y-157584819D01*
X105276190Y-157584819D02*
X105514285Y-157584819D01*
X103990476Y-157584819D02*
X104561904Y-157584819D01*
X104276190Y-157584819D02*
X104276190Y-156584819D01*
X104276190Y-156584819D02*
X104371428Y-156727676D01*
X104371428Y-156727676D02*
X104466666Y-156822914D01*
X104466666Y-156822914D02*
X104561904Y-156870533D01*
X103133333Y-156918152D02*
X103133333Y-157584819D01*
X103371428Y-156537200D02*
X103609523Y-157251485D01*
X103609523Y-157251485D02*
X102990476Y-157251485D01*
X108371904Y-157904819D02*
X108371904Y-156904819D01*
X107800476Y-157904819D02*
X108229047Y-157333390D01*
X107800476Y-156904819D02*
X108371904Y-157476247D01*
X219914285Y-176584819D02*
X219914285Y-175584819D01*
X219914285Y-175584819D02*
X219676190Y-175584819D01*
X219676190Y-175584819D02*
X219533333Y-175632438D01*
X219533333Y-175632438D02*
X219438095Y-175727676D01*
X219438095Y-175727676D02*
X219390476Y-175822914D01*
X219390476Y-175822914D02*
X219342857Y-176013390D01*
X219342857Y-176013390D02*
X219342857Y-176156247D01*
X219342857Y-176156247D02*
X219390476Y-176346723D01*
X219390476Y-176346723D02*
X219438095Y-176441961D01*
X219438095Y-176441961D02*
X219533333Y-176537200D01*
X219533333Y-176537200D02*
X219676190Y-176584819D01*
X219676190Y-176584819D02*
X219914285Y-176584819D01*
X219009523Y-175584819D02*
X218390476Y-175584819D01*
X218390476Y-175584819D02*
X218723809Y-175965771D01*
X218723809Y-175965771D02*
X218580952Y-175965771D01*
X218580952Y-175965771D02*
X218485714Y-176013390D01*
X218485714Y-176013390D02*
X218438095Y-176061009D01*
X218438095Y-176061009D02*
X218390476Y-176156247D01*
X218390476Y-176156247D02*
X218390476Y-176394342D01*
X218390476Y-176394342D02*
X218438095Y-176489580D01*
X218438095Y-176489580D02*
X218485714Y-176537200D01*
X218485714Y-176537200D02*
X218580952Y-176584819D01*
X218580952Y-176584819D02*
X218866666Y-176584819D01*
X218866666Y-176584819D02*
X218961904Y-176537200D01*
X218961904Y-176537200D02*
X219009523Y-176489580D01*
X218009523Y-175680057D02*
X217961904Y-175632438D01*
X217961904Y-175632438D02*
X217866666Y-175584819D01*
X217866666Y-175584819D02*
X217628571Y-175584819D01*
X217628571Y-175584819D02*
X217533333Y-175632438D01*
X217533333Y-175632438D02*
X217485714Y-175680057D01*
X217485714Y-175680057D02*
X217438095Y-175775295D01*
X217438095Y-175775295D02*
X217438095Y-175870533D01*
X217438095Y-175870533D02*
X217485714Y-176013390D01*
X217485714Y-176013390D02*
X218057142Y-176584819D01*
X218057142Y-176584819D02*
X217438095Y-176584819D01*
X222771904Y-176904819D02*
X222771904Y-175904819D01*
X222200476Y-176904819D02*
X222629047Y-176333390D01*
X222200476Y-175904819D02*
X222771904Y-176476247D01*
X191314285Y-214584819D02*
X191314285Y-213584819D01*
X191314285Y-213584819D02*
X191076190Y-213584819D01*
X191076190Y-213584819D02*
X190933333Y-213632438D01*
X190933333Y-213632438D02*
X190838095Y-213727676D01*
X190838095Y-213727676D02*
X190790476Y-213822914D01*
X190790476Y-213822914D02*
X190742857Y-214013390D01*
X190742857Y-214013390D02*
X190742857Y-214156247D01*
X190742857Y-214156247D02*
X190790476Y-214346723D01*
X190790476Y-214346723D02*
X190838095Y-214441961D01*
X190838095Y-214441961D02*
X190933333Y-214537200D01*
X190933333Y-214537200D02*
X191076190Y-214584819D01*
X191076190Y-214584819D02*
X191314285Y-214584819D01*
X189838095Y-213584819D02*
X190314285Y-213584819D01*
X190314285Y-213584819D02*
X190361904Y-214061009D01*
X190361904Y-214061009D02*
X190314285Y-214013390D01*
X190314285Y-214013390D02*
X190219047Y-213965771D01*
X190219047Y-213965771D02*
X189980952Y-213965771D01*
X189980952Y-213965771D02*
X189885714Y-214013390D01*
X189885714Y-214013390D02*
X189838095Y-214061009D01*
X189838095Y-214061009D02*
X189790476Y-214156247D01*
X189790476Y-214156247D02*
X189790476Y-214394342D01*
X189790476Y-214394342D02*
X189838095Y-214489580D01*
X189838095Y-214489580D02*
X189885714Y-214537200D01*
X189885714Y-214537200D02*
X189980952Y-214584819D01*
X189980952Y-214584819D02*
X190219047Y-214584819D01*
X190219047Y-214584819D02*
X190314285Y-214537200D01*
X190314285Y-214537200D02*
X190361904Y-214489580D01*
X188933333Y-213918152D02*
X188933333Y-214584819D01*
X189171428Y-213537200D02*
X189409523Y-214251485D01*
X189409523Y-214251485D02*
X188790476Y-214251485D01*
X194171904Y-214904819D02*
X194171904Y-213904819D01*
X193600476Y-214904819D02*
X194029047Y-214333390D01*
X193600476Y-213904819D02*
X194171904Y-214476247D01*
X219864285Y-195584819D02*
X219864285Y-194584819D01*
X219864285Y-194584819D02*
X219626190Y-194584819D01*
X219626190Y-194584819D02*
X219483333Y-194632438D01*
X219483333Y-194632438D02*
X219388095Y-194727676D01*
X219388095Y-194727676D02*
X219340476Y-194822914D01*
X219340476Y-194822914D02*
X219292857Y-195013390D01*
X219292857Y-195013390D02*
X219292857Y-195156247D01*
X219292857Y-195156247D02*
X219340476Y-195346723D01*
X219340476Y-195346723D02*
X219388095Y-195441961D01*
X219388095Y-195441961D02*
X219483333Y-195537200D01*
X219483333Y-195537200D02*
X219626190Y-195584819D01*
X219626190Y-195584819D02*
X219864285Y-195584819D01*
X218435714Y-194918152D02*
X218435714Y-195584819D01*
X218673809Y-194537200D02*
X218911904Y-195251485D01*
X218911904Y-195251485D02*
X218292857Y-195251485D01*
X217483333Y-194918152D02*
X217483333Y-195584819D01*
X217721428Y-194537200D02*
X217959523Y-195251485D01*
X217959523Y-195251485D02*
X217340476Y-195251485D01*
X222721904Y-195904819D02*
X222721904Y-194904819D01*
X222150476Y-195904819D02*
X222579047Y-195333390D01*
X222150476Y-194904819D02*
X222721904Y-195476247D01*
X143614285Y-214584819D02*
X143614285Y-213584819D01*
X143614285Y-213584819D02*
X143376190Y-213584819D01*
X143376190Y-213584819D02*
X143233333Y-213632438D01*
X143233333Y-213632438D02*
X143138095Y-213727676D01*
X143138095Y-213727676D02*
X143090476Y-213822914D01*
X143090476Y-213822914D02*
X143042857Y-214013390D01*
X143042857Y-214013390D02*
X143042857Y-214156247D01*
X143042857Y-214156247D02*
X143090476Y-214346723D01*
X143090476Y-214346723D02*
X143138095Y-214441961D01*
X143138095Y-214441961D02*
X143233333Y-214537200D01*
X143233333Y-214537200D02*
X143376190Y-214584819D01*
X143376190Y-214584819D02*
X143614285Y-214584819D01*
X142138095Y-213584819D02*
X142614285Y-213584819D01*
X142614285Y-213584819D02*
X142661904Y-214061009D01*
X142661904Y-214061009D02*
X142614285Y-214013390D01*
X142614285Y-214013390D02*
X142519047Y-213965771D01*
X142519047Y-213965771D02*
X142280952Y-213965771D01*
X142280952Y-213965771D02*
X142185714Y-214013390D01*
X142185714Y-214013390D02*
X142138095Y-214061009D01*
X142138095Y-214061009D02*
X142090476Y-214156247D01*
X142090476Y-214156247D02*
X142090476Y-214394342D01*
X142090476Y-214394342D02*
X142138095Y-214489580D01*
X142138095Y-214489580D02*
X142185714Y-214537200D01*
X142185714Y-214537200D02*
X142280952Y-214584819D01*
X142280952Y-214584819D02*
X142519047Y-214584819D01*
X142519047Y-214584819D02*
X142614285Y-214537200D01*
X142614285Y-214537200D02*
X142661904Y-214489580D01*
X141709523Y-213680057D02*
X141661904Y-213632438D01*
X141661904Y-213632438D02*
X141566666Y-213584819D01*
X141566666Y-213584819D02*
X141328571Y-213584819D01*
X141328571Y-213584819D02*
X141233333Y-213632438D01*
X141233333Y-213632438D02*
X141185714Y-213680057D01*
X141185714Y-213680057D02*
X141138095Y-213775295D01*
X141138095Y-213775295D02*
X141138095Y-213870533D01*
X141138095Y-213870533D02*
X141185714Y-214013390D01*
X141185714Y-214013390D02*
X141757142Y-214584819D01*
X141757142Y-214584819D02*
X141138095Y-214584819D01*
X146471904Y-214904819D02*
X146471904Y-213904819D01*
X145900476Y-214904819D02*
X146329047Y-214333390D01*
X145900476Y-213904819D02*
X146471904Y-214476247D01*
X162228094Y-138584819D02*
X162228094Y-137584819D01*
X162228094Y-137584819D02*
X161989999Y-137584819D01*
X161989999Y-137584819D02*
X161847142Y-137632438D01*
X161847142Y-137632438D02*
X161751904Y-137727676D01*
X161751904Y-137727676D02*
X161704285Y-137822914D01*
X161704285Y-137822914D02*
X161656666Y-138013390D01*
X161656666Y-138013390D02*
X161656666Y-138156247D01*
X161656666Y-138156247D02*
X161704285Y-138346723D01*
X161704285Y-138346723D02*
X161751904Y-138441961D01*
X161751904Y-138441961D02*
X161847142Y-138537200D01*
X161847142Y-138537200D02*
X161989999Y-138584819D01*
X161989999Y-138584819D02*
X162228094Y-138584819D01*
X160751904Y-137584819D02*
X161228094Y-137584819D01*
X161228094Y-137584819D02*
X161275713Y-138061009D01*
X161275713Y-138061009D02*
X161228094Y-138013390D01*
X161228094Y-138013390D02*
X161132856Y-137965771D01*
X161132856Y-137965771D02*
X160894761Y-137965771D01*
X160894761Y-137965771D02*
X160799523Y-138013390D01*
X160799523Y-138013390D02*
X160751904Y-138061009D01*
X160751904Y-138061009D02*
X160704285Y-138156247D01*
X160704285Y-138156247D02*
X160704285Y-138394342D01*
X160704285Y-138394342D02*
X160751904Y-138489580D01*
X160751904Y-138489580D02*
X160799523Y-138537200D01*
X160799523Y-138537200D02*
X160894761Y-138584819D01*
X160894761Y-138584819D02*
X161132856Y-138584819D01*
X161132856Y-138584819D02*
X161228094Y-138537200D01*
X161228094Y-138537200D02*
X161275713Y-138489580D01*
X165561904Y-138904819D02*
X165561904Y-137904819D01*
X164990476Y-138904819D02*
X165419047Y-138333390D01*
X164990476Y-137904819D02*
X165561904Y-138476247D01*
X258064285Y-176584819D02*
X258064285Y-175584819D01*
X258064285Y-175584819D02*
X257826190Y-175584819D01*
X257826190Y-175584819D02*
X257683333Y-175632438D01*
X257683333Y-175632438D02*
X257588095Y-175727676D01*
X257588095Y-175727676D02*
X257540476Y-175822914D01*
X257540476Y-175822914D02*
X257492857Y-176013390D01*
X257492857Y-176013390D02*
X257492857Y-176156247D01*
X257492857Y-176156247D02*
X257540476Y-176346723D01*
X257540476Y-176346723D02*
X257588095Y-176441961D01*
X257588095Y-176441961D02*
X257683333Y-176537200D01*
X257683333Y-176537200D02*
X257826190Y-176584819D01*
X257826190Y-176584819D02*
X258064285Y-176584819D01*
X257159523Y-175584819D02*
X256540476Y-175584819D01*
X256540476Y-175584819D02*
X256873809Y-175965771D01*
X256873809Y-175965771D02*
X256730952Y-175965771D01*
X256730952Y-175965771D02*
X256635714Y-176013390D01*
X256635714Y-176013390D02*
X256588095Y-176061009D01*
X256588095Y-176061009D02*
X256540476Y-176156247D01*
X256540476Y-176156247D02*
X256540476Y-176394342D01*
X256540476Y-176394342D02*
X256588095Y-176489580D01*
X256588095Y-176489580D02*
X256635714Y-176537200D01*
X256635714Y-176537200D02*
X256730952Y-176584819D01*
X256730952Y-176584819D02*
X257016666Y-176584819D01*
X257016666Y-176584819D02*
X257111904Y-176537200D01*
X257111904Y-176537200D02*
X257159523Y-176489580D01*
X255683333Y-175918152D02*
X255683333Y-176584819D01*
X255921428Y-175537200D02*
X256159523Y-176251485D01*
X256159523Y-176251485D02*
X255540476Y-176251485D01*
X260921904Y-176904819D02*
X260921904Y-175904819D01*
X260350476Y-176904819D02*
X260779047Y-176333390D01*
X260350476Y-175904819D02*
X260921904Y-176476247D01*
X315364285Y-157584819D02*
X315364285Y-156584819D01*
X315364285Y-156584819D02*
X315126190Y-156584819D01*
X315126190Y-156584819D02*
X314983333Y-156632438D01*
X314983333Y-156632438D02*
X314888095Y-156727676D01*
X314888095Y-156727676D02*
X314840476Y-156822914D01*
X314840476Y-156822914D02*
X314792857Y-157013390D01*
X314792857Y-157013390D02*
X314792857Y-157156247D01*
X314792857Y-157156247D02*
X314840476Y-157346723D01*
X314840476Y-157346723D02*
X314888095Y-157441961D01*
X314888095Y-157441961D02*
X314983333Y-157537200D01*
X314983333Y-157537200D02*
X315126190Y-157584819D01*
X315126190Y-157584819D02*
X315364285Y-157584819D01*
X314411904Y-156680057D02*
X314364285Y-156632438D01*
X314364285Y-156632438D02*
X314269047Y-156584819D01*
X314269047Y-156584819D02*
X314030952Y-156584819D01*
X314030952Y-156584819D02*
X313935714Y-156632438D01*
X313935714Y-156632438D02*
X313888095Y-156680057D01*
X313888095Y-156680057D02*
X313840476Y-156775295D01*
X313840476Y-156775295D02*
X313840476Y-156870533D01*
X313840476Y-156870533D02*
X313888095Y-157013390D01*
X313888095Y-157013390D02*
X314459523Y-157584819D01*
X314459523Y-157584819D02*
X313840476Y-157584819D01*
X312935714Y-156584819D02*
X313411904Y-156584819D01*
X313411904Y-156584819D02*
X313459523Y-157061009D01*
X313459523Y-157061009D02*
X313411904Y-157013390D01*
X313411904Y-157013390D02*
X313316666Y-156965771D01*
X313316666Y-156965771D02*
X313078571Y-156965771D01*
X313078571Y-156965771D02*
X312983333Y-157013390D01*
X312983333Y-157013390D02*
X312935714Y-157061009D01*
X312935714Y-157061009D02*
X312888095Y-157156247D01*
X312888095Y-157156247D02*
X312888095Y-157394342D01*
X312888095Y-157394342D02*
X312935714Y-157489580D01*
X312935714Y-157489580D02*
X312983333Y-157537200D01*
X312983333Y-157537200D02*
X313078571Y-157584819D01*
X313078571Y-157584819D02*
X313316666Y-157584819D01*
X313316666Y-157584819D02*
X313411904Y-157537200D01*
X313411904Y-157537200D02*
X313459523Y-157489580D01*
X318221904Y-157904819D02*
X318221904Y-156904819D01*
X317650476Y-157904819D02*
X318079047Y-157333390D01*
X317650476Y-156904819D02*
X318221904Y-157476247D01*
X219864285Y-157584819D02*
X219864285Y-156584819D01*
X219864285Y-156584819D02*
X219626190Y-156584819D01*
X219626190Y-156584819D02*
X219483333Y-156632438D01*
X219483333Y-156632438D02*
X219388095Y-156727676D01*
X219388095Y-156727676D02*
X219340476Y-156822914D01*
X219340476Y-156822914D02*
X219292857Y-157013390D01*
X219292857Y-157013390D02*
X219292857Y-157156247D01*
X219292857Y-157156247D02*
X219340476Y-157346723D01*
X219340476Y-157346723D02*
X219388095Y-157441961D01*
X219388095Y-157441961D02*
X219483333Y-157537200D01*
X219483333Y-157537200D02*
X219626190Y-157584819D01*
X219626190Y-157584819D02*
X219864285Y-157584819D01*
X218911904Y-156680057D02*
X218864285Y-156632438D01*
X218864285Y-156632438D02*
X218769047Y-156584819D01*
X218769047Y-156584819D02*
X218530952Y-156584819D01*
X218530952Y-156584819D02*
X218435714Y-156632438D01*
X218435714Y-156632438D02*
X218388095Y-156680057D01*
X218388095Y-156680057D02*
X218340476Y-156775295D01*
X218340476Y-156775295D02*
X218340476Y-156870533D01*
X218340476Y-156870533D02*
X218388095Y-157013390D01*
X218388095Y-157013390D02*
X218959523Y-157584819D01*
X218959523Y-157584819D02*
X218340476Y-157584819D01*
X217721428Y-156584819D02*
X217626190Y-156584819D01*
X217626190Y-156584819D02*
X217530952Y-156632438D01*
X217530952Y-156632438D02*
X217483333Y-156680057D01*
X217483333Y-156680057D02*
X217435714Y-156775295D01*
X217435714Y-156775295D02*
X217388095Y-156965771D01*
X217388095Y-156965771D02*
X217388095Y-157203866D01*
X217388095Y-157203866D02*
X217435714Y-157394342D01*
X217435714Y-157394342D02*
X217483333Y-157489580D01*
X217483333Y-157489580D02*
X217530952Y-157537200D01*
X217530952Y-157537200D02*
X217626190Y-157584819D01*
X217626190Y-157584819D02*
X217721428Y-157584819D01*
X217721428Y-157584819D02*
X217816666Y-157537200D01*
X217816666Y-157537200D02*
X217864285Y-157489580D01*
X217864285Y-157489580D02*
X217911904Y-157394342D01*
X217911904Y-157394342D02*
X217959523Y-157203866D01*
X217959523Y-157203866D02*
X217959523Y-156965771D01*
X217959523Y-156965771D02*
X217911904Y-156775295D01*
X217911904Y-156775295D02*
X217864285Y-156680057D01*
X217864285Y-156680057D02*
X217816666Y-156632438D01*
X217816666Y-156632438D02*
X217721428Y-156584819D01*
X222721904Y-157904819D02*
X222721904Y-156904819D01*
X222150476Y-157904819D02*
X222579047Y-157333390D01*
X222150476Y-156904819D02*
X222721904Y-157476247D01*
X143614285Y-176584819D02*
X143614285Y-175584819D01*
X143614285Y-175584819D02*
X143376190Y-175584819D01*
X143376190Y-175584819D02*
X143233333Y-175632438D01*
X143233333Y-175632438D02*
X143138095Y-175727676D01*
X143138095Y-175727676D02*
X143090476Y-175822914D01*
X143090476Y-175822914D02*
X143042857Y-176013390D01*
X143042857Y-176013390D02*
X143042857Y-176156247D01*
X143042857Y-176156247D02*
X143090476Y-176346723D01*
X143090476Y-176346723D02*
X143138095Y-176441961D01*
X143138095Y-176441961D02*
X143233333Y-176537200D01*
X143233333Y-176537200D02*
X143376190Y-176584819D01*
X143376190Y-176584819D02*
X143614285Y-176584819D01*
X142661904Y-175680057D02*
X142614285Y-175632438D01*
X142614285Y-175632438D02*
X142519047Y-175584819D01*
X142519047Y-175584819D02*
X142280952Y-175584819D01*
X142280952Y-175584819D02*
X142185714Y-175632438D01*
X142185714Y-175632438D02*
X142138095Y-175680057D01*
X142138095Y-175680057D02*
X142090476Y-175775295D01*
X142090476Y-175775295D02*
X142090476Y-175870533D01*
X142090476Y-175870533D02*
X142138095Y-176013390D01*
X142138095Y-176013390D02*
X142709523Y-176584819D01*
X142709523Y-176584819D02*
X142090476Y-176584819D01*
X141519047Y-176013390D02*
X141614285Y-175965771D01*
X141614285Y-175965771D02*
X141661904Y-175918152D01*
X141661904Y-175918152D02*
X141709523Y-175822914D01*
X141709523Y-175822914D02*
X141709523Y-175775295D01*
X141709523Y-175775295D02*
X141661904Y-175680057D01*
X141661904Y-175680057D02*
X141614285Y-175632438D01*
X141614285Y-175632438D02*
X141519047Y-175584819D01*
X141519047Y-175584819D02*
X141328571Y-175584819D01*
X141328571Y-175584819D02*
X141233333Y-175632438D01*
X141233333Y-175632438D02*
X141185714Y-175680057D01*
X141185714Y-175680057D02*
X141138095Y-175775295D01*
X141138095Y-175775295D02*
X141138095Y-175822914D01*
X141138095Y-175822914D02*
X141185714Y-175918152D01*
X141185714Y-175918152D02*
X141233333Y-175965771D01*
X141233333Y-175965771D02*
X141328571Y-176013390D01*
X141328571Y-176013390D02*
X141519047Y-176013390D01*
X141519047Y-176013390D02*
X141614285Y-176061009D01*
X141614285Y-176061009D02*
X141661904Y-176108628D01*
X141661904Y-176108628D02*
X141709523Y-176203866D01*
X141709523Y-176203866D02*
X141709523Y-176394342D01*
X141709523Y-176394342D02*
X141661904Y-176489580D01*
X141661904Y-176489580D02*
X141614285Y-176537200D01*
X141614285Y-176537200D02*
X141519047Y-176584819D01*
X141519047Y-176584819D02*
X141328571Y-176584819D01*
X141328571Y-176584819D02*
X141233333Y-176537200D01*
X141233333Y-176537200D02*
X141185714Y-176489580D01*
X141185714Y-176489580D02*
X141138095Y-176394342D01*
X141138095Y-176394342D02*
X141138095Y-176203866D01*
X141138095Y-176203866D02*
X141185714Y-176108628D01*
X141185714Y-176108628D02*
X141233333Y-176061009D01*
X141233333Y-176061009D02*
X141328571Y-176013390D01*
X146471904Y-176904819D02*
X146471904Y-175904819D01*
X145900476Y-176904819D02*
X146329047Y-176333390D01*
X145900476Y-175904819D02*
X146471904Y-176476247D01*
X277114285Y-138584819D02*
X277114285Y-137584819D01*
X277114285Y-137584819D02*
X276876190Y-137584819D01*
X276876190Y-137584819D02*
X276733333Y-137632438D01*
X276733333Y-137632438D02*
X276638095Y-137727676D01*
X276638095Y-137727676D02*
X276590476Y-137822914D01*
X276590476Y-137822914D02*
X276542857Y-138013390D01*
X276542857Y-138013390D02*
X276542857Y-138156247D01*
X276542857Y-138156247D02*
X276590476Y-138346723D01*
X276590476Y-138346723D02*
X276638095Y-138441961D01*
X276638095Y-138441961D02*
X276733333Y-138537200D01*
X276733333Y-138537200D02*
X276876190Y-138584819D01*
X276876190Y-138584819D02*
X277114285Y-138584819D01*
X275590476Y-138584819D02*
X276161904Y-138584819D01*
X275876190Y-138584819D02*
X275876190Y-137584819D01*
X275876190Y-137584819D02*
X275971428Y-137727676D01*
X275971428Y-137727676D02*
X276066666Y-137822914D01*
X276066666Y-137822914D02*
X276161904Y-137870533D01*
X274638095Y-138584819D02*
X275209523Y-138584819D01*
X274923809Y-138584819D02*
X274923809Y-137584819D01*
X274923809Y-137584819D02*
X275019047Y-137727676D01*
X275019047Y-137727676D02*
X275114285Y-137822914D01*
X275114285Y-137822914D02*
X275209523Y-137870533D01*
X279971904Y-138904819D02*
X279971904Y-137904819D01*
X279400476Y-138904819D02*
X279829047Y-138333390D01*
X279400476Y-137904819D02*
X279971904Y-138476247D01*
X162714285Y-195584819D02*
X162714285Y-194584819D01*
X162714285Y-194584819D02*
X162476190Y-194584819D01*
X162476190Y-194584819D02*
X162333333Y-194632438D01*
X162333333Y-194632438D02*
X162238095Y-194727676D01*
X162238095Y-194727676D02*
X162190476Y-194822914D01*
X162190476Y-194822914D02*
X162142857Y-195013390D01*
X162142857Y-195013390D02*
X162142857Y-195156247D01*
X162142857Y-195156247D02*
X162190476Y-195346723D01*
X162190476Y-195346723D02*
X162238095Y-195441961D01*
X162238095Y-195441961D02*
X162333333Y-195537200D01*
X162333333Y-195537200D02*
X162476190Y-195584819D01*
X162476190Y-195584819D02*
X162714285Y-195584819D01*
X161285714Y-194918152D02*
X161285714Y-195584819D01*
X161523809Y-194537200D02*
X161761904Y-195251485D01*
X161761904Y-195251485D02*
X161142857Y-195251485D01*
X160238095Y-195584819D02*
X160809523Y-195584819D01*
X160523809Y-195584819D02*
X160523809Y-194584819D01*
X160523809Y-194584819D02*
X160619047Y-194727676D01*
X160619047Y-194727676D02*
X160714285Y-194822914D01*
X160714285Y-194822914D02*
X160809523Y-194870533D01*
X165571904Y-195904819D02*
X165571904Y-194904819D01*
X165000476Y-195904819D02*
X165429047Y-195333390D01*
X165000476Y-194904819D02*
X165571904Y-195476247D01*
X315364285Y-138584819D02*
X315364285Y-137584819D01*
X315364285Y-137584819D02*
X315126190Y-137584819D01*
X315126190Y-137584819D02*
X314983333Y-137632438D01*
X314983333Y-137632438D02*
X314888095Y-137727676D01*
X314888095Y-137727676D02*
X314840476Y-137822914D01*
X314840476Y-137822914D02*
X314792857Y-138013390D01*
X314792857Y-138013390D02*
X314792857Y-138156247D01*
X314792857Y-138156247D02*
X314840476Y-138346723D01*
X314840476Y-138346723D02*
X314888095Y-138441961D01*
X314888095Y-138441961D02*
X314983333Y-138537200D01*
X314983333Y-138537200D02*
X315126190Y-138584819D01*
X315126190Y-138584819D02*
X315364285Y-138584819D01*
X313840476Y-138584819D02*
X314411904Y-138584819D01*
X314126190Y-138584819D02*
X314126190Y-137584819D01*
X314126190Y-137584819D02*
X314221428Y-137727676D01*
X314221428Y-137727676D02*
X314316666Y-137822914D01*
X314316666Y-137822914D02*
X314411904Y-137870533D01*
X313507142Y-137584819D02*
X312888095Y-137584819D01*
X312888095Y-137584819D02*
X313221428Y-137965771D01*
X313221428Y-137965771D02*
X313078571Y-137965771D01*
X313078571Y-137965771D02*
X312983333Y-138013390D01*
X312983333Y-138013390D02*
X312935714Y-138061009D01*
X312935714Y-138061009D02*
X312888095Y-138156247D01*
X312888095Y-138156247D02*
X312888095Y-138394342D01*
X312888095Y-138394342D02*
X312935714Y-138489580D01*
X312935714Y-138489580D02*
X312983333Y-138537200D01*
X312983333Y-138537200D02*
X313078571Y-138584819D01*
X313078571Y-138584819D02*
X313364285Y-138584819D01*
X313364285Y-138584819D02*
X313459523Y-138537200D01*
X313459523Y-138537200D02*
X313507142Y-138489580D01*
X318221904Y-138904819D02*
X318221904Y-137904819D01*
X317650476Y-138904819D02*
X318079047Y-138333390D01*
X317650476Y-137904819D02*
X318221904Y-138476247D01*
X277164285Y-195584819D02*
X277164285Y-194584819D01*
X277164285Y-194584819D02*
X276926190Y-194584819D01*
X276926190Y-194584819D02*
X276783333Y-194632438D01*
X276783333Y-194632438D02*
X276688095Y-194727676D01*
X276688095Y-194727676D02*
X276640476Y-194822914D01*
X276640476Y-194822914D02*
X276592857Y-195013390D01*
X276592857Y-195013390D02*
X276592857Y-195156247D01*
X276592857Y-195156247D02*
X276640476Y-195346723D01*
X276640476Y-195346723D02*
X276688095Y-195441961D01*
X276688095Y-195441961D02*
X276783333Y-195537200D01*
X276783333Y-195537200D02*
X276926190Y-195584819D01*
X276926190Y-195584819D02*
X277164285Y-195584819D01*
X275735714Y-194918152D02*
X275735714Y-195584819D01*
X275973809Y-194537200D02*
X276211904Y-195251485D01*
X276211904Y-195251485D02*
X275592857Y-195251485D01*
X275307142Y-194584819D02*
X274640476Y-194584819D01*
X274640476Y-194584819D02*
X275069047Y-195584819D01*
X280021904Y-195904819D02*
X280021904Y-194904819D01*
X279450476Y-195904819D02*
X279879047Y-195333390D01*
X279450476Y-194904819D02*
X280021904Y-195476247D01*
X302129819Y-117766666D02*
X302844104Y-117766666D01*
X302844104Y-117766666D02*
X302986961Y-117719047D01*
X302986961Y-117719047D02*
X303082200Y-117623809D01*
X303082200Y-117623809D02*
X303129819Y-117480952D01*
X303129819Y-117480952D02*
X303129819Y-117385714D01*
X302225057Y-118195238D02*
X302177438Y-118242857D01*
X302177438Y-118242857D02*
X302129819Y-118338095D01*
X302129819Y-118338095D02*
X302129819Y-118576190D01*
X302129819Y-118576190D02*
X302177438Y-118671428D01*
X302177438Y-118671428D02*
X302225057Y-118719047D01*
X302225057Y-118719047D02*
X302320295Y-118766666D01*
X302320295Y-118766666D02*
X302415533Y-118766666D01*
X302415533Y-118766666D02*
X302558390Y-118719047D01*
X302558390Y-118719047D02*
X303129819Y-118147619D01*
X303129819Y-118147619D02*
X303129819Y-118766666D01*
X238488094Y-138584819D02*
X238488094Y-137584819D01*
X238488094Y-137584819D02*
X238249999Y-137584819D01*
X238249999Y-137584819D02*
X238107142Y-137632438D01*
X238107142Y-137632438D02*
X238011904Y-137727676D01*
X238011904Y-137727676D02*
X237964285Y-137822914D01*
X237964285Y-137822914D02*
X237916666Y-138013390D01*
X237916666Y-138013390D02*
X237916666Y-138156247D01*
X237916666Y-138156247D02*
X237964285Y-138346723D01*
X237964285Y-138346723D02*
X238011904Y-138441961D01*
X238011904Y-138441961D02*
X238107142Y-138537200D01*
X238107142Y-138537200D02*
X238249999Y-138584819D01*
X238249999Y-138584819D02*
X238488094Y-138584819D01*
X237440475Y-138584819D02*
X237249999Y-138584819D01*
X237249999Y-138584819D02*
X237154761Y-138537200D01*
X237154761Y-138537200D02*
X237107142Y-138489580D01*
X237107142Y-138489580D02*
X237011904Y-138346723D01*
X237011904Y-138346723D02*
X236964285Y-138156247D01*
X236964285Y-138156247D02*
X236964285Y-137775295D01*
X236964285Y-137775295D02*
X237011904Y-137680057D01*
X237011904Y-137680057D02*
X237059523Y-137632438D01*
X237059523Y-137632438D02*
X237154761Y-137584819D01*
X237154761Y-137584819D02*
X237345237Y-137584819D01*
X237345237Y-137584819D02*
X237440475Y-137632438D01*
X237440475Y-137632438D02*
X237488094Y-137680057D01*
X237488094Y-137680057D02*
X237535713Y-137775295D01*
X237535713Y-137775295D02*
X237535713Y-138013390D01*
X237535713Y-138013390D02*
X237488094Y-138108628D01*
X237488094Y-138108628D02*
X237440475Y-138156247D01*
X237440475Y-138156247D02*
X237345237Y-138203866D01*
X237345237Y-138203866D02*
X237154761Y-138203866D01*
X237154761Y-138203866D02*
X237059523Y-138156247D01*
X237059523Y-138156247D02*
X237011904Y-138108628D01*
X237011904Y-138108628D02*
X236964285Y-138013390D01*
X241821904Y-138904819D02*
X241821904Y-137904819D01*
X241250476Y-138904819D02*
X241679047Y-138333390D01*
X241250476Y-137904819D02*
X241821904Y-138476247D01*
X105414285Y-214584819D02*
X105414285Y-213584819D01*
X105414285Y-213584819D02*
X105176190Y-213584819D01*
X105176190Y-213584819D02*
X105033333Y-213632438D01*
X105033333Y-213632438D02*
X104938095Y-213727676D01*
X104938095Y-213727676D02*
X104890476Y-213822914D01*
X104890476Y-213822914D02*
X104842857Y-214013390D01*
X104842857Y-214013390D02*
X104842857Y-214156247D01*
X104842857Y-214156247D02*
X104890476Y-214346723D01*
X104890476Y-214346723D02*
X104938095Y-214441961D01*
X104938095Y-214441961D02*
X105033333Y-214537200D01*
X105033333Y-214537200D02*
X105176190Y-214584819D01*
X105176190Y-214584819D02*
X105414285Y-214584819D01*
X103938095Y-213584819D02*
X104414285Y-213584819D01*
X104414285Y-213584819D02*
X104461904Y-214061009D01*
X104461904Y-214061009D02*
X104414285Y-214013390D01*
X104414285Y-214013390D02*
X104319047Y-213965771D01*
X104319047Y-213965771D02*
X104080952Y-213965771D01*
X104080952Y-213965771D02*
X103985714Y-214013390D01*
X103985714Y-214013390D02*
X103938095Y-214061009D01*
X103938095Y-214061009D02*
X103890476Y-214156247D01*
X103890476Y-214156247D02*
X103890476Y-214394342D01*
X103890476Y-214394342D02*
X103938095Y-214489580D01*
X103938095Y-214489580D02*
X103985714Y-214537200D01*
X103985714Y-214537200D02*
X104080952Y-214584819D01*
X104080952Y-214584819D02*
X104319047Y-214584819D01*
X104319047Y-214584819D02*
X104414285Y-214537200D01*
X104414285Y-214537200D02*
X104461904Y-214489580D01*
X103271428Y-213584819D02*
X103176190Y-213584819D01*
X103176190Y-213584819D02*
X103080952Y-213632438D01*
X103080952Y-213632438D02*
X103033333Y-213680057D01*
X103033333Y-213680057D02*
X102985714Y-213775295D01*
X102985714Y-213775295D02*
X102938095Y-213965771D01*
X102938095Y-213965771D02*
X102938095Y-214203866D01*
X102938095Y-214203866D02*
X102985714Y-214394342D01*
X102985714Y-214394342D02*
X103033333Y-214489580D01*
X103033333Y-214489580D02*
X103080952Y-214537200D01*
X103080952Y-214537200D02*
X103176190Y-214584819D01*
X103176190Y-214584819D02*
X103271428Y-214584819D01*
X103271428Y-214584819D02*
X103366666Y-214537200D01*
X103366666Y-214537200D02*
X103414285Y-214489580D01*
X103414285Y-214489580D02*
X103461904Y-214394342D01*
X103461904Y-214394342D02*
X103509523Y-214203866D01*
X103509523Y-214203866D02*
X103509523Y-213965771D01*
X103509523Y-213965771D02*
X103461904Y-213775295D01*
X103461904Y-213775295D02*
X103414285Y-213680057D01*
X103414285Y-213680057D02*
X103366666Y-213632438D01*
X103366666Y-213632438D02*
X103271428Y-213584819D01*
X108271904Y-214904819D02*
X108271904Y-213904819D01*
X107700476Y-214904819D02*
X108129047Y-214333390D01*
X107700476Y-213904819D02*
X108271904Y-214476247D01*
X162714285Y-214584819D02*
X162714285Y-213584819D01*
X162714285Y-213584819D02*
X162476190Y-213584819D01*
X162476190Y-213584819D02*
X162333333Y-213632438D01*
X162333333Y-213632438D02*
X162238095Y-213727676D01*
X162238095Y-213727676D02*
X162190476Y-213822914D01*
X162190476Y-213822914D02*
X162142857Y-214013390D01*
X162142857Y-214013390D02*
X162142857Y-214156247D01*
X162142857Y-214156247D02*
X162190476Y-214346723D01*
X162190476Y-214346723D02*
X162238095Y-214441961D01*
X162238095Y-214441961D02*
X162333333Y-214537200D01*
X162333333Y-214537200D02*
X162476190Y-214584819D01*
X162476190Y-214584819D02*
X162714285Y-214584819D01*
X161238095Y-213584819D02*
X161714285Y-213584819D01*
X161714285Y-213584819D02*
X161761904Y-214061009D01*
X161761904Y-214061009D02*
X161714285Y-214013390D01*
X161714285Y-214013390D02*
X161619047Y-213965771D01*
X161619047Y-213965771D02*
X161380952Y-213965771D01*
X161380952Y-213965771D02*
X161285714Y-214013390D01*
X161285714Y-214013390D02*
X161238095Y-214061009D01*
X161238095Y-214061009D02*
X161190476Y-214156247D01*
X161190476Y-214156247D02*
X161190476Y-214394342D01*
X161190476Y-214394342D02*
X161238095Y-214489580D01*
X161238095Y-214489580D02*
X161285714Y-214537200D01*
X161285714Y-214537200D02*
X161380952Y-214584819D01*
X161380952Y-214584819D02*
X161619047Y-214584819D01*
X161619047Y-214584819D02*
X161714285Y-214537200D01*
X161714285Y-214537200D02*
X161761904Y-214489580D01*
X160857142Y-213584819D02*
X160238095Y-213584819D01*
X160238095Y-213584819D02*
X160571428Y-213965771D01*
X160571428Y-213965771D02*
X160428571Y-213965771D01*
X160428571Y-213965771D02*
X160333333Y-214013390D01*
X160333333Y-214013390D02*
X160285714Y-214061009D01*
X160285714Y-214061009D02*
X160238095Y-214156247D01*
X160238095Y-214156247D02*
X160238095Y-214394342D01*
X160238095Y-214394342D02*
X160285714Y-214489580D01*
X160285714Y-214489580D02*
X160333333Y-214537200D01*
X160333333Y-214537200D02*
X160428571Y-214584819D01*
X160428571Y-214584819D02*
X160714285Y-214584819D01*
X160714285Y-214584819D02*
X160809523Y-214537200D01*
X160809523Y-214537200D02*
X160857142Y-214489580D01*
X165571904Y-214904819D02*
X165571904Y-213904819D01*
X165000476Y-214904819D02*
X165429047Y-214333390D01*
X165000476Y-213904819D02*
X165571904Y-214476247D01*
X124028094Y-138584819D02*
X124028094Y-137584819D01*
X124028094Y-137584819D02*
X123789999Y-137584819D01*
X123789999Y-137584819D02*
X123647142Y-137632438D01*
X123647142Y-137632438D02*
X123551904Y-137727676D01*
X123551904Y-137727676D02*
X123504285Y-137822914D01*
X123504285Y-137822914D02*
X123456666Y-138013390D01*
X123456666Y-138013390D02*
X123456666Y-138156247D01*
X123456666Y-138156247D02*
X123504285Y-138346723D01*
X123504285Y-138346723D02*
X123551904Y-138441961D01*
X123551904Y-138441961D02*
X123647142Y-138537200D01*
X123647142Y-138537200D02*
X123789999Y-138584819D01*
X123789999Y-138584819D02*
X124028094Y-138584819D01*
X123123332Y-137584819D02*
X122504285Y-137584819D01*
X122504285Y-137584819D02*
X122837618Y-137965771D01*
X122837618Y-137965771D02*
X122694761Y-137965771D01*
X122694761Y-137965771D02*
X122599523Y-138013390D01*
X122599523Y-138013390D02*
X122551904Y-138061009D01*
X122551904Y-138061009D02*
X122504285Y-138156247D01*
X122504285Y-138156247D02*
X122504285Y-138394342D01*
X122504285Y-138394342D02*
X122551904Y-138489580D01*
X122551904Y-138489580D02*
X122599523Y-138537200D01*
X122599523Y-138537200D02*
X122694761Y-138584819D01*
X122694761Y-138584819D02*
X122980475Y-138584819D01*
X122980475Y-138584819D02*
X123075713Y-138537200D01*
X123075713Y-138537200D02*
X123123332Y-138489580D01*
X127361904Y-138904819D02*
X127361904Y-137904819D01*
X126790476Y-138904819D02*
X127219047Y-138333390D01*
X126790476Y-137904819D02*
X127361904Y-138476247D01*
X124664285Y-157584819D02*
X124664285Y-156584819D01*
X124664285Y-156584819D02*
X124426190Y-156584819D01*
X124426190Y-156584819D02*
X124283333Y-156632438D01*
X124283333Y-156632438D02*
X124188095Y-156727676D01*
X124188095Y-156727676D02*
X124140476Y-156822914D01*
X124140476Y-156822914D02*
X124092857Y-157013390D01*
X124092857Y-157013390D02*
X124092857Y-157156247D01*
X124092857Y-157156247D02*
X124140476Y-157346723D01*
X124140476Y-157346723D02*
X124188095Y-157441961D01*
X124188095Y-157441961D02*
X124283333Y-157537200D01*
X124283333Y-157537200D02*
X124426190Y-157584819D01*
X124426190Y-157584819D02*
X124664285Y-157584819D01*
X123140476Y-157584819D02*
X123711904Y-157584819D01*
X123426190Y-157584819D02*
X123426190Y-156584819D01*
X123426190Y-156584819D02*
X123521428Y-156727676D01*
X123521428Y-156727676D02*
X123616666Y-156822914D01*
X123616666Y-156822914D02*
X123711904Y-156870533D01*
X122235714Y-156584819D02*
X122711904Y-156584819D01*
X122711904Y-156584819D02*
X122759523Y-157061009D01*
X122759523Y-157061009D02*
X122711904Y-157013390D01*
X122711904Y-157013390D02*
X122616666Y-156965771D01*
X122616666Y-156965771D02*
X122378571Y-156965771D01*
X122378571Y-156965771D02*
X122283333Y-157013390D01*
X122283333Y-157013390D02*
X122235714Y-157061009D01*
X122235714Y-157061009D02*
X122188095Y-157156247D01*
X122188095Y-157156247D02*
X122188095Y-157394342D01*
X122188095Y-157394342D02*
X122235714Y-157489580D01*
X122235714Y-157489580D02*
X122283333Y-157537200D01*
X122283333Y-157537200D02*
X122378571Y-157584819D01*
X122378571Y-157584819D02*
X122616666Y-157584819D01*
X122616666Y-157584819D02*
X122711904Y-157537200D01*
X122711904Y-157537200D02*
X122759523Y-157489580D01*
X127521904Y-157904819D02*
X127521904Y-156904819D01*
X126950476Y-157904819D02*
X127379047Y-157333390D01*
X126950476Y-156904819D02*
X127521904Y-157476247D01*
X181714285Y-157584819D02*
X181714285Y-156584819D01*
X181714285Y-156584819D02*
X181476190Y-156584819D01*
X181476190Y-156584819D02*
X181333333Y-156632438D01*
X181333333Y-156632438D02*
X181238095Y-156727676D01*
X181238095Y-156727676D02*
X181190476Y-156822914D01*
X181190476Y-156822914D02*
X181142857Y-157013390D01*
X181142857Y-157013390D02*
X181142857Y-157156247D01*
X181142857Y-157156247D02*
X181190476Y-157346723D01*
X181190476Y-157346723D02*
X181238095Y-157441961D01*
X181238095Y-157441961D02*
X181333333Y-157537200D01*
X181333333Y-157537200D02*
X181476190Y-157584819D01*
X181476190Y-157584819D02*
X181714285Y-157584819D01*
X180190476Y-157584819D02*
X180761904Y-157584819D01*
X180476190Y-157584819D02*
X180476190Y-156584819D01*
X180476190Y-156584819D02*
X180571428Y-156727676D01*
X180571428Y-156727676D02*
X180666666Y-156822914D01*
X180666666Y-156822914D02*
X180761904Y-156870533D01*
X179619047Y-157013390D02*
X179714285Y-156965771D01*
X179714285Y-156965771D02*
X179761904Y-156918152D01*
X179761904Y-156918152D02*
X179809523Y-156822914D01*
X179809523Y-156822914D02*
X179809523Y-156775295D01*
X179809523Y-156775295D02*
X179761904Y-156680057D01*
X179761904Y-156680057D02*
X179714285Y-156632438D01*
X179714285Y-156632438D02*
X179619047Y-156584819D01*
X179619047Y-156584819D02*
X179428571Y-156584819D01*
X179428571Y-156584819D02*
X179333333Y-156632438D01*
X179333333Y-156632438D02*
X179285714Y-156680057D01*
X179285714Y-156680057D02*
X179238095Y-156775295D01*
X179238095Y-156775295D02*
X179238095Y-156822914D01*
X179238095Y-156822914D02*
X179285714Y-156918152D01*
X179285714Y-156918152D02*
X179333333Y-156965771D01*
X179333333Y-156965771D02*
X179428571Y-157013390D01*
X179428571Y-157013390D02*
X179619047Y-157013390D01*
X179619047Y-157013390D02*
X179714285Y-157061009D01*
X179714285Y-157061009D02*
X179761904Y-157108628D01*
X179761904Y-157108628D02*
X179809523Y-157203866D01*
X179809523Y-157203866D02*
X179809523Y-157394342D01*
X179809523Y-157394342D02*
X179761904Y-157489580D01*
X179761904Y-157489580D02*
X179714285Y-157537200D01*
X179714285Y-157537200D02*
X179619047Y-157584819D01*
X179619047Y-157584819D02*
X179428571Y-157584819D01*
X179428571Y-157584819D02*
X179333333Y-157537200D01*
X179333333Y-157537200D02*
X179285714Y-157489580D01*
X179285714Y-157489580D02*
X179238095Y-157394342D01*
X179238095Y-157394342D02*
X179238095Y-157203866D01*
X179238095Y-157203866D02*
X179285714Y-157108628D01*
X179285714Y-157108628D02*
X179333333Y-157061009D01*
X179333333Y-157061009D02*
X179428571Y-157013390D01*
X184571904Y-157904819D02*
X184571904Y-156904819D01*
X184000476Y-157904819D02*
X184429047Y-157333390D01*
X184000476Y-156904819D02*
X184571904Y-157476247D01*
%TO.C,D29*%
D11*
X158680000Y-178250000D02*
X159330000Y-178250000D01*
X162730000Y-177130000D02*
X162730000Y-179370000D01*
X162850000Y-177130000D02*
X162850000Y-179370000D01*
X162970000Y-177130000D02*
X162970000Y-179370000D01*
X164220000Y-178250000D02*
X163570000Y-178250000D01*
X159330000Y-177130000D02*
X163570000Y-177130000D01*
X163570000Y-179370000D01*
X159330000Y-179370000D01*
X159330000Y-177130000D01*
%TO.C,D48*%
X292280000Y-197250000D02*
X292930000Y-197250000D01*
X296330000Y-196130000D02*
X296330000Y-198370000D01*
X296450000Y-196130000D02*
X296450000Y-198370000D01*
X296570000Y-196130000D02*
X296570000Y-198370000D01*
X297820000Y-197250000D02*
X297170000Y-197250000D01*
X292930000Y-196130000D02*
X297170000Y-196130000D01*
X297170000Y-198370000D01*
X292930000Y-198370000D01*
X292930000Y-196130000D01*
%TO.C,D35*%
X273180000Y-178250000D02*
X273830000Y-178250000D01*
X277230000Y-177130000D02*
X277230000Y-179370000D01*
X277350000Y-177130000D02*
X277350000Y-179370000D01*
X277470000Y-177130000D02*
X277470000Y-179370000D01*
X278720000Y-178250000D02*
X278070000Y-178250000D01*
X273830000Y-177130000D02*
X278070000Y-177130000D01*
X278070000Y-179370000D01*
X273830000Y-179370000D01*
X273830000Y-177130000D01*
%TO.C,D33*%
X234980000Y-178250000D02*
X235630000Y-178250000D01*
X239030000Y-177130000D02*
X239030000Y-179370000D01*
X239150000Y-177130000D02*
X239150000Y-179370000D01*
X239270000Y-177130000D02*
X239270000Y-179370000D01*
X240520000Y-178250000D02*
X239870000Y-178250000D01*
X235630000Y-177130000D02*
X239870000Y-177130000D01*
X239870000Y-179370000D01*
X235630000Y-179370000D01*
X235630000Y-177130000D01*
%TO.C,U3*%
X218850000Y-102885000D02*
X218850000Y-109085000D01*
X218850000Y-128735000D02*
X218850000Y-127735000D01*
X218850000Y-128735000D02*
X220350000Y-128735000D01*
X237250000Y-102885000D02*
X218850000Y-102885000D01*
X237250000Y-102885000D02*
X237250000Y-109085000D01*
X237250000Y-127735000D02*
X237250000Y-128735000D01*
X237250000Y-128735000D02*
X235750000Y-128735000D01*
X237250000Y-109760000D02*
X237750000Y-109760000D01*
X237250000Y-109260000D01*
X237250000Y-109760000D01*
G36*
X237750000Y-109760000D02*
G01*
X237250000Y-109760000D01*
X237250000Y-109260000D01*
X237750000Y-109760000D01*
G37*
%TO.C,D43*%
X196780000Y-197250000D02*
X197430000Y-197250000D01*
X200830000Y-196130000D02*
X200830000Y-198370000D01*
X200950000Y-196130000D02*
X200950000Y-198370000D01*
X201070000Y-196130000D02*
X201070000Y-198370000D01*
X202320000Y-197250000D02*
X201670000Y-197250000D01*
X197430000Y-196130000D02*
X201670000Y-196130000D01*
X201670000Y-198370000D01*
X197430000Y-198370000D01*
X197430000Y-196130000D01*
%TO.C,D21*%
X234980000Y-159250000D02*
X235630000Y-159250000D01*
X239030000Y-158130000D02*
X239030000Y-160370000D01*
X239150000Y-158130000D02*
X239150000Y-160370000D01*
X239270000Y-158130000D02*
X239270000Y-160370000D01*
X240520000Y-159250000D02*
X239870000Y-159250000D01*
X235630000Y-158130000D02*
X239870000Y-158130000D01*
X239870000Y-160370000D01*
X235630000Y-160370000D01*
X235630000Y-158130000D01*
%TO.C,D17*%
X158630000Y-159250000D02*
X159280000Y-159250000D01*
X162680000Y-158130000D02*
X162680000Y-160370000D01*
X162800000Y-158130000D02*
X162800000Y-160370000D01*
X162920000Y-158130000D02*
X162920000Y-160370000D01*
X164170000Y-159250000D02*
X163520000Y-159250000D01*
X159280000Y-158130000D02*
X163520000Y-158130000D01*
X163520000Y-160370000D01*
X159280000Y-160370000D01*
X159280000Y-158130000D01*
%TO.C,D56*%
X254080000Y-216300000D02*
X254730000Y-216300000D01*
X258130000Y-215180000D02*
X258130000Y-217420000D01*
X258250000Y-215180000D02*
X258250000Y-217420000D01*
X258370000Y-215180000D02*
X258370000Y-217420000D01*
X259620000Y-216300000D02*
X258970000Y-216300000D01*
X254730000Y-215180000D02*
X258970000Y-215180000D01*
X258970000Y-217420000D01*
X254730000Y-217420000D01*
X254730000Y-215180000D01*
%TO.C,D23*%
X273230000Y-159250000D02*
X273880000Y-159250000D01*
X277280000Y-158130000D02*
X277280000Y-160370000D01*
X277400000Y-158130000D02*
X277400000Y-160370000D01*
X277520000Y-158130000D02*
X277520000Y-160370000D01*
X278770000Y-159250000D02*
X278120000Y-159250000D01*
X273880000Y-158130000D02*
X278120000Y-158130000D01*
X278120000Y-160370000D01*
X273880000Y-160370000D01*
X273880000Y-158130000D01*
%TO.C,D12*%
X292230000Y-140250000D02*
X292880000Y-140250000D01*
X296280000Y-139130000D02*
X296280000Y-141370000D01*
X296400000Y-139130000D02*
X296400000Y-141370000D01*
X296520000Y-139130000D02*
X296520000Y-141370000D01*
X297770000Y-140250000D02*
X297120000Y-140250000D01*
X292880000Y-139130000D02*
X297120000Y-139130000D01*
X297120000Y-141370000D01*
X292880000Y-141370000D01*
X292880000Y-139130000D01*
%TO.C,D38*%
X101480000Y-197250000D02*
X102130000Y-197250000D01*
X105530000Y-196130000D02*
X105530000Y-198370000D01*
X105650000Y-196130000D02*
X105650000Y-198370000D01*
X105770000Y-196130000D02*
X105770000Y-198370000D01*
X107020000Y-197250000D02*
X106370000Y-197250000D01*
X102130000Y-196130000D02*
X106370000Y-196130000D01*
X106370000Y-198370000D01*
X102130000Y-198370000D01*
X102130000Y-196130000D01*
%TO.C,D31*%
X196780000Y-178250000D02*
X197430000Y-178250000D01*
X200830000Y-177130000D02*
X200830000Y-179370000D01*
X200950000Y-177130000D02*
X200950000Y-179370000D01*
X201070000Y-177130000D02*
X201070000Y-179370000D01*
X202320000Y-178250000D02*
X201670000Y-178250000D01*
X197430000Y-177130000D02*
X201670000Y-177130000D01*
X201670000Y-179370000D01*
X197430000Y-179370000D01*
X197430000Y-177130000D01*
%TO.C,D51*%
X120530000Y-216250000D02*
X121180000Y-216250000D01*
X124580000Y-215130000D02*
X124580000Y-217370000D01*
X124700000Y-215130000D02*
X124700000Y-217370000D01*
X124820000Y-215130000D02*
X124820000Y-217370000D01*
X126070000Y-216250000D02*
X125420000Y-216250000D01*
X121180000Y-215130000D02*
X125420000Y-215130000D01*
X125420000Y-217370000D01*
X121180000Y-217370000D01*
X121180000Y-215130000D01*
%TO.C,D40*%
X139630000Y-197250000D02*
X140280000Y-197250000D01*
X143680000Y-196130000D02*
X143680000Y-198370000D01*
X143800000Y-196130000D02*
X143800000Y-198370000D01*
X143920000Y-196130000D02*
X143920000Y-198370000D01*
X145170000Y-197250000D02*
X144520000Y-197250000D01*
X140280000Y-196130000D02*
X144520000Y-196130000D01*
X144520000Y-198370000D01*
X140280000Y-198370000D01*
X140280000Y-196130000D01*
%TO.C,D37*%
X311430000Y-178250000D02*
X312080000Y-178250000D01*
X315480000Y-177130000D02*
X315480000Y-179370000D01*
X315600000Y-177130000D02*
X315600000Y-179370000D01*
X315720000Y-177130000D02*
X315720000Y-179370000D01*
X316970000Y-178250000D02*
X316320000Y-178250000D01*
X312080000Y-177130000D02*
X316320000Y-177130000D01*
X316320000Y-179370000D01*
X312080000Y-179370000D01*
X312080000Y-177130000D01*
%TO.C,D39*%
X120580000Y-197250000D02*
X121230000Y-197250000D01*
X124630000Y-196130000D02*
X124630000Y-198370000D01*
X124750000Y-196130000D02*
X124750000Y-198370000D01*
X124870000Y-196130000D02*
X124870000Y-198370000D01*
X126120000Y-197250000D02*
X125470000Y-197250000D01*
X121230000Y-196130000D02*
X125470000Y-196130000D01*
X125470000Y-198370000D01*
X121230000Y-198370000D01*
X121230000Y-196130000D01*
%TO.C,D45*%
X234980000Y-197250000D02*
X235630000Y-197250000D01*
X239030000Y-196130000D02*
X239030000Y-198370000D01*
X239150000Y-196130000D02*
X239150000Y-198370000D01*
X239270000Y-196130000D02*
X239270000Y-198370000D01*
X240520000Y-197250000D02*
X239870000Y-197250000D01*
X235630000Y-196130000D02*
X239870000Y-196130000D01*
X239870000Y-198370000D01*
X235630000Y-198370000D01*
X235630000Y-196130000D01*
%TO.C,D36*%
X292230000Y-178250000D02*
X292880000Y-178250000D01*
X296280000Y-177130000D02*
X296280000Y-179370000D01*
X296400000Y-177130000D02*
X296400000Y-179370000D01*
X296520000Y-177130000D02*
X296520000Y-179370000D01*
X297770000Y-178250000D02*
X297120000Y-178250000D01*
X292880000Y-177130000D02*
X297120000Y-177130000D01*
X297120000Y-179370000D01*
X292880000Y-179370000D01*
X292880000Y-177130000D01*
%TO.C,D59*%
X311430000Y-216250000D02*
X312080000Y-216250000D01*
X315480000Y-215130000D02*
X315480000Y-217370000D01*
X315600000Y-215130000D02*
X315600000Y-217370000D01*
X315720000Y-215130000D02*
X315720000Y-217370000D01*
X316970000Y-216250000D02*
X316320000Y-216250000D01*
X312080000Y-215130000D02*
X316320000Y-215130000D01*
X316320000Y-217370000D01*
X312080000Y-217370000D01*
X312080000Y-215130000D01*
%TO.C,D7*%
X196790000Y-140250000D02*
X197440000Y-140250000D01*
X200840000Y-139130000D02*
X200840000Y-141370000D01*
X200960000Y-139130000D02*
X200960000Y-141370000D01*
X201080000Y-139130000D02*
X201080000Y-141370000D01*
X202330000Y-140250000D02*
X201680000Y-140250000D01*
X197440000Y-139130000D02*
X201680000Y-139130000D01*
X201680000Y-141370000D01*
X197440000Y-141370000D01*
X197440000Y-139130000D01*
%TO.C,R2*%
X311603641Y-105795000D02*
X311296359Y-105795000D01*
X311603641Y-106555000D02*
X311296359Y-106555000D01*
%TO.C,D8*%
X215930000Y-140250000D02*
X216580000Y-140250000D01*
X219980000Y-139130000D02*
X219980000Y-141370000D01*
X220100000Y-139130000D02*
X220100000Y-141370000D01*
X220220000Y-139130000D02*
X220220000Y-141370000D01*
X221470000Y-140250000D02*
X220820000Y-140250000D01*
X216580000Y-139130000D02*
X220820000Y-139130000D01*
X220820000Y-141370000D01*
X216580000Y-141370000D01*
X216580000Y-139130000D01*
%TO.C,D46*%
X254080000Y-197250000D02*
X254730000Y-197250000D01*
X258130000Y-196130000D02*
X258130000Y-198370000D01*
X258250000Y-196130000D02*
X258250000Y-198370000D01*
X258370000Y-196130000D02*
X258370000Y-198370000D01*
X259620000Y-197250000D02*
X258970000Y-197250000D01*
X254730000Y-196130000D02*
X258970000Y-196130000D01*
X258970000Y-198370000D01*
X254730000Y-198370000D01*
X254730000Y-196130000D01*
%TO.C,D55*%
X225430000Y-216250000D02*
X226080000Y-216250000D01*
X229480000Y-215130000D02*
X229480000Y-217370000D01*
X229600000Y-215130000D02*
X229600000Y-217370000D01*
X229720000Y-215130000D02*
X229720000Y-217370000D01*
X230970000Y-216250000D02*
X230320000Y-216250000D01*
X226080000Y-215130000D02*
X230320000Y-215130000D01*
X230320000Y-217370000D01*
X226080000Y-217370000D01*
X226080000Y-215130000D01*
%TO.C,D19*%
X196830000Y-159250000D02*
X197480000Y-159250000D01*
X200880000Y-158130000D02*
X200880000Y-160370000D01*
X201000000Y-158130000D02*
X201000000Y-160370000D01*
X201120000Y-158130000D02*
X201120000Y-160370000D01*
X202370000Y-159250000D02*
X201720000Y-159250000D01*
X197480000Y-158130000D02*
X201720000Y-158130000D01*
X201720000Y-160370000D01*
X197480000Y-160370000D01*
X197480000Y-158130000D01*
%TO.C,D58*%
X292330000Y-216250000D02*
X292980000Y-216250000D01*
X296380000Y-215130000D02*
X296380000Y-217370000D01*
X296500000Y-215130000D02*
X296500000Y-217370000D01*
X296620000Y-215130000D02*
X296620000Y-217370000D01*
X297870000Y-216250000D02*
X297220000Y-216250000D01*
X292980000Y-215130000D02*
X297220000Y-215130000D01*
X297220000Y-217370000D01*
X292980000Y-217370000D01*
X292980000Y-215130000D01*
%TO.C,D26*%
X101530000Y-178250000D02*
X102180000Y-178250000D01*
X105580000Y-177130000D02*
X105580000Y-179370000D01*
X105700000Y-177130000D02*
X105700000Y-179370000D01*
X105820000Y-177130000D02*
X105820000Y-179370000D01*
X107070000Y-178250000D02*
X106420000Y-178250000D01*
X102180000Y-177130000D02*
X106420000Y-177130000D01*
X106420000Y-179370000D01*
X102180000Y-179370000D01*
X102180000Y-177130000D01*
%TO.C,D42*%
X177830000Y-197250000D02*
X178480000Y-197250000D01*
X181880000Y-196130000D02*
X181880000Y-198370000D01*
X182000000Y-196130000D02*
X182000000Y-198370000D01*
X182120000Y-196130000D02*
X182120000Y-198370000D01*
X183370000Y-197250000D02*
X182720000Y-197250000D01*
X178480000Y-196130000D02*
X182720000Y-196130000D01*
X182720000Y-198370000D01*
X178480000Y-198370000D01*
X178480000Y-196130000D01*
%TO.C,D57*%
X273230000Y-216250000D02*
X273880000Y-216250000D01*
X277280000Y-215130000D02*
X277280000Y-217370000D01*
X277400000Y-215130000D02*
X277400000Y-217370000D01*
X277520000Y-215130000D02*
X277520000Y-217370000D01*
X278770000Y-216250000D02*
X278120000Y-216250000D01*
X273880000Y-215130000D02*
X278120000Y-215130000D01*
X278120000Y-217370000D01*
X273880000Y-217370000D01*
X273880000Y-215130000D01*
%TO.C,D27*%
X120530000Y-178200000D02*
X121180000Y-178200000D01*
X124580000Y-177080000D02*
X124580000Y-179320000D01*
X124700000Y-177080000D02*
X124700000Y-179320000D01*
X124820000Y-177080000D02*
X124820000Y-179320000D01*
X126070000Y-178200000D02*
X125420000Y-178200000D01*
X121180000Y-177080000D02*
X125420000Y-177080000D01*
X125420000Y-179320000D01*
X121180000Y-179320000D01*
X121180000Y-177080000D01*
%TO.C,D6*%
X177780000Y-140250000D02*
X178430000Y-140250000D01*
X181830000Y-139130000D02*
X181830000Y-141370000D01*
X181950000Y-139130000D02*
X181950000Y-141370000D01*
X182070000Y-139130000D02*
X182070000Y-141370000D01*
X183320000Y-140250000D02*
X182670000Y-140250000D01*
X178430000Y-139130000D02*
X182670000Y-139130000D01*
X182670000Y-141370000D01*
X178430000Y-141370000D01*
X178430000Y-139130000D01*
%TO.C,D16*%
X139673200Y-159258000D02*
X140323200Y-159258000D01*
X143723200Y-158138000D02*
X143723200Y-160378000D01*
X143843200Y-158138000D02*
X143843200Y-160378000D01*
X143963200Y-158138000D02*
X143963200Y-160378000D01*
X145213200Y-159258000D02*
X144563200Y-159258000D01*
X140323200Y-158138000D02*
X144563200Y-158138000D01*
X144563200Y-160378000D01*
X140323200Y-160378000D01*
X140323200Y-158138000D01*
%TO.C,D2*%
X101540000Y-140250000D02*
X102190000Y-140250000D01*
X105590000Y-139130000D02*
X105590000Y-141370000D01*
X105710000Y-139130000D02*
X105710000Y-141370000D01*
X105830000Y-139130000D02*
X105830000Y-141370000D01*
X107080000Y-140250000D02*
X106430000Y-140250000D01*
X102190000Y-139130000D02*
X106430000Y-139130000D01*
X106430000Y-141370000D01*
X102190000Y-141370000D01*
X102190000Y-139130000D01*
%TO.C,D49*%
X311430000Y-197250000D02*
X312080000Y-197250000D01*
X315480000Y-196130000D02*
X315480000Y-198370000D01*
X315600000Y-196130000D02*
X315600000Y-198370000D01*
X315720000Y-196130000D02*
X315720000Y-198370000D01*
X316970000Y-197250000D02*
X316320000Y-197250000D01*
X312080000Y-196130000D02*
X316320000Y-196130000D01*
X316320000Y-198370000D01*
X312080000Y-198370000D01*
X312080000Y-196130000D01*
%TO.C,D22*%
X254080000Y-159250000D02*
X254730000Y-159250000D01*
X258130000Y-158130000D02*
X258130000Y-160370000D01*
X258250000Y-158130000D02*
X258250000Y-160370000D01*
X258370000Y-158130000D02*
X258370000Y-160370000D01*
X259620000Y-159250000D02*
X258970000Y-159250000D01*
X254730000Y-158130000D02*
X258970000Y-158130000D01*
X258970000Y-160370000D01*
X254730000Y-160370000D01*
X254730000Y-158130000D01*
%TO.C,D10*%
X254130000Y-140250000D02*
X254780000Y-140250000D01*
X258180000Y-139130000D02*
X258180000Y-141370000D01*
X258300000Y-139130000D02*
X258300000Y-141370000D01*
X258420000Y-139130000D02*
X258420000Y-141370000D01*
X259670000Y-140250000D02*
X259020000Y-140250000D01*
X254780000Y-139130000D02*
X259020000Y-139130000D01*
X259020000Y-141370000D01*
X254780000Y-141370000D01*
X254780000Y-139130000D01*
%TO.C,D30*%
X177780000Y-178250000D02*
X178430000Y-178250000D01*
X181830000Y-177130000D02*
X181830000Y-179370000D01*
X181950000Y-177130000D02*
X181950000Y-179370000D01*
X182070000Y-177130000D02*
X182070000Y-179370000D01*
X183320000Y-178250000D02*
X182670000Y-178250000D01*
X178430000Y-177130000D02*
X182670000Y-177130000D01*
X182670000Y-179370000D01*
X178430000Y-179370000D01*
X178430000Y-177130000D01*
%TO.C,D24*%
X292230000Y-159250000D02*
X292880000Y-159250000D01*
X296280000Y-158130000D02*
X296280000Y-160370000D01*
X296400000Y-158130000D02*
X296400000Y-160370000D01*
X296520000Y-158130000D02*
X296520000Y-160370000D01*
X297770000Y-159250000D02*
X297120000Y-159250000D01*
X292880000Y-158130000D02*
X297120000Y-158130000D01*
X297120000Y-160370000D01*
X292880000Y-160370000D01*
X292880000Y-158130000D01*
%TO.C,D4*%
X139770000Y-140250000D02*
X140420000Y-140250000D01*
X143820000Y-139130000D02*
X143820000Y-141370000D01*
X143940000Y-139130000D02*
X143940000Y-141370000D01*
X144060000Y-139130000D02*
X144060000Y-141370000D01*
X145310000Y-140250000D02*
X144660000Y-140250000D01*
X140420000Y-139130000D02*
X144660000Y-139130000D01*
X144660000Y-141370000D01*
X140420000Y-141370000D01*
X140420000Y-139130000D01*
%TO.C,D14*%
X101530000Y-159250000D02*
X102180000Y-159250000D01*
X105580000Y-158130000D02*
X105580000Y-160370000D01*
X105700000Y-158130000D02*
X105700000Y-160370000D01*
X105820000Y-158130000D02*
X105820000Y-160370000D01*
X107070000Y-159250000D02*
X106420000Y-159250000D01*
X102180000Y-158130000D02*
X106420000Y-158130000D01*
X106420000Y-160370000D01*
X102180000Y-160370000D01*
X102180000Y-158130000D01*
%TO.C,D32*%
X215930000Y-178250000D02*
X216580000Y-178250000D01*
X219980000Y-177130000D02*
X219980000Y-179370000D01*
X220100000Y-177130000D02*
X220100000Y-179370000D01*
X220220000Y-177130000D02*
X220220000Y-179370000D01*
X221470000Y-178250000D02*
X220820000Y-178250000D01*
X216580000Y-177130000D02*
X220820000Y-177130000D01*
X220820000Y-179370000D01*
X216580000Y-179370000D01*
X216580000Y-177130000D01*
%TO.C,D54*%
X187330000Y-216250000D02*
X187980000Y-216250000D01*
X191380000Y-215130000D02*
X191380000Y-217370000D01*
X191500000Y-215130000D02*
X191500000Y-217370000D01*
X191620000Y-215130000D02*
X191620000Y-217370000D01*
X192870000Y-216250000D02*
X192220000Y-216250000D01*
X187980000Y-215130000D02*
X192220000Y-215130000D01*
X192220000Y-217370000D01*
X187980000Y-217370000D01*
X187980000Y-215130000D01*
%TO.C,D44*%
X215880000Y-197250000D02*
X216530000Y-197250000D01*
X219930000Y-196130000D02*
X219930000Y-198370000D01*
X220050000Y-196130000D02*
X220050000Y-198370000D01*
X220170000Y-196130000D02*
X220170000Y-198370000D01*
X221420000Y-197250000D02*
X220770000Y-197250000D01*
X216530000Y-196130000D02*
X220770000Y-196130000D01*
X220770000Y-198370000D01*
X216530000Y-198370000D01*
X216530000Y-196130000D01*
%TO.C,D52*%
X139630000Y-216250000D02*
X140280000Y-216250000D01*
X143680000Y-215130000D02*
X143680000Y-217370000D01*
X143800000Y-215130000D02*
X143800000Y-217370000D01*
X143920000Y-215130000D02*
X143920000Y-217370000D01*
X145170000Y-216250000D02*
X144520000Y-216250000D01*
X140280000Y-215130000D02*
X144520000Y-215130000D01*
X144520000Y-217370000D01*
X140280000Y-217370000D01*
X140280000Y-215130000D01*
%TO.C,D5*%
X158720000Y-140250000D02*
X159370000Y-140250000D01*
X162770000Y-139130000D02*
X162770000Y-141370000D01*
X162890000Y-139130000D02*
X162890000Y-141370000D01*
X163010000Y-139130000D02*
X163010000Y-141370000D01*
X164260000Y-140250000D02*
X163610000Y-140250000D01*
X159370000Y-139130000D02*
X163610000Y-139130000D01*
X163610000Y-141370000D01*
X159370000Y-141370000D01*
X159370000Y-139130000D01*
%TO.C,D34*%
X254080000Y-178250000D02*
X254730000Y-178250000D01*
X258130000Y-177130000D02*
X258130000Y-179370000D01*
X258250000Y-177130000D02*
X258250000Y-179370000D01*
X258370000Y-177130000D02*
X258370000Y-179370000D01*
X259620000Y-178250000D02*
X258970000Y-178250000D01*
X254730000Y-177130000D02*
X258970000Y-177130000D01*
X258970000Y-179370000D01*
X254730000Y-179370000D01*
X254730000Y-177130000D01*
%TO.C,D25*%
X311380000Y-159250000D02*
X312030000Y-159250000D01*
X315430000Y-158130000D02*
X315430000Y-160370000D01*
X315550000Y-158130000D02*
X315550000Y-160370000D01*
X315670000Y-158130000D02*
X315670000Y-160370000D01*
X316920000Y-159250000D02*
X316270000Y-159250000D01*
X312030000Y-158130000D02*
X316270000Y-158130000D01*
X316270000Y-160370000D01*
X312030000Y-160370000D01*
X312030000Y-158130000D01*
%TO.C,D20*%
X215880000Y-159250000D02*
X216530000Y-159250000D01*
X219930000Y-158130000D02*
X219930000Y-160370000D01*
X220050000Y-158130000D02*
X220050000Y-160370000D01*
X220170000Y-158130000D02*
X220170000Y-160370000D01*
X221420000Y-159250000D02*
X220770000Y-159250000D01*
X216530000Y-158130000D02*
X220770000Y-158130000D01*
X220770000Y-160370000D01*
X216530000Y-160370000D01*
X216530000Y-158130000D01*
%TO.C,D28*%
X139630000Y-178250000D02*
X140280000Y-178250000D01*
X143680000Y-177130000D02*
X143680000Y-179370000D01*
X143800000Y-177130000D02*
X143800000Y-179370000D01*
X143920000Y-177130000D02*
X143920000Y-179370000D01*
X145170000Y-178250000D02*
X144520000Y-178250000D01*
X140280000Y-177130000D02*
X144520000Y-177130000D01*
X144520000Y-179370000D01*
X140280000Y-179370000D01*
X140280000Y-177130000D01*
%TO.C,D11*%
X273130000Y-140250000D02*
X273780000Y-140250000D01*
X277180000Y-139130000D02*
X277180000Y-141370000D01*
X277300000Y-139130000D02*
X277300000Y-141370000D01*
X277420000Y-139130000D02*
X277420000Y-141370000D01*
X278670000Y-140250000D02*
X278020000Y-140250000D01*
X273780000Y-139130000D02*
X278020000Y-139130000D01*
X278020000Y-141370000D01*
X273780000Y-141370000D01*
X273780000Y-139130000D01*
%TO.C,D41*%
X158730000Y-197250000D02*
X159380000Y-197250000D01*
X162780000Y-196130000D02*
X162780000Y-198370000D01*
X162900000Y-196130000D02*
X162900000Y-198370000D01*
X163020000Y-196130000D02*
X163020000Y-198370000D01*
X164270000Y-197250000D02*
X163620000Y-197250000D01*
X159380000Y-196130000D02*
X163620000Y-196130000D01*
X163620000Y-198370000D01*
X159380000Y-198370000D01*
X159380000Y-196130000D01*
%TO.C,D13*%
X311380000Y-140250000D02*
X312030000Y-140250000D01*
X315430000Y-139130000D02*
X315430000Y-141370000D01*
X315550000Y-139130000D02*
X315550000Y-141370000D01*
X315670000Y-139130000D02*
X315670000Y-141370000D01*
X316920000Y-140250000D02*
X316270000Y-140250000D01*
X312030000Y-139130000D02*
X316270000Y-139130000D01*
X316270000Y-141370000D01*
X312030000Y-141370000D01*
X312030000Y-139130000D01*
%TO.C,D47*%
X273180000Y-197250000D02*
X273830000Y-197250000D01*
X277230000Y-196130000D02*
X277230000Y-198370000D01*
X277350000Y-196130000D02*
X277350000Y-198370000D01*
X277470000Y-196130000D02*
X277470000Y-198370000D01*
X278720000Y-197250000D02*
X278070000Y-197250000D01*
X273830000Y-196130000D02*
X278070000Y-196130000D01*
X278070000Y-198370000D01*
X273830000Y-198370000D01*
X273830000Y-196130000D01*
%TO.C,J2*%
X297475000Y-115650000D02*
X300975000Y-115650000D01*
X297475000Y-118100000D02*
X297975000Y-118100000D01*
X297475000Y-118200000D02*
X297975000Y-118200000D01*
X297475000Y-120550000D02*
X297475000Y-115650000D01*
X297975000Y-118000000D02*
X297475000Y-118000000D01*
X297975000Y-118200000D02*
X297975000Y-118000000D01*
X298975000Y-115040000D02*
X298975000Y-115650000D01*
X298975000Y-121160000D02*
X298975000Y-120550000D01*
X300275000Y-115040000D02*
X300275000Y-115650000D01*
X300275000Y-121160000D02*
X300275000Y-120550000D01*
X300975000Y-115650000D02*
X300975000Y-117600000D01*
X300975000Y-117600000D02*
X301585000Y-117600000D01*
X300975000Y-118600000D02*
X300975000Y-120550000D01*
X300975000Y-120550000D02*
X297475000Y-120550000D01*
X301585000Y-118600000D02*
X300975000Y-118600000D01*
X301585000Y-119400000D02*
X301785000Y-119400000D01*
X301685000Y-119400000D02*
X301685000Y-119700000D01*
X301785000Y-119400000D02*
X301785000Y-119700000D01*
X301785000Y-119700000D02*
X301585000Y-119700000D01*
X301885000Y-120210000D02*
X301885000Y-121460000D01*
X301885000Y-121460000D02*
X300635000Y-121460000D01*
X296865000Y-115040000D02*
X301585000Y-115040000D01*
X301585000Y-121160000D01*
X296865000Y-121160000D01*
X296865000Y-115040000D01*
%TO.C,D9*%
X234980000Y-140250000D02*
X235630000Y-140250000D01*
X239030000Y-139130000D02*
X239030000Y-141370000D01*
X239150000Y-139130000D02*
X239150000Y-141370000D01*
X239270000Y-139130000D02*
X239270000Y-141370000D01*
X240520000Y-140250000D02*
X239870000Y-140250000D01*
X235630000Y-139130000D02*
X239870000Y-139130000D01*
X239870000Y-141370000D01*
X235630000Y-141370000D01*
X235630000Y-139130000D01*
%TO.C,D50*%
X101430000Y-216250000D02*
X102080000Y-216250000D01*
X105480000Y-215130000D02*
X105480000Y-217370000D01*
X105600000Y-215130000D02*
X105600000Y-217370000D01*
X105720000Y-215130000D02*
X105720000Y-217370000D01*
X106970000Y-216250000D02*
X106320000Y-216250000D01*
X102080000Y-215130000D02*
X106320000Y-215130000D01*
X106320000Y-217370000D01*
X102080000Y-217370000D01*
X102080000Y-215130000D01*
%TO.C,D53*%
X158730000Y-216250000D02*
X159380000Y-216250000D01*
X162780000Y-215130000D02*
X162780000Y-217370000D01*
X162900000Y-215130000D02*
X162900000Y-217370000D01*
X163020000Y-215130000D02*
X163020000Y-217370000D01*
X164270000Y-216250000D02*
X163620000Y-216250000D01*
X159380000Y-215130000D02*
X163620000Y-215130000D01*
X163620000Y-217370000D01*
X159380000Y-217370000D01*
X159380000Y-215130000D01*
%TO.C,D3*%
X120520000Y-140250000D02*
X121170000Y-140250000D01*
X124570000Y-139130000D02*
X124570000Y-141370000D01*
X124690000Y-139130000D02*
X124690000Y-141370000D01*
X124810000Y-139130000D02*
X124810000Y-141370000D01*
X126060000Y-140250000D02*
X125410000Y-140250000D01*
X121170000Y-139130000D02*
X125410000Y-139130000D01*
X125410000Y-141370000D01*
X121170000Y-141370000D01*
X121170000Y-139130000D01*
%TO.C,D15*%
X120680000Y-159250000D02*
X121330000Y-159250000D01*
X124730000Y-158130000D02*
X124730000Y-160370000D01*
X124850000Y-158130000D02*
X124850000Y-160370000D01*
X124970000Y-158130000D02*
X124970000Y-160370000D01*
X126220000Y-159250000D02*
X125570000Y-159250000D01*
X121330000Y-158130000D02*
X125570000Y-158130000D01*
X125570000Y-160370000D01*
X121330000Y-160370000D01*
X121330000Y-158130000D01*
%TO.C,D18*%
X177730000Y-159250000D02*
X178380000Y-159250000D01*
X181780000Y-158130000D02*
X181780000Y-160370000D01*
X181900000Y-158130000D02*
X181900000Y-160370000D01*
X182020000Y-158130000D02*
X182020000Y-160370000D01*
X183270000Y-159250000D02*
X182620000Y-159250000D01*
X178380000Y-158130000D02*
X182620000Y-158130000D01*
X182620000Y-160370000D01*
X178380000Y-160370000D01*
X178380000Y-158130000D01*
%TD*%
M02*
