M48
; DRILL file KiCad 10.0.4 date 2026-07-18T16:37:53
; FORMAT={-:-/ absolute / metric / decimal}
; #@! TF.CreationDate,2026-07-18T16:37:53+07:00
; #@! TF.GenerationSoftware,Kicad,Pcbnew,10.0.4
; #@! TF.FileFunction,NonPlated,1,2,NPTH
FMAT,2
METRIC
; #@! TA.AperFunction,NonPlated,NPTH,ComponentDrill
T1C1.700
; #@! TA.AperFunction,NonPlated,NPTH,ComponentDrill
T2C4.000
%
G90
G05
T1
X103.92Y-80.5
X103.92Y-99.5
X103.92Y-118.5
X103.965Y-61.545
X114.08Y-80.5
X114.08Y-99.5
X114.08Y-118.5
X114.125Y-61.545
X122.92Y-61.5
X122.92Y-80.5
X122.92Y-99.5
X122.92Y-118.5
X133.08Y-61.5
X133.08Y-80.5
X133.08Y-99.5
X133.08Y-118.5
X141.92Y-61.5
X141.92Y-80.5
X141.92Y-99.5
X141.92Y-118.5
X152.08Y-61.5
X152.08Y-80.5
X152.08Y-99.5
X152.08Y-118.5
X160.92Y-61.5
X160.92Y-80.5
X160.92Y-99.5
X160.92Y-118.5
X171.08Y-61.5
X171.08Y-80.5
X171.08Y-99.5
X171.08Y-118.5
X179.92Y-99.5
X179.92Y-118.5
X190.08Y-99.5
X190.08Y-118.5
X198.92Y-99.5
X198.92Y-118.5
X209.08Y-99.5
X209.08Y-118.5
T2
X100.0Y-50.0
X100.0Y-130.0
X109.0Y-80.5
X109.0Y-99.5
X109.0Y-118.5
X109.045Y-61.545
X128.0Y-61.5
X128.0Y-80.5
X128.0Y-99.5
X128.0Y-118.5
X147.0Y-61.5
X147.0Y-80.5
X147.0Y-99.5
X147.0Y-118.5
X166.0Y-61.5
X166.0Y-80.5
X166.0Y-99.5
X166.0Y-118.5
X185.0Y-99.5
X185.0Y-118.5
X204.0Y-99.5
X204.0Y-118.5
X214.0Y-50.0
X214.0Y-130.0
M30
