%TF.GenerationSoftware,KiCad,Pcbnew,10.0.4*%
%TF.CreationDate,2026-07-18T16:36:36+07:00*%
%TF.ProjectId,MonkiiPad20,4d6f6e6b-6969-4506-9164-32302e6b6963,rev?*%
%TF.SameCoordinates,Original*%
%TF.FileFunction,Legend,Top*%
%TF.FilePolarity,Positive*%
%FSLAX46Y46*%
G04 Gerber Fmt 4.6, Leading zero omitted, Abs format (unit mm)*
G04 Created by KiCad (PCBNEW 10.0.4) date 2026-07-18 16:36:36*
%MOMM*%
%LPD*%
G01*
G04 APERTURE LIST*
%ADD10C,0.100000*%
%ADD11C,0.150000*%
%ADD12C,0.200000*%
%ADD13C,0.000000*%
%ADD14C,0.120000*%
G04 APERTURE END LIST*
D10*
X200074884Y-89229619D02*
X200074884Y-88229619D01*
X200074884Y-88229619D02*
X200408217Y-88943904D01*
X200408217Y-88943904D02*
X200741550Y-88229619D01*
X200741550Y-88229619D02*
X200741550Y-89229619D01*
X201360598Y-89229619D02*
X201265360Y-89182000D01*
X201265360Y-89182000D02*
X201217741Y-89134380D01*
X201217741Y-89134380D02*
X201170122Y-89039142D01*
X201170122Y-89039142D02*
X201170122Y-88753428D01*
X201170122Y-88753428D02*
X201217741Y-88658190D01*
X201217741Y-88658190D02*
X201265360Y-88610571D01*
X201265360Y-88610571D02*
X201360598Y-88562952D01*
X201360598Y-88562952D02*
X201503455Y-88562952D01*
X201503455Y-88562952D02*
X201598693Y-88610571D01*
X201598693Y-88610571D02*
X201646312Y-88658190D01*
X201646312Y-88658190D02*
X201693931Y-88753428D01*
X201693931Y-88753428D02*
X201693931Y-89039142D01*
X201693931Y-89039142D02*
X201646312Y-89134380D01*
X201646312Y-89134380D02*
X201598693Y-89182000D01*
X201598693Y-89182000D02*
X201503455Y-89229619D01*
X201503455Y-89229619D02*
X201360598Y-89229619D01*
X202122503Y-88562952D02*
X202122503Y-89229619D01*
X202122503Y-88658190D02*
X202170122Y-88610571D01*
X202170122Y-88610571D02*
X202265360Y-88562952D01*
X202265360Y-88562952D02*
X202408217Y-88562952D01*
X202408217Y-88562952D02*
X202503455Y-88610571D01*
X202503455Y-88610571D02*
X202551074Y-88705809D01*
X202551074Y-88705809D02*
X202551074Y-89229619D01*
X203027265Y-89229619D02*
X203027265Y-88229619D01*
X203122503Y-88848666D02*
X203408217Y-89229619D01*
X203408217Y-88562952D02*
X203027265Y-88943904D01*
X203836789Y-89229619D02*
X203836789Y-88562952D01*
X203836789Y-88229619D02*
X203789170Y-88277238D01*
X203789170Y-88277238D02*
X203836789Y-88324857D01*
X203836789Y-88324857D02*
X203884408Y-88277238D01*
X203884408Y-88277238D02*
X203836789Y-88229619D01*
X203836789Y-88229619D02*
X203836789Y-88324857D01*
X204312979Y-89229619D02*
X204312979Y-88562952D01*
X204312979Y-88229619D02*
X204265360Y-88277238D01*
X204265360Y-88277238D02*
X204312979Y-88324857D01*
X204312979Y-88324857D02*
X204360598Y-88277238D01*
X204360598Y-88277238D02*
X204312979Y-88229619D01*
X204312979Y-88229619D02*
X204312979Y-88324857D01*
X205122502Y-88705809D02*
X205265359Y-88753428D01*
X205265359Y-88753428D02*
X205312978Y-88801047D01*
X205312978Y-88801047D02*
X205360597Y-88896285D01*
X205360597Y-88896285D02*
X205360597Y-89039142D01*
X205360597Y-89039142D02*
X205312978Y-89134380D01*
X205312978Y-89134380D02*
X205265359Y-89182000D01*
X205265359Y-89182000D02*
X205170121Y-89229619D01*
X205170121Y-89229619D02*
X204789169Y-89229619D01*
X204789169Y-89229619D02*
X204789169Y-88229619D01*
X204789169Y-88229619D02*
X205122502Y-88229619D01*
X205122502Y-88229619D02*
X205217740Y-88277238D01*
X205217740Y-88277238D02*
X205265359Y-88324857D01*
X205265359Y-88324857D02*
X205312978Y-88420095D01*
X205312978Y-88420095D02*
X205312978Y-88515333D01*
X205312978Y-88515333D02*
X205265359Y-88610571D01*
X205265359Y-88610571D02*
X205217740Y-88658190D01*
X205217740Y-88658190D02*
X205122502Y-88705809D01*
X205122502Y-88705809D02*
X204789169Y-88705809D01*
X205932026Y-89229619D02*
X205836788Y-89182000D01*
X205836788Y-89182000D02*
X205789169Y-89134380D01*
X205789169Y-89134380D02*
X205741550Y-89039142D01*
X205741550Y-89039142D02*
X205741550Y-88753428D01*
X205741550Y-88753428D02*
X205789169Y-88658190D01*
X205789169Y-88658190D02*
X205836788Y-88610571D01*
X205836788Y-88610571D02*
X205932026Y-88562952D01*
X205932026Y-88562952D02*
X206074883Y-88562952D01*
X206074883Y-88562952D02*
X206170121Y-88610571D01*
X206170121Y-88610571D02*
X206217740Y-88658190D01*
X206217740Y-88658190D02*
X206265359Y-88753428D01*
X206265359Y-88753428D02*
X206265359Y-89039142D01*
X206265359Y-89039142D02*
X206217740Y-89134380D01*
X206217740Y-89134380D02*
X206170121Y-89182000D01*
X206170121Y-89182000D02*
X206074883Y-89229619D01*
X206074883Y-89229619D02*
X205932026Y-89229619D01*
X207122502Y-89229619D02*
X207122502Y-88705809D01*
X207122502Y-88705809D02*
X207074883Y-88610571D01*
X207074883Y-88610571D02*
X206979645Y-88562952D01*
X206979645Y-88562952D02*
X206789169Y-88562952D01*
X206789169Y-88562952D02*
X206693931Y-88610571D01*
X207122502Y-89182000D02*
X207027264Y-89229619D01*
X207027264Y-89229619D02*
X206789169Y-89229619D01*
X206789169Y-89229619D02*
X206693931Y-89182000D01*
X206693931Y-89182000D02*
X206646312Y-89086761D01*
X206646312Y-89086761D02*
X206646312Y-88991523D01*
X206646312Y-88991523D02*
X206693931Y-88896285D01*
X206693931Y-88896285D02*
X206789169Y-88848666D01*
X206789169Y-88848666D02*
X207027264Y-88848666D01*
X207027264Y-88848666D02*
X207122502Y-88801047D01*
X207598693Y-89229619D02*
X207598693Y-88562952D01*
X207598693Y-88753428D02*
X207646312Y-88658190D01*
X207646312Y-88658190D02*
X207693931Y-88610571D01*
X207693931Y-88610571D02*
X207789169Y-88562952D01*
X207789169Y-88562952D02*
X207884407Y-88562952D01*
X208646312Y-89229619D02*
X208646312Y-88229619D01*
X208646312Y-89182000D02*
X208551074Y-89229619D01*
X208551074Y-89229619D02*
X208360598Y-89229619D01*
X208360598Y-89229619D02*
X208265360Y-89182000D01*
X208265360Y-89182000D02*
X208217741Y-89134380D01*
X208217741Y-89134380D02*
X208170122Y-89039142D01*
X208170122Y-89039142D02*
X208170122Y-88753428D01*
X208170122Y-88753428D02*
X208217741Y-88658190D01*
X208217741Y-88658190D02*
X208265360Y-88610571D01*
X208265360Y-88610571D02*
X208360598Y-88562952D01*
X208360598Y-88562952D02*
X208551074Y-88562952D01*
X208551074Y-88562952D02*
X208646312Y-88610571D01*
D11*
X99238095Y-45504819D02*
X99238095Y-44504819D01*
X99238095Y-44981009D02*
X99809523Y-44981009D01*
X99809523Y-45504819D02*
X99809523Y-44504819D01*
X100190476Y-44504819D02*
X100809523Y-44504819D01*
X100809523Y-44504819D02*
X100476190Y-44885771D01*
X100476190Y-44885771D02*
X100619047Y-44885771D01*
X100619047Y-44885771D02*
X100714285Y-44933390D01*
X100714285Y-44933390D02*
X100761904Y-44981009D01*
X100761904Y-44981009D02*
X100809523Y-45076247D01*
X100809523Y-45076247D02*
X100809523Y-45314342D01*
X100809523Y-45314342D02*
X100761904Y-45409580D01*
X100761904Y-45409580D02*
X100714285Y-45457200D01*
X100714285Y-45457200D02*
X100619047Y-45504819D01*
X100619047Y-45504819D02*
X100333333Y-45504819D01*
X100333333Y-45504819D02*
X100238095Y-45457200D01*
X100238095Y-45457200D02*
X100190476Y-45409580D01*
X183190476Y-92033200D02*
X183333333Y-92080819D01*
X183333333Y-92080819D02*
X183571428Y-92080819D01*
X183571428Y-92080819D02*
X183666666Y-92033200D01*
X183666666Y-92033200D02*
X183714285Y-91985580D01*
X183714285Y-91985580D02*
X183761904Y-91890342D01*
X183761904Y-91890342D02*
X183761904Y-91795104D01*
X183761904Y-91795104D02*
X183714285Y-91699866D01*
X183714285Y-91699866D02*
X183666666Y-91652247D01*
X183666666Y-91652247D02*
X183571428Y-91604628D01*
X183571428Y-91604628D02*
X183380952Y-91557009D01*
X183380952Y-91557009D02*
X183285714Y-91509390D01*
X183285714Y-91509390D02*
X183238095Y-91461771D01*
X183238095Y-91461771D02*
X183190476Y-91366533D01*
X183190476Y-91366533D02*
X183190476Y-91271295D01*
X183190476Y-91271295D02*
X183238095Y-91176057D01*
X183238095Y-91176057D02*
X183285714Y-91128438D01*
X183285714Y-91128438D02*
X183380952Y-91080819D01*
X183380952Y-91080819D02*
X183619047Y-91080819D01*
X183619047Y-91080819D02*
X183761904Y-91128438D01*
X184095238Y-91080819D02*
X184333333Y-92080819D01*
X184333333Y-92080819D02*
X184523809Y-91366533D01*
X184523809Y-91366533D02*
X184714285Y-92080819D01*
X184714285Y-92080819D02*
X184952381Y-91080819D01*
X185857142Y-92080819D02*
X185285714Y-92080819D01*
X185571428Y-92080819D02*
X185571428Y-91080819D01*
X185571428Y-91080819D02*
X185476190Y-91223676D01*
X185476190Y-91223676D02*
X185380952Y-91318914D01*
X185380952Y-91318914D02*
X185285714Y-91366533D01*
X186190476Y-91080819D02*
X186809523Y-91080819D01*
X186809523Y-91080819D02*
X186476190Y-91461771D01*
X186476190Y-91461771D02*
X186619047Y-91461771D01*
X186619047Y-91461771D02*
X186714285Y-91509390D01*
X186714285Y-91509390D02*
X186761904Y-91557009D01*
X186761904Y-91557009D02*
X186809523Y-91652247D01*
X186809523Y-91652247D02*
X186809523Y-91890342D01*
X186809523Y-91890342D02*
X186761904Y-91985580D01*
X186761904Y-91985580D02*
X186714285Y-92033200D01*
X186714285Y-92033200D02*
X186619047Y-92080819D01*
X186619047Y-92080819D02*
X186333333Y-92080819D01*
X186333333Y-92080819D02*
X186238095Y-92033200D01*
X186238095Y-92033200D02*
X186190476Y-91985580D01*
X164666667Y-73033200D02*
X164809524Y-73080819D01*
X164809524Y-73080819D02*
X165047619Y-73080819D01*
X165047619Y-73080819D02*
X165142857Y-73033200D01*
X165142857Y-73033200D02*
X165190476Y-72985580D01*
X165190476Y-72985580D02*
X165238095Y-72890342D01*
X165238095Y-72890342D02*
X165238095Y-72795104D01*
X165238095Y-72795104D02*
X165190476Y-72699866D01*
X165190476Y-72699866D02*
X165142857Y-72652247D01*
X165142857Y-72652247D02*
X165047619Y-72604628D01*
X165047619Y-72604628D02*
X164857143Y-72557009D01*
X164857143Y-72557009D02*
X164761905Y-72509390D01*
X164761905Y-72509390D02*
X164714286Y-72461771D01*
X164714286Y-72461771D02*
X164666667Y-72366533D01*
X164666667Y-72366533D02*
X164666667Y-72271295D01*
X164666667Y-72271295D02*
X164714286Y-72176057D01*
X164714286Y-72176057D02*
X164761905Y-72128438D01*
X164761905Y-72128438D02*
X164857143Y-72080819D01*
X164857143Y-72080819D02*
X165095238Y-72080819D01*
X165095238Y-72080819D02*
X165238095Y-72128438D01*
X165571429Y-72080819D02*
X165809524Y-73080819D01*
X165809524Y-73080819D02*
X166000000Y-72366533D01*
X166000000Y-72366533D02*
X166190476Y-73080819D01*
X166190476Y-73080819D02*
X166428572Y-72080819D01*
X166952381Y-72509390D02*
X166857143Y-72461771D01*
X166857143Y-72461771D02*
X166809524Y-72414152D01*
X166809524Y-72414152D02*
X166761905Y-72318914D01*
X166761905Y-72318914D02*
X166761905Y-72271295D01*
X166761905Y-72271295D02*
X166809524Y-72176057D01*
X166809524Y-72176057D02*
X166857143Y-72128438D01*
X166857143Y-72128438D02*
X166952381Y-72080819D01*
X166952381Y-72080819D02*
X167142857Y-72080819D01*
X167142857Y-72080819D02*
X167238095Y-72128438D01*
X167238095Y-72128438D02*
X167285714Y-72176057D01*
X167285714Y-72176057D02*
X167333333Y-72271295D01*
X167333333Y-72271295D02*
X167333333Y-72318914D01*
X167333333Y-72318914D02*
X167285714Y-72414152D01*
X167285714Y-72414152D02*
X167238095Y-72461771D01*
X167238095Y-72461771D02*
X167142857Y-72509390D01*
X167142857Y-72509390D02*
X166952381Y-72509390D01*
X166952381Y-72509390D02*
X166857143Y-72557009D01*
X166857143Y-72557009D02*
X166809524Y-72604628D01*
X166809524Y-72604628D02*
X166761905Y-72699866D01*
X166761905Y-72699866D02*
X166761905Y-72890342D01*
X166761905Y-72890342D02*
X166809524Y-72985580D01*
X166809524Y-72985580D02*
X166857143Y-73033200D01*
X166857143Y-73033200D02*
X166952381Y-73080819D01*
X166952381Y-73080819D02*
X167142857Y-73080819D01*
X167142857Y-73080819D02*
X167238095Y-73033200D01*
X167238095Y-73033200D02*
X167285714Y-72985580D01*
X167285714Y-72985580D02*
X167333333Y-72890342D01*
X167333333Y-72890342D02*
X167333333Y-72699866D01*
X167333333Y-72699866D02*
X167285714Y-72604628D01*
X167285714Y-72604628D02*
X167238095Y-72557009D01*
X167238095Y-72557009D02*
X167142857Y-72509390D01*
X145190476Y-111033200D02*
X145333333Y-111080819D01*
X145333333Y-111080819D02*
X145571428Y-111080819D01*
X145571428Y-111080819D02*
X145666666Y-111033200D01*
X145666666Y-111033200D02*
X145714285Y-110985580D01*
X145714285Y-110985580D02*
X145761904Y-110890342D01*
X145761904Y-110890342D02*
X145761904Y-110795104D01*
X145761904Y-110795104D02*
X145714285Y-110699866D01*
X145714285Y-110699866D02*
X145666666Y-110652247D01*
X145666666Y-110652247D02*
X145571428Y-110604628D01*
X145571428Y-110604628D02*
X145380952Y-110557009D01*
X145380952Y-110557009D02*
X145285714Y-110509390D01*
X145285714Y-110509390D02*
X145238095Y-110461771D01*
X145238095Y-110461771D02*
X145190476Y-110366533D01*
X145190476Y-110366533D02*
X145190476Y-110271295D01*
X145190476Y-110271295D02*
X145238095Y-110176057D01*
X145238095Y-110176057D02*
X145285714Y-110128438D01*
X145285714Y-110128438D02*
X145380952Y-110080819D01*
X145380952Y-110080819D02*
X145619047Y-110080819D01*
X145619047Y-110080819D02*
X145761904Y-110128438D01*
X146095238Y-110080819D02*
X146333333Y-111080819D01*
X146333333Y-111080819D02*
X146523809Y-110366533D01*
X146523809Y-110366533D02*
X146714285Y-111080819D01*
X146714285Y-111080819D02*
X146952381Y-110080819D01*
X147857142Y-111080819D02*
X147285714Y-111080819D01*
X147571428Y-111080819D02*
X147571428Y-110080819D01*
X147571428Y-110080819D02*
X147476190Y-110223676D01*
X147476190Y-110223676D02*
X147380952Y-110318914D01*
X147380952Y-110318914D02*
X147285714Y-110366533D01*
X148190476Y-110080819D02*
X148857142Y-110080819D01*
X148857142Y-110080819D02*
X148428571Y-111080819D01*
X99238095Y-125504819D02*
X99238095Y-124504819D01*
X99238095Y-124981009D02*
X99809523Y-124981009D01*
X99809523Y-125504819D02*
X99809523Y-124504819D01*
X100714285Y-124838152D02*
X100714285Y-125504819D01*
X100476190Y-124457200D02*
X100238095Y-125171485D01*
X100238095Y-125171485D02*
X100857142Y-125171485D01*
X126666667Y-54033200D02*
X126809524Y-54080819D01*
X126809524Y-54080819D02*
X127047619Y-54080819D01*
X127047619Y-54080819D02*
X127142857Y-54033200D01*
X127142857Y-54033200D02*
X127190476Y-53985580D01*
X127190476Y-53985580D02*
X127238095Y-53890342D01*
X127238095Y-53890342D02*
X127238095Y-53795104D01*
X127238095Y-53795104D02*
X127190476Y-53699866D01*
X127190476Y-53699866D02*
X127142857Y-53652247D01*
X127142857Y-53652247D02*
X127047619Y-53604628D01*
X127047619Y-53604628D02*
X126857143Y-53557009D01*
X126857143Y-53557009D02*
X126761905Y-53509390D01*
X126761905Y-53509390D02*
X126714286Y-53461771D01*
X126714286Y-53461771D02*
X126666667Y-53366533D01*
X126666667Y-53366533D02*
X126666667Y-53271295D01*
X126666667Y-53271295D02*
X126714286Y-53176057D01*
X126714286Y-53176057D02*
X126761905Y-53128438D01*
X126761905Y-53128438D02*
X126857143Y-53080819D01*
X126857143Y-53080819D02*
X127095238Y-53080819D01*
X127095238Y-53080819D02*
X127238095Y-53128438D01*
X127571429Y-53080819D02*
X127809524Y-54080819D01*
X127809524Y-54080819D02*
X128000000Y-53366533D01*
X128000000Y-53366533D02*
X128190476Y-54080819D01*
X128190476Y-54080819D02*
X128428572Y-53080819D01*
X128761905Y-53176057D02*
X128809524Y-53128438D01*
X128809524Y-53128438D02*
X128904762Y-53080819D01*
X128904762Y-53080819D02*
X129142857Y-53080819D01*
X129142857Y-53080819D02*
X129238095Y-53128438D01*
X129238095Y-53128438D02*
X129285714Y-53176057D01*
X129285714Y-53176057D02*
X129333333Y-53271295D01*
X129333333Y-53271295D02*
X129333333Y-53366533D01*
X129333333Y-53366533D02*
X129285714Y-53509390D01*
X129285714Y-53509390D02*
X128714286Y-54080819D01*
X128714286Y-54080819D02*
X129333333Y-54080819D01*
X126190476Y-92033200D02*
X126333333Y-92080819D01*
X126333333Y-92080819D02*
X126571428Y-92080819D01*
X126571428Y-92080819D02*
X126666666Y-92033200D01*
X126666666Y-92033200D02*
X126714285Y-91985580D01*
X126714285Y-91985580D02*
X126761904Y-91890342D01*
X126761904Y-91890342D02*
X126761904Y-91795104D01*
X126761904Y-91795104D02*
X126714285Y-91699866D01*
X126714285Y-91699866D02*
X126666666Y-91652247D01*
X126666666Y-91652247D02*
X126571428Y-91604628D01*
X126571428Y-91604628D02*
X126380952Y-91557009D01*
X126380952Y-91557009D02*
X126285714Y-91509390D01*
X126285714Y-91509390D02*
X126238095Y-91461771D01*
X126238095Y-91461771D02*
X126190476Y-91366533D01*
X126190476Y-91366533D02*
X126190476Y-91271295D01*
X126190476Y-91271295D02*
X126238095Y-91176057D01*
X126238095Y-91176057D02*
X126285714Y-91128438D01*
X126285714Y-91128438D02*
X126380952Y-91080819D01*
X126380952Y-91080819D02*
X126619047Y-91080819D01*
X126619047Y-91080819D02*
X126761904Y-91128438D01*
X127095238Y-91080819D02*
X127333333Y-92080819D01*
X127333333Y-92080819D02*
X127523809Y-91366533D01*
X127523809Y-91366533D02*
X127714285Y-92080819D01*
X127714285Y-92080819D02*
X127952381Y-91080819D01*
X128857142Y-92080819D02*
X128285714Y-92080819D01*
X128571428Y-92080819D02*
X128571428Y-91080819D01*
X128571428Y-91080819D02*
X128476190Y-91223676D01*
X128476190Y-91223676D02*
X128380952Y-91318914D01*
X128380952Y-91318914D02*
X128285714Y-91366533D01*
X129476190Y-91080819D02*
X129571428Y-91080819D01*
X129571428Y-91080819D02*
X129666666Y-91128438D01*
X129666666Y-91128438D02*
X129714285Y-91176057D01*
X129714285Y-91176057D02*
X129761904Y-91271295D01*
X129761904Y-91271295D02*
X129809523Y-91461771D01*
X129809523Y-91461771D02*
X129809523Y-91699866D01*
X129809523Y-91699866D02*
X129761904Y-91890342D01*
X129761904Y-91890342D02*
X129714285Y-91985580D01*
X129714285Y-91985580D02*
X129666666Y-92033200D01*
X129666666Y-92033200D02*
X129571428Y-92080819D01*
X129571428Y-92080819D02*
X129476190Y-92080819D01*
X129476190Y-92080819D02*
X129380952Y-92033200D01*
X129380952Y-92033200D02*
X129333333Y-91985580D01*
X129333333Y-91985580D02*
X129285714Y-91890342D01*
X129285714Y-91890342D02*
X129238095Y-91699866D01*
X129238095Y-91699866D02*
X129238095Y-91461771D01*
X129238095Y-91461771D02*
X129285714Y-91271295D01*
X129285714Y-91271295D02*
X129333333Y-91176057D01*
X129333333Y-91176057D02*
X129380952Y-91128438D01*
X129380952Y-91128438D02*
X129476190Y-91080819D01*
X183190476Y-111033200D02*
X183333333Y-111080819D01*
X183333333Y-111080819D02*
X183571428Y-111080819D01*
X183571428Y-111080819D02*
X183666666Y-111033200D01*
X183666666Y-111033200D02*
X183714285Y-110985580D01*
X183714285Y-110985580D02*
X183761904Y-110890342D01*
X183761904Y-110890342D02*
X183761904Y-110795104D01*
X183761904Y-110795104D02*
X183714285Y-110699866D01*
X183714285Y-110699866D02*
X183666666Y-110652247D01*
X183666666Y-110652247D02*
X183571428Y-110604628D01*
X183571428Y-110604628D02*
X183380952Y-110557009D01*
X183380952Y-110557009D02*
X183285714Y-110509390D01*
X183285714Y-110509390D02*
X183238095Y-110461771D01*
X183238095Y-110461771D02*
X183190476Y-110366533D01*
X183190476Y-110366533D02*
X183190476Y-110271295D01*
X183190476Y-110271295D02*
X183238095Y-110176057D01*
X183238095Y-110176057D02*
X183285714Y-110128438D01*
X183285714Y-110128438D02*
X183380952Y-110080819D01*
X183380952Y-110080819D02*
X183619047Y-110080819D01*
X183619047Y-110080819D02*
X183761904Y-110128438D01*
X184095238Y-110080819D02*
X184333333Y-111080819D01*
X184333333Y-111080819D02*
X184523809Y-110366533D01*
X184523809Y-110366533D02*
X184714285Y-111080819D01*
X184714285Y-111080819D02*
X184952381Y-110080819D01*
X185857142Y-111080819D02*
X185285714Y-111080819D01*
X185571428Y-111080819D02*
X185571428Y-110080819D01*
X185571428Y-110080819D02*
X185476190Y-110223676D01*
X185476190Y-110223676D02*
X185380952Y-110318914D01*
X185380952Y-110318914D02*
X185285714Y-110366533D01*
X186333333Y-111080819D02*
X186523809Y-111080819D01*
X186523809Y-111080819D02*
X186619047Y-111033200D01*
X186619047Y-111033200D02*
X186666666Y-110985580D01*
X186666666Y-110985580D02*
X186761904Y-110842723D01*
X186761904Y-110842723D02*
X186809523Y-110652247D01*
X186809523Y-110652247D02*
X186809523Y-110271295D01*
X186809523Y-110271295D02*
X186761904Y-110176057D01*
X186761904Y-110176057D02*
X186714285Y-110128438D01*
X186714285Y-110128438D02*
X186619047Y-110080819D01*
X186619047Y-110080819D02*
X186428571Y-110080819D01*
X186428571Y-110080819D02*
X186333333Y-110128438D01*
X186333333Y-110128438D02*
X186285714Y-110176057D01*
X186285714Y-110176057D02*
X186238095Y-110271295D01*
X186238095Y-110271295D02*
X186238095Y-110509390D01*
X186238095Y-110509390D02*
X186285714Y-110604628D01*
X186285714Y-110604628D02*
X186333333Y-110652247D01*
X186333333Y-110652247D02*
X186428571Y-110699866D01*
X186428571Y-110699866D02*
X186619047Y-110699866D01*
X186619047Y-110699866D02*
X186714285Y-110652247D01*
X186714285Y-110652247D02*
X186761904Y-110604628D01*
X186761904Y-110604628D02*
X186809523Y-110509390D01*
X164666667Y-54033200D02*
X164809524Y-54080819D01*
X164809524Y-54080819D02*
X165047619Y-54080819D01*
X165047619Y-54080819D02*
X165142857Y-54033200D01*
X165142857Y-54033200D02*
X165190476Y-53985580D01*
X165190476Y-53985580D02*
X165238095Y-53890342D01*
X165238095Y-53890342D02*
X165238095Y-53795104D01*
X165238095Y-53795104D02*
X165190476Y-53699866D01*
X165190476Y-53699866D02*
X165142857Y-53652247D01*
X165142857Y-53652247D02*
X165047619Y-53604628D01*
X165047619Y-53604628D02*
X164857143Y-53557009D01*
X164857143Y-53557009D02*
X164761905Y-53509390D01*
X164761905Y-53509390D02*
X164714286Y-53461771D01*
X164714286Y-53461771D02*
X164666667Y-53366533D01*
X164666667Y-53366533D02*
X164666667Y-53271295D01*
X164666667Y-53271295D02*
X164714286Y-53176057D01*
X164714286Y-53176057D02*
X164761905Y-53128438D01*
X164761905Y-53128438D02*
X164857143Y-53080819D01*
X164857143Y-53080819D02*
X165095238Y-53080819D01*
X165095238Y-53080819D02*
X165238095Y-53128438D01*
X165571429Y-53080819D02*
X165809524Y-54080819D01*
X165809524Y-54080819D02*
X166000000Y-53366533D01*
X166000000Y-53366533D02*
X166190476Y-54080819D01*
X166190476Y-54080819D02*
X166428572Y-53080819D01*
X167238095Y-53414152D02*
X167238095Y-54080819D01*
X167000000Y-53033200D02*
X166761905Y-53747485D01*
X166761905Y-53747485D02*
X167380952Y-53747485D01*
X126666667Y-73033200D02*
X126809524Y-73080819D01*
X126809524Y-73080819D02*
X127047619Y-73080819D01*
X127047619Y-73080819D02*
X127142857Y-73033200D01*
X127142857Y-73033200D02*
X127190476Y-72985580D01*
X127190476Y-72985580D02*
X127238095Y-72890342D01*
X127238095Y-72890342D02*
X127238095Y-72795104D01*
X127238095Y-72795104D02*
X127190476Y-72699866D01*
X127190476Y-72699866D02*
X127142857Y-72652247D01*
X127142857Y-72652247D02*
X127047619Y-72604628D01*
X127047619Y-72604628D02*
X126857143Y-72557009D01*
X126857143Y-72557009D02*
X126761905Y-72509390D01*
X126761905Y-72509390D02*
X126714286Y-72461771D01*
X126714286Y-72461771D02*
X126666667Y-72366533D01*
X126666667Y-72366533D02*
X126666667Y-72271295D01*
X126666667Y-72271295D02*
X126714286Y-72176057D01*
X126714286Y-72176057D02*
X126761905Y-72128438D01*
X126761905Y-72128438D02*
X126857143Y-72080819D01*
X126857143Y-72080819D02*
X127095238Y-72080819D01*
X127095238Y-72080819D02*
X127238095Y-72128438D01*
X127571429Y-72080819D02*
X127809524Y-73080819D01*
X127809524Y-73080819D02*
X128000000Y-72366533D01*
X128000000Y-72366533D02*
X128190476Y-73080819D01*
X128190476Y-73080819D02*
X128428572Y-72080819D01*
X129238095Y-72080819D02*
X129047619Y-72080819D01*
X129047619Y-72080819D02*
X128952381Y-72128438D01*
X128952381Y-72128438D02*
X128904762Y-72176057D01*
X128904762Y-72176057D02*
X128809524Y-72318914D01*
X128809524Y-72318914D02*
X128761905Y-72509390D01*
X128761905Y-72509390D02*
X128761905Y-72890342D01*
X128761905Y-72890342D02*
X128809524Y-72985580D01*
X128809524Y-72985580D02*
X128857143Y-73033200D01*
X128857143Y-73033200D02*
X128952381Y-73080819D01*
X128952381Y-73080819D02*
X129142857Y-73080819D01*
X129142857Y-73080819D02*
X129238095Y-73033200D01*
X129238095Y-73033200D02*
X129285714Y-72985580D01*
X129285714Y-72985580D02*
X129333333Y-72890342D01*
X129333333Y-72890342D02*
X129333333Y-72652247D01*
X129333333Y-72652247D02*
X129285714Y-72557009D01*
X129285714Y-72557009D02*
X129238095Y-72509390D01*
X129238095Y-72509390D02*
X129142857Y-72461771D01*
X129142857Y-72461771D02*
X128952381Y-72461771D01*
X128952381Y-72461771D02*
X128857143Y-72509390D01*
X128857143Y-72509390D02*
X128809524Y-72557009D01*
X128809524Y-72557009D02*
X128761905Y-72652247D01*
X202190476Y-92033200D02*
X202333333Y-92080819D01*
X202333333Y-92080819D02*
X202571428Y-92080819D01*
X202571428Y-92080819D02*
X202666666Y-92033200D01*
X202666666Y-92033200D02*
X202714285Y-91985580D01*
X202714285Y-91985580D02*
X202761904Y-91890342D01*
X202761904Y-91890342D02*
X202761904Y-91795104D01*
X202761904Y-91795104D02*
X202714285Y-91699866D01*
X202714285Y-91699866D02*
X202666666Y-91652247D01*
X202666666Y-91652247D02*
X202571428Y-91604628D01*
X202571428Y-91604628D02*
X202380952Y-91557009D01*
X202380952Y-91557009D02*
X202285714Y-91509390D01*
X202285714Y-91509390D02*
X202238095Y-91461771D01*
X202238095Y-91461771D02*
X202190476Y-91366533D01*
X202190476Y-91366533D02*
X202190476Y-91271295D01*
X202190476Y-91271295D02*
X202238095Y-91176057D01*
X202238095Y-91176057D02*
X202285714Y-91128438D01*
X202285714Y-91128438D02*
X202380952Y-91080819D01*
X202380952Y-91080819D02*
X202619047Y-91080819D01*
X202619047Y-91080819D02*
X202761904Y-91128438D01*
X203095238Y-91080819D02*
X203333333Y-92080819D01*
X203333333Y-92080819D02*
X203523809Y-91366533D01*
X203523809Y-91366533D02*
X203714285Y-92080819D01*
X203714285Y-92080819D02*
X203952381Y-91080819D01*
X204857142Y-92080819D02*
X204285714Y-92080819D01*
X204571428Y-92080819D02*
X204571428Y-91080819D01*
X204571428Y-91080819D02*
X204476190Y-91223676D01*
X204476190Y-91223676D02*
X204380952Y-91318914D01*
X204380952Y-91318914D02*
X204285714Y-91366533D01*
X205714285Y-91414152D02*
X205714285Y-92080819D01*
X205476190Y-91033200D02*
X205238095Y-91747485D01*
X205238095Y-91747485D02*
X205857142Y-91747485D01*
X189225819Y-57483333D02*
X189940104Y-57483333D01*
X189940104Y-57483333D02*
X190082961Y-57530952D01*
X190082961Y-57530952D02*
X190178200Y-57626190D01*
X190178200Y-57626190D02*
X190225819Y-57769047D01*
X190225819Y-57769047D02*
X190225819Y-57864285D01*
X190225819Y-56483333D02*
X190225819Y-57054761D01*
X190225819Y-56769047D02*
X189225819Y-56769047D01*
X189225819Y-56769047D02*
X189368676Y-56864285D01*
X189368676Y-56864285D02*
X189463914Y-56959523D01*
X189463914Y-56959523D02*
X189511533Y-57054761D01*
X145666667Y-54033200D02*
X145809524Y-54080819D01*
X145809524Y-54080819D02*
X146047619Y-54080819D01*
X146047619Y-54080819D02*
X146142857Y-54033200D01*
X146142857Y-54033200D02*
X146190476Y-53985580D01*
X146190476Y-53985580D02*
X146238095Y-53890342D01*
X146238095Y-53890342D02*
X146238095Y-53795104D01*
X146238095Y-53795104D02*
X146190476Y-53699866D01*
X146190476Y-53699866D02*
X146142857Y-53652247D01*
X146142857Y-53652247D02*
X146047619Y-53604628D01*
X146047619Y-53604628D02*
X145857143Y-53557009D01*
X145857143Y-53557009D02*
X145761905Y-53509390D01*
X145761905Y-53509390D02*
X145714286Y-53461771D01*
X145714286Y-53461771D02*
X145666667Y-53366533D01*
X145666667Y-53366533D02*
X145666667Y-53271295D01*
X145666667Y-53271295D02*
X145714286Y-53176057D01*
X145714286Y-53176057D02*
X145761905Y-53128438D01*
X145761905Y-53128438D02*
X145857143Y-53080819D01*
X145857143Y-53080819D02*
X146095238Y-53080819D01*
X146095238Y-53080819D02*
X146238095Y-53128438D01*
X146571429Y-53080819D02*
X146809524Y-54080819D01*
X146809524Y-54080819D02*
X147000000Y-53366533D01*
X147000000Y-53366533D02*
X147190476Y-54080819D01*
X147190476Y-54080819D02*
X147428572Y-53080819D01*
X147714286Y-53080819D02*
X148333333Y-53080819D01*
X148333333Y-53080819D02*
X148000000Y-53461771D01*
X148000000Y-53461771D02*
X148142857Y-53461771D01*
X148142857Y-53461771D02*
X148238095Y-53509390D01*
X148238095Y-53509390D02*
X148285714Y-53557009D01*
X148285714Y-53557009D02*
X148333333Y-53652247D01*
X148333333Y-53652247D02*
X148333333Y-53890342D01*
X148333333Y-53890342D02*
X148285714Y-53985580D01*
X148285714Y-53985580D02*
X148238095Y-54033200D01*
X148238095Y-54033200D02*
X148142857Y-54080819D01*
X148142857Y-54080819D02*
X147857143Y-54080819D01*
X147857143Y-54080819D02*
X147761905Y-54033200D01*
X147761905Y-54033200D02*
X147714286Y-53985580D01*
X164190476Y-92033200D02*
X164333333Y-92080819D01*
X164333333Y-92080819D02*
X164571428Y-92080819D01*
X164571428Y-92080819D02*
X164666666Y-92033200D01*
X164666666Y-92033200D02*
X164714285Y-91985580D01*
X164714285Y-91985580D02*
X164761904Y-91890342D01*
X164761904Y-91890342D02*
X164761904Y-91795104D01*
X164761904Y-91795104D02*
X164714285Y-91699866D01*
X164714285Y-91699866D02*
X164666666Y-91652247D01*
X164666666Y-91652247D02*
X164571428Y-91604628D01*
X164571428Y-91604628D02*
X164380952Y-91557009D01*
X164380952Y-91557009D02*
X164285714Y-91509390D01*
X164285714Y-91509390D02*
X164238095Y-91461771D01*
X164238095Y-91461771D02*
X164190476Y-91366533D01*
X164190476Y-91366533D02*
X164190476Y-91271295D01*
X164190476Y-91271295D02*
X164238095Y-91176057D01*
X164238095Y-91176057D02*
X164285714Y-91128438D01*
X164285714Y-91128438D02*
X164380952Y-91080819D01*
X164380952Y-91080819D02*
X164619047Y-91080819D01*
X164619047Y-91080819D02*
X164761904Y-91128438D01*
X165095238Y-91080819D02*
X165333333Y-92080819D01*
X165333333Y-92080819D02*
X165523809Y-91366533D01*
X165523809Y-91366533D02*
X165714285Y-92080819D01*
X165714285Y-92080819D02*
X165952381Y-91080819D01*
X166857142Y-92080819D02*
X166285714Y-92080819D01*
X166571428Y-92080819D02*
X166571428Y-91080819D01*
X166571428Y-91080819D02*
X166476190Y-91223676D01*
X166476190Y-91223676D02*
X166380952Y-91318914D01*
X166380952Y-91318914D02*
X166285714Y-91366533D01*
X167238095Y-91176057D02*
X167285714Y-91128438D01*
X167285714Y-91128438D02*
X167380952Y-91080819D01*
X167380952Y-91080819D02*
X167619047Y-91080819D01*
X167619047Y-91080819D02*
X167714285Y-91128438D01*
X167714285Y-91128438D02*
X167761904Y-91176057D01*
X167761904Y-91176057D02*
X167809523Y-91271295D01*
X167809523Y-91271295D02*
X167809523Y-91366533D01*
X167809523Y-91366533D02*
X167761904Y-91509390D01*
X167761904Y-91509390D02*
X167190476Y-92080819D01*
X167190476Y-92080819D02*
X167809523Y-92080819D01*
X107711667Y-54078200D02*
X107854524Y-54125819D01*
X107854524Y-54125819D02*
X108092619Y-54125819D01*
X108092619Y-54125819D02*
X108187857Y-54078200D01*
X108187857Y-54078200D02*
X108235476Y-54030580D01*
X108235476Y-54030580D02*
X108283095Y-53935342D01*
X108283095Y-53935342D02*
X108283095Y-53840104D01*
X108283095Y-53840104D02*
X108235476Y-53744866D01*
X108235476Y-53744866D02*
X108187857Y-53697247D01*
X108187857Y-53697247D02*
X108092619Y-53649628D01*
X108092619Y-53649628D02*
X107902143Y-53602009D01*
X107902143Y-53602009D02*
X107806905Y-53554390D01*
X107806905Y-53554390D02*
X107759286Y-53506771D01*
X107759286Y-53506771D02*
X107711667Y-53411533D01*
X107711667Y-53411533D02*
X107711667Y-53316295D01*
X107711667Y-53316295D02*
X107759286Y-53221057D01*
X107759286Y-53221057D02*
X107806905Y-53173438D01*
X107806905Y-53173438D02*
X107902143Y-53125819D01*
X107902143Y-53125819D02*
X108140238Y-53125819D01*
X108140238Y-53125819D02*
X108283095Y-53173438D01*
X108616429Y-53125819D02*
X108854524Y-54125819D01*
X108854524Y-54125819D02*
X109045000Y-53411533D01*
X109045000Y-53411533D02*
X109235476Y-54125819D01*
X109235476Y-54125819D02*
X109473572Y-53125819D01*
X110378333Y-54125819D02*
X109806905Y-54125819D01*
X110092619Y-54125819D02*
X110092619Y-53125819D01*
X110092619Y-53125819D02*
X109997381Y-53268676D01*
X109997381Y-53268676D02*
X109902143Y-53363914D01*
X109902143Y-53363914D02*
X109806905Y-53411533D01*
X126190476Y-111033200D02*
X126333333Y-111080819D01*
X126333333Y-111080819D02*
X126571428Y-111080819D01*
X126571428Y-111080819D02*
X126666666Y-111033200D01*
X126666666Y-111033200D02*
X126714285Y-110985580D01*
X126714285Y-110985580D02*
X126761904Y-110890342D01*
X126761904Y-110890342D02*
X126761904Y-110795104D01*
X126761904Y-110795104D02*
X126714285Y-110699866D01*
X126714285Y-110699866D02*
X126666666Y-110652247D01*
X126666666Y-110652247D02*
X126571428Y-110604628D01*
X126571428Y-110604628D02*
X126380952Y-110557009D01*
X126380952Y-110557009D02*
X126285714Y-110509390D01*
X126285714Y-110509390D02*
X126238095Y-110461771D01*
X126238095Y-110461771D02*
X126190476Y-110366533D01*
X126190476Y-110366533D02*
X126190476Y-110271295D01*
X126190476Y-110271295D02*
X126238095Y-110176057D01*
X126238095Y-110176057D02*
X126285714Y-110128438D01*
X126285714Y-110128438D02*
X126380952Y-110080819D01*
X126380952Y-110080819D02*
X126619047Y-110080819D01*
X126619047Y-110080819D02*
X126761904Y-110128438D01*
X127095238Y-110080819D02*
X127333333Y-111080819D01*
X127333333Y-111080819D02*
X127523809Y-110366533D01*
X127523809Y-110366533D02*
X127714285Y-111080819D01*
X127714285Y-111080819D02*
X127952381Y-110080819D01*
X128857142Y-111080819D02*
X128285714Y-111080819D01*
X128571428Y-111080819D02*
X128571428Y-110080819D01*
X128571428Y-110080819D02*
X128476190Y-110223676D01*
X128476190Y-110223676D02*
X128380952Y-110318914D01*
X128380952Y-110318914D02*
X128285714Y-110366533D01*
X129714285Y-110080819D02*
X129523809Y-110080819D01*
X129523809Y-110080819D02*
X129428571Y-110128438D01*
X129428571Y-110128438D02*
X129380952Y-110176057D01*
X129380952Y-110176057D02*
X129285714Y-110318914D01*
X129285714Y-110318914D02*
X129238095Y-110509390D01*
X129238095Y-110509390D02*
X129238095Y-110890342D01*
X129238095Y-110890342D02*
X129285714Y-110985580D01*
X129285714Y-110985580D02*
X129333333Y-111033200D01*
X129333333Y-111033200D02*
X129428571Y-111080819D01*
X129428571Y-111080819D02*
X129619047Y-111080819D01*
X129619047Y-111080819D02*
X129714285Y-111033200D01*
X129714285Y-111033200D02*
X129761904Y-110985580D01*
X129761904Y-110985580D02*
X129809523Y-110890342D01*
X129809523Y-110890342D02*
X129809523Y-110652247D01*
X129809523Y-110652247D02*
X129761904Y-110557009D01*
X129761904Y-110557009D02*
X129714285Y-110509390D01*
X129714285Y-110509390D02*
X129619047Y-110461771D01*
X129619047Y-110461771D02*
X129428571Y-110461771D01*
X129428571Y-110461771D02*
X129333333Y-110509390D01*
X129333333Y-110509390D02*
X129285714Y-110557009D01*
X129285714Y-110557009D02*
X129238095Y-110652247D01*
X164190476Y-111033200D02*
X164333333Y-111080819D01*
X164333333Y-111080819D02*
X164571428Y-111080819D01*
X164571428Y-111080819D02*
X164666666Y-111033200D01*
X164666666Y-111033200D02*
X164714285Y-110985580D01*
X164714285Y-110985580D02*
X164761904Y-110890342D01*
X164761904Y-110890342D02*
X164761904Y-110795104D01*
X164761904Y-110795104D02*
X164714285Y-110699866D01*
X164714285Y-110699866D02*
X164666666Y-110652247D01*
X164666666Y-110652247D02*
X164571428Y-110604628D01*
X164571428Y-110604628D02*
X164380952Y-110557009D01*
X164380952Y-110557009D02*
X164285714Y-110509390D01*
X164285714Y-110509390D02*
X164238095Y-110461771D01*
X164238095Y-110461771D02*
X164190476Y-110366533D01*
X164190476Y-110366533D02*
X164190476Y-110271295D01*
X164190476Y-110271295D02*
X164238095Y-110176057D01*
X164238095Y-110176057D02*
X164285714Y-110128438D01*
X164285714Y-110128438D02*
X164380952Y-110080819D01*
X164380952Y-110080819D02*
X164619047Y-110080819D01*
X164619047Y-110080819D02*
X164761904Y-110128438D01*
X165095238Y-110080819D02*
X165333333Y-111080819D01*
X165333333Y-111080819D02*
X165523809Y-110366533D01*
X165523809Y-110366533D02*
X165714285Y-111080819D01*
X165714285Y-111080819D02*
X165952381Y-110080819D01*
X166857142Y-111080819D02*
X166285714Y-111080819D01*
X166571428Y-111080819D02*
X166571428Y-110080819D01*
X166571428Y-110080819D02*
X166476190Y-110223676D01*
X166476190Y-110223676D02*
X166380952Y-110318914D01*
X166380952Y-110318914D02*
X166285714Y-110366533D01*
X167428571Y-110509390D02*
X167333333Y-110461771D01*
X167333333Y-110461771D02*
X167285714Y-110414152D01*
X167285714Y-110414152D02*
X167238095Y-110318914D01*
X167238095Y-110318914D02*
X167238095Y-110271295D01*
X167238095Y-110271295D02*
X167285714Y-110176057D01*
X167285714Y-110176057D02*
X167333333Y-110128438D01*
X167333333Y-110128438D02*
X167428571Y-110080819D01*
X167428571Y-110080819D02*
X167619047Y-110080819D01*
X167619047Y-110080819D02*
X167714285Y-110128438D01*
X167714285Y-110128438D02*
X167761904Y-110176057D01*
X167761904Y-110176057D02*
X167809523Y-110271295D01*
X167809523Y-110271295D02*
X167809523Y-110318914D01*
X167809523Y-110318914D02*
X167761904Y-110414152D01*
X167761904Y-110414152D02*
X167714285Y-110461771D01*
X167714285Y-110461771D02*
X167619047Y-110509390D01*
X167619047Y-110509390D02*
X167428571Y-110509390D01*
X167428571Y-110509390D02*
X167333333Y-110557009D01*
X167333333Y-110557009D02*
X167285714Y-110604628D01*
X167285714Y-110604628D02*
X167238095Y-110699866D01*
X167238095Y-110699866D02*
X167238095Y-110890342D01*
X167238095Y-110890342D02*
X167285714Y-110985580D01*
X167285714Y-110985580D02*
X167333333Y-111033200D01*
X167333333Y-111033200D02*
X167428571Y-111080819D01*
X167428571Y-111080819D02*
X167619047Y-111080819D01*
X167619047Y-111080819D02*
X167714285Y-111033200D01*
X167714285Y-111033200D02*
X167761904Y-110985580D01*
X167761904Y-110985580D02*
X167809523Y-110890342D01*
X167809523Y-110890342D02*
X167809523Y-110699866D01*
X167809523Y-110699866D02*
X167761904Y-110604628D01*
X167761904Y-110604628D02*
X167714285Y-110557009D01*
X167714285Y-110557009D02*
X167619047Y-110509390D01*
X213238095Y-125504819D02*
X213238095Y-124504819D01*
X213238095Y-124981009D02*
X213809523Y-124981009D01*
X213809523Y-125504819D02*
X213809523Y-124504819D01*
X214238095Y-124600057D02*
X214285714Y-124552438D01*
X214285714Y-124552438D02*
X214380952Y-124504819D01*
X214380952Y-124504819D02*
X214619047Y-124504819D01*
X214619047Y-124504819D02*
X214714285Y-124552438D01*
X214714285Y-124552438D02*
X214761904Y-124600057D01*
X214761904Y-124600057D02*
X214809523Y-124695295D01*
X214809523Y-124695295D02*
X214809523Y-124790533D01*
X214809523Y-124790533D02*
X214761904Y-124933390D01*
X214761904Y-124933390D02*
X214190476Y-125504819D01*
X214190476Y-125504819D02*
X214809523Y-125504819D01*
X202190476Y-111033200D02*
X202333333Y-111080819D01*
X202333333Y-111080819D02*
X202571428Y-111080819D01*
X202571428Y-111080819D02*
X202666666Y-111033200D01*
X202666666Y-111033200D02*
X202714285Y-110985580D01*
X202714285Y-110985580D02*
X202761904Y-110890342D01*
X202761904Y-110890342D02*
X202761904Y-110795104D01*
X202761904Y-110795104D02*
X202714285Y-110699866D01*
X202714285Y-110699866D02*
X202666666Y-110652247D01*
X202666666Y-110652247D02*
X202571428Y-110604628D01*
X202571428Y-110604628D02*
X202380952Y-110557009D01*
X202380952Y-110557009D02*
X202285714Y-110509390D01*
X202285714Y-110509390D02*
X202238095Y-110461771D01*
X202238095Y-110461771D02*
X202190476Y-110366533D01*
X202190476Y-110366533D02*
X202190476Y-110271295D01*
X202190476Y-110271295D02*
X202238095Y-110176057D01*
X202238095Y-110176057D02*
X202285714Y-110128438D01*
X202285714Y-110128438D02*
X202380952Y-110080819D01*
X202380952Y-110080819D02*
X202619047Y-110080819D01*
X202619047Y-110080819D02*
X202761904Y-110128438D01*
X203095238Y-110080819D02*
X203333333Y-111080819D01*
X203333333Y-111080819D02*
X203523809Y-110366533D01*
X203523809Y-110366533D02*
X203714285Y-111080819D01*
X203714285Y-111080819D02*
X203952381Y-110080819D01*
X204285714Y-110176057D02*
X204333333Y-110128438D01*
X204333333Y-110128438D02*
X204428571Y-110080819D01*
X204428571Y-110080819D02*
X204666666Y-110080819D01*
X204666666Y-110080819D02*
X204761904Y-110128438D01*
X204761904Y-110128438D02*
X204809523Y-110176057D01*
X204809523Y-110176057D02*
X204857142Y-110271295D01*
X204857142Y-110271295D02*
X204857142Y-110366533D01*
X204857142Y-110366533D02*
X204809523Y-110509390D01*
X204809523Y-110509390D02*
X204238095Y-111080819D01*
X204238095Y-111080819D02*
X204857142Y-111080819D01*
X205476190Y-110080819D02*
X205571428Y-110080819D01*
X205571428Y-110080819D02*
X205666666Y-110128438D01*
X205666666Y-110128438D02*
X205714285Y-110176057D01*
X205714285Y-110176057D02*
X205761904Y-110271295D01*
X205761904Y-110271295D02*
X205809523Y-110461771D01*
X205809523Y-110461771D02*
X205809523Y-110699866D01*
X205809523Y-110699866D02*
X205761904Y-110890342D01*
X205761904Y-110890342D02*
X205714285Y-110985580D01*
X205714285Y-110985580D02*
X205666666Y-111033200D01*
X205666666Y-111033200D02*
X205571428Y-111080819D01*
X205571428Y-111080819D02*
X205476190Y-111080819D01*
X205476190Y-111080819D02*
X205380952Y-111033200D01*
X205380952Y-111033200D02*
X205333333Y-110985580D01*
X205333333Y-110985580D02*
X205285714Y-110890342D01*
X205285714Y-110890342D02*
X205238095Y-110699866D01*
X205238095Y-110699866D02*
X205238095Y-110461771D01*
X205238095Y-110461771D02*
X205285714Y-110271295D01*
X205285714Y-110271295D02*
X205333333Y-110176057D01*
X205333333Y-110176057D02*
X205380952Y-110128438D01*
X205380952Y-110128438D02*
X205476190Y-110080819D01*
X145666667Y-73033200D02*
X145809524Y-73080819D01*
X145809524Y-73080819D02*
X146047619Y-73080819D01*
X146047619Y-73080819D02*
X146142857Y-73033200D01*
X146142857Y-73033200D02*
X146190476Y-72985580D01*
X146190476Y-72985580D02*
X146238095Y-72890342D01*
X146238095Y-72890342D02*
X146238095Y-72795104D01*
X146238095Y-72795104D02*
X146190476Y-72699866D01*
X146190476Y-72699866D02*
X146142857Y-72652247D01*
X146142857Y-72652247D02*
X146047619Y-72604628D01*
X146047619Y-72604628D02*
X145857143Y-72557009D01*
X145857143Y-72557009D02*
X145761905Y-72509390D01*
X145761905Y-72509390D02*
X145714286Y-72461771D01*
X145714286Y-72461771D02*
X145666667Y-72366533D01*
X145666667Y-72366533D02*
X145666667Y-72271295D01*
X145666667Y-72271295D02*
X145714286Y-72176057D01*
X145714286Y-72176057D02*
X145761905Y-72128438D01*
X145761905Y-72128438D02*
X145857143Y-72080819D01*
X145857143Y-72080819D02*
X146095238Y-72080819D01*
X146095238Y-72080819D02*
X146238095Y-72128438D01*
X146571429Y-72080819D02*
X146809524Y-73080819D01*
X146809524Y-73080819D02*
X147000000Y-72366533D01*
X147000000Y-72366533D02*
X147190476Y-73080819D01*
X147190476Y-73080819D02*
X147428572Y-72080819D01*
X147714286Y-72080819D02*
X148380952Y-72080819D01*
X148380952Y-72080819D02*
X147952381Y-73080819D01*
X107666667Y-92033200D02*
X107809524Y-92080819D01*
X107809524Y-92080819D02*
X108047619Y-92080819D01*
X108047619Y-92080819D02*
X108142857Y-92033200D01*
X108142857Y-92033200D02*
X108190476Y-91985580D01*
X108190476Y-91985580D02*
X108238095Y-91890342D01*
X108238095Y-91890342D02*
X108238095Y-91795104D01*
X108238095Y-91795104D02*
X108190476Y-91699866D01*
X108190476Y-91699866D02*
X108142857Y-91652247D01*
X108142857Y-91652247D02*
X108047619Y-91604628D01*
X108047619Y-91604628D02*
X107857143Y-91557009D01*
X107857143Y-91557009D02*
X107761905Y-91509390D01*
X107761905Y-91509390D02*
X107714286Y-91461771D01*
X107714286Y-91461771D02*
X107666667Y-91366533D01*
X107666667Y-91366533D02*
X107666667Y-91271295D01*
X107666667Y-91271295D02*
X107714286Y-91176057D01*
X107714286Y-91176057D02*
X107761905Y-91128438D01*
X107761905Y-91128438D02*
X107857143Y-91080819D01*
X107857143Y-91080819D02*
X108095238Y-91080819D01*
X108095238Y-91080819D02*
X108238095Y-91128438D01*
X108571429Y-91080819D02*
X108809524Y-92080819D01*
X108809524Y-92080819D02*
X109000000Y-91366533D01*
X109000000Y-91366533D02*
X109190476Y-92080819D01*
X109190476Y-92080819D02*
X109428572Y-91080819D01*
X109857143Y-92080819D02*
X110047619Y-92080819D01*
X110047619Y-92080819D02*
X110142857Y-92033200D01*
X110142857Y-92033200D02*
X110190476Y-91985580D01*
X110190476Y-91985580D02*
X110285714Y-91842723D01*
X110285714Y-91842723D02*
X110333333Y-91652247D01*
X110333333Y-91652247D02*
X110333333Y-91271295D01*
X110333333Y-91271295D02*
X110285714Y-91176057D01*
X110285714Y-91176057D02*
X110238095Y-91128438D01*
X110238095Y-91128438D02*
X110142857Y-91080819D01*
X110142857Y-91080819D02*
X109952381Y-91080819D01*
X109952381Y-91080819D02*
X109857143Y-91128438D01*
X109857143Y-91128438D02*
X109809524Y-91176057D01*
X109809524Y-91176057D02*
X109761905Y-91271295D01*
X109761905Y-91271295D02*
X109761905Y-91509390D01*
X109761905Y-91509390D02*
X109809524Y-91604628D01*
X109809524Y-91604628D02*
X109857143Y-91652247D01*
X109857143Y-91652247D02*
X109952381Y-91699866D01*
X109952381Y-91699866D02*
X110142857Y-91699866D01*
X110142857Y-91699866D02*
X110238095Y-91652247D01*
X110238095Y-91652247D02*
X110285714Y-91604628D01*
X110285714Y-91604628D02*
X110333333Y-91509390D01*
X107666667Y-73033200D02*
X107809524Y-73080819D01*
X107809524Y-73080819D02*
X108047619Y-73080819D01*
X108047619Y-73080819D02*
X108142857Y-73033200D01*
X108142857Y-73033200D02*
X108190476Y-72985580D01*
X108190476Y-72985580D02*
X108238095Y-72890342D01*
X108238095Y-72890342D02*
X108238095Y-72795104D01*
X108238095Y-72795104D02*
X108190476Y-72699866D01*
X108190476Y-72699866D02*
X108142857Y-72652247D01*
X108142857Y-72652247D02*
X108047619Y-72604628D01*
X108047619Y-72604628D02*
X107857143Y-72557009D01*
X107857143Y-72557009D02*
X107761905Y-72509390D01*
X107761905Y-72509390D02*
X107714286Y-72461771D01*
X107714286Y-72461771D02*
X107666667Y-72366533D01*
X107666667Y-72366533D02*
X107666667Y-72271295D01*
X107666667Y-72271295D02*
X107714286Y-72176057D01*
X107714286Y-72176057D02*
X107761905Y-72128438D01*
X107761905Y-72128438D02*
X107857143Y-72080819D01*
X107857143Y-72080819D02*
X108095238Y-72080819D01*
X108095238Y-72080819D02*
X108238095Y-72128438D01*
X108571429Y-72080819D02*
X108809524Y-73080819D01*
X108809524Y-73080819D02*
X109000000Y-72366533D01*
X109000000Y-72366533D02*
X109190476Y-73080819D01*
X109190476Y-73080819D02*
X109428572Y-72080819D01*
X110285714Y-72080819D02*
X109809524Y-72080819D01*
X109809524Y-72080819D02*
X109761905Y-72557009D01*
X109761905Y-72557009D02*
X109809524Y-72509390D01*
X109809524Y-72509390D02*
X109904762Y-72461771D01*
X109904762Y-72461771D02*
X110142857Y-72461771D01*
X110142857Y-72461771D02*
X110238095Y-72509390D01*
X110238095Y-72509390D02*
X110285714Y-72557009D01*
X110285714Y-72557009D02*
X110333333Y-72652247D01*
X110333333Y-72652247D02*
X110333333Y-72890342D01*
X110333333Y-72890342D02*
X110285714Y-72985580D01*
X110285714Y-72985580D02*
X110238095Y-73033200D01*
X110238095Y-73033200D02*
X110142857Y-73080819D01*
X110142857Y-73080819D02*
X109904762Y-73080819D01*
X109904762Y-73080819D02*
X109809524Y-73033200D01*
X109809524Y-73033200D02*
X109761905Y-72985580D01*
X213238095Y-45504819D02*
X213238095Y-44504819D01*
X213238095Y-44981009D02*
X213809523Y-44981009D01*
X213809523Y-45504819D02*
X213809523Y-44504819D01*
X214809523Y-45504819D02*
X214238095Y-45504819D01*
X214523809Y-45504819D02*
X214523809Y-44504819D01*
X214523809Y-44504819D02*
X214428571Y-44647676D01*
X214428571Y-44647676D02*
X214333333Y-44742914D01*
X214333333Y-44742914D02*
X214238095Y-44790533D01*
D12*
X185474612Y-50292219D02*
X185569850Y-50292219D01*
X185569850Y-50292219D02*
X185665088Y-50339838D01*
X185665088Y-50339838D02*
X185712707Y-50387457D01*
X185712707Y-50387457D02*
X185760326Y-50482695D01*
X185760326Y-50482695D02*
X185807945Y-50673171D01*
X185807945Y-50673171D02*
X185807945Y-50911266D01*
X185807945Y-50911266D02*
X185760326Y-51101742D01*
X185760326Y-51101742D02*
X185712707Y-51196980D01*
X185712707Y-51196980D02*
X185665088Y-51244600D01*
X185665088Y-51244600D02*
X185569850Y-51292219D01*
X185569850Y-51292219D02*
X185474612Y-51292219D01*
X185474612Y-51292219D02*
X185379374Y-51244600D01*
X185379374Y-51244600D02*
X185331755Y-51196980D01*
X185331755Y-51196980D02*
X185284136Y-51101742D01*
X185284136Y-51101742D02*
X185236517Y-50911266D01*
X185236517Y-50911266D02*
X185236517Y-50673171D01*
X185236517Y-50673171D02*
X185284136Y-50482695D01*
X185284136Y-50482695D02*
X185331755Y-50387457D01*
X185331755Y-50387457D02*
X185379374Y-50339838D01*
X185379374Y-50339838D02*
X185474612Y-50292219D01*
X185807945Y-53832219D02*
X185236517Y-53832219D01*
X185522231Y-53832219D02*
X185522231Y-52832219D01*
X185522231Y-52832219D02*
X185426993Y-52975076D01*
X185426993Y-52975076D02*
X185331755Y-53070314D01*
X185331755Y-53070314D02*
X185236517Y-53117933D01*
X185236517Y-55467457D02*
X185284136Y-55419838D01*
X185284136Y-55419838D02*
X185379374Y-55372219D01*
X185379374Y-55372219D02*
X185617469Y-55372219D01*
X185617469Y-55372219D02*
X185712707Y-55419838D01*
X185712707Y-55419838D02*
X185760326Y-55467457D01*
X185760326Y-55467457D02*
X185807945Y-55562695D01*
X185807945Y-55562695D02*
X185807945Y-55657933D01*
X185807945Y-55657933D02*
X185760326Y-55800790D01*
X185760326Y-55800790D02*
X185188898Y-56372219D01*
X185188898Y-56372219D02*
X185807945Y-56372219D01*
X185188898Y-57912219D02*
X185807945Y-57912219D01*
X185807945Y-57912219D02*
X185474612Y-58293171D01*
X185474612Y-58293171D02*
X185617469Y-58293171D01*
X185617469Y-58293171D02*
X185712707Y-58340790D01*
X185712707Y-58340790D02*
X185760326Y-58388409D01*
X185760326Y-58388409D02*
X185807945Y-58483647D01*
X185807945Y-58483647D02*
X185807945Y-58721742D01*
X185807945Y-58721742D02*
X185760326Y-58816980D01*
X185760326Y-58816980D02*
X185712707Y-58864600D01*
X185712707Y-58864600D02*
X185617469Y-58912219D01*
X185617469Y-58912219D02*
X185331755Y-58912219D01*
X185331755Y-58912219D02*
X185236517Y-58864600D01*
X185236517Y-58864600D02*
X185188898Y-58816980D01*
X185712707Y-60785552D02*
X185712707Y-61452219D01*
X185474612Y-60404600D02*
X185236517Y-61118885D01*
X185236517Y-61118885D02*
X185855564Y-61118885D01*
X185760326Y-62992219D02*
X185284136Y-62992219D01*
X185284136Y-62992219D02*
X185236517Y-63468409D01*
X185236517Y-63468409D02*
X185284136Y-63420790D01*
X185284136Y-63420790D02*
X185379374Y-63373171D01*
X185379374Y-63373171D02*
X185617469Y-63373171D01*
X185617469Y-63373171D02*
X185712707Y-63420790D01*
X185712707Y-63420790D02*
X185760326Y-63468409D01*
X185760326Y-63468409D02*
X185807945Y-63563647D01*
X185807945Y-63563647D02*
X185807945Y-63801742D01*
X185807945Y-63801742D02*
X185760326Y-63896980D01*
X185760326Y-63896980D02*
X185712707Y-63944600D01*
X185712707Y-63944600D02*
X185617469Y-63992219D01*
X185617469Y-63992219D02*
X185379374Y-63992219D01*
X185379374Y-63992219D02*
X185284136Y-63944600D01*
X185284136Y-63944600D02*
X185236517Y-63896980D01*
X185712707Y-65532219D02*
X185522231Y-65532219D01*
X185522231Y-65532219D02*
X185426993Y-65579838D01*
X185426993Y-65579838D02*
X185379374Y-65627457D01*
X185379374Y-65627457D02*
X185284136Y-65770314D01*
X185284136Y-65770314D02*
X185236517Y-65960790D01*
X185236517Y-65960790D02*
X185236517Y-66341742D01*
X185236517Y-66341742D02*
X185284136Y-66436980D01*
X185284136Y-66436980D02*
X185331755Y-66484600D01*
X185331755Y-66484600D02*
X185426993Y-66532219D01*
X185426993Y-66532219D02*
X185617469Y-66532219D01*
X185617469Y-66532219D02*
X185712707Y-66484600D01*
X185712707Y-66484600D02*
X185760326Y-66436980D01*
X185760326Y-66436980D02*
X185807945Y-66341742D01*
X185807945Y-66341742D02*
X185807945Y-66103647D01*
X185807945Y-66103647D02*
X185760326Y-66008409D01*
X185760326Y-66008409D02*
X185712707Y-65960790D01*
X185712707Y-65960790D02*
X185617469Y-65913171D01*
X185617469Y-65913171D02*
X185426993Y-65913171D01*
X185426993Y-65913171D02*
X185331755Y-65960790D01*
X185331755Y-65960790D02*
X185284136Y-66008409D01*
X185284136Y-66008409D02*
X185236517Y-66103647D01*
X185188898Y-68072219D02*
X185855564Y-68072219D01*
X185855564Y-68072219D02*
X185426993Y-69072219D01*
X185426993Y-71040790D02*
X185331755Y-70993171D01*
X185331755Y-70993171D02*
X185284136Y-70945552D01*
X185284136Y-70945552D02*
X185236517Y-70850314D01*
X185236517Y-70850314D02*
X185236517Y-70802695D01*
X185236517Y-70802695D02*
X185284136Y-70707457D01*
X185284136Y-70707457D02*
X185331755Y-70659838D01*
X185331755Y-70659838D02*
X185426993Y-70612219D01*
X185426993Y-70612219D02*
X185617469Y-70612219D01*
X185617469Y-70612219D02*
X185712707Y-70659838D01*
X185712707Y-70659838D02*
X185760326Y-70707457D01*
X185760326Y-70707457D02*
X185807945Y-70802695D01*
X185807945Y-70802695D02*
X185807945Y-70850314D01*
X185807945Y-70850314D02*
X185760326Y-70945552D01*
X185760326Y-70945552D02*
X185712707Y-70993171D01*
X185712707Y-70993171D02*
X185617469Y-71040790D01*
X185617469Y-71040790D02*
X185426993Y-71040790D01*
X185426993Y-71040790D02*
X185331755Y-71088409D01*
X185331755Y-71088409D02*
X185284136Y-71136028D01*
X185284136Y-71136028D02*
X185236517Y-71231266D01*
X185236517Y-71231266D02*
X185236517Y-71421742D01*
X185236517Y-71421742D02*
X185284136Y-71516980D01*
X185284136Y-71516980D02*
X185331755Y-71564600D01*
X185331755Y-71564600D02*
X185426993Y-71612219D01*
X185426993Y-71612219D02*
X185617469Y-71612219D01*
X185617469Y-71612219D02*
X185712707Y-71564600D01*
X185712707Y-71564600D02*
X185760326Y-71516980D01*
X185760326Y-71516980D02*
X185807945Y-71421742D01*
X185807945Y-71421742D02*
X185807945Y-71231266D01*
X185807945Y-71231266D02*
X185760326Y-71136028D01*
X185760326Y-71136028D02*
X185712707Y-71088409D01*
X185712707Y-71088409D02*
X185617469Y-71040790D01*
X190729524Y-74447219D02*
X190920000Y-74447219D01*
X190920000Y-74447219D02*
X191015238Y-74399600D01*
X191015238Y-74399600D02*
X191062857Y-74351980D01*
X191062857Y-74351980D02*
X191158095Y-74209123D01*
X191158095Y-74209123D02*
X191205714Y-74018647D01*
X191205714Y-74018647D02*
X191205714Y-73637695D01*
X191205714Y-73637695D02*
X191158095Y-73542457D01*
X191158095Y-73542457D02*
X191110476Y-73494838D01*
X191110476Y-73494838D02*
X191015238Y-73447219D01*
X191015238Y-73447219D02*
X190824762Y-73447219D01*
X190824762Y-73447219D02*
X190729524Y-73494838D01*
X190729524Y-73494838D02*
X190681905Y-73542457D01*
X190681905Y-73542457D02*
X190634286Y-73637695D01*
X190634286Y-73637695D02*
X190634286Y-73875790D01*
X190634286Y-73875790D02*
X190681905Y-73971028D01*
X190681905Y-73971028D02*
X190729524Y-74018647D01*
X190729524Y-74018647D02*
X190824762Y-74066266D01*
X190824762Y-74066266D02*
X191015238Y-74066266D01*
X191015238Y-74066266D02*
X191110476Y-74018647D01*
X191110476Y-74018647D02*
X191158095Y-73971028D01*
X191158095Y-73971028D02*
X191205714Y-73875790D01*
X193269523Y-74447219D02*
X192698095Y-74447219D01*
X192983809Y-74447219D02*
X192983809Y-73447219D01*
X192983809Y-73447219D02*
X192888571Y-73590076D01*
X192888571Y-73590076D02*
X192793333Y-73685314D01*
X192793333Y-73685314D02*
X192698095Y-73732933D01*
X193888571Y-73447219D02*
X193983809Y-73447219D01*
X193983809Y-73447219D02*
X194079047Y-73494838D01*
X194079047Y-73494838D02*
X194126666Y-73542457D01*
X194126666Y-73542457D02*
X194174285Y-73637695D01*
X194174285Y-73637695D02*
X194221904Y-73828171D01*
X194221904Y-73828171D02*
X194221904Y-74066266D01*
X194221904Y-74066266D02*
X194174285Y-74256742D01*
X194174285Y-74256742D02*
X194126666Y-74351980D01*
X194126666Y-74351980D02*
X194079047Y-74399600D01*
X194079047Y-74399600D02*
X193983809Y-74447219D01*
X193983809Y-74447219D02*
X193888571Y-74447219D01*
X193888571Y-74447219D02*
X193793333Y-74399600D01*
X193793333Y-74399600D02*
X193745714Y-74351980D01*
X193745714Y-74351980D02*
X193698095Y-74256742D01*
X193698095Y-74256742D02*
X193650476Y-74066266D01*
X193650476Y-74066266D02*
X193650476Y-73828171D01*
X193650476Y-73828171D02*
X193698095Y-73637695D01*
X193698095Y-73637695D02*
X193745714Y-73542457D01*
X193745714Y-73542457D02*
X193793333Y-73494838D01*
X193793333Y-73494838D02*
X193888571Y-73447219D01*
X195809523Y-74447219D02*
X195238095Y-74447219D01*
X195523809Y-74447219D02*
X195523809Y-73447219D01*
X195523809Y-73447219D02*
X195428571Y-73590076D01*
X195428571Y-73590076D02*
X195333333Y-73685314D01*
X195333333Y-73685314D02*
X195238095Y-73732933D01*
X196761904Y-74447219D02*
X196190476Y-74447219D01*
X196476190Y-74447219D02*
X196476190Y-73447219D01*
X196476190Y-73447219D02*
X196380952Y-73590076D01*
X196380952Y-73590076D02*
X196285714Y-73685314D01*
X196285714Y-73685314D02*
X196190476Y-73732933D01*
X198349523Y-74447219D02*
X197778095Y-74447219D01*
X198063809Y-74447219D02*
X198063809Y-73447219D01*
X198063809Y-73447219D02*
X197968571Y-73590076D01*
X197968571Y-73590076D02*
X197873333Y-73685314D01*
X197873333Y-73685314D02*
X197778095Y-73732933D01*
X198730476Y-73542457D02*
X198778095Y-73494838D01*
X198778095Y-73494838D02*
X198873333Y-73447219D01*
X198873333Y-73447219D02*
X199111428Y-73447219D01*
X199111428Y-73447219D02*
X199206666Y-73494838D01*
X199206666Y-73494838D02*
X199254285Y-73542457D01*
X199254285Y-73542457D02*
X199301904Y-73637695D01*
X199301904Y-73637695D02*
X199301904Y-73732933D01*
X199301904Y-73732933D02*
X199254285Y-73875790D01*
X199254285Y-73875790D02*
X198682857Y-74447219D01*
X198682857Y-74447219D02*
X199301904Y-74447219D01*
X200849523Y-74447219D02*
X200278095Y-74447219D01*
X200563809Y-74447219D02*
X200563809Y-73447219D01*
X200563809Y-73447219D02*
X200468571Y-73590076D01*
X200468571Y-73590076D02*
X200373333Y-73685314D01*
X200373333Y-73685314D02*
X200278095Y-73732933D01*
X201182857Y-73447219D02*
X201801904Y-73447219D01*
X201801904Y-73447219D02*
X201468571Y-73828171D01*
X201468571Y-73828171D02*
X201611428Y-73828171D01*
X201611428Y-73828171D02*
X201706666Y-73875790D01*
X201706666Y-73875790D02*
X201754285Y-73923409D01*
X201754285Y-73923409D02*
X201801904Y-74018647D01*
X201801904Y-74018647D02*
X201801904Y-74256742D01*
X201801904Y-74256742D02*
X201754285Y-74351980D01*
X201754285Y-74351980D02*
X201706666Y-74399600D01*
X201706666Y-74399600D02*
X201611428Y-74447219D01*
X201611428Y-74447219D02*
X201325714Y-74447219D01*
X201325714Y-74447219D02*
X201230476Y-74399600D01*
X201230476Y-74399600D02*
X201182857Y-74351980D01*
X206192054Y-65628449D02*
X206239673Y-65580830D01*
X206239673Y-65580830D02*
X206334911Y-65533211D01*
X206334911Y-65533211D02*
X206573006Y-65533211D01*
X206573006Y-65533211D02*
X206668244Y-65580830D01*
X206668244Y-65580830D02*
X206715863Y-65628449D01*
X206715863Y-65628449D02*
X206763482Y-65723687D01*
X206763482Y-65723687D02*
X206763482Y-65818925D01*
X206763482Y-65818925D02*
X206715863Y-65961782D01*
X206715863Y-65961782D02*
X206144435Y-66533211D01*
X206144435Y-66533211D02*
X206763482Y-66533211D01*
X207620625Y-65533211D02*
X207430149Y-65533211D01*
X207430149Y-65533211D02*
X207334911Y-65580830D01*
X207334911Y-65580830D02*
X207287292Y-65628449D01*
X207287292Y-65628449D02*
X207192054Y-65771306D01*
X207192054Y-65771306D02*
X207144435Y-65961782D01*
X207144435Y-65961782D02*
X207144435Y-66342734D01*
X207144435Y-66342734D02*
X207192054Y-66437972D01*
X207192054Y-66437972D02*
X207239673Y-66485592D01*
X207239673Y-66485592D02*
X207334911Y-66533211D01*
X207334911Y-66533211D02*
X207525387Y-66533211D01*
X207525387Y-66533211D02*
X207620625Y-66485592D01*
X207620625Y-66485592D02*
X207668244Y-66437972D01*
X207668244Y-66437972D02*
X207715863Y-66342734D01*
X207715863Y-66342734D02*
X207715863Y-66104639D01*
X207715863Y-66104639D02*
X207668244Y-66009401D01*
X207668244Y-66009401D02*
X207620625Y-65961782D01*
X207620625Y-65961782D02*
X207525387Y-65914163D01*
X207525387Y-65914163D02*
X207334911Y-65914163D01*
X207334911Y-65914163D02*
X207239673Y-65961782D01*
X207239673Y-65961782D02*
X207192054Y-66009401D01*
X207192054Y-66009401D02*
X207144435Y-66104639D01*
X206724961Y-50292219D02*
X206248771Y-50292219D01*
X206248771Y-50292219D02*
X206201152Y-50768409D01*
X206201152Y-50768409D02*
X206248771Y-50720790D01*
X206248771Y-50720790D02*
X206344009Y-50673171D01*
X206344009Y-50673171D02*
X206582104Y-50673171D01*
X206582104Y-50673171D02*
X206677342Y-50720790D01*
X206677342Y-50720790D02*
X206724961Y-50768409D01*
X206724961Y-50768409D02*
X206772580Y-50863647D01*
X206772580Y-50863647D02*
X206772580Y-51101742D01*
X206772580Y-51101742D02*
X206724961Y-51196980D01*
X206724961Y-51196980D02*
X206677342Y-51244600D01*
X206677342Y-51244600D02*
X206582104Y-51292219D01*
X206582104Y-51292219D02*
X206344009Y-51292219D01*
X206344009Y-51292219D02*
X206248771Y-51244600D01*
X206248771Y-51244600D02*
X206201152Y-51196980D01*
X207058295Y-50292219D02*
X207391628Y-51292219D01*
X207391628Y-51292219D02*
X207724961Y-50292219D01*
X206772580Y-52879838D02*
X206677342Y-52832219D01*
X206677342Y-52832219D02*
X206534485Y-52832219D01*
X206534485Y-52832219D02*
X206391628Y-52879838D01*
X206391628Y-52879838D02*
X206296390Y-52975076D01*
X206296390Y-52975076D02*
X206248771Y-53070314D01*
X206248771Y-53070314D02*
X206201152Y-53260790D01*
X206201152Y-53260790D02*
X206201152Y-53403647D01*
X206201152Y-53403647D02*
X206248771Y-53594123D01*
X206248771Y-53594123D02*
X206296390Y-53689361D01*
X206296390Y-53689361D02*
X206391628Y-53784600D01*
X206391628Y-53784600D02*
X206534485Y-53832219D01*
X206534485Y-53832219D02*
X206629723Y-53832219D01*
X206629723Y-53832219D02*
X206772580Y-53784600D01*
X206772580Y-53784600D02*
X206820199Y-53736980D01*
X206820199Y-53736980D02*
X206820199Y-53403647D01*
X206820199Y-53403647D02*
X206629723Y-53403647D01*
X207248771Y-53832219D02*
X207248771Y-52832219D01*
X207248771Y-52832219D02*
X207820199Y-53832219D01*
X207820199Y-53832219D02*
X207820199Y-52832219D01*
X208296390Y-53832219D02*
X208296390Y-52832219D01*
X208296390Y-52832219D02*
X208534485Y-52832219D01*
X208534485Y-52832219D02*
X208677342Y-52879838D01*
X208677342Y-52879838D02*
X208772580Y-52975076D01*
X208772580Y-52975076D02*
X208820199Y-53070314D01*
X208820199Y-53070314D02*
X208867818Y-53260790D01*
X208867818Y-53260790D02*
X208867818Y-53403647D01*
X208867818Y-53403647D02*
X208820199Y-53594123D01*
X208820199Y-53594123D02*
X208772580Y-53689361D01*
X208772580Y-53689361D02*
X208677342Y-53784600D01*
X208677342Y-53784600D02*
X208534485Y-53832219D01*
X208534485Y-53832219D02*
X208296390Y-53832219D01*
X206153533Y-55372219D02*
X206772580Y-55372219D01*
X206772580Y-55372219D02*
X206439247Y-55753171D01*
X206439247Y-55753171D02*
X206582104Y-55753171D01*
X206582104Y-55753171D02*
X206677342Y-55800790D01*
X206677342Y-55800790D02*
X206724961Y-55848409D01*
X206724961Y-55848409D02*
X206772580Y-55943647D01*
X206772580Y-55943647D02*
X206772580Y-56181742D01*
X206772580Y-56181742D02*
X206724961Y-56276980D01*
X206724961Y-56276980D02*
X206677342Y-56324600D01*
X206677342Y-56324600D02*
X206582104Y-56372219D01*
X206582104Y-56372219D02*
X206296390Y-56372219D01*
X206296390Y-56372219D02*
X206201152Y-56324600D01*
X206201152Y-56324600D02*
X206153533Y-56276980D01*
X207058295Y-55372219D02*
X207391628Y-56372219D01*
X207391628Y-56372219D02*
X207724961Y-55372219D01*
X207963057Y-55372219D02*
X208582104Y-55372219D01*
X208582104Y-55372219D02*
X208248771Y-55753171D01*
X208248771Y-55753171D02*
X208391628Y-55753171D01*
X208391628Y-55753171D02*
X208486866Y-55800790D01*
X208486866Y-55800790D02*
X208534485Y-55848409D01*
X208534485Y-55848409D02*
X208582104Y-55943647D01*
X208582104Y-55943647D02*
X208582104Y-56181742D01*
X208582104Y-56181742D02*
X208534485Y-56276980D01*
X208534485Y-56276980D02*
X208486866Y-56324600D01*
X208486866Y-56324600D02*
X208391628Y-56372219D01*
X208391628Y-56372219D02*
X208105914Y-56372219D01*
X208105914Y-56372219D02*
X208010676Y-56324600D01*
X208010676Y-56324600D02*
X207963057Y-56276980D01*
X206201152Y-58007457D02*
X206248771Y-57959838D01*
X206248771Y-57959838D02*
X206344009Y-57912219D01*
X206344009Y-57912219D02*
X206582104Y-57912219D01*
X206582104Y-57912219D02*
X206677342Y-57959838D01*
X206677342Y-57959838D02*
X206724961Y-58007457D01*
X206724961Y-58007457D02*
X206772580Y-58102695D01*
X206772580Y-58102695D02*
X206772580Y-58197933D01*
X206772580Y-58197933D02*
X206724961Y-58340790D01*
X206724961Y-58340790D02*
X206153533Y-58912219D01*
X206153533Y-58912219D02*
X206772580Y-58912219D01*
X207248771Y-58912219D02*
X207439247Y-58912219D01*
X207439247Y-58912219D02*
X207534485Y-58864600D01*
X207534485Y-58864600D02*
X207582104Y-58816980D01*
X207582104Y-58816980D02*
X207677342Y-58674123D01*
X207677342Y-58674123D02*
X207724961Y-58483647D01*
X207724961Y-58483647D02*
X207724961Y-58102695D01*
X207724961Y-58102695D02*
X207677342Y-58007457D01*
X207677342Y-58007457D02*
X207629723Y-57959838D01*
X207629723Y-57959838D02*
X207534485Y-57912219D01*
X207534485Y-57912219D02*
X207344009Y-57912219D01*
X207344009Y-57912219D02*
X207248771Y-57959838D01*
X207248771Y-57959838D02*
X207201152Y-58007457D01*
X207201152Y-58007457D02*
X207153533Y-58102695D01*
X207153533Y-58102695D02*
X207153533Y-58340790D01*
X207153533Y-58340790D02*
X207201152Y-58436028D01*
X207201152Y-58436028D02*
X207248771Y-58483647D01*
X207248771Y-58483647D02*
X207344009Y-58531266D01*
X207344009Y-58531266D02*
X207534485Y-58531266D01*
X207534485Y-58531266D02*
X207629723Y-58483647D01*
X207629723Y-58483647D02*
X207677342Y-58436028D01*
X207677342Y-58436028D02*
X207724961Y-58340790D01*
X206201152Y-60547457D02*
X206248771Y-60499838D01*
X206248771Y-60499838D02*
X206344009Y-60452219D01*
X206344009Y-60452219D02*
X206582104Y-60452219D01*
X206582104Y-60452219D02*
X206677342Y-60499838D01*
X206677342Y-60499838D02*
X206724961Y-60547457D01*
X206724961Y-60547457D02*
X206772580Y-60642695D01*
X206772580Y-60642695D02*
X206772580Y-60737933D01*
X206772580Y-60737933D02*
X206724961Y-60880790D01*
X206724961Y-60880790D02*
X206153533Y-61452219D01*
X206153533Y-61452219D02*
X206772580Y-61452219D01*
X207344009Y-60880790D02*
X207248771Y-60833171D01*
X207248771Y-60833171D02*
X207201152Y-60785552D01*
X207201152Y-60785552D02*
X207153533Y-60690314D01*
X207153533Y-60690314D02*
X207153533Y-60642695D01*
X207153533Y-60642695D02*
X207201152Y-60547457D01*
X207201152Y-60547457D02*
X207248771Y-60499838D01*
X207248771Y-60499838D02*
X207344009Y-60452219D01*
X207344009Y-60452219D02*
X207534485Y-60452219D01*
X207534485Y-60452219D02*
X207629723Y-60499838D01*
X207629723Y-60499838D02*
X207677342Y-60547457D01*
X207677342Y-60547457D02*
X207724961Y-60642695D01*
X207724961Y-60642695D02*
X207724961Y-60690314D01*
X207724961Y-60690314D02*
X207677342Y-60785552D01*
X207677342Y-60785552D02*
X207629723Y-60833171D01*
X207629723Y-60833171D02*
X207534485Y-60880790D01*
X207534485Y-60880790D02*
X207344009Y-60880790D01*
X207344009Y-60880790D02*
X207248771Y-60928409D01*
X207248771Y-60928409D02*
X207201152Y-60976028D01*
X207201152Y-60976028D02*
X207153533Y-61071266D01*
X207153533Y-61071266D02*
X207153533Y-61261742D01*
X207153533Y-61261742D02*
X207201152Y-61356980D01*
X207201152Y-61356980D02*
X207248771Y-61404600D01*
X207248771Y-61404600D02*
X207344009Y-61452219D01*
X207344009Y-61452219D02*
X207534485Y-61452219D01*
X207534485Y-61452219D02*
X207629723Y-61404600D01*
X207629723Y-61404600D02*
X207677342Y-61356980D01*
X207677342Y-61356980D02*
X207724961Y-61261742D01*
X207724961Y-61261742D02*
X207724961Y-61071266D01*
X207724961Y-61071266D02*
X207677342Y-60976028D01*
X207677342Y-60976028D02*
X207629723Y-60928409D01*
X207629723Y-60928409D02*
X207534485Y-60880790D01*
X206201152Y-63087457D02*
X206248771Y-63039838D01*
X206248771Y-63039838D02*
X206344009Y-62992219D01*
X206344009Y-62992219D02*
X206582104Y-62992219D01*
X206582104Y-62992219D02*
X206677342Y-63039838D01*
X206677342Y-63039838D02*
X206724961Y-63087457D01*
X206724961Y-63087457D02*
X206772580Y-63182695D01*
X206772580Y-63182695D02*
X206772580Y-63277933D01*
X206772580Y-63277933D02*
X206724961Y-63420790D01*
X206724961Y-63420790D02*
X206153533Y-63992219D01*
X206153533Y-63992219D02*
X206772580Y-63992219D01*
X207105914Y-62992219D02*
X207772580Y-62992219D01*
X207772580Y-62992219D02*
X207344009Y-63992219D01*
X206772580Y-69072219D02*
X206201152Y-69072219D01*
X206486866Y-69072219D02*
X206486866Y-68072219D01*
X206486866Y-68072219D02*
X206391628Y-68215076D01*
X206391628Y-68215076D02*
X206296390Y-68310314D01*
X206296390Y-68310314D02*
X206201152Y-68357933D01*
X207677342Y-68072219D02*
X207201152Y-68072219D01*
X207201152Y-68072219D02*
X207153533Y-68548409D01*
X207153533Y-68548409D02*
X207201152Y-68500790D01*
X207201152Y-68500790D02*
X207296390Y-68453171D01*
X207296390Y-68453171D02*
X207534485Y-68453171D01*
X207534485Y-68453171D02*
X207629723Y-68500790D01*
X207629723Y-68500790D02*
X207677342Y-68548409D01*
X207677342Y-68548409D02*
X207724961Y-68643647D01*
X207724961Y-68643647D02*
X207724961Y-68881742D01*
X207724961Y-68881742D02*
X207677342Y-68976980D01*
X207677342Y-68976980D02*
X207629723Y-69024600D01*
X207629723Y-69024600D02*
X207534485Y-69072219D01*
X207534485Y-69072219D02*
X207296390Y-69072219D01*
X207296390Y-69072219D02*
X207201152Y-69024600D01*
X207201152Y-69024600D02*
X207153533Y-68976980D01*
X206772580Y-71612219D02*
X206201152Y-71612219D01*
X206486866Y-71612219D02*
X206486866Y-70612219D01*
X206486866Y-70612219D02*
X206391628Y-70755076D01*
X206391628Y-70755076D02*
X206296390Y-70850314D01*
X206296390Y-70850314D02*
X206201152Y-70897933D01*
X207629723Y-70945552D02*
X207629723Y-71612219D01*
X207391628Y-70564600D02*
X207153533Y-71278885D01*
X207153533Y-71278885D02*
X207772580Y-71278885D01*
D11*
X145190476Y-92033200D02*
X145333333Y-92080819D01*
X145333333Y-92080819D02*
X145571428Y-92080819D01*
X145571428Y-92080819D02*
X145666666Y-92033200D01*
X145666666Y-92033200D02*
X145714285Y-91985580D01*
X145714285Y-91985580D02*
X145761904Y-91890342D01*
X145761904Y-91890342D02*
X145761904Y-91795104D01*
X145761904Y-91795104D02*
X145714285Y-91699866D01*
X145714285Y-91699866D02*
X145666666Y-91652247D01*
X145666666Y-91652247D02*
X145571428Y-91604628D01*
X145571428Y-91604628D02*
X145380952Y-91557009D01*
X145380952Y-91557009D02*
X145285714Y-91509390D01*
X145285714Y-91509390D02*
X145238095Y-91461771D01*
X145238095Y-91461771D02*
X145190476Y-91366533D01*
X145190476Y-91366533D02*
X145190476Y-91271295D01*
X145190476Y-91271295D02*
X145238095Y-91176057D01*
X145238095Y-91176057D02*
X145285714Y-91128438D01*
X145285714Y-91128438D02*
X145380952Y-91080819D01*
X145380952Y-91080819D02*
X145619047Y-91080819D01*
X145619047Y-91080819D02*
X145761904Y-91128438D01*
X146095238Y-91080819D02*
X146333333Y-92080819D01*
X146333333Y-92080819D02*
X146523809Y-91366533D01*
X146523809Y-91366533D02*
X146714285Y-92080819D01*
X146714285Y-92080819D02*
X146952381Y-91080819D01*
X147857142Y-92080819D02*
X147285714Y-92080819D01*
X147571428Y-92080819D02*
X147571428Y-91080819D01*
X147571428Y-91080819D02*
X147476190Y-91223676D01*
X147476190Y-91223676D02*
X147380952Y-91318914D01*
X147380952Y-91318914D02*
X147285714Y-91366533D01*
X148809523Y-92080819D02*
X148238095Y-92080819D01*
X148523809Y-92080819D02*
X148523809Y-91080819D01*
X148523809Y-91080819D02*
X148428571Y-91223676D01*
X148428571Y-91223676D02*
X148333333Y-91318914D01*
X148333333Y-91318914D02*
X148238095Y-91366533D01*
X107190476Y-111033200D02*
X107333333Y-111080819D01*
X107333333Y-111080819D02*
X107571428Y-111080819D01*
X107571428Y-111080819D02*
X107666666Y-111033200D01*
X107666666Y-111033200D02*
X107714285Y-110985580D01*
X107714285Y-110985580D02*
X107761904Y-110890342D01*
X107761904Y-110890342D02*
X107761904Y-110795104D01*
X107761904Y-110795104D02*
X107714285Y-110699866D01*
X107714285Y-110699866D02*
X107666666Y-110652247D01*
X107666666Y-110652247D02*
X107571428Y-110604628D01*
X107571428Y-110604628D02*
X107380952Y-110557009D01*
X107380952Y-110557009D02*
X107285714Y-110509390D01*
X107285714Y-110509390D02*
X107238095Y-110461771D01*
X107238095Y-110461771D02*
X107190476Y-110366533D01*
X107190476Y-110366533D02*
X107190476Y-110271295D01*
X107190476Y-110271295D02*
X107238095Y-110176057D01*
X107238095Y-110176057D02*
X107285714Y-110128438D01*
X107285714Y-110128438D02*
X107380952Y-110080819D01*
X107380952Y-110080819D02*
X107619047Y-110080819D01*
X107619047Y-110080819D02*
X107761904Y-110128438D01*
X108095238Y-110080819D02*
X108333333Y-111080819D01*
X108333333Y-111080819D02*
X108523809Y-110366533D01*
X108523809Y-110366533D02*
X108714285Y-111080819D01*
X108714285Y-111080819D02*
X108952381Y-110080819D01*
X109857142Y-111080819D02*
X109285714Y-111080819D01*
X109571428Y-111080819D02*
X109571428Y-110080819D01*
X109571428Y-110080819D02*
X109476190Y-110223676D01*
X109476190Y-110223676D02*
X109380952Y-110318914D01*
X109380952Y-110318914D02*
X109285714Y-110366533D01*
X110761904Y-110080819D02*
X110285714Y-110080819D01*
X110285714Y-110080819D02*
X110238095Y-110557009D01*
X110238095Y-110557009D02*
X110285714Y-110509390D01*
X110285714Y-110509390D02*
X110380952Y-110461771D01*
X110380952Y-110461771D02*
X110619047Y-110461771D01*
X110619047Y-110461771D02*
X110714285Y-110509390D01*
X110714285Y-110509390D02*
X110761904Y-110557009D01*
X110761904Y-110557009D02*
X110809523Y-110652247D01*
X110809523Y-110652247D02*
X110809523Y-110890342D01*
X110809523Y-110890342D02*
X110761904Y-110985580D01*
X110761904Y-110985580D02*
X110714285Y-111033200D01*
X110714285Y-111033200D02*
X110619047Y-111080819D01*
X110619047Y-111080819D02*
X110380952Y-111080819D01*
X110380952Y-111080819D02*
X110285714Y-111033200D01*
X110285714Y-111033200D02*
X110238095Y-110985580D01*
D13*
%TO.C,G\u002A\u002A\u002A*%
G36*
X206973125Y-86461123D02*
G01*
X208602032Y-86473409D01*
X208399376Y-86670476D01*
X208236958Y-86805700D01*
X208042796Y-86936386D01*
X207932464Y-86997314D01*
X207668208Y-87127085D01*
X204189716Y-87136226D01*
X203500362Y-87137700D01*
X202898864Y-87138207D01*
X202379699Y-87137672D01*
X201937346Y-87136017D01*
X201566282Y-87133168D01*
X201260984Y-87129047D01*
X201015931Y-87123579D01*
X200825600Y-87116687D01*
X200684469Y-87108297D01*
X200587016Y-87098330D01*
X200527718Y-87086712D01*
X200524458Y-87085710D01*
X200359134Y-87024811D01*
X200200397Y-86954302D01*
X200183158Y-86945526D01*
X200065954Y-86872355D01*
X199933242Y-86772014D01*
X199807028Y-86663634D01*
X199709317Y-86566344D01*
X199662115Y-86499273D01*
X199660671Y-86491321D01*
X199705684Y-86481446D01*
X199834009Y-86472473D01*
X200035579Y-86464658D01*
X200300329Y-86458260D01*
X200618189Y-86453535D01*
X200979094Y-86450739D01*
X201277541Y-86450063D01*
X202894410Y-86450063D01*
X203226897Y-86576095D01*
X203389795Y-86633351D01*
X203535093Y-86670418D01*
X203691990Y-86691563D01*
X203889679Y-86701050D01*
X204096333Y-86703110D01*
X204348907Y-86700704D01*
X204538531Y-86689538D01*
X204695534Y-86665307D01*
X204850240Y-86623710D01*
X204988750Y-86576466D01*
X205344218Y-86448838D01*
X206973125Y-86461123D01*
G37*
G36*
X207925010Y-84060650D02*
G01*
X207925957Y-84409965D01*
X207928635Y-84730964D01*
X207932797Y-85011184D01*
X207938194Y-85238158D01*
X207944579Y-85399425D01*
X207951706Y-85482519D01*
X207953351Y-85489075D01*
X207982872Y-85523958D01*
X208050305Y-85546179D01*
X208172361Y-85558256D01*
X208365755Y-85562706D01*
X208443608Y-85562931D01*
X208654196Y-85563843D01*
X208788532Y-85569260D01*
X208863744Y-85583202D01*
X208896959Y-85609688D01*
X208905307Y-85652739D01*
X208905524Y-85671341D01*
X208890851Y-85779471D01*
X208853903Y-85922721D01*
X208805288Y-86068953D01*
X208755614Y-86186026D01*
X208717615Y-86240660D01*
X208661653Y-86232187D01*
X208649194Y-86217369D01*
X208593167Y-86202561D01*
X208447298Y-86190371D01*
X208215095Y-86180913D01*
X207900063Y-86174302D01*
X207505711Y-86170650D01*
X207191501Y-86169916D01*
X205763136Y-86169916D01*
X205991959Y-85918151D01*
X206220782Y-85666386D01*
X206742722Y-85661349D01*
X206988493Y-85655957D01*
X207157228Y-85643943D01*
X207265165Y-85623170D01*
X207328543Y-85591500D01*
X207338035Y-85582941D01*
X207361086Y-85548454D01*
X207378943Y-85489412D01*
X207392276Y-85394835D01*
X207401750Y-85253742D01*
X207408035Y-85055152D01*
X207411798Y-84788085D01*
X207413706Y-84441560D01*
X207413988Y-84333952D01*
X207416569Y-83158335D01*
X207670789Y-82932208D01*
X207925010Y-82706080D01*
X207925010Y-84060650D01*
G37*
G36*
X200408046Y-82799192D02*
G01*
X200537415Y-82915128D01*
X200574722Y-82951540D01*
X200831612Y-83205026D01*
X200825352Y-84362184D01*
X200824643Y-84756373D01*
X200827483Y-85064800D01*
X200834183Y-85295032D01*
X200845055Y-85454633D01*
X200860412Y-85551168D01*
X200875929Y-85587827D01*
X200925586Y-85619773D01*
X201021326Y-85640644D01*
X201178102Y-85652212D01*
X201410862Y-85656248D01*
X201454081Y-85656313D01*
X201975395Y-85656313D01*
X202204281Y-85888693D01*
X202314264Y-86006289D01*
X202388287Y-86097058D01*
X202411386Y-86142522D01*
X202410696Y-86143543D01*
X202359882Y-86150087D01*
X202229809Y-86156374D01*
X202034130Y-86162282D01*
X201786501Y-86167689D01*
X201500576Y-86172474D01*
X201190011Y-86176516D01*
X200868459Y-86179691D01*
X200549577Y-86181880D01*
X200247018Y-86182959D01*
X199974438Y-86182807D01*
X199745491Y-86181303D01*
X199573833Y-86178325D01*
X199473118Y-86173751D01*
X199452190Y-86169916D01*
X199427901Y-86103842D01*
X199390786Y-85982198D01*
X199350956Y-85839934D01*
X199318524Y-85712003D01*
X199314203Y-85692970D01*
X199286185Y-85566208D01*
X199765248Y-85552896D01*
X200244311Y-85539585D01*
X200256136Y-84185541D01*
X200259996Y-83836732D01*
X200265091Y-83516634D01*
X200271101Y-83237630D01*
X200277705Y-83012103D01*
X200284583Y-82852434D01*
X200291414Y-82771007D01*
X200292896Y-82764775D01*
X200328799Y-82750571D01*
X200408046Y-82799192D01*
G37*
G36*
X199648999Y-79409404D02*
G01*
X200010855Y-79423041D01*
X200025788Y-79578836D01*
X200016289Y-79705236D01*
X199975431Y-79885688D01*
X199910275Y-80089130D01*
X199909060Y-80092439D01*
X199852321Y-80255766D01*
X199814622Y-80396835D01*
X199792194Y-80542742D01*
X199781265Y-80720583D01*
X199778064Y-80957453D01*
X199778035Y-81033886D01*
X199780523Y-81292654D01*
X199789505Y-81482701D01*
X199808242Y-81628633D01*
X199839995Y-81755054D01*
X199888025Y-81886571D01*
X199892516Y-81897673D01*
X199923488Y-81976403D01*
X199948387Y-82051328D01*
X199967993Y-82133542D01*
X199983087Y-82234138D01*
X199994449Y-82364209D01*
X200002860Y-82534849D01*
X200009102Y-82757153D01*
X200013954Y-83042213D01*
X200018198Y-83401122D01*
X200021499Y-83730302D01*
X200036636Y-85282784D01*
X199661889Y-85282784D01*
X199287142Y-85282784D01*
X199285886Y-84944272D01*
X199284630Y-84605761D01*
X199093510Y-84489034D01*
X198889702Y-84333622D01*
X198675208Y-84118285D01*
X198473447Y-83870027D01*
X198307836Y-83615855D01*
X198263324Y-83531669D01*
X198128228Y-83193818D01*
X198031432Y-82822064D01*
X197983726Y-82461066D01*
X197982547Y-82423500D01*
X198598036Y-82423500D01*
X198656160Y-82820289D01*
X198788908Y-83198644D01*
X198989839Y-83536017D01*
X199083343Y-83649462D01*
X199263796Y-83849234D01*
X199276144Y-82387763D01*
X199278426Y-82027653D01*
X199279054Y-81698222D01*
X199278120Y-81410894D01*
X199275720Y-81177090D01*
X199271946Y-81008235D01*
X199266891Y-80915751D01*
X199263984Y-80901783D01*
X199213081Y-80909412D01*
X199129806Y-80980575D01*
X199028674Y-81098047D01*
X198924198Y-81244605D01*
X198830894Y-81403022D01*
X198814625Y-81435071D01*
X198728089Y-81644784D01*
X198654120Y-81882411D01*
X198620978Y-82030828D01*
X198598036Y-82423500D01*
X197982547Y-82423500D01*
X197980600Y-82361487D01*
X198019672Y-81927640D01*
X198133789Y-81497033D01*
X198313882Y-81087716D01*
X198550886Y-80717736D01*
X198835733Y-80405141D01*
X199047558Y-80237657D01*
X199284734Y-80076717D01*
X199285938Y-79736242D01*
X199287142Y-79395767D01*
X199648999Y-79409404D01*
G37*
G36*
X208942536Y-79758976D02*
G01*
X208951967Y-79934756D01*
X208969415Y-80043425D01*
X209005235Y-80111226D01*
X209069779Y-80164401D01*
X209113382Y-80192053D01*
X209218997Y-80271979D01*
X209360324Y-80398252D01*
X209511280Y-80547206D01*
X209551750Y-80589787D01*
X209850510Y-80974301D01*
X210067015Y-81395594D01*
X210200000Y-81843957D01*
X210248200Y-82309686D01*
X210210351Y-82783075D01*
X210085188Y-83254416D01*
X209941844Y-83584036D01*
X209758324Y-83877386D01*
X209522087Y-84157994D01*
X209264253Y-84389884D01*
X209211886Y-84427907D01*
X208955759Y-84605761D01*
X208953987Y-84944272D01*
X208952216Y-85282784D01*
X208577468Y-85282784D01*
X208202721Y-85282784D01*
X208214886Y-83858703D01*
X208956045Y-83858703D01*
X209139717Y-83655588D01*
X209268015Y-83491049D01*
X209391742Y-83296421D01*
X209445641Y-83194053D01*
X209584924Y-82800281D01*
X209639094Y-82396188D01*
X209611136Y-82028696D01*
X209507432Y-81665488D01*
X209340033Y-81315432D01*
X209127048Y-81016225D01*
X209122023Y-81010541D01*
X208956103Y-80823776D01*
X208956074Y-82341239D01*
X208956045Y-83858703D01*
X208214886Y-83858703D01*
X208215983Y-83730302D01*
X208219763Y-83308001D01*
X208223640Y-82967995D01*
X208228385Y-82699199D01*
X208234771Y-82490528D01*
X208243573Y-82330898D01*
X208255562Y-82209224D01*
X208271511Y-82114420D01*
X208292194Y-82035402D01*
X208318384Y-81961085D01*
X208343777Y-81897673D01*
X208393516Y-81764761D01*
X208426682Y-81638877D01*
X208446583Y-81495413D01*
X208456527Y-81309767D01*
X208459821Y-81057332D01*
X208459895Y-81033886D01*
X208458431Y-80775577D01*
X208450290Y-80586015D01*
X208432305Y-80440632D01*
X208401307Y-80314858D01*
X208354129Y-80184126D01*
X208348506Y-80170100D01*
X208283290Y-79969144D01*
X208241138Y-79762815D01*
X208232017Y-79656497D01*
X208228502Y-79423041D01*
X208578686Y-79423041D01*
X208928870Y-79423041D01*
X208942536Y-79758976D01*
G37*
G36*
X201408293Y-83473044D02*
G01*
X201452923Y-83489578D01*
X201486980Y-83516958D01*
X201505578Y-83578460D01*
X201510557Y-83691933D01*
X201503752Y-83875228D01*
X201499788Y-83944817D01*
X201509169Y-84385541D01*
X201586104Y-84809498D01*
X201689454Y-85107692D01*
X201699440Y-85155797D01*
X201662383Y-85180294D01*
X201559420Y-85188781D01*
X201486623Y-85189401D01*
X201248171Y-85189401D01*
X201248171Y-84325614D01*
X201248715Y-84012644D01*
X201252163Y-83781934D01*
X201261239Y-83622364D01*
X201278666Y-83522811D01*
X201307168Y-83472154D01*
X201349470Y-83459272D01*
X201408293Y-83473044D01*
G37*
G36*
X206944495Y-84303270D02*
G01*
X206944495Y-85189401D01*
X206729389Y-85189401D01*
X206599724Y-85184839D01*
X206543874Y-85165341D01*
X206542479Y-85122187D01*
X206547951Y-85107692D01*
X206654742Y-84763966D01*
X206711699Y-84365814D01*
X206723169Y-84015775D01*
X206723014Y-83795032D01*
X206727766Y-83649369D01*
X206741077Y-83560491D01*
X206766601Y-83510105D01*
X206807992Y-83479915D01*
X206832526Y-83468155D01*
X206944495Y-83417138D01*
X206944495Y-84303270D01*
G37*
G36*
X199922950Y-78500899D02*
G01*
X200173814Y-78505501D01*
X200477767Y-78512563D01*
X201458282Y-78535909D01*
X201156597Y-78699328D01*
X200961912Y-78819752D01*
X200751201Y-78972952D01*
X200584972Y-79112587D01*
X200448507Y-79235427D01*
X200363276Y-79300142D01*
X200314551Y-79314707D01*
X200287601Y-79287094D01*
X200283078Y-79276006D01*
X200248580Y-79206733D01*
X200194312Y-79161631D01*
X200101969Y-79135593D01*
X199953249Y-79123509D01*
X199729848Y-79120272D01*
X199725063Y-79120263D01*
X199299198Y-79119548D01*
X199338496Y-78909198D01*
X199376135Y-78754958D01*
X199422693Y-78623873D01*
X199437523Y-78594032D01*
X199459420Y-78559249D01*
X199488282Y-78533473D01*
X199536587Y-78515727D01*
X199616815Y-78505034D01*
X199741443Y-78500417D01*
X199922950Y-78500899D01*
G37*
G36*
X208752419Y-78509228D02*
G01*
X208790935Y-78590414D01*
X208848886Y-78755734D01*
X208889533Y-78924098D01*
X208892467Y-78942694D01*
X208917347Y-79116024D01*
X208457457Y-79129459D01*
X208243985Y-79137524D01*
X208104899Y-79149499D01*
X208021206Y-79169579D01*
X207973909Y-79201959D01*
X207948336Y-79241878D01*
X207919478Y-79288548D01*
X207883694Y-79298456D01*
X207823976Y-79263823D01*
X207723317Y-79176871D01*
X207642059Y-79101805D01*
X207459856Y-78950282D01*
X207246919Y-78798811D01*
X207083044Y-78699328D01*
X206781076Y-78535909D01*
X207688019Y-78523199D01*
X208015358Y-78516095D01*
X208285843Y-78505086D01*
X208489586Y-78490809D01*
X208616698Y-78473899D01*
X208654622Y-78460976D01*
X208702767Y-78449620D01*
X208752419Y-78509228D01*
G37*
G36*
X204703318Y-78682437D02*
G01*
X204536483Y-78778678D01*
X204388190Y-78870205D01*
X204289947Y-78937553D01*
X204288474Y-78938704D01*
X204192585Y-79003203D01*
X204110154Y-79017879D01*
X204011256Y-78979811D01*
X203885389Y-78899374D01*
X203730935Y-78799839D01*
X203549837Y-78691046D01*
X203466002Y-78643418D01*
X203232546Y-78514255D01*
X204119679Y-78513943D01*
X205006811Y-78513632D01*
X204703318Y-78682437D01*
G37*
G36*
X207886496Y-77679611D02*
G01*
X208032204Y-77760283D01*
X208191887Y-77867794D01*
X208345834Y-77986230D01*
X208474334Y-78099682D01*
X208557674Y-78192236D01*
X208578686Y-78238362D01*
X208532989Y-78244371D01*
X208399871Y-78250082D01*
X208185296Y-78255440D01*
X207895223Y-78260392D01*
X207535617Y-78264883D01*
X207112438Y-78268858D01*
X206631649Y-78272263D01*
X206099210Y-78275043D01*
X205521085Y-78277144D01*
X204903236Y-78278511D01*
X204251623Y-78279091D01*
X204119679Y-78279107D01*
X203342721Y-78278647D01*
X202631608Y-78277285D01*
X201989284Y-78275051D01*
X201418693Y-78271974D01*
X200922779Y-78268084D01*
X200504488Y-78263410D01*
X200166763Y-78257982D01*
X199912549Y-78251828D01*
X199744791Y-78244978D01*
X199666432Y-78237462D01*
X199660671Y-78234663D01*
X199698345Y-78158555D01*
X199798572Y-78052979D01*
X199942162Y-77933613D01*
X200109926Y-77816137D01*
X200282674Y-77716229D01*
X200314348Y-77700587D01*
X200617841Y-77555394D01*
X204119679Y-77555394D01*
X207621517Y-77555394D01*
X207886496Y-77679611D01*
G37*
%TO.C,SW13*%
D14*
X191985000Y-106485000D02*
X178015000Y-106485000D01*
X191985000Y-92515000D02*
X191985000Y-106485000D01*
X178015000Y-106485000D02*
X178015000Y-92515000D01*
X178015000Y-92515000D02*
X191985000Y-92515000D01*
%TO.C,SW8*%
X159015000Y-73515000D02*
X172985000Y-73515000D01*
X159015000Y-87485000D02*
X159015000Y-73515000D01*
X172985000Y-73515000D02*
X172985000Y-87485000D01*
X172985000Y-87485000D02*
X159015000Y-87485000D01*
%TO.C,SW17*%
X140015000Y-111515000D02*
X153985000Y-111515000D01*
X140015000Y-125485000D02*
X140015000Y-111515000D01*
X153985000Y-111515000D02*
X153985000Y-125485000D01*
X153985000Y-125485000D02*
X140015000Y-125485000D01*
%TO.C,SW2*%
X121015000Y-54515000D02*
X134985000Y-54515000D01*
X121015000Y-68485000D02*
X121015000Y-54515000D01*
X134985000Y-54515000D02*
X134985000Y-68485000D01*
X134985000Y-68485000D02*
X121015000Y-68485000D01*
%TO.C,SW10*%
X121015000Y-92515000D02*
X134985000Y-92515000D01*
X121015000Y-106485000D02*
X121015000Y-92515000D01*
X134985000Y-92515000D02*
X134985000Y-106485000D01*
X134985000Y-106485000D02*
X121015000Y-106485000D01*
%TO.C,SW19*%
X178015000Y-111515000D02*
X191985000Y-111515000D01*
X178015000Y-125485000D02*
X178015000Y-111515000D01*
X191985000Y-111515000D02*
X191985000Y-125485000D01*
X191985000Y-125485000D02*
X178015000Y-125485000D01*
%TO.C,SW4*%
X159015000Y-54515000D02*
X172985000Y-54515000D01*
X159015000Y-68485000D02*
X159015000Y-54515000D01*
X172985000Y-54515000D02*
X172985000Y-68485000D01*
X172985000Y-68485000D02*
X159015000Y-68485000D01*
%TO.C,SW6*%
X121015000Y-73515000D02*
X134985000Y-73515000D01*
X121015000Y-87485000D02*
X121015000Y-73515000D01*
X134985000Y-73515000D02*
X134985000Y-87485000D01*
X134985000Y-87485000D02*
X121015000Y-87485000D01*
%TO.C,SW14*%
X197015000Y-92515000D02*
X210985000Y-92515000D01*
X197015000Y-106485000D02*
X197015000Y-92515000D01*
X210985000Y-92515000D02*
X210985000Y-106485000D01*
X210985000Y-106485000D02*
X197015000Y-106485000D01*
%TO.C,J1*%
X190771000Y-58530000D02*
X190771000Y-57150000D01*
X192151000Y-58530000D02*
X190771000Y-58530000D01*
X193421000Y-55770000D02*
X201151000Y-55770000D01*
X193421000Y-58530000D02*
X193421000Y-55770000D01*
X193421000Y-58530000D02*
X201151000Y-58530000D01*
X201151000Y-58530000D02*
X201151000Y-55770000D01*
%TO.C,SW3*%
X140015000Y-54515000D02*
X153985000Y-54515000D01*
X140015000Y-68485000D02*
X140015000Y-54515000D01*
X153985000Y-54515000D02*
X153985000Y-68485000D01*
X153985000Y-68485000D02*
X140015000Y-68485000D01*
%TO.C,SW12*%
X159015000Y-92515000D02*
X172985000Y-92515000D01*
X159015000Y-106485000D02*
X159015000Y-92515000D01*
X172985000Y-92515000D02*
X172985000Y-106485000D01*
X172985000Y-106485000D02*
X159015000Y-106485000D01*
%TO.C,SW1*%
X102060000Y-54560000D02*
X116030000Y-54560000D01*
X102060000Y-68530000D02*
X102060000Y-54560000D01*
X116030000Y-54560000D02*
X116030000Y-68530000D01*
X116030000Y-68530000D02*
X102060000Y-68530000D01*
%TO.C,SW16*%
X121015000Y-111515000D02*
X134985000Y-111515000D01*
X121015000Y-125485000D02*
X121015000Y-111515000D01*
X134985000Y-111515000D02*
X134985000Y-125485000D01*
X134985000Y-125485000D02*
X121015000Y-125485000D01*
%TO.C,SW18*%
X159015000Y-111515000D02*
X172985000Y-111515000D01*
X159015000Y-125485000D02*
X159015000Y-111515000D01*
X172985000Y-111515000D02*
X172985000Y-125485000D01*
X172985000Y-125485000D02*
X159015000Y-125485000D01*
%TO.C,SW20*%
X197015000Y-111515000D02*
X210985000Y-111515000D01*
X197015000Y-125485000D02*
X197015000Y-111515000D01*
X210985000Y-111515000D02*
X210985000Y-125485000D01*
X210985000Y-125485000D02*
X197015000Y-125485000D01*
%TO.C,SW7*%
X140015000Y-73515000D02*
X153985000Y-73515000D01*
X140015000Y-87485000D02*
X140015000Y-73515000D01*
X153985000Y-73515000D02*
X153985000Y-87485000D01*
X153985000Y-87485000D02*
X140015000Y-87485000D01*
%TO.C,SW9*%
X102015000Y-92515000D02*
X115985000Y-92515000D01*
X102015000Y-106485000D02*
X102015000Y-92515000D01*
X115985000Y-92515000D02*
X115985000Y-106485000D01*
X115985000Y-106485000D02*
X102015000Y-106485000D01*
%TO.C,SW5*%
X102015000Y-73515000D02*
X115985000Y-73515000D01*
X102015000Y-87485000D02*
X102015000Y-73515000D01*
X115985000Y-73515000D02*
X115985000Y-87485000D01*
X115985000Y-87485000D02*
X102015000Y-87485000D01*
%TO.C,SW11*%
X140015000Y-92515000D02*
X153985000Y-92515000D01*
X140015000Y-106485000D02*
X140015000Y-92515000D01*
X153985000Y-92515000D02*
X153985000Y-106485000D01*
X153985000Y-106485000D02*
X140015000Y-106485000D01*
%TO.C,SW15*%
X102015000Y-111515000D02*
X115985000Y-111515000D01*
X102015000Y-125485000D02*
X102015000Y-111515000D01*
X115985000Y-111515000D02*
X115985000Y-125485000D01*
X115985000Y-125485000D02*
X102015000Y-125485000D01*
%TD*%
M02*
