M48
; DRILL file KiCad 10.0.4 date 2026-07-18T16:37:53
; FORMAT={-:-/ absolute / metric / decimal}
; #@! TF.CreationDate,2026-07-18T16:37:53+07:00
; #@! TF.GenerationSoftware,Kicad,Pcbnew,10.0.4
; #@! TF.FileFunction,Plated,1,2,PTH
FMAT,2
METRIC
; #@! TA.AperFunction,Plated,PTH,ComponentDrill
T1C0.800
; #@! TA.AperFunction,Plated,PTH,ComponentDrill
T2C1.000
; #@! TA.AperFunction,Plated,PTH,ComponentDrill
T3C1.500
%
G90
G05
T1
X105.19Y-66.0
X105.19Y-85.0
X105.19Y-104.0
X105.19Y-123.0
X112.81Y-66.0
X112.81Y-85.0
X112.81Y-104.0
X112.81Y-123.0
X124.19Y-66.0
X124.19Y-85.0
X124.19Y-104.0
X124.19Y-123.0
X131.81Y-66.0
X131.81Y-85.0
X131.81Y-104.0
X131.81Y-123.0
X143.19Y-66.0
X143.19Y-85.0
X143.19Y-104.0
X143.19Y-123.0
X150.81Y-66.0
X150.81Y-85.0
X150.81Y-104.0
X150.81Y-123.0
X162.19Y-66.0
X162.19Y-85.0
X162.19Y-104.0
X162.19Y-123.0
X169.81Y-66.0
X169.81Y-85.0
X169.81Y-104.0
X169.81Y-123.0
X181.19Y-104.0
X181.19Y-123.0
X188.81Y-104.0
X188.81Y-123.0
X200.19Y-104.0
X200.19Y-123.0
X207.81Y-104.0
X207.81Y-123.0
T2
X188.38Y-50.84
X188.38Y-53.38
X188.38Y-55.92
X188.38Y-58.46
X188.38Y-61.0
X188.38Y-63.54
X188.38Y-66.08
X188.38Y-68.62
X188.38Y-71.16
X190.92Y-71.16
X192.151Y-57.15
X193.46Y-71.16
X194.691Y-57.15
X196.0Y-71.16
X197.231Y-57.15
X198.54Y-71.16
X199.771Y-57.15
X201.08Y-71.16
X203.62Y-50.84
X203.62Y-53.38
X203.62Y-55.92
X203.62Y-58.46
X203.62Y-61.0
X203.62Y-63.54
X203.62Y-66.08
X203.62Y-68.62
X203.62Y-71.16
T3
X105.19Y-77.96
X105.19Y-96.96
X105.19Y-115.96
X105.235Y-59.005
X111.54Y-75.42
X111.54Y-94.42
X111.54Y-113.42
X111.585Y-56.465
X124.19Y-58.96
X124.19Y-77.96
X124.19Y-96.96
X124.19Y-115.96
X130.54Y-56.42
X130.54Y-75.42
X130.54Y-94.42
X130.54Y-113.42
X143.19Y-58.96
X143.19Y-77.96
X143.19Y-96.96
X143.19Y-115.96
X149.54Y-56.42
X149.54Y-75.42
X149.54Y-94.42
X149.54Y-113.42
X162.19Y-58.96
X162.19Y-77.96
X162.19Y-96.96
X162.19Y-115.96
X168.54Y-56.42
X168.54Y-75.42
X168.54Y-94.42
X168.54Y-113.42
X181.19Y-96.96
X181.19Y-115.96
X187.54Y-94.42
X187.54Y-113.42
X200.19Y-96.96
X200.19Y-115.96
X206.54Y-94.42
X206.54Y-113.42
M30
