%TF.GenerationSoftware,KiCad,Pcbnew,10.0.4*%
%TF.CreationDate,2026-09-08T22:25:29+07:00*%
%TF.ProjectId,MonkiiPad3x3,4d6f6e6b-6969-4506-9164-3378332e6b69,rev?*%
%TF.SameCoordinates,Original*%
%TF.FileFunction,Legend,Bot*%
%TF.FilePolarity,Positive*%
%FSLAX46Y46*%
G04 Gerber Fmt 4.6, Leading zero omitted, Abs format (unit mm)*
G04 Created by KiCad (PCBNEW 10.0.4) date 2026-09-08 22:25:29*
%MOMM*%
%LPD*%
G01*
G04 APERTURE LIST*
%ADD10C,0.150000*%
%ADD11C,0.200000*%
%ADD12R,1.752600X1.752600*%
%ADD13C,1.752600*%
G04 APERTURE END LIST*
D10*
X159620213Y-53224200D02*
X159505927Y-53262295D01*
X159505927Y-53262295D02*
X159315451Y-53262295D01*
X159315451Y-53262295D02*
X159239260Y-53224200D01*
X159239260Y-53224200D02*
X159201165Y-53186104D01*
X159201165Y-53186104D02*
X159163070Y-53109914D01*
X159163070Y-53109914D02*
X159163070Y-53033723D01*
X159163070Y-53033723D02*
X159201165Y-52957533D01*
X159201165Y-52957533D02*
X159239260Y-52919438D01*
X159239260Y-52919438D02*
X159315451Y-52881342D01*
X159315451Y-52881342D02*
X159467832Y-52843247D01*
X159467832Y-52843247D02*
X159544022Y-52805152D01*
X159544022Y-52805152D02*
X159582117Y-52767057D01*
X159582117Y-52767057D02*
X159620213Y-52690866D01*
X159620213Y-52690866D02*
X159620213Y-52614676D01*
X159620213Y-52614676D02*
X159582117Y-52538485D01*
X159582117Y-52538485D02*
X159544022Y-52500390D01*
X159544022Y-52500390D02*
X159467832Y-52462295D01*
X159467832Y-52462295D02*
X159277355Y-52462295D01*
X159277355Y-52462295D02*
X159163070Y-52500390D01*
X158934498Y-52462295D02*
X158477355Y-52462295D01*
X158705927Y-53262295D02*
X158705927Y-52462295D01*
X159911380Y-48212295D02*
X160178047Y-47831342D01*
X160368523Y-48212295D02*
X160368523Y-47412295D01*
X160368523Y-47412295D02*
X160063761Y-47412295D01*
X160063761Y-47412295D02*
X159987571Y-47450390D01*
X159987571Y-47450390D02*
X159949476Y-47488485D01*
X159949476Y-47488485D02*
X159911380Y-47564676D01*
X159911380Y-47564676D02*
X159911380Y-47678961D01*
X159911380Y-47678961D02*
X159949476Y-47755152D01*
X159949476Y-47755152D02*
X159987571Y-47793247D01*
X159987571Y-47793247D02*
X160063761Y-47831342D01*
X160063761Y-47831342D02*
X160368523Y-47831342D01*
X159606619Y-47983723D02*
X159225666Y-47983723D01*
X159682809Y-48212295D02*
X159416142Y-47412295D01*
X159416142Y-47412295D02*
X159149476Y-48212295D01*
X158959000Y-47412295D02*
X158768524Y-48212295D01*
X158768524Y-48212295D02*
X158616143Y-47640866D01*
X158616143Y-47640866D02*
X158463762Y-48212295D01*
X158463762Y-48212295D02*
X158273286Y-47412295D01*
X159968523Y-49990390D02*
X160044713Y-49952295D01*
X160044713Y-49952295D02*
X160158999Y-49952295D01*
X160158999Y-49952295D02*
X160273285Y-49990390D01*
X160273285Y-49990390D02*
X160349475Y-50066580D01*
X160349475Y-50066580D02*
X160387570Y-50142771D01*
X160387570Y-50142771D02*
X160425666Y-50295152D01*
X160425666Y-50295152D02*
X160425666Y-50409438D01*
X160425666Y-50409438D02*
X160387570Y-50561819D01*
X160387570Y-50561819D02*
X160349475Y-50638009D01*
X160349475Y-50638009D02*
X160273285Y-50714200D01*
X160273285Y-50714200D02*
X160158999Y-50752295D01*
X160158999Y-50752295D02*
X160082808Y-50752295D01*
X160082808Y-50752295D02*
X159968523Y-50714200D01*
X159968523Y-50714200D02*
X159930427Y-50676104D01*
X159930427Y-50676104D02*
X159930427Y-50409438D01*
X159930427Y-50409438D02*
X160082808Y-50409438D01*
X159587570Y-50752295D02*
X159587570Y-49952295D01*
X159587570Y-49952295D02*
X159130427Y-50752295D01*
X159130427Y-50752295D02*
X159130427Y-49952295D01*
X158749475Y-50752295D02*
X158749475Y-49952295D01*
X158749475Y-49952295D02*
X158558999Y-49952295D01*
X158558999Y-49952295D02*
X158444713Y-49990390D01*
X158444713Y-49990390D02*
X158368523Y-50066580D01*
X158368523Y-50066580D02*
X158330428Y-50142771D01*
X158330428Y-50142771D02*
X158292332Y-50295152D01*
X158292332Y-50295152D02*
X158292332Y-50409438D01*
X158292332Y-50409438D02*
X158330428Y-50561819D01*
X158330428Y-50561819D02*
X158368523Y-50638009D01*
X158368523Y-50638009D02*
X158444713Y-50714200D01*
X158444713Y-50714200D02*
X158558999Y-50752295D01*
X158558999Y-50752295D02*
X158749475Y-50752295D01*
X160425666Y-55032295D02*
X160158999Y-55832295D01*
X160158999Y-55832295D02*
X159892333Y-55032295D01*
X159168523Y-55756104D02*
X159206619Y-55794200D01*
X159206619Y-55794200D02*
X159320904Y-55832295D01*
X159320904Y-55832295D02*
X159397095Y-55832295D01*
X159397095Y-55832295D02*
X159511381Y-55794200D01*
X159511381Y-55794200D02*
X159587571Y-55718009D01*
X159587571Y-55718009D02*
X159625666Y-55641819D01*
X159625666Y-55641819D02*
X159663762Y-55489438D01*
X159663762Y-55489438D02*
X159663762Y-55375152D01*
X159663762Y-55375152D02*
X159625666Y-55222771D01*
X159625666Y-55222771D02*
X159587571Y-55146580D01*
X159587571Y-55146580D02*
X159511381Y-55070390D01*
X159511381Y-55070390D02*
X159397095Y-55032295D01*
X159397095Y-55032295D02*
X159320904Y-55032295D01*
X159320904Y-55032295D02*
X159206619Y-55070390D01*
X159206619Y-55070390D02*
X159168523Y-55108485D01*
X158368523Y-55756104D02*
X158406619Y-55794200D01*
X158406619Y-55794200D02*
X158520904Y-55832295D01*
X158520904Y-55832295D02*
X158597095Y-55832295D01*
X158597095Y-55832295D02*
X158711381Y-55794200D01*
X158711381Y-55794200D02*
X158787571Y-55718009D01*
X158787571Y-55718009D02*
X158825666Y-55641819D01*
X158825666Y-55641819D02*
X158863762Y-55489438D01*
X158863762Y-55489438D02*
X158863762Y-55375152D01*
X158863762Y-55375152D02*
X158825666Y-55222771D01*
X158825666Y-55222771D02*
X158787571Y-55146580D01*
X158787571Y-55146580D02*
X158711381Y-55070390D01*
X158711381Y-55070390D02*
X158597095Y-55032295D01*
X158597095Y-55032295D02*
X158520904Y-55032295D01*
X158520904Y-55032295D02*
X158406619Y-55070390D01*
X158406619Y-55070390D02*
X158368523Y-55108485D01*
X159625666Y-57953247D02*
X159892332Y-57953247D01*
X159892332Y-58372295D02*
X159892332Y-57572295D01*
X159892332Y-57572295D02*
X159511380Y-57572295D01*
X158863761Y-57838961D02*
X158863761Y-58372295D01*
X159054237Y-57534200D02*
X159244714Y-58105628D01*
X159244714Y-58105628D02*
X158749475Y-58105628D01*
X159625666Y-60493247D02*
X159892332Y-60493247D01*
X159892332Y-60912295D02*
X159892332Y-60112295D01*
X159892332Y-60112295D02*
X159511380Y-60112295D01*
X158825666Y-60112295D02*
X159206618Y-60112295D01*
X159206618Y-60112295D02*
X159244714Y-60493247D01*
X159244714Y-60493247D02*
X159206618Y-60455152D01*
X159206618Y-60455152D02*
X159130428Y-60417057D01*
X159130428Y-60417057D02*
X158939952Y-60417057D01*
X158939952Y-60417057D02*
X158863761Y-60455152D01*
X158863761Y-60455152D02*
X158825666Y-60493247D01*
X158825666Y-60493247D02*
X158787571Y-60569438D01*
X158787571Y-60569438D02*
X158787571Y-60759914D01*
X158787571Y-60759914D02*
X158825666Y-60836104D01*
X158825666Y-60836104D02*
X158863761Y-60874200D01*
X158863761Y-60874200D02*
X158939952Y-60912295D01*
X158939952Y-60912295D02*
X159130428Y-60912295D01*
X159130428Y-60912295D02*
X159206618Y-60874200D01*
X159206618Y-60874200D02*
X159244714Y-60836104D01*
X159625666Y-63033247D02*
X159892332Y-63033247D01*
X159892332Y-63452295D02*
X159892332Y-62652295D01*
X159892332Y-62652295D02*
X159511380Y-62652295D01*
X158863761Y-62652295D02*
X159016142Y-62652295D01*
X159016142Y-62652295D02*
X159092333Y-62690390D01*
X159092333Y-62690390D02*
X159130428Y-62728485D01*
X159130428Y-62728485D02*
X159206618Y-62842771D01*
X159206618Y-62842771D02*
X159244714Y-62995152D01*
X159244714Y-62995152D02*
X159244714Y-63299914D01*
X159244714Y-63299914D02*
X159206618Y-63376104D01*
X159206618Y-63376104D02*
X159168523Y-63414200D01*
X159168523Y-63414200D02*
X159092333Y-63452295D01*
X159092333Y-63452295D02*
X158939952Y-63452295D01*
X158939952Y-63452295D02*
X158863761Y-63414200D01*
X158863761Y-63414200D02*
X158825666Y-63376104D01*
X158825666Y-63376104D02*
X158787571Y-63299914D01*
X158787571Y-63299914D02*
X158787571Y-63109438D01*
X158787571Y-63109438D02*
X158825666Y-63033247D01*
X158825666Y-63033247D02*
X158863761Y-62995152D01*
X158863761Y-62995152D02*
X158939952Y-62957057D01*
X158939952Y-62957057D02*
X159092333Y-62957057D01*
X159092333Y-62957057D02*
X159168523Y-62995152D01*
X159168523Y-62995152D02*
X159206618Y-63033247D01*
X159206618Y-63033247D02*
X159244714Y-63109438D01*
X159625666Y-65573247D02*
X159892332Y-65573247D01*
X159892332Y-65992295D02*
X159892332Y-65192295D01*
X159892332Y-65192295D02*
X159511380Y-65192295D01*
X159282809Y-65192295D02*
X158749475Y-65192295D01*
X158749475Y-65192295D02*
X159092333Y-65992295D01*
X159682809Y-68113247D02*
X159568523Y-68151342D01*
X159568523Y-68151342D02*
X159530428Y-68189438D01*
X159530428Y-68189438D02*
X159492332Y-68265628D01*
X159492332Y-68265628D02*
X159492332Y-68379914D01*
X159492332Y-68379914D02*
X159530428Y-68456104D01*
X159530428Y-68456104D02*
X159568523Y-68494200D01*
X159568523Y-68494200D02*
X159644713Y-68532295D01*
X159644713Y-68532295D02*
X159949475Y-68532295D01*
X159949475Y-68532295D02*
X159949475Y-67732295D01*
X159949475Y-67732295D02*
X159682809Y-67732295D01*
X159682809Y-67732295D02*
X159606618Y-67770390D01*
X159606618Y-67770390D02*
X159568523Y-67808485D01*
X159568523Y-67808485D02*
X159530428Y-67884676D01*
X159530428Y-67884676D02*
X159530428Y-67960866D01*
X159530428Y-67960866D02*
X159568523Y-68037057D01*
X159568523Y-68037057D02*
X159606618Y-68075152D01*
X159606618Y-68075152D02*
X159682809Y-68113247D01*
X159682809Y-68113247D02*
X159949475Y-68113247D01*
X158730428Y-68532295D02*
X159187571Y-68532295D01*
X158958999Y-68532295D02*
X158958999Y-67732295D01*
X158958999Y-67732295D02*
X159035190Y-67846580D01*
X159035190Y-67846580D02*
X159111380Y-67922771D01*
X159111380Y-67922771D02*
X159187571Y-67960866D01*
X159682809Y-70653247D02*
X159568523Y-70691342D01*
X159568523Y-70691342D02*
X159530428Y-70729438D01*
X159530428Y-70729438D02*
X159492332Y-70805628D01*
X159492332Y-70805628D02*
X159492332Y-70919914D01*
X159492332Y-70919914D02*
X159530428Y-70996104D01*
X159530428Y-70996104D02*
X159568523Y-71034200D01*
X159568523Y-71034200D02*
X159644713Y-71072295D01*
X159644713Y-71072295D02*
X159949475Y-71072295D01*
X159949475Y-71072295D02*
X159949475Y-70272295D01*
X159949475Y-70272295D02*
X159682809Y-70272295D01*
X159682809Y-70272295D02*
X159606618Y-70310390D01*
X159606618Y-70310390D02*
X159568523Y-70348485D01*
X159568523Y-70348485D02*
X159530428Y-70424676D01*
X159530428Y-70424676D02*
X159530428Y-70500866D01*
X159530428Y-70500866D02*
X159568523Y-70577057D01*
X159568523Y-70577057D02*
X159606618Y-70615152D01*
X159606618Y-70615152D02*
X159682809Y-70653247D01*
X159682809Y-70653247D02*
X159949475Y-70653247D01*
X159225666Y-70272295D02*
X158730428Y-70272295D01*
X158730428Y-70272295D02*
X158997094Y-70577057D01*
X158997094Y-70577057D02*
X158882809Y-70577057D01*
X158882809Y-70577057D02*
X158806618Y-70615152D01*
X158806618Y-70615152D02*
X158768523Y-70653247D01*
X158768523Y-70653247D02*
X158730428Y-70729438D01*
X158730428Y-70729438D02*
X158730428Y-70919914D01*
X158730428Y-70919914D02*
X158768523Y-70996104D01*
X158768523Y-70996104D02*
X158806618Y-71034200D01*
X158806618Y-71034200D02*
X158882809Y-71072295D01*
X158882809Y-71072295D02*
X159111380Y-71072295D01*
X159111380Y-71072295D02*
X159187571Y-71034200D01*
X159187571Y-71034200D02*
X159225666Y-70996104D01*
X159682809Y-73193247D02*
X159568523Y-73231342D01*
X159568523Y-73231342D02*
X159530428Y-73269438D01*
X159530428Y-73269438D02*
X159492332Y-73345628D01*
X159492332Y-73345628D02*
X159492332Y-73459914D01*
X159492332Y-73459914D02*
X159530428Y-73536104D01*
X159530428Y-73536104D02*
X159568523Y-73574200D01*
X159568523Y-73574200D02*
X159644713Y-73612295D01*
X159644713Y-73612295D02*
X159949475Y-73612295D01*
X159949475Y-73612295D02*
X159949475Y-72812295D01*
X159949475Y-72812295D02*
X159682809Y-72812295D01*
X159682809Y-72812295D02*
X159606618Y-72850390D01*
X159606618Y-72850390D02*
X159568523Y-72888485D01*
X159568523Y-72888485D02*
X159530428Y-72964676D01*
X159530428Y-72964676D02*
X159530428Y-73040866D01*
X159530428Y-73040866D02*
X159568523Y-73117057D01*
X159568523Y-73117057D02*
X159606618Y-73155152D01*
X159606618Y-73155152D02*
X159682809Y-73193247D01*
X159682809Y-73193247D02*
X159949475Y-73193247D01*
X159187571Y-72888485D02*
X159149475Y-72850390D01*
X159149475Y-72850390D02*
X159073285Y-72812295D01*
X159073285Y-72812295D02*
X158882809Y-72812295D01*
X158882809Y-72812295D02*
X158806618Y-72850390D01*
X158806618Y-72850390D02*
X158768523Y-72888485D01*
X158768523Y-72888485D02*
X158730428Y-72964676D01*
X158730428Y-72964676D02*
X158730428Y-73040866D01*
X158730428Y-73040866D02*
X158768523Y-73155152D01*
X158768523Y-73155152D02*
X159225666Y-73612295D01*
X159225666Y-73612295D02*
X158730428Y-73612295D01*
X159682809Y-75733247D02*
X159568523Y-75771342D01*
X159568523Y-75771342D02*
X159530428Y-75809438D01*
X159530428Y-75809438D02*
X159492332Y-75885628D01*
X159492332Y-75885628D02*
X159492332Y-75999914D01*
X159492332Y-75999914D02*
X159530428Y-76076104D01*
X159530428Y-76076104D02*
X159568523Y-76114200D01*
X159568523Y-76114200D02*
X159644713Y-76152295D01*
X159644713Y-76152295D02*
X159949475Y-76152295D01*
X159949475Y-76152295D02*
X159949475Y-75352295D01*
X159949475Y-75352295D02*
X159682809Y-75352295D01*
X159682809Y-75352295D02*
X159606618Y-75390390D01*
X159606618Y-75390390D02*
X159568523Y-75428485D01*
X159568523Y-75428485D02*
X159530428Y-75504676D01*
X159530428Y-75504676D02*
X159530428Y-75580866D01*
X159530428Y-75580866D02*
X159568523Y-75657057D01*
X159568523Y-75657057D02*
X159606618Y-75695152D01*
X159606618Y-75695152D02*
X159682809Y-75733247D01*
X159682809Y-75733247D02*
X159949475Y-75733247D01*
X158806618Y-75352295D02*
X158958999Y-75352295D01*
X158958999Y-75352295D02*
X159035190Y-75390390D01*
X159035190Y-75390390D02*
X159073285Y-75428485D01*
X159073285Y-75428485D02*
X159149475Y-75542771D01*
X159149475Y-75542771D02*
X159187571Y-75695152D01*
X159187571Y-75695152D02*
X159187571Y-75999914D01*
X159187571Y-75999914D02*
X159149475Y-76076104D01*
X159149475Y-76076104D02*
X159111380Y-76114200D01*
X159111380Y-76114200D02*
X159035190Y-76152295D01*
X159035190Y-76152295D02*
X158882809Y-76152295D01*
X158882809Y-76152295D02*
X158806618Y-76114200D01*
X158806618Y-76114200D02*
X158768523Y-76076104D01*
X158768523Y-76076104D02*
X158730428Y-75999914D01*
X158730428Y-75999914D02*
X158730428Y-75809438D01*
X158730428Y-75809438D02*
X158768523Y-75733247D01*
X158768523Y-75733247D02*
X158806618Y-75695152D01*
X158806618Y-75695152D02*
X158882809Y-75657057D01*
X158882809Y-75657057D02*
X159035190Y-75657057D01*
X159035190Y-75657057D02*
X159111380Y-75695152D01*
X159111380Y-75695152D02*
X159149475Y-75733247D01*
X159149475Y-75733247D02*
X159187571Y-75809438D01*
X170582348Y-47412295D02*
X170125205Y-47412295D01*
X170353777Y-48212295D02*
X170353777Y-47412295D01*
X169934729Y-47412295D02*
X169401395Y-48212295D01*
X169401395Y-47412295D02*
X169934729Y-48212295D01*
X168944252Y-47412295D02*
X168868062Y-47412295D01*
X168868062Y-47412295D02*
X168791871Y-47450390D01*
X168791871Y-47450390D02*
X168753776Y-47488485D01*
X168753776Y-47488485D02*
X168715681Y-47564676D01*
X168715681Y-47564676D02*
X168677586Y-47717057D01*
X168677586Y-47717057D02*
X168677586Y-47907533D01*
X168677586Y-47907533D02*
X168715681Y-48059914D01*
X168715681Y-48059914D02*
X168753776Y-48136104D01*
X168753776Y-48136104D02*
X168791871Y-48174200D01*
X168791871Y-48174200D02*
X168868062Y-48212295D01*
X168868062Y-48212295D02*
X168944252Y-48212295D01*
X168944252Y-48212295D02*
X169020443Y-48174200D01*
X169020443Y-48174200D02*
X169058538Y-48136104D01*
X169058538Y-48136104D02*
X169096633Y-48059914D01*
X169096633Y-48059914D02*
X169134729Y-47907533D01*
X169134729Y-47907533D02*
X169134729Y-47717057D01*
X169134729Y-47717057D02*
X169096633Y-47564676D01*
X169096633Y-47564676D02*
X169058538Y-47488485D01*
X169058538Y-47488485D02*
X169020443Y-47450390D01*
X169020443Y-47450390D02*
X168944252Y-47412295D01*
X167763300Y-47374200D02*
X168449014Y-48402771D01*
X167496633Y-48212295D02*
X167496633Y-47412295D01*
X167496633Y-47412295D02*
X167306157Y-47412295D01*
X167306157Y-47412295D02*
X167191871Y-47450390D01*
X167191871Y-47450390D02*
X167115681Y-47526580D01*
X167115681Y-47526580D02*
X167077586Y-47602771D01*
X167077586Y-47602771D02*
X167039490Y-47755152D01*
X167039490Y-47755152D02*
X167039490Y-47869438D01*
X167039490Y-47869438D02*
X167077586Y-48021819D01*
X167077586Y-48021819D02*
X167115681Y-48098009D01*
X167115681Y-48098009D02*
X167191871Y-48174200D01*
X167191871Y-48174200D02*
X167306157Y-48212295D01*
X167306157Y-48212295D02*
X167496633Y-48212295D01*
X166772824Y-47412295D02*
X166277586Y-47412295D01*
X166277586Y-47412295D02*
X166544252Y-47717057D01*
X166544252Y-47717057D02*
X166429967Y-47717057D01*
X166429967Y-47717057D02*
X166353776Y-47755152D01*
X166353776Y-47755152D02*
X166315681Y-47793247D01*
X166315681Y-47793247D02*
X166277586Y-47869438D01*
X166277586Y-47869438D02*
X166277586Y-48059914D01*
X166277586Y-48059914D02*
X166315681Y-48136104D01*
X166315681Y-48136104D02*
X166353776Y-48174200D01*
X166353776Y-48174200D02*
X166429967Y-48212295D01*
X166429967Y-48212295D02*
X166658538Y-48212295D01*
X166658538Y-48212295D02*
X166734729Y-48174200D01*
X166734729Y-48174200D02*
X166772824Y-48136104D01*
X170871475Y-50752295D02*
X170871475Y-49952295D01*
X170871475Y-49952295D02*
X170680999Y-49952295D01*
X170680999Y-49952295D02*
X170566713Y-49990390D01*
X170566713Y-49990390D02*
X170490523Y-50066580D01*
X170490523Y-50066580D02*
X170452428Y-50142771D01*
X170452428Y-50142771D02*
X170414332Y-50295152D01*
X170414332Y-50295152D02*
X170414332Y-50409438D01*
X170414332Y-50409438D02*
X170452428Y-50561819D01*
X170452428Y-50561819D02*
X170490523Y-50638009D01*
X170490523Y-50638009D02*
X170566713Y-50714200D01*
X170566713Y-50714200D02*
X170680999Y-50752295D01*
X170680999Y-50752295D02*
X170871475Y-50752295D01*
X170109571Y-50028485D02*
X170071475Y-49990390D01*
X170071475Y-49990390D02*
X169995285Y-49952295D01*
X169995285Y-49952295D02*
X169804809Y-49952295D01*
X169804809Y-49952295D02*
X169728618Y-49990390D01*
X169728618Y-49990390D02*
X169690523Y-50028485D01*
X169690523Y-50028485D02*
X169652428Y-50104676D01*
X169652428Y-50104676D02*
X169652428Y-50180866D01*
X169652428Y-50180866D02*
X169690523Y-50295152D01*
X169690523Y-50295152D02*
X170147666Y-50752295D01*
X170147666Y-50752295D02*
X169652428Y-50752295D01*
X170890523Y-52530390D02*
X170966713Y-52492295D01*
X170966713Y-52492295D02*
X171080999Y-52492295D01*
X171080999Y-52492295D02*
X171195285Y-52530390D01*
X171195285Y-52530390D02*
X171271475Y-52606580D01*
X171271475Y-52606580D02*
X171309570Y-52682771D01*
X171309570Y-52682771D02*
X171347666Y-52835152D01*
X171347666Y-52835152D02*
X171347666Y-52949438D01*
X171347666Y-52949438D02*
X171309570Y-53101819D01*
X171309570Y-53101819D02*
X171271475Y-53178009D01*
X171271475Y-53178009D02*
X171195285Y-53254200D01*
X171195285Y-53254200D02*
X171080999Y-53292295D01*
X171080999Y-53292295D02*
X171004808Y-53292295D01*
X171004808Y-53292295D02*
X170890523Y-53254200D01*
X170890523Y-53254200D02*
X170852427Y-53216104D01*
X170852427Y-53216104D02*
X170852427Y-52949438D01*
X170852427Y-52949438D02*
X171004808Y-52949438D01*
X170509570Y-53292295D02*
X170509570Y-52492295D01*
X170509570Y-52492295D02*
X170052427Y-53292295D01*
X170052427Y-53292295D02*
X170052427Y-52492295D01*
X169671475Y-53292295D02*
X169671475Y-52492295D01*
X169671475Y-52492295D02*
X169480999Y-52492295D01*
X169480999Y-52492295D02*
X169366713Y-52530390D01*
X169366713Y-52530390D02*
X169290523Y-52606580D01*
X169290523Y-52606580D02*
X169252428Y-52682771D01*
X169252428Y-52682771D02*
X169214332Y-52835152D01*
X169214332Y-52835152D02*
X169214332Y-52949438D01*
X169214332Y-52949438D02*
X169252428Y-53101819D01*
X169252428Y-53101819D02*
X169290523Y-53178009D01*
X169290523Y-53178009D02*
X169366713Y-53254200D01*
X169366713Y-53254200D02*
X169480999Y-53292295D01*
X169480999Y-53292295D02*
X169671475Y-53292295D01*
X170890523Y-55070390D02*
X170966713Y-55032295D01*
X170966713Y-55032295D02*
X171080999Y-55032295D01*
X171080999Y-55032295D02*
X171195285Y-55070390D01*
X171195285Y-55070390D02*
X171271475Y-55146580D01*
X171271475Y-55146580D02*
X171309570Y-55222771D01*
X171309570Y-55222771D02*
X171347666Y-55375152D01*
X171347666Y-55375152D02*
X171347666Y-55489438D01*
X171347666Y-55489438D02*
X171309570Y-55641819D01*
X171309570Y-55641819D02*
X171271475Y-55718009D01*
X171271475Y-55718009D02*
X171195285Y-55794200D01*
X171195285Y-55794200D02*
X171080999Y-55832295D01*
X171080999Y-55832295D02*
X171004808Y-55832295D01*
X171004808Y-55832295D02*
X170890523Y-55794200D01*
X170890523Y-55794200D02*
X170852427Y-55756104D01*
X170852427Y-55756104D02*
X170852427Y-55489438D01*
X170852427Y-55489438D02*
X171004808Y-55489438D01*
X170509570Y-55832295D02*
X170509570Y-55032295D01*
X170509570Y-55032295D02*
X170052427Y-55832295D01*
X170052427Y-55832295D02*
X170052427Y-55032295D01*
X169671475Y-55832295D02*
X169671475Y-55032295D01*
X169671475Y-55032295D02*
X169480999Y-55032295D01*
X169480999Y-55032295D02*
X169366713Y-55070390D01*
X169366713Y-55070390D02*
X169290523Y-55146580D01*
X169290523Y-55146580D02*
X169252428Y-55222771D01*
X169252428Y-55222771D02*
X169214332Y-55375152D01*
X169214332Y-55375152D02*
X169214332Y-55489438D01*
X169214332Y-55489438D02*
X169252428Y-55641819D01*
X169252428Y-55641819D02*
X169290523Y-55718009D01*
X169290523Y-55718009D02*
X169366713Y-55794200D01*
X169366713Y-55794200D02*
X169480999Y-55832295D01*
X169480999Y-55832295D02*
X169671475Y-55832295D01*
X170871475Y-58372295D02*
X170871475Y-57572295D01*
X170871475Y-57572295D02*
X170680999Y-57572295D01*
X170680999Y-57572295D02*
X170566713Y-57610390D01*
X170566713Y-57610390D02*
X170490523Y-57686580D01*
X170490523Y-57686580D02*
X170452428Y-57762771D01*
X170452428Y-57762771D02*
X170414332Y-57915152D01*
X170414332Y-57915152D02*
X170414332Y-58029438D01*
X170414332Y-58029438D02*
X170452428Y-58181819D01*
X170452428Y-58181819D02*
X170490523Y-58258009D01*
X170490523Y-58258009D02*
X170566713Y-58334200D01*
X170566713Y-58334200D02*
X170680999Y-58372295D01*
X170680999Y-58372295D02*
X170871475Y-58372295D01*
X169652428Y-58372295D02*
X170109571Y-58372295D01*
X169880999Y-58372295D02*
X169880999Y-57572295D01*
X169880999Y-57572295D02*
X169957190Y-57686580D01*
X169957190Y-57686580D02*
X170033380Y-57762771D01*
X170033380Y-57762771D02*
X170109571Y-57800866D01*
X170871475Y-60912295D02*
X170871475Y-60112295D01*
X170871475Y-60112295D02*
X170680999Y-60112295D01*
X170680999Y-60112295D02*
X170566713Y-60150390D01*
X170566713Y-60150390D02*
X170490523Y-60226580D01*
X170490523Y-60226580D02*
X170452428Y-60302771D01*
X170452428Y-60302771D02*
X170414332Y-60455152D01*
X170414332Y-60455152D02*
X170414332Y-60569438D01*
X170414332Y-60569438D02*
X170452428Y-60721819D01*
X170452428Y-60721819D02*
X170490523Y-60798009D01*
X170490523Y-60798009D02*
X170566713Y-60874200D01*
X170566713Y-60874200D02*
X170680999Y-60912295D01*
X170680999Y-60912295D02*
X170871475Y-60912295D01*
X169919094Y-60112295D02*
X169842904Y-60112295D01*
X169842904Y-60112295D02*
X169766713Y-60150390D01*
X169766713Y-60150390D02*
X169728618Y-60188485D01*
X169728618Y-60188485D02*
X169690523Y-60264676D01*
X169690523Y-60264676D02*
X169652428Y-60417057D01*
X169652428Y-60417057D02*
X169652428Y-60607533D01*
X169652428Y-60607533D02*
X169690523Y-60759914D01*
X169690523Y-60759914D02*
X169728618Y-60836104D01*
X169728618Y-60836104D02*
X169766713Y-60874200D01*
X169766713Y-60874200D02*
X169842904Y-60912295D01*
X169842904Y-60912295D02*
X169919094Y-60912295D01*
X169919094Y-60912295D02*
X169995285Y-60874200D01*
X169995285Y-60874200D02*
X170033380Y-60836104D01*
X170033380Y-60836104D02*
X170071475Y-60759914D01*
X170071475Y-60759914D02*
X170109571Y-60607533D01*
X170109571Y-60607533D02*
X170109571Y-60417057D01*
X170109571Y-60417057D02*
X170071475Y-60264676D01*
X170071475Y-60264676D02*
X170033380Y-60188485D01*
X170033380Y-60188485D02*
X169995285Y-60150390D01*
X169995285Y-60150390D02*
X169919094Y-60112295D01*
X170871475Y-63452295D02*
X170871475Y-62652295D01*
X170871475Y-62652295D02*
X170680999Y-62652295D01*
X170680999Y-62652295D02*
X170566713Y-62690390D01*
X170566713Y-62690390D02*
X170490523Y-62766580D01*
X170490523Y-62766580D02*
X170452428Y-62842771D01*
X170452428Y-62842771D02*
X170414332Y-62995152D01*
X170414332Y-62995152D02*
X170414332Y-63109438D01*
X170414332Y-63109438D02*
X170452428Y-63261819D01*
X170452428Y-63261819D02*
X170490523Y-63338009D01*
X170490523Y-63338009D02*
X170566713Y-63414200D01*
X170566713Y-63414200D02*
X170680999Y-63452295D01*
X170680999Y-63452295D02*
X170871475Y-63452295D01*
X169728618Y-62918961D02*
X169728618Y-63452295D01*
X169919094Y-62614200D02*
X170109571Y-63185628D01*
X170109571Y-63185628D02*
X169614332Y-63185628D01*
X170414332Y-65916104D02*
X170452428Y-65954200D01*
X170452428Y-65954200D02*
X170566713Y-65992295D01*
X170566713Y-65992295D02*
X170642904Y-65992295D01*
X170642904Y-65992295D02*
X170757190Y-65954200D01*
X170757190Y-65954200D02*
X170833380Y-65878009D01*
X170833380Y-65878009D02*
X170871475Y-65801819D01*
X170871475Y-65801819D02*
X170909571Y-65649438D01*
X170909571Y-65649438D02*
X170909571Y-65535152D01*
X170909571Y-65535152D02*
X170871475Y-65382771D01*
X170871475Y-65382771D02*
X170833380Y-65306580D01*
X170833380Y-65306580D02*
X170757190Y-65230390D01*
X170757190Y-65230390D02*
X170642904Y-65192295D01*
X170642904Y-65192295D02*
X170566713Y-65192295D01*
X170566713Y-65192295D02*
X170452428Y-65230390D01*
X170452428Y-65230390D02*
X170414332Y-65268485D01*
X169728618Y-65192295D02*
X169880999Y-65192295D01*
X169880999Y-65192295D02*
X169957190Y-65230390D01*
X169957190Y-65230390D02*
X169995285Y-65268485D01*
X169995285Y-65268485D02*
X170071475Y-65382771D01*
X170071475Y-65382771D02*
X170109571Y-65535152D01*
X170109571Y-65535152D02*
X170109571Y-65839914D01*
X170109571Y-65839914D02*
X170071475Y-65916104D01*
X170071475Y-65916104D02*
X170033380Y-65954200D01*
X170033380Y-65954200D02*
X169957190Y-65992295D01*
X169957190Y-65992295D02*
X169804809Y-65992295D01*
X169804809Y-65992295D02*
X169728618Y-65954200D01*
X169728618Y-65954200D02*
X169690523Y-65916104D01*
X169690523Y-65916104D02*
X169652428Y-65839914D01*
X169652428Y-65839914D02*
X169652428Y-65649438D01*
X169652428Y-65649438D02*
X169690523Y-65573247D01*
X169690523Y-65573247D02*
X169728618Y-65535152D01*
X169728618Y-65535152D02*
X169804809Y-65497057D01*
X169804809Y-65497057D02*
X169957190Y-65497057D01*
X169957190Y-65497057D02*
X170033380Y-65535152D01*
X170033380Y-65535152D02*
X170071475Y-65573247D01*
X170071475Y-65573247D02*
X170109571Y-65649438D01*
X170871475Y-68532295D02*
X170871475Y-67732295D01*
X170871475Y-67732295D02*
X170680999Y-67732295D01*
X170680999Y-67732295D02*
X170566713Y-67770390D01*
X170566713Y-67770390D02*
X170490523Y-67846580D01*
X170490523Y-67846580D02*
X170452428Y-67922771D01*
X170452428Y-67922771D02*
X170414332Y-68075152D01*
X170414332Y-68075152D02*
X170414332Y-68189438D01*
X170414332Y-68189438D02*
X170452428Y-68341819D01*
X170452428Y-68341819D02*
X170490523Y-68418009D01*
X170490523Y-68418009D02*
X170566713Y-68494200D01*
X170566713Y-68494200D02*
X170680999Y-68532295D01*
X170680999Y-68532295D02*
X170871475Y-68532295D01*
X170147666Y-67732295D02*
X169614332Y-67732295D01*
X169614332Y-67732295D02*
X169957190Y-68532295D01*
X170833380Y-70653247D02*
X170566714Y-70653247D01*
X170452428Y-71072295D02*
X170833380Y-71072295D01*
X170833380Y-71072295D02*
X170833380Y-70272295D01*
X170833380Y-70272295D02*
X170452428Y-70272295D01*
X169766713Y-70272295D02*
X169919094Y-70272295D01*
X169919094Y-70272295D02*
X169995285Y-70310390D01*
X169995285Y-70310390D02*
X170033380Y-70348485D01*
X170033380Y-70348485D02*
X170109570Y-70462771D01*
X170109570Y-70462771D02*
X170147666Y-70615152D01*
X170147666Y-70615152D02*
X170147666Y-70919914D01*
X170147666Y-70919914D02*
X170109570Y-70996104D01*
X170109570Y-70996104D02*
X170071475Y-71034200D01*
X170071475Y-71034200D02*
X169995285Y-71072295D01*
X169995285Y-71072295D02*
X169842904Y-71072295D01*
X169842904Y-71072295D02*
X169766713Y-71034200D01*
X169766713Y-71034200D02*
X169728618Y-70996104D01*
X169728618Y-70996104D02*
X169690523Y-70919914D01*
X169690523Y-70919914D02*
X169690523Y-70729438D01*
X169690523Y-70729438D02*
X169728618Y-70653247D01*
X169728618Y-70653247D02*
X169766713Y-70615152D01*
X169766713Y-70615152D02*
X169842904Y-70577057D01*
X169842904Y-70577057D02*
X169995285Y-70577057D01*
X169995285Y-70577057D02*
X170071475Y-70615152D01*
X170071475Y-70615152D02*
X170109570Y-70653247D01*
X170109570Y-70653247D02*
X170147666Y-70729438D01*
X170604809Y-73193247D02*
X170490523Y-73231342D01*
X170490523Y-73231342D02*
X170452428Y-73269438D01*
X170452428Y-73269438D02*
X170414332Y-73345628D01*
X170414332Y-73345628D02*
X170414332Y-73459914D01*
X170414332Y-73459914D02*
X170452428Y-73536104D01*
X170452428Y-73536104D02*
X170490523Y-73574200D01*
X170490523Y-73574200D02*
X170566713Y-73612295D01*
X170566713Y-73612295D02*
X170871475Y-73612295D01*
X170871475Y-73612295D02*
X170871475Y-72812295D01*
X170871475Y-72812295D02*
X170604809Y-72812295D01*
X170604809Y-72812295D02*
X170528618Y-72850390D01*
X170528618Y-72850390D02*
X170490523Y-72888485D01*
X170490523Y-72888485D02*
X170452428Y-72964676D01*
X170452428Y-72964676D02*
X170452428Y-73040866D01*
X170452428Y-73040866D02*
X170490523Y-73117057D01*
X170490523Y-73117057D02*
X170528618Y-73155152D01*
X170528618Y-73155152D02*
X170604809Y-73193247D01*
X170604809Y-73193247D02*
X170871475Y-73193247D01*
X169728618Y-73078961D02*
X169728618Y-73612295D01*
X169919094Y-72774200D02*
X170109571Y-73345628D01*
X170109571Y-73345628D02*
X169614332Y-73345628D01*
X170604809Y-75733247D02*
X170490523Y-75771342D01*
X170490523Y-75771342D02*
X170452428Y-75809438D01*
X170452428Y-75809438D02*
X170414332Y-75885628D01*
X170414332Y-75885628D02*
X170414332Y-75999914D01*
X170414332Y-75999914D02*
X170452428Y-76076104D01*
X170452428Y-76076104D02*
X170490523Y-76114200D01*
X170490523Y-76114200D02*
X170566713Y-76152295D01*
X170566713Y-76152295D02*
X170871475Y-76152295D01*
X170871475Y-76152295D02*
X170871475Y-75352295D01*
X170871475Y-75352295D02*
X170604809Y-75352295D01*
X170604809Y-75352295D02*
X170528618Y-75390390D01*
X170528618Y-75390390D02*
X170490523Y-75428485D01*
X170490523Y-75428485D02*
X170452428Y-75504676D01*
X170452428Y-75504676D02*
X170452428Y-75580866D01*
X170452428Y-75580866D02*
X170490523Y-75657057D01*
X170490523Y-75657057D02*
X170528618Y-75695152D01*
X170528618Y-75695152D02*
X170604809Y-75733247D01*
X170604809Y-75733247D02*
X170871475Y-75733247D01*
X169690523Y-75352295D02*
X170071475Y-75352295D01*
X170071475Y-75352295D02*
X170109571Y-75733247D01*
X170109571Y-75733247D02*
X170071475Y-75695152D01*
X170071475Y-75695152D02*
X169995285Y-75657057D01*
X169995285Y-75657057D02*
X169804809Y-75657057D01*
X169804809Y-75657057D02*
X169728618Y-75695152D01*
X169728618Y-75695152D02*
X169690523Y-75733247D01*
X169690523Y-75733247D02*
X169652428Y-75809438D01*
X169652428Y-75809438D02*
X169652428Y-75999914D01*
X169652428Y-75999914D02*
X169690523Y-76076104D01*
X169690523Y-76076104D02*
X169728618Y-76114200D01*
X169728618Y-76114200D02*
X169804809Y-76152295D01*
X169804809Y-76152295D02*
X169995285Y-76152295D01*
X169995285Y-76152295D02*
X170071475Y-76114200D01*
X170071475Y-76114200D02*
X170109571Y-76076104D01*
%TO.C,U1*%
D11*
X155930000Y-44040000D02*
X173710000Y-44040000D01*
X155930000Y-77060000D02*
X155930000Y-44040000D01*
X171170000Y-46580000D02*
X171170000Y-49120000D01*
X171170000Y-46580000D02*
X173710000Y-46580000D01*
X171170000Y-49120000D02*
X173710000Y-49120000D01*
X173710000Y-44040000D02*
X173710000Y-77060000D01*
X173710000Y-77060000D02*
X155930000Y-77060000D01*
D10*
X159888432Y-52459360D02*
X159888432Y-52559360D01*
X160388432Y-52559360D01*
X160388432Y-52459360D01*
X159888432Y-52459360D01*
G36*
X160388432Y-52559360D02*
G01*
X159888432Y-52559360D01*
X159888432Y-52459360D01*
X160388432Y-52459360D01*
X160388432Y-52559360D01*
G37*
X159888432Y-52459360D02*
X159888432Y-52759360D01*
X159988432Y-52759360D01*
X159988432Y-52459360D01*
X159888432Y-52459360D01*
G36*
X159988432Y-52759360D02*
G01*
X159888432Y-52759360D01*
X159888432Y-52459360D01*
X159988432Y-52459360D01*
X159988432Y-52759360D01*
G37*
X159888432Y-53059360D02*
X159888432Y-53259360D01*
X159988432Y-53259360D01*
X159988432Y-53059360D01*
X159888432Y-53059360D01*
G36*
X159988432Y-53259360D02*
G01*
X159888432Y-53259360D01*
X159888432Y-53059360D01*
X159988432Y-53059360D01*
X159988432Y-53259360D01*
G37*
X160088432Y-52859360D02*
X160088432Y-52959360D01*
X160188432Y-52959360D01*
X160188432Y-52859360D01*
X160088432Y-52859360D01*
G36*
X160188432Y-52959360D02*
G01*
X160088432Y-52959360D01*
X160088432Y-52859360D01*
X160188432Y-52859360D01*
X160188432Y-52959360D01*
G37*
X160288432Y-52459360D02*
X160288432Y-53259360D01*
X160388432Y-53259360D01*
X160388432Y-52459360D01*
X160288432Y-52459360D01*
G36*
X160388432Y-53259360D02*
G01*
X160288432Y-53259360D01*
X160288432Y-52459360D01*
X160388432Y-52459360D01*
X160388432Y-53259360D01*
G37*
%TD*%
D12*
%TO.C,U1*%
X172440000Y-47850000D03*
D13*
X172440000Y-50390000D03*
X172440000Y-52930000D03*
X172440000Y-55470000D03*
X172440000Y-58010000D03*
X172440000Y-60550000D03*
X172440000Y-63090000D03*
X172440000Y-65630000D03*
X172440000Y-68170000D03*
X172440000Y-70710000D03*
X172440000Y-73250000D03*
X172440000Y-75790000D03*
X157200000Y-75790000D03*
X157200000Y-73250000D03*
X157200000Y-70710000D03*
X157200000Y-68170000D03*
X157200000Y-65630000D03*
X157200000Y-63090000D03*
X157200000Y-60550000D03*
X157200000Y-58010000D03*
X157200000Y-55470000D03*
X157200000Y-52930000D03*
X157200000Y-50390000D03*
X157200000Y-47850000D03*
%TD*%
M02*
