%TF.GenerationSoftware,KiCad,Pcbnew,10.0.4*%
%TF.CreationDate,2026-09-08T22:25:29+07:00*%
%TF.ProjectId,MonkiiPad3x3,4d6f6e6b-6969-4506-9164-3378332e6b69,rev?*%
%TF.SameCoordinates,Original*%
%TF.FileFunction,Soldermask,Bot*%
%TF.FilePolarity,Negative*%
%FSLAX46Y46*%
G04 Gerber Fmt 4.6, Leading zero omitted, Abs format (unit mm)*
G04 Created by KiCad (PCBNEW 10.0.4) date 2026-09-08 22:25:29*
%MOMM*%
%LPD*%
G01*
G04 APERTURE LIST*
%ADD10C,1.700000*%
%ADD11C,4.000000*%
%ADD12C,2.200000*%
%ADD13R,1.752600X1.752600*%
%ADD14C,1.752600*%
G04 APERTURE END LIST*
D10*
%TO.C,SW7*%
X140380000Y-90080000D03*
D11*
X145460000Y-90080000D03*
D10*
X150540000Y-90080000D03*
D12*
X148000000Y-85000000D03*
X141650000Y-87540000D03*
%TD*%
D10*
%TO.C,SW8*%
X159420000Y-90080000D03*
D11*
X164500000Y-90080000D03*
D10*
X169580000Y-90080000D03*
D12*
X167040000Y-85000000D03*
X160690000Y-87540000D03*
%TD*%
D10*
%TO.C,SW3*%
X178510000Y-51980000D03*
D11*
X183590000Y-51980000D03*
D10*
X188670000Y-51980000D03*
D12*
X186130000Y-46900000D03*
X179780000Y-49440000D03*
%TD*%
D10*
%TO.C,SW6*%
X178500000Y-71000000D03*
D11*
X183580000Y-71000000D03*
D10*
X188660000Y-71000000D03*
D12*
X186120000Y-65920000D03*
X179770000Y-68460000D03*
%TD*%
D10*
%TO.C,SW5*%
X159420000Y-71000000D03*
D11*
X164500000Y-71000000D03*
D10*
X169580000Y-71000000D03*
D12*
X167040000Y-65920000D03*
X160690000Y-68460000D03*
%TD*%
D10*
%TO.C,SW2*%
X159430000Y-51970000D03*
D11*
X164510000Y-51970000D03*
D10*
X169590000Y-51970000D03*
D12*
X167050000Y-46890000D03*
X160700000Y-49430000D03*
%TD*%
D10*
%TO.C,SW1*%
X140330000Y-51940000D03*
D11*
X145410000Y-51940000D03*
D10*
X150490000Y-51940000D03*
D12*
X147950000Y-46860000D03*
X141600000Y-49400000D03*
%TD*%
D10*
%TO.C,SW9*%
X178480000Y-90080000D03*
D11*
X183560000Y-90080000D03*
D10*
X188640000Y-90080000D03*
D12*
X186100000Y-85000000D03*
X179750000Y-87540000D03*
%TD*%
D10*
%TO.C,SW4*%
X140340000Y-71000000D03*
D11*
X145420000Y-71000000D03*
D10*
X150500000Y-71000000D03*
D12*
X147960000Y-65920000D03*
X141610000Y-68460000D03*
%TD*%
D13*
%TO.C,U1*%
X172440000Y-47850000D03*
D14*
X172440000Y-50390000D03*
X172440000Y-52930000D03*
X172440000Y-55470000D03*
X172440000Y-58010000D03*
X172440000Y-60550000D03*
X172440000Y-63090000D03*
X172440000Y-65630000D03*
X172440000Y-68170000D03*
X172440000Y-70710000D03*
X172440000Y-73250000D03*
X172440000Y-75790000D03*
X157200000Y-75790000D03*
X157200000Y-73250000D03*
X157200000Y-70710000D03*
X157200000Y-68170000D03*
X157200000Y-65630000D03*
X157200000Y-63090000D03*
X157200000Y-60550000D03*
X157200000Y-58010000D03*
X157200000Y-55470000D03*
X157200000Y-52930000D03*
X157200000Y-50390000D03*
X157200000Y-47850000D03*
%TD*%
M02*
