%TF.GenerationSoftware,KiCad,Pcbnew,10.0.4*%
%TF.CreationDate,2026-09-08T22:25:29+07:00*%
%TF.ProjectId,MonkiiPad3x3,4d6f6e6b-6969-4506-9164-3378332e6b69,rev?*%
%TF.SameCoordinates,Original*%
%TF.FileFunction,Legend,Top*%
%TF.FilePolarity,Positive*%
%FSLAX46Y46*%
G04 Gerber Fmt 4.6, Leading zero omitted, Abs format (unit mm)*
G04 Created by KiCad (PCBNEW 10.0.4) date 2026-09-08 22:25:29*
%MOMM*%
%LPD*%
G01*
G04 APERTURE LIST*
%ADD10C,0.150000*%
%ADD11C,0.120000*%
%ADD12C,0.200000*%
%ADD13R,1.752600X1.752600*%
%ADD14C,1.752600*%
G04 APERTURE END LIST*
D10*
X144126667Y-82613200D02*
X144269524Y-82660819D01*
X144269524Y-82660819D02*
X144507619Y-82660819D01*
X144507619Y-82660819D02*
X144602857Y-82613200D01*
X144602857Y-82613200D02*
X144650476Y-82565580D01*
X144650476Y-82565580D02*
X144698095Y-82470342D01*
X144698095Y-82470342D02*
X144698095Y-82375104D01*
X144698095Y-82375104D02*
X144650476Y-82279866D01*
X144650476Y-82279866D02*
X144602857Y-82232247D01*
X144602857Y-82232247D02*
X144507619Y-82184628D01*
X144507619Y-82184628D02*
X144317143Y-82137009D01*
X144317143Y-82137009D02*
X144221905Y-82089390D01*
X144221905Y-82089390D02*
X144174286Y-82041771D01*
X144174286Y-82041771D02*
X144126667Y-81946533D01*
X144126667Y-81946533D02*
X144126667Y-81851295D01*
X144126667Y-81851295D02*
X144174286Y-81756057D01*
X144174286Y-81756057D02*
X144221905Y-81708438D01*
X144221905Y-81708438D02*
X144317143Y-81660819D01*
X144317143Y-81660819D02*
X144555238Y-81660819D01*
X144555238Y-81660819D02*
X144698095Y-81708438D01*
X145031429Y-81660819D02*
X145269524Y-82660819D01*
X145269524Y-82660819D02*
X145460000Y-81946533D01*
X145460000Y-81946533D02*
X145650476Y-82660819D01*
X145650476Y-82660819D02*
X145888572Y-81660819D01*
X146174286Y-81660819D02*
X146840952Y-81660819D01*
X146840952Y-81660819D02*
X146412381Y-82660819D01*
X163166667Y-82613200D02*
X163309524Y-82660819D01*
X163309524Y-82660819D02*
X163547619Y-82660819D01*
X163547619Y-82660819D02*
X163642857Y-82613200D01*
X163642857Y-82613200D02*
X163690476Y-82565580D01*
X163690476Y-82565580D02*
X163738095Y-82470342D01*
X163738095Y-82470342D02*
X163738095Y-82375104D01*
X163738095Y-82375104D02*
X163690476Y-82279866D01*
X163690476Y-82279866D02*
X163642857Y-82232247D01*
X163642857Y-82232247D02*
X163547619Y-82184628D01*
X163547619Y-82184628D02*
X163357143Y-82137009D01*
X163357143Y-82137009D02*
X163261905Y-82089390D01*
X163261905Y-82089390D02*
X163214286Y-82041771D01*
X163214286Y-82041771D02*
X163166667Y-81946533D01*
X163166667Y-81946533D02*
X163166667Y-81851295D01*
X163166667Y-81851295D02*
X163214286Y-81756057D01*
X163214286Y-81756057D02*
X163261905Y-81708438D01*
X163261905Y-81708438D02*
X163357143Y-81660819D01*
X163357143Y-81660819D02*
X163595238Y-81660819D01*
X163595238Y-81660819D02*
X163738095Y-81708438D01*
X164071429Y-81660819D02*
X164309524Y-82660819D01*
X164309524Y-82660819D02*
X164500000Y-81946533D01*
X164500000Y-81946533D02*
X164690476Y-82660819D01*
X164690476Y-82660819D02*
X164928572Y-81660819D01*
X165452381Y-82089390D02*
X165357143Y-82041771D01*
X165357143Y-82041771D02*
X165309524Y-81994152D01*
X165309524Y-81994152D02*
X165261905Y-81898914D01*
X165261905Y-81898914D02*
X165261905Y-81851295D01*
X165261905Y-81851295D02*
X165309524Y-81756057D01*
X165309524Y-81756057D02*
X165357143Y-81708438D01*
X165357143Y-81708438D02*
X165452381Y-81660819D01*
X165452381Y-81660819D02*
X165642857Y-81660819D01*
X165642857Y-81660819D02*
X165738095Y-81708438D01*
X165738095Y-81708438D02*
X165785714Y-81756057D01*
X165785714Y-81756057D02*
X165833333Y-81851295D01*
X165833333Y-81851295D02*
X165833333Y-81898914D01*
X165833333Y-81898914D02*
X165785714Y-81994152D01*
X165785714Y-81994152D02*
X165738095Y-82041771D01*
X165738095Y-82041771D02*
X165642857Y-82089390D01*
X165642857Y-82089390D02*
X165452381Y-82089390D01*
X165452381Y-82089390D02*
X165357143Y-82137009D01*
X165357143Y-82137009D02*
X165309524Y-82184628D01*
X165309524Y-82184628D02*
X165261905Y-82279866D01*
X165261905Y-82279866D02*
X165261905Y-82470342D01*
X165261905Y-82470342D02*
X165309524Y-82565580D01*
X165309524Y-82565580D02*
X165357143Y-82613200D01*
X165357143Y-82613200D02*
X165452381Y-82660819D01*
X165452381Y-82660819D02*
X165642857Y-82660819D01*
X165642857Y-82660819D02*
X165738095Y-82613200D01*
X165738095Y-82613200D02*
X165785714Y-82565580D01*
X165785714Y-82565580D02*
X165833333Y-82470342D01*
X165833333Y-82470342D02*
X165833333Y-82279866D01*
X165833333Y-82279866D02*
X165785714Y-82184628D01*
X165785714Y-82184628D02*
X165738095Y-82137009D01*
X165738095Y-82137009D02*
X165642857Y-82089390D01*
X182256667Y-44513200D02*
X182399524Y-44560819D01*
X182399524Y-44560819D02*
X182637619Y-44560819D01*
X182637619Y-44560819D02*
X182732857Y-44513200D01*
X182732857Y-44513200D02*
X182780476Y-44465580D01*
X182780476Y-44465580D02*
X182828095Y-44370342D01*
X182828095Y-44370342D02*
X182828095Y-44275104D01*
X182828095Y-44275104D02*
X182780476Y-44179866D01*
X182780476Y-44179866D02*
X182732857Y-44132247D01*
X182732857Y-44132247D02*
X182637619Y-44084628D01*
X182637619Y-44084628D02*
X182447143Y-44037009D01*
X182447143Y-44037009D02*
X182351905Y-43989390D01*
X182351905Y-43989390D02*
X182304286Y-43941771D01*
X182304286Y-43941771D02*
X182256667Y-43846533D01*
X182256667Y-43846533D02*
X182256667Y-43751295D01*
X182256667Y-43751295D02*
X182304286Y-43656057D01*
X182304286Y-43656057D02*
X182351905Y-43608438D01*
X182351905Y-43608438D02*
X182447143Y-43560819D01*
X182447143Y-43560819D02*
X182685238Y-43560819D01*
X182685238Y-43560819D02*
X182828095Y-43608438D01*
X183161429Y-43560819D02*
X183399524Y-44560819D01*
X183399524Y-44560819D02*
X183590000Y-43846533D01*
X183590000Y-43846533D02*
X183780476Y-44560819D01*
X183780476Y-44560819D02*
X184018572Y-43560819D01*
X184304286Y-43560819D02*
X184923333Y-43560819D01*
X184923333Y-43560819D02*
X184590000Y-43941771D01*
X184590000Y-43941771D02*
X184732857Y-43941771D01*
X184732857Y-43941771D02*
X184828095Y-43989390D01*
X184828095Y-43989390D02*
X184875714Y-44037009D01*
X184875714Y-44037009D02*
X184923333Y-44132247D01*
X184923333Y-44132247D02*
X184923333Y-44370342D01*
X184923333Y-44370342D02*
X184875714Y-44465580D01*
X184875714Y-44465580D02*
X184828095Y-44513200D01*
X184828095Y-44513200D02*
X184732857Y-44560819D01*
X184732857Y-44560819D02*
X184447143Y-44560819D01*
X184447143Y-44560819D02*
X184351905Y-44513200D01*
X184351905Y-44513200D02*
X184304286Y-44465580D01*
X182246667Y-63533200D02*
X182389524Y-63580819D01*
X182389524Y-63580819D02*
X182627619Y-63580819D01*
X182627619Y-63580819D02*
X182722857Y-63533200D01*
X182722857Y-63533200D02*
X182770476Y-63485580D01*
X182770476Y-63485580D02*
X182818095Y-63390342D01*
X182818095Y-63390342D02*
X182818095Y-63295104D01*
X182818095Y-63295104D02*
X182770476Y-63199866D01*
X182770476Y-63199866D02*
X182722857Y-63152247D01*
X182722857Y-63152247D02*
X182627619Y-63104628D01*
X182627619Y-63104628D02*
X182437143Y-63057009D01*
X182437143Y-63057009D02*
X182341905Y-63009390D01*
X182341905Y-63009390D02*
X182294286Y-62961771D01*
X182294286Y-62961771D02*
X182246667Y-62866533D01*
X182246667Y-62866533D02*
X182246667Y-62771295D01*
X182246667Y-62771295D02*
X182294286Y-62676057D01*
X182294286Y-62676057D02*
X182341905Y-62628438D01*
X182341905Y-62628438D02*
X182437143Y-62580819D01*
X182437143Y-62580819D02*
X182675238Y-62580819D01*
X182675238Y-62580819D02*
X182818095Y-62628438D01*
X183151429Y-62580819D02*
X183389524Y-63580819D01*
X183389524Y-63580819D02*
X183580000Y-62866533D01*
X183580000Y-62866533D02*
X183770476Y-63580819D01*
X183770476Y-63580819D02*
X184008572Y-62580819D01*
X184818095Y-62580819D02*
X184627619Y-62580819D01*
X184627619Y-62580819D02*
X184532381Y-62628438D01*
X184532381Y-62628438D02*
X184484762Y-62676057D01*
X184484762Y-62676057D02*
X184389524Y-62818914D01*
X184389524Y-62818914D02*
X184341905Y-63009390D01*
X184341905Y-63009390D02*
X184341905Y-63390342D01*
X184341905Y-63390342D02*
X184389524Y-63485580D01*
X184389524Y-63485580D02*
X184437143Y-63533200D01*
X184437143Y-63533200D02*
X184532381Y-63580819D01*
X184532381Y-63580819D02*
X184722857Y-63580819D01*
X184722857Y-63580819D02*
X184818095Y-63533200D01*
X184818095Y-63533200D02*
X184865714Y-63485580D01*
X184865714Y-63485580D02*
X184913333Y-63390342D01*
X184913333Y-63390342D02*
X184913333Y-63152247D01*
X184913333Y-63152247D02*
X184865714Y-63057009D01*
X184865714Y-63057009D02*
X184818095Y-63009390D01*
X184818095Y-63009390D02*
X184722857Y-62961771D01*
X184722857Y-62961771D02*
X184532381Y-62961771D01*
X184532381Y-62961771D02*
X184437143Y-63009390D01*
X184437143Y-63009390D02*
X184389524Y-63057009D01*
X184389524Y-63057009D02*
X184341905Y-63152247D01*
X163166667Y-63533200D02*
X163309524Y-63580819D01*
X163309524Y-63580819D02*
X163547619Y-63580819D01*
X163547619Y-63580819D02*
X163642857Y-63533200D01*
X163642857Y-63533200D02*
X163690476Y-63485580D01*
X163690476Y-63485580D02*
X163738095Y-63390342D01*
X163738095Y-63390342D02*
X163738095Y-63295104D01*
X163738095Y-63295104D02*
X163690476Y-63199866D01*
X163690476Y-63199866D02*
X163642857Y-63152247D01*
X163642857Y-63152247D02*
X163547619Y-63104628D01*
X163547619Y-63104628D02*
X163357143Y-63057009D01*
X163357143Y-63057009D02*
X163261905Y-63009390D01*
X163261905Y-63009390D02*
X163214286Y-62961771D01*
X163214286Y-62961771D02*
X163166667Y-62866533D01*
X163166667Y-62866533D02*
X163166667Y-62771295D01*
X163166667Y-62771295D02*
X163214286Y-62676057D01*
X163214286Y-62676057D02*
X163261905Y-62628438D01*
X163261905Y-62628438D02*
X163357143Y-62580819D01*
X163357143Y-62580819D02*
X163595238Y-62580819D01*
X163595238Y-62580819D02*
X163738095Y-62628438D01*
X164071429Y-62580819D02*
X164309524Y-63580819D01*
X164309524Y-63580819D02*
X164500000Y-62866533D01*
X164500000Y-62866533D02*
X164690476Y-63580819D01*
X164690476Y-63580819D02*
X164928572Y-62580819D01*
X165785714Y-62580819D02*
X165309524Y-62580819D01*
X165309524Y-62580819D02*
X165261905Y-63057009D01*
X165261905Y-63057009D02*
X165309524Y-63009390D01*
X165309524Y-63009390D02*
X165404762Y-62961771D01*
X165404762Y-62961771D02*
X165642857Y-62961771D01*
X165642857Y-62961771D02*
X165738095Y-63009390D01*
X165738095Y-63009390D02*
X165785714Y-63057009D01*
X165785714Y-63057009D02*
X165833333Y-63152247D01*
X165833333Y-63152247D02*
X165833333Y-63390342D01*
X165833333Y-63390342D02*
X165785714Y-63485580D01*
X165785714Y-63485580D02*
X165738095Y-63533200D01*
X165738095Y-63533200D02*
X165642857Y-63580819D01*
X165642857Y-63580819D02*
X165404762Y-63580819D01*
X165404762Y-63580819D02*
X165309524Y-63533200D01*
X165309524Y-63533200D02*
X165261905Y-63485580D01*
X163176667Y-44503200D02*
X163319524Y-44550819D01*
X163319524Y-44550819D02*
X163557619Y-44550819D01*
X163557619Y-44550819D02*
X163652857Y-44503200D01*
X163652857Y-44503200D02*
X163700476Y-44455580D01*
X163700476Y-44455580D02*
X163748095Y-44360342D01*
X163748095Y-44360342D02*
X163748095Y-44265104D01*
X163748095Y-44265104D02*
X163700476Y-44169866D01*
X163700476Y-44169866D02*
X163652857Y-44122247D01*
X163652857Y-44122247D02*
X163557619Y-44074628D01*
X163557619Y-44074628D02*
X163367143Y-44027009D01*
X163367143Y-44027009D02*
X163271905Y-43979390D01*
X163271905Y-43979390D02*
X163224286Y-43931771D01*
X163224286Y-43931771D02*
X163176667Y-43836533D01*
X163176667Y-43836533D02*
X163176667Y-43741295D01*
X163176667Y-43741295D02*
X163224286Y-43646057D01*
X163224286Y-43646057D02*
X163271905Y-43598438D01*
X163271905Y-43598438D02*
X163367143Y-43550819D01*
X163367143Y-43550819D02*
X163605238Y-43550819D01*
X163605238Y-43550819D02*
X163748095Y-43598438D01*
X164081429Y-43550819D02*
X164319524Y-44550819D01*
X164319524Y-44550819D02*
X164510000Y-43836533D01*
X164510000Y-43836533D02*
X164700476Y-44550819D01*
X164700476Y-44550819D02*
X164938572Y-43550819D01*
X165271905Y-43646057D02*
X165319524Y-43598438D01*
X165319524Y-43598438D02*
X165414762Y-43550819D01*
X165414762Y-43550819D02*
X165652857Y-43550819D01*
X165652857Y-43550819D02*
X165748095Y-43598438D01*
X165748095Y-43598438D02*
X165795714Y-43646057D01*
X165795714Y-43646057D02*
X165843333Y-43741295D01*
X165843333Y-43741295D02*
X165843333Y-43836533D01*
X165843333Y-43836533D02*
X165795714Y-43979390D01*
X165795714Y-43979390D02*
X165224286Y-44550819D01*
X165224286Y-44550819D02*
X165843333Y-44550819D01*
X144076667Y-44473200D02*
X144219524Y-44520819D01*
X144219524Y-44520819D02*
X144457619Y-44520819D01*
X144457619Y-44520819D02*
X144552857Y-44473200D01*
X144552857Y-44473200D02*
X144600476Y-44425580D01*
X144600476Y-44425580D02*
X144648095Y-44330342D01*
X144648095Y-44330342D02*
X144648095Y-44235104D01*
X144648095Y-44235104D02*
X144600476Y-44139866D01*
X144600476Y-44139866D02*
X144552857Y-44092247D01*
X144552857Y-44092247D02*
X144457619Y-44044628D01*
X144457619Y-44044628D02*
X144267143Y-43997009D01*
X144267143Y-43997009D02*
X144171905Y-43949390D01*
X144171905Y-43949390D02*
X144124286Y-43901771D01*
X144124286Y-43901771D02*
X144076667Y-43806533D01*
X144076667Y-43806533D02*
X144076667Y-43711295D01*
X144076667Y-43711295D02*
X144124286Y-43616057D01*
X144124286Y-43616057D02*
X144171905Y-43568438D01*
X144171905Y-43568438D02*
X144267143Y-43520819D01*
X144267143Y-43520819D02*
X144505238Y-43520819D01*
X144505238Y-43520819D02*
X144648095Y-43568438D01*
X144981429Y-43520819D02*
X145219524Y-44520819D01*
X145219524Y-44520819D02*
X145410000Y-43806533D01*
X145410000Y-43806533D02*
X145600476Y-44520819D01*
X145600476Y-44520819D02*
X145838572Y-43520819D01*
X146743333Y-44520819D02*
X146171905Y-44520819D01*
X146457619Y-44520819D02*
X146457619Y-43520819D01*
X146457619Y-43520819D02*
X146362381Y-43663676D01*
X146362381Y-43663676D02*
X146267143Y-43758914D01*
X146267143Y-43758914D02*
X146171905Y-43806533D01*
X182226667Y-82613200D02*
X182369524Y-82660819D01*
X182369524Y-82660819D02*
X182607619Y-82660819D01*
X182607619Y-82660819D02*
X182702857Y-82613200D01*
X182702857Y-82613200D02*
X182750476Y-82565580D01*
X182750476Y-82565580D02*
X182798095Y-82470342D01*
X182798095Y-82470342D02*
X182798095Y-82375104D01*
X182798095Y-82375104D02*
X182750476Y-82279866D01*
X182750476Y-82279866D02*
X182702857Y-82232247D01*
X182702857Y-82232247D02*
X182607619Y-82184628D01*
X182607619Y-82184628D02*
X182417143Y-82137009D01*
X182417143Y-82137009D02*
X182321905Y-82089390D01*
X182321905Y-82089390D02*
X182274286Y-82041771D01*
X182274286Y-82041771D02*
X182226667Y-81946533D01*
X182226667Y-81946533D02*
X182226667Y-81851295D01*
X182226667Y-81851295D02*
X182274286Y-81756057D01*
X182274286Y-81756057D02*
X182321905Y-81708438D01*
X182321905Y-81708438D02*
X182417143Y-81660819D01*
X182417143Y-81660819D02*
X182655238Y-81660819D01*
X182655238Y-81660819D02*
X182798095Y-81708438D01*
X183131429Y-81660819D02*
X183369524Y-82660819D01*
X183369524Y-82660819D02*
X183560000Y-81946533D01*
X183560000Y-81946533D02*
X183750476Y-82660819D01*
X183750476Y-82660819D02*
X183988572Y-81660819D01*
X184417143Y-82660819D02*
X184607619Y-82660819D01*
X184607619Y-82660819D02*
X184702857Y-82613200D01*
X184702857Y-82613200D02*
X184750476Y-82565580D01*
X184750476Y-82565580D02*
X184845714Y-82422723D01*
X184845714Y-82422723D02*
X184893333Y-82232247D01*
X184893333Y-82232247D02*
X184893333Y-81851295D01*
X184893333Y-81851295D02*
X184845714Y-81756057D01*
X184845714Y-81756057D02*
X184798095Y-81708438D01*
X184798095Y-81708438D02*
X184702857Y-81660819D01*
X184702857Y-81660819D02*
X184512381Y-81660819D01*
X184512381Y-81660819D02*
X184417143Y-81708438D01*
X184417143Y-81708438D02*
X184369524Y-81756057D01*
X184369524Y-81756057D02*
X184321905Y-81851295D01*
X184321905Y-81851295D02*
X184321905Y-82089390D01*
X184321905Y-82089390D02*
X184369524Y-82184628D01*
X184369524Y-82184628D02*
X184417143Y-82232247D01*
X184417143Y-82232247D02*
X184512381Y-82279866D01*
X184512381Y-82279866D02*
X184702857Y-82279866D01*
X184702857Y-82279866D02*
X184798095Y-82232247D01*
X184798095Y-82232247D02*
X184845714Y-82184628D01*
X184845714Y-82184628D02*
X184893333Y-82089390D01*
X144086667Y-63533200D02*
X144229524Y-63580819D01*
X144229524Y-63580819D02*
X144467619Y-63580819D01*
X144467619Y-63580819D02*
X144562857Y-63533200D01*
X144562857Y-63533200D02*
X144610476Y-63485580D01*
X144610476Y-63485580D02*
X144658095Y-63390342D01*
X144658095Y-63390342D02*
X144658095Y-63295104D01*
X144658095Y-63295104D02*
X144610476Y-63199866D01*
X144610476Y-63199866D02*
X144562857Y-63152247D01*
X144562857Y-63152247D02*
X144467619Y-63104628D01*
X144467619Y-63104628D02*
X144277143Y-63057009D01*
X144277143Y-63057009D02*
X144181905Y-63009390D01*
X144181905Y-63009390D02*
X144134286Y-62961771D01*
X144134286Y-62961771D02*
X144086667Y-62866533D01*
X144086667Y-62866533D02*
X144086667Y-62771295D01*
X144086667Y-62771295D02*
X144134286Y-62676057D01*
X144134286Y-62676057D02*
X144181905Y-62628438D01*
X144181905Y-62628438D02*
X144277143Y-62580819D01*
X144277143Y-62580819D02*
X144515238Y-62580819D01*
X144515238Y-62580819D02*
X144658095Y-62628438D01*
X144991429Y-62580819D02*
X145229524Y-63580819D01*
X145229524Y-63580819D02*
X145420000Y-62866533D01*
X145420000Y-62866533D02*
X145610476Y-63580819D01*
X145610476Y-63580819D02*
X145848572Y-62580819D01*
X146658095Y-62914152D02*
X146658095Y-63580819D01*
X146420000Y-62533200D02*
X146181905Y-63247485D01*
X146181905Y-63247485D02*
X146800952Y-63247485D01*
X158806619Y-48212295D02*
X158539952Y-47831342D01*
X158349476Y-48212295D02*
X158349476Y-47412295D01*
X158349476Y-47412295D02*
X158654238Y-47412295D01*
X158654238Y-47412295D02*
X158730428Y-47450390D01*
X158730428Y-47450390D02*
X158768523Y-47488485D01*
X158768523Y-47488485D02*
X158806619Y-47564676D01*
X158806619Y-47564676D02*
X158806619Y-47678961D01*
X158806619Y-47678961D02*
X158768523Y-47755152D01*
X158768523Y-47755152D02*
X158730428Y-47793247D01*
X158730428Y-47793247D02*
X158654238Y-47831342D01*
X158654238Y-47831342D02*
X158349476Y-47831342D01*
X159111380Y-47983723D02*
X159492333Y-47983723D01*
X159035190Y-48212295D02*
X159301857Y-47412295D01*
X159301857Y-47412295D02*
X159568523Y-48212295D01*
X159758999Y-47412295D02*
X159949475Y-48212295D01*
X159949475Y-48212295D02*
X160101856Y-47640866D01*
X160101856Y-47640866D02*
X160254237Y-48212295D01*
X160254237Y-48212295D02*
X160444714Y-47412295D01*
X158749476Y-49990390D02*
X158673286Y-49952295D01*
X158673286Y-49952295D02*
X158559000Y-49952295D01*
X158559000Y-49952295D02*
X158444714Y-49990390D01*
X158444714Y-49990390D02*
X158368524Y-50066580D01*
X158368524Y-50066580D02*
X158330429Y-50142771D01*
X158330429Y-50142771D02*
X158292333Y-50295152D01*
X158292333Y-50295152D02*
X158292333Y-50409438D01*
X158292333Y-50409438D02*
X158330429Y-50561819D01*
X158330429Y-50561819D02*
X158368524Y-50638009D01*
X158368524Y-50638009D02*
X158444714Y-50714200D01*
X158444714Y-50714200D02*
X158559000Y-50752295D01*
X158559000Y-50752295D02*
X158635191Y-50752295D01*
X158635191Y-50752295D02*
X158749476Y-50714200D01*
X158749476Y-50714200D02*
X158787572Y-50676104D01*
X158787572Y-50676104D02*
X158787572Y-50409438D01*
X158787572Y-50409438D02*
X158635191Y-50409438D01*
X159130429Y-50752295D02*
X159130429Y-49952295D01*
X159130429Y-49952295D02*
X159587572Y-50752295D01*
X159587572Y-50752295D02*
X159587572Y-49952295D01*
X159968524Y-50752295D02*
X159968524Y-49952295D01*
X159968524Y-49952295D02*
X160159000Y-49952295D01*
X160159000Y-49952295D02*
X160273286Y-49990390D01*
X160273286Y-49990390D02*
X160349476Y-50066580D01*
X160349476Y-50066580D02*
X160387571Y-50142771D01*
X160387571Y-50142771D02*
X160425667Y-50295152D01*
X160425667Y-50295152D02*
X160425667Y-50409438D01*
X160425667Y-50409438D02*
X160387571Y-50561819D01*
X160387571Y-50561819D02*
X160349476Y-50638009D01*
X160349476Y-50638009D02*
X160273286Y-50714200D01*
X160273286Y-50714200D02*
X160159000Y-50752295D01*
X160159000Y-50752295D02*
X159968524Y-50752295D01*
X158292333Y-55032295D02*
X158559000Y-55832295D01*
X158559000Y-55832295D02*
X158825666Y-55032295D01*
X159549476Y-55756104D02*
X159511380Y-55794200D01*
X159511380Y-55794200D02*
X159397095Y-55832295D01*
X159397095Y-55832295D02*
X159320904Y-55832295D01*
X159320904Y-55832295D02*
X159206618Y-55794200D01*
X159206618Y-55794200D02*
X159130428Y-55718009D01*
X159130428Y-55718009D02*
X159092333Y-55641819D01*
X159092333Y-55641819D02*
X159054237Y-55489438D01*
X159054237Y-55489438D02*
X159054237Y-55375152D01*
X159054237Y-55375152D02*
X159092333Y-55222771D01*
X159092333Y-55222771D02*
X159130428Y-55146580D01*
X159130428Y-55146580D02*
X159206618Y-55070390D01*
X159206618Y-55070390D02*
X159320904Y-55032295D01*
X159320904Y-55032295D02*
X159397095Y-55032295D01*
X159397095Y-55032295D02*
X159511380Y-55070390D01*
X159511380Y-55070390D02*
X159549476Y-55108485D01*
X160349476Y-55756104D02*
X160311380Y-55794200D01*
X160311380Y-55794200D02*
X160197095Y-55832295D01*
X160197095Y-55832295D02*
X160120904Y-55832295D01*
X160120904Y-55832295D02*
X160006618Y-55794200D01*
X160006618Y-55794200D02*
X159930428Y-55718009D01*
X159930428Y-55718009D02*
X159892333Y-55641819D01*
X159892333Y-55641819D02*
X159854237Y-55489438D01*
X159854237Y-55489438D02*
X159854237Y-55375152D01*
X159854237Y-55375152D02*
X159892333Y-55222771D01*
X159892333Y-55222771D02*
X159930428Y-55146580D01*
X159930428Y-55146580D02*
X160006618Y-55070390D01*
X160006618Y-55070390D02*
X160120904Y-55032295D01*
X160120904Y-55032295D02*
X160197095Y-55032295D01*
X160197095Y-55032295D02*
X160311380Y-55070390D01*
X160311380Y-55070390D02*
X160349476Y-55108485D01*
X159092333Y-57953247D02*
X158825667Y-57953247D01*
X158825667Y-58372295D02*
X158825667Y-57572295D01*
X158825667Y-57572295D02*
X159206619Y-57572295D01*
X159854238Y-57838961D02*
X159854238Y-58372295D01*
X159663762Y-57534200D02*
X159473285Y-58105628D01*
X159473285Y-58105628D02*
X159968524Y-58105628D01*
X159092333Y-60493247D02*
X158825667Y-60493247D01*
X158825667Y-60912295D02*
X158825667Y-60112295D01*
X158825667Y-60112295D02*
X159206619Y-60112295D01*
X159892333Y-60112295D02*
X159511381Y-60112295D01*
X159511381Y-60112295D02*
X159473285Y-60493247D01*
X159473285Y-60493247D02*
X159511381Y-60455152D01*
X159511381Y-60455152D02*
X159587571Y-60417057D01*
X159587571Y-60417057D02*
X159778047Y-60417057D01*
X159778047Y-60417057D02*
X159854238Y-60455152D01*
X159854238Y-60455152D02*
X159892333Y-60493247D01*
X159892333Y-60493247D02*
X159930428Y-60569438D01*
X159930428Y-60569438D02*
X159930428Y-60759914D01*
X159930428Y-60759914D02*
X159892333Y-60836104D01*
X159892333Y-60836104D02*
X159854238Y-60874200D01*
X159854238Y-60874200D02*
X159778047Y-60912295D01*
X159778047Y-60912295D02*
X159587571Y-60912295D01*
X159587571Y-60912295D02*
X159511381Y-60874200D01*
X159511381Y-60874200D02*
X159473285Y-60836104D01*
X159092333Y-63033247D02*
X158825667Y-63033247D01*
X158825667Y-63452295D02*
X158825667Y-62652295D01*
X158825667Y-62652295D02*
X159206619Y-62652295D01*
X159854238Y-62652295D02*
X159701857Y-62652295D01*
X159701857Y-62652295D02*
X159625666Y-62690390D01*
X159625666Y-62690390D02*
X159587571Y-62728485D01*
X159587571Y-62728485D02*
X159511381Y-62842771D01*
X159511381Y-62842771D02*
X159473285Y-62995152D01*
X159473285Y-62995152D02*
X159473285Y-63299914D01*
X159473285Y-63299914D02*
X159511381Y-63376104D01*
X159511381Y-63376104D02*
X159549476Y-63414200D01*
X159549476Y-63414200D02*
X159625666Y-63452295D01*
X159625666Y-63452295D02*
X159778047Y-63452295D01*
X159778047Y-63452295D02*
X159854238Y-63414200D01*
X159854238Y-63414200D02*
X159892333Y-63376104D01*
X159892333Y-63376104D02*
X159930428Y-63299914D01*
X159930428Y-63299914D02*
X159930428Y-63109438D01*
X159930428Y-63109438D02*
X159892333Y-63033247D01*
X159892333Y-63033247D02*
X159854238Y-62995152D01*
X159854238Y-62995152D02*
X159778047Y-62957057D01*
X159778047Y-62957057D02*
X159625666Y-62957057D01*
X159625666Y-62957057D02*
X159549476Y-62995152D01*
X159549476Y-62995152D02*
X159511381Y-63033247D01*
X159511381Y-63033247D02*
X159473285Y-63109438D01*
X159092333Y-65573247D02*
X158825667Y-65573247D01*
X158825667Y-65992295D02*
X158825667Y-65192295D01*
X158825667Y-65192295D02*
X159206619Y-65192295D01*
X159435190Y-65192295D02*
X159968524Y-65192295D01*
X159968524Y-65192295D02*
X159625666Y-65992295D01*
X159035190Y-68113247D02*
X159149476Y-68151342D01*
X159149476Y-68151342D02*
X159187571Y-68189438D01*
X159187571Y-68189438D02*
X159225667Y-68265628D01*
X159225667Y-68265628D02*
X159225667Y-68379914D01*
X159225667Y-68379914D02*
X159187571Y-68456104D01*
X159187571Y-68456104D02*
X159149476Y-68494200D01*
X159149476Y-68494200D02*
X159073286Y-68532295D01*
X159073286Y-68532295D02*
X158768524Y-68532295D01*
X158768524Y-68532295D02*
X158768524Y-67732295D01*
X158768524Y-67732295D02*
X159035190Y-67732295D01*
X159035190Y-67732295D02*
X159111381Y-67770390D01*
X159111381Y-67770390D02*
X159149476Y-67808485D01*
X159149476Y-67808485D02*
X159187571Y-67884676D01*
X159187571Y-67884676D02*
X159187571Y-67960866D01*
X159187571Y-67960866D02*
X159149476Y-68037057D01*
X159149476Y-68037057D02*
X159111381Y-68075152D01*
X159111381Y-68075152D02*
X159035190Y-68113247D01*
X159035190Y-68113247D02*
X158768524Y-68113247D01*
X159987571Y-68532295D02*
X159530428Y-68532295D01*
X159759000Y-68532295D02*
X159759000Y-67732295D01*
X159759000Y-67732295D02*
X159682809Y-67846580D01*
X159682809Y-67846580D02*
X159606619Y-67922771D01*
X159606619Y-67922771D02*
X159530428Y-67960866D01*
X159035190Y-70653247D02*
X159149476Y-70691342D01*
X159149476Y-70691342D02*
X159187571Y-70729438D01*
X159187571Y-70729438D02*
X159225667Y-70805628D01*
X159225667Y-70805628D02*
X159225667Y-70919914D01*
X159225667Y-70919914D02*
X159187571Y-70996104D01*
X159187571Y-70996104D02*
X159149476Y-71034200D01*
X159149476Y-71034200D02*
X159073286Y-71072295D01*
X159073286Y-71072295D02*
X158768524Y-71072295D01*
X158768524Y-71072295D02*
X158768524Y-70272295D01*
X158768524Y-70272295D02*
X159035190Y-70272295D01*
X159035190Y-70272295D02*
X159111381Y-70310390D01*
X159111381Y-70310390D02*
X159149476Y-70348485D01*
X159149476Y-70348485D02*
X159187571Y-70424676D01*
X159187571Y-70424676D02*
X159187571Y-70500866D01*
X159187571Y-70500866D02*
X159149476Y-70577057D01*
X159149476Y-70577057D02*
X159111381Y-70615152D01*
X159111381Y-70615152D02*
X159035190Y-70653247D01*
X159035190Y-70653247D02*
X158768524Y-70653247D01*
X159492333Y-70272295D02*
X159987571Y-70272295D01*
X159987571Y-70272295D02*
X159720905Y-70577057D01*
X159720905Y-70577057D02*
X159835190Y-70577057D01*
X159835190Y-70577057D02*
X159911381Y-70615152D01*
X159911381Y-70615152D02*
X159949476Y-70653247D01*
X159949476Y-70653247D02*
X159987571Y-70729438D01*
X159987571Y-70729438D02*
X159987571Y-70919914D01*
X159987571Y-70919914D02*
X159949476Y-70996104D01*
X159949476Y-70996104D02*
X159911381Y-71034200D01*
X159911381Y-71034200D02*
X159835190Y-71072295D01*
X159835190Y-71072295D02*
X159606619Y-71072295D01*
X159606619Y-71072295D02*
X159530428Y-71034200D01*
X159530428Y-71034200D02*
X159492333Y-70996104D01*
X159035190Y-73193247D02*
X159149476Y-73231342D01*
X159149476Y-73231342D02*
X159187571Y-73269438D01*
X159187571Y-73269438D02*
X159225667Y-73345628D01*
X159225667Y-73345628D02*
X159225667Y-73459914D01*
X159225667Y-73459914D02*
X159187571Y-73536104D01*
X159187571Y-73536104D02*
X159149476Y-73574200D01*
X159149476Y-73574200D02*
X159073286Y-73612295D01*
X159073286Y-73612295D02*
X158768524Y-73612295D01*
X158768524Y-73612295D02*
X158768524Y-72812295D01*
X158768524Y-72812295D02*
X159035190Y-72812295D01*
X159035190Y-72812295D02*
X159111381Y-72850390D01*
X159111381Y-72850390D02*
X159149476Y-72888485D01*
X159149476Y-72888485D02*
X159187571Y-72964676D01*
X159187571Y-72964676D02*
X159187571Y-73040866D01*
X159187571Y-73040866D02*
X159149476Y-73117057D01*
X159149476Y-73117057D02*
X159111381Y-73155152D01*
X159111381Y-73155152D02*
X159035190Y-73193247D01*
X159035190Y-73193247D02*
X158768524Y-73193247D01*
X159530428Y-72888485D02*
X159568524Y-72850390D01*
X159568524Y-72850390D02*
X159644714Y-72812295D01*
X159644714Y-72812295D02*
X159835190Y-72812295D01*
X159835190Y-72812295D02*
X159911381Y-72850390D01*
X159911381Y-72850390D02*
X159949476Y-72888485D01*
X159949476Y-72888485D02*
X159987571Y-72964676D01*
X159987571Y-72964676D02*
X159987571Y-73040866D01*
X159987571Y-73040866D02*
X159949476Y-73155152D01*
X159949476Y-73155152D02*
X159492333Y-73612295D01*
X159492333Y-73612295D02*
X159987571Y-73612295D01*
X159035190Y-75733247D02*
X159149476Y-75771342D01*
X159149476Y-75771342D02*
X159187571Y-75809438D01*
X159187571Y-75809438D02*
X159225667Y-75885628D01*
X159225667Y-75885628D02*
X159225667Y-75999914D01*
X159225667Y-75999914D02*
X159187571Y-76076104D01*
X159187571Y-76076104D02*
X159149476Y-76114200D01*
X159149476Y-76114200D02*
X159073286Y-76152295D01*
X159073286Y-76152295D02*
X158768524Y-76152295D01*
X158768524Y-76152295D02*
X158768524Y-75352295D01*
X158768524Y-75352295D02*
X159035190Y-75352295D01*
X159035190Y-75352295D02*
X159111381Y-75390390D01*
X159111381Y-75390390D02*
X159149476Y-75428485D01*
X159149476Y-75428485D02*
X159187571Y-75504676D01*
X159187571Y-75504676D02*
X159187571Y-75580866D01*
X159187571Y-75580866D02*
X159149476Y-75657057D01*
X159149476Y-75657057D02*
X159111381Y-75695152D01*
X159111381Y-75695152D02*
X159035190Y-75733247D01*
X159035190Y-75733247D02*
X158768524Y-75733247D01*
X159911381Y-75352295D02*
X159759000Y-75352295D01*
X159759000Y-75352295D02*
X159682809Y-75390390D01*
X159682809Y-75390390D02*
X159644714Y-75428485D01*
X159644714Y-75428485D02*
X159568524Y-75542771D01*
X159568524Y-75542771D02*
X159530428Y-75695152D01*
X159530428Y-75695152D02*
X159530428Y-75999914D01*
X159530428Y-75999914D02*
X159568524Y-76076104D01*
X159568524Y-76076104D02*
X159606619Y-76114200D01*
X159606619Y-76114200D02*
X159682809Y-76152295D01*
X159682809Y-76152295D02*
X159835190Y-76152295D01*
X159835190Y-76152295D02*
X159911381Y-76114200D01*
X159911381Y-76114200D02*
X159949476Y-76076104D01*
X159949476Y-76076104D02*
X159987571Y-75999914D01*
X159987571Y-75999914D02*
X159987571Y-75809438D01*
X159987571Y-75809438D02*
X159949476Y-75733247D01*
X159949476Y-75733247D02*
X159911381Y-75695152D01*
X159911381Y-75695152D02*
X159835190Y-75657057D01*
X159835190Y-75657057D02*
X159682809Y-75657057D01*
X159682809Y-75657057D02*
X159606619Y-75695152D01*
X159606619Y-75695152D02*
X159568524Y-75733247D01*
X159568524Y-75733247D02*
X159530428Y-75809438D01*
X159246666Y-53234200D02*
X159360952Y-53272295D01*
X159360952Y-53272295D02*
X159551428Y-53272295D01*
X159551428Y-53272295D02*
X159627619Y-53234200D01*
X159627619Y-53234200D02*
X159665714Y-53196104D01*
X159665714Y-53196104D02*
X159703809Y-53119914D01*
X159703809Y-53119914D02*
X159703809Y-53043723D01*
X159703809Y-53043723D02*
X159665714Y-52967533D01*
X159665714Y-52967533D02*
X159627619Y-52929438D01*
X159627619Y-52929438D02*
X159551428Y-52891342D01*
X159551428Y-52891342D02*
X159399047Y-52853247D01*
X159399047Y-52853247D02*
X159322857Y-52815152D01*
X159322857Y-52815152D02*
X159284762Y-52777057D01*
X159284762Y-52777057D02*
X159246666Y-52700866D01*
X159246666Y-52700866D02*
X159246666Y-52624676D01*
X159246666Y-52624676D02*
X159284762Y-52548485D01*
X159284762Y-52548485D02*
X159322857Y-52510390D01*
X159322857Y-52510390D02*
X159399047Y-52472295D01*
X159399047Y-52472295D02*
X159589524Y-52472295D01*
X159589524Y-52472295D02*
X159703809Y-52510390D01*
X159932381Y-52472295D02*
X160389524Y-52472295D01*
X160160952Y-53272295D02*
X160160952Y-52472295D01*
X166201395Y-47412295D02*
X166658538Y-47412295D01*
X166429966Y-48212295D02*
X166429966Y-47412295D01*
X166849014Y-47412295D02*
X167382348Y-48212295D01*
X167382348Y-47412295D02*
X166849014Y-48212295D01*
X167839491Y-47412295D02*
X167915681Y-47412295D01*
X167915681Y-47412295D02*
X167991872Y-47450390D01*
X167991872Y-47450390D02*
X168029967Y-47488485D01*
X168029967Y-47488485D02*
X168068062Y-47564676D01*
X168068062Y-47564676D02*
X168106157Y-47717057D01*
X168106157Y-47717057D02*
X168106157Y-47907533D01*
X168106157Y-47907533D02*
X168068062Y-48059914D01*
X168068062Y-48059914D02*
X168029967Y-48136104D01*
X168029967Y-48136104D02*
X167991872Y-48174200D01*
X167991872Y-48174200D02*
X167915681Y-48212295D01*
X167915681Y-48212295D02*
X167839491Y-48212295D01*
X167839491Y-48212295D02*
X167763300Y-48174200D01*
X167763300Y-48174200D02*
X167725205Y-48136104D01*
X167725205Y-48136104D02*
X167687110Y-48059914D01*
X167687110Y-48059914D02*
X167649014Y-47907533D01*
X167649014Y-47907533D02*
X167649014Y-47717057D01*
X167649014Y-47717057D02*
X167687110Y-47564676D01*
X167687110Y-47564676D02*
X167725205Y-47488485D01*
X167725205Y-47488485D02*
X167763300Y-47450390D01*
X167763300Y-47450390D02*
X167839491Y-47412295D01*
X169020443Y-47374200D02*
X168334729Y-48402771D01*
X169287110Y-48212295D02*
X169287110Y-47412295D01*
X169287110Y-47412295D02*
X169477586Y-47412295D01*
X169477586Y-47412295D02*
X169591872Y-47450390D01*
X169591872Y-47450390D02*
X169668062Y-47526580D01*
X169668062Y-47526580D02*
X169706157Y-47602771D01*
X169706157Y-47602771D02*
X169744253Y-47755152D01*
X169744253Y-47755152D02*
X169744253Y-47869438D01*
X169744253Y-47869438D02*
X169706157Y-48021819D01*
X169706157Y-48021819D02*
X169668062Y-48098009D01*
X169668062Y-48098009D02*
X169591872Y-48174200D01*
X169591872Y-48174200D02*
X169477586Y-48212295D01*
X169477586Y-48212295D02*
X169287110Y-48212295D01*
X170010919Y-47412295D02*
X170506157Y-47412295D01*
X170506157Y-47412295D02*
X170239491Y-47717057D01*
X170239491Y-47717057D02*
X170353776Y-47717057D01*
X170353776Y-47717057D02*
X170429967Y-47755152D01*
X170429967Y-47755152D02*
X170468062Y-47793247D01*
X170468062Y-47793247D02*
X170506157Y-47869438D01*
X170506157Y-47869438D02*
X170506157Y-48059914D01*
X170506157Y-48059914D02*
X170468062Y-48136104D01*
X170468062Y-48136104D02*
X170429967Y-48174200D01*
X170429967Y-48174200D02*
X170353776Y-48212295D01*
X170353776Y-48212295D02*
X170125205Y-48212295D01*
X170125205Y-48212295D02*
X170049014Y-48174200D01*
X170049014Y-48174200D02*
X170010919Y-48136104D01*
X169690524Y-50752295D02*
X169690524Y-49952295D01*
X169690524Y-49952295D02*
X169881000Y-49952295D01*
X169881000Y-49952295D02*
X169995286Y-49990390D01*
X169995286Y-49990390D02*
X170071476Y-50066580D01*
X170071476Y-50066580D02*
X170109571Y-50142771D01*
X170109571Y-50142771D02*
X170147667Y-50295152D01*
X170147667Y-50295152D02*
X170147667Y-50409438D01*
X170147667Y-50409438D02*
X170109571Y-50561819D01*
X170109571Y-50561819D02*
X170071476Y-50638009D01*
X170071476Y-50638009D02*
X169995286Y-50714200D01*
X169995286Y-50714200D02*
X169881000Y-50752295D01*
X169881000Y-50752295D02*
X169690524Y-50752295D01*
X170452428Y-50028485D02*
X170490524Y-49990390D01*
X170490524Y-49990390D02*
X170566714Y-49952295D01*
X170566714Y-49952295D02*
X170757190Y-49952295D01*
X170757190Y-49952295D02*
X170833381Y-49990390D01*
X170833381Y-49990390D02*
X170871476Y-50028485D01*
X170871476Y-50028485D02*
X170909571Y-50104676D01*
X170909571Y-50104676D02*
X170909571Y-50180866D01*
X170909571Y-50180866D02*
X170871476Y-50295152D01*
X170871476Y-50295152D02*
X170414333Y-50752295D01*
X170414333Y-50752295D02*
X170909571Y-50752295D01*
X169671476Y-52530390D02*
X169595286Y-52492295D01*
X169595286Y-52492295D02*
X169481000Y-52492295D01*
X169481000Y-52492295D02*
X169366714Y-52530390D01*
X169366714Y-52530390D02*
X169290524Y-52606580D01*
X169290524Y-52606580D02*
X169252429Y-52682771D01*
X169252429Y-52682771D02*
X169214333Y-52835152D01*
X169214333Y-52835152D02*
X169214333Y-52949438D01*
X169214333Y-52949438D02*
X169252429Y-53101819D01*
X169252429Y-53101819D02*
X169290524Y-53178009D01*
X169290524Y-53178009D02*
X169366714Y-53254200D01*
X169366714Y-53254200D02*
X169481000Y-53292295D01*
X169481000Y-53292295D02*
X169557191Y-53292295D01*
X169557191Y-53292295D02*
X169671476Y-53254200D01*
X169671476Y-53254200D02*
X169709572Y-53216104D01*
X169709572Y-53216104D02*
X169709572Y-52949438D01*
X169709572Y-52949438D02*
X169557191Y-52949438D01*
X170052429Y-53292295D02*
X170052429Y-52492295D01*
X170052429Y-52492295D02*
X170509572Y-53292295D01*
X170509572Y-53292295D02*
X170509572Y-52492295D01*
X170890524Y-53292295D02*
X170890524Y-52492295D01*
X170890524Y-52492295D02*
X171081000Y-52492295D01*
X171081000Y-52492295D02*
X171195286Y-52530390D01*
X171195286Y-52530390D02*
X171271476Y-52606580D01*
X171271476Y-52606580D02*
X171309571Y-52682771D01*
X171309571Y-52682771D02*
X171347667Y-52835152D01*
X171347667Y-52835152D02*
X171347667Y-52949438D01*
X171347667Y-52949438D02*
X171309571Y-53101819D01*
X171309571Y-53101819D02*
X171271476Y-53178009D01*
X171271476Y-53178009D02*
X171195286Y-53254200D01*
X171195286Y-53254200D02*
X171081000Y-53292295D01*
X171081000Y-53292295D02*
X170890524Y-53292295D01*
X169690524Y-58372295D02*
X169690524Y-57572295D01*
X169690524Y-57572295D02*
X169881000Y-57572295D01*
X169881000Y-57572295D02*
X169995286Y-57610390D01*
X169995286Y-57610390D02*
X170071476Y-57686580D01*
X170071476Y-57686580D02*
X170109571Y-57762771D01*
X170109571Y-57762771D02*
X170147667Y-57915152D01*
X170147667Y-57915152D02*
X170147667Y-58029438D01*
X170147667Y-58029438D02*
X170109571Y-58181819D01*
X170109571Y-58181819D02*
X170071476Y-58258009D01*
X170071476Y-58258009D02*
X169995286Y-58334200D01*
X169995286Y-58334200D02*
X169881000Y-58372295D01*
X169881000Y-58372295D02*
X169690524Y-58372295D01*
X170909571Y-58372295D02*
X170452428Y-58372295D01*
X170681000Y-58372295D02*
X170681000Y-57572295D01*
X170681000Y-57572295D02*
X170604809Y-57686580D01*
X170604809Y-57686580D02*
X170528619Y-57762771D01*
X170528619Y-57762771D02*
X170452428Y-57800866D01*
X169690524Y-60912295D02*
X169690524Y-60112295D01*
X169690524Y-60112295D02*
X169881000Y-60112295D01*
X169881000Y-60112295D02*
X169995286Y-60150390D01*
X169995286Y-60150390D02*
X170071476Y-60226580D01*
X170071476Y-60226580D02*
X170109571Y-60302771D01*
X170109571Y-60302771D02*
X170147667Y-60455152D01*
X170147667Y-60455152D02*
X170147667Y-60569438D01*
X170147667Y-60569438D02*
X170109571Y-60721819D01*
X170109571Y-60721819D02*
X170071476Y-60798009D01*
X170071476Y-60798009D02*
X169995286Y-60874200D01*
X169995286Y-60874200D02*
X169881000Y-60912295D01*
X169881000Y-60912295D02*
X169690524Y-60912295D01*
X170642905Y-60112295D02*
X170719095Y-60112295D01*
X170719095Y-60112295D02*
X170795286Y-60150390D01*
X170795286Y-60150390D02*
X170833381Y-60188485D01*
X170833381Y-60188485D02*
X170871476Y-60264676D01*
X170871476Y-60264676D02*
X170909571Y-60417057D01*
X170909571Y-60417057D02*
X170909571Y-60607533D01*
X170909571Y-60607533D02*
X170871476Y-60759914D01*
X170871476Y-60759914D02*
X170833381Y-60836104D01*
X170833381Y-60836104D02*
X170795286Y-60874200D01*
X170795286Y-60874200D02*
X170719095Y-60912295D01*
X170719095Y-60912295D02*
X170642905Y-60912295D01*
X170642905Y-60912295D02*
X170566714Y-60874200D01*
X170566714Y-60874200D02*
X170528619Y-60836104D01*
X170528619Y-60836104D02*
X170490524Y-60759914D01*
X170490524Y-60759914D02*
X170452428Y-60607533D01*
X170452428Y-60607533D02*
X170452428Y-60417057D01*
X170452428Y-60417057D02*
X170490524Y-60264676D01*
X170490524Y-60264676D02*
X170528619Y-60188485D01*
X170528619Y-60188485D02*
X170566714Y-60150390D01*
X170566714Y-60150390D02*
X170642905Y-60112295D01*
X169690524Y-63452295D02*
X169690524Y-62652295D01*
X169690524Y-62652295D02*
X169881000Y-62652295D01*
X169881000Y-62652295D02*
X169995286Y-62690390D01*
X169995286Y-62690390D02*
X170071476Y-62766580D01*
X170071476Y-62766580D02*
X170109571Y-62842771D01*
X170109571Y-62842771D02*
X170147667Y-62995152D01*
X170147667Y-62995152D02*
X170147667Y-63109438D01*
X170147667Y-63109438D02*
X170109571Y-63261819D01*
X170109571Y-63261819D02*
X170071476Y-63338009D01*
X170071476Y-63338009D02*
X169995286Y-63414200D01*
X169995286Y-63414200D02*
X169881000Y-63452295D01*
X169881000Y-63452295D02*
X169690524Y-63452295D01*
X170833381Y-62918961D02*
X170833381Y-63452295D01*
X170642905Y-62614200D02*
X170452428Y-63185628D01*
X170452428Y-63185628D02*
X170947667Y-63185628D01*
X170147667Y-65916104D02*
X170109571Y-65954200D01*
X170109571Y-65954200D02*
X169995286Y-65992295D01*
X169995286Y-65992295D02*
X169919095Y-65992295D01*
X169919095Y-65992295D02*
X169804809Y-65954200D01*
X169804809Y-65954200D02*
X169728619Y-65878009D01*
X169728619Y-65878009D02*
X169690524Y-65801819D01*
X169690524Y-65801819D02*
X169652428Y-65649438D01*
X169652428Y-65649438D02*
X169652428Y-65535152D01*
X169652428Y-65535152D02*
X169690524Y-65382771D01*
X169690524Y-65382771D02*
X169728619Y-65306580D01*
X169728619Y-65306580D02*
X169804809Y-65230390D01*
X169804809Y-65230390D02*
X169919095Y-65192295D01*
X169919095Y-65192295D02*
X169995286Y-65192295D01*
X169995286Y-65192295D02*
X170109571Y-65230390D01*
X170109571Y-65230390D02*
X170147667Y-65268485D01*
X170833381Y-65192295D02*
X170681000Y-65192295D01*
X170681000Y-65192295D02*
X170604809Y-65230390D01*
X170604809Y-65230390D02*
X170566714Y-65268485D01*
X170566714Y-65268485D02*
X170490524Y-65382771D01*
X170490524Y-65382771D02*
X170452428Y-65535152D01*
X170452428Y-65535152D02*
X170452428Y-65839914D01*
X170452428Y-65839914D02*
X170490524Y-65916104D01*
X170490524Y-65916104D02*
X170528619Y-65954200D01*
X170528619Y-65954200D02*
X170604809Y-65992295D01*
X170604809Y-65992295D02*
X170757190Y-65992295D01*
X170757190Y-65992295D02*
X170833381Y-65954200D01*
X170833381Y-65954200D02*
X170871476Y-65916104D01*
X170871476Y-65916104D02*
X170909571Y-65839914D01*
X170909571Y-65839914D02*
X170909571Y-65649438D01*
X170909571Y-65649438D02*
X170871476Y-65573247D01*
X170871476Y-65573247D02*
X170833381Y-65535152D01*
X170833381Y-65535152D02*
X170757190Y-65497057D01*
X170757190Y-65497057D02*
X170604809Y-65497057D01*
X170604809Y-65497057D02*
X170528619Y-65535152D01*
X170528619Y-65535152D02*
X170490524Y-65573247D01*
X170490524Y-65573247D02*
X170452428Y-65649438D01*
X169728619Y-70653247D02*
X169995285Y-70653247D01*
X170109571Y-71072295D02*
X169728619Y-71072295D01*
X169728619Y-71072295D02*
X169728619Y-70272295D01*
X169728619Y-70272295D02*
X170109571Y-70272295D01*
X170795286Y-70272295D02*
X170642905Y-70272295D01*
X170642905Y-70272295D02*
X170566714Y-70310390D01*
X170566714Y-70310390D02*
X170528619Y-70348485D01*
X170528619Y-70348485D02*
X170452429Y-70462771D01*
X170452429Y-70462771D02*
X170414333Y-70615152D01*
X170414333Y-70615152D02*
X170414333Y-70919914D01*
X170414333Y-70919914D02*
X170452429Y-70996104D01*
X170452429Y-70996104D02*
X170490524Y-71034200D01*
X170490524Y-71034200D02*
X170566714Y-71072295D01*
X170566714Y-71072295D02*
X170719095Y-71072295D01*
X170719095Y-71072295D02*
X170795286Y-71034200D01*
X170795286Y-71034200D02*
X170833381Y-70996104D01*
X170833381Y-70996104D02*
X170871476Y-70919914D01*
X170871476Y-70919914D02*
X170871476Y-70729438D01*
X170871476Y-70729438D02*
X170833381Y-70653247D01*
X170833381Y-70653247D02*
X170795286Y-70615152D01*
X170795286Y-70615152D02*
X170719095Y-70577057D01*
X170719095Y-70577057D02*
X170566714Y-70577057D01*
X170566714Y-70577057D02*
X170490524Y-70615152D01*
X170490524Y-70615152D02*
X170452429Y-70653247D01*
X170452429Y-70653247D02*
X170414333Y-70729438D01*
X169957190Y-73193247D02*
X170071476Y-73231342D01*
X170071476Y-73231342D02*
X170109571Y-73269438D01*
X170109571Y-73269438D02*
X170147667Y-73345628D01*
X170147667Y-73345628D02*
X170147667Y-73459914D01*
X170147667Y-73459914D02*
X170109571Y-73536104D01*
X170109571Y-73536104D02*
X170071476Y-73574200D01*
X170071476Y-73574200D02*
X169995286Y-73612295D01*
X169995286Y-73612295D02*
X169690524Y-73612295D01*
X169690524Y-73612295D02*
X169690524Y-72812295D01*
X169690524Y-72812295D02*
X169957190Y-72812295D01*
X169957190Y-72812295D02*
X170033381Y-72850390D01*
X170033381Y-72850390D02*
X170071476Y-72888485D01*
X170071476Y-72888485D02*
X170109571Y-72964676D01*
X170109571Y-72964676D02*
X170109571Y-73040866D01*
X170109571Y-73040866D02*
X170071476Y-73117057D01*
X170071476Y-73117057D02*
X170033381Y-73155152D01*
X170033381Y-73155152D02*
X169957190Y-73193247D01*
X169957190Y-73193247D02*
X169690524Y-73193247D01*
X170833381Y-73078961D02*
X170833381Y-73612295D01*
X170642905Y-72774200D02*
X170452428Y-73345628D01*
X170452428Y-73345628D02*
X170947667Y-73345628D01*
X169957190Y-75733247D02*
X170071476Y-75771342D01*
X170071476Y-75771342D02*
X170109571Y-75809438D01*
X170109571Y-75809438D02*
X170147667Y-75885628D01*
X170147667Y-75885628D02*
X170147667Y-75999914D01*
X170147667Y-75999914D02*
X170109571Y-76076104D01*
X170109571Y-76076104D02*
X170071476Y-76114200D01*
X170071476Y-76114200D02*
X169995286Y-76152295D01*
X169995286Y-76152295D02*
X169690524Y-76152295D01*
X169690524Y-76152295D02*
X169690524Y-75352295D01*
X169690524Y-75352295D02*
X169957190Y-75352295D01*
X169957190Y-75352295D02*
X170033381Y-75390390D01*
X170033381Y-75390390D02*
X170071476Y-75428485D01*
X170071476Y-75428485D02*
X170109571Y-75504676D01*
X170109571Y-75504676D02*
X170109571Y-75580866D01*
X170109571Y-75580866D02*
X170071476Y-75657057D01*
X170071476Y-75657057D02*
X170033381Y-75695152D01*
X170033381Y-75695152D02*
X169957190Y-75733247D01*
X169957190Y-75733247D02*
X169690524Y-75733247D01*
X170871476Y-75352295D02*
X170490524Y-75352295D01*
X170490524Y-75352295D02*
X170452428Y-75733247D01*
X170452428Y-75733247D02*
X170490524Y-75695152D01*
X170490524Y-75695152D02*
X170566714Y-75657057D01*
X170566714Y-75657057D02*
X170757190Y-75657057D01*
X170757190Y-75657057D02*
X170833381Y-75695152D01*
X170833381Y-75695152D02*
X170871476Y-75733247D01*
X170871476Y-75733247D02*
X170909571Y-75809438D01*
X170909571Y-75809438D02*
X170909571Y-75999914D01*
X170909571Y-75999914D02*
X170871476Y-76076104D01*
X170871476Y-76076104D02*
X170833381Y-76114200D01*
X170833381Y-76114200D02*
X170757190Y-76152295D01*
X170757190Y-76152295D02*
X170566714Y-76152295D01*
X170566714Y-76152295D02*
X170490524Y-76114200D01*
X170490524Y-76114200D02*
X170452428Y-76076104D01*
%TO.C,SW7*%
D11*
X138475000Y-83095000D02*
X152445000Y-83095000D01*
X138475000Y-97065000D02*
X138475000Y-83095000D01*
X152445000Y-83095000D02*
X152445000Y-97065000D01*
X152445000Y-97065000D02*
X138475000Y-97065000D01*
%TO.C,SW8*%
X157515000Y-83095000D02*
X171485000Y-83095000D01*
X157515000Y-97065000D02*
X157515000Y-83095000D01*
X171485000Y-83095000D02*
X171485000Y-97065000D01*
X171485000Y-97065000D02*
X157515000Y-97065000D01*
%TO.C,SW3*%
X176605000Y-44995000D02*
X190575000Y-44995000D01*
X176605000Y-58965000D02*
X176605000Y-44995000D01*
X190575000Y-44995000D02*
X190575000Y-58965000D01*
X190575000Y-58965000D02*
X176605000Y-58965000D01*
%TO.C,SW6*%
X176595000Y-64015000D02*
X190565000Y-64015000D01*
X176595000Y-77985000D02*
X176595000Y-64015000D01*
X190565000Y-64015000D02*
X190565000Y-77985000D01*
X190565000Y-77985000D02*
X176595000Y-77985000D01*
%TO.C,SW5*%
X157515000Y-64015000D02*
X171485000Y-64015000D01*
X157515000Y-77985000D02*
X157515000Y-64015000D01*
X171485000Y-64015000D02*
X171485000Y-77985000D01*
X171485000Y-77985000D02*
X157515000Y-77985000D01*
%TO.C,SW2*%
X157525000Y-44985000D02*
X171495000Y-44985000D01*
X157525000Y-58955000D02*
X157525000Y-44985000D01*
X171495000Y-44985000D02*
X171495000Y-58955000D01*
X171495000Y-58955000D02*
X157525000Y-58955000D01*
%TO.C,SW1*%
X138425000Y-44955000D02*
X152395000Y-44955000D01*
X138425000Y-58925000D02*
X138425000Y-44955000D01*
X152395000Y-44955000D02*
X152395000Y-58925000D01*
X152395000Y-58925000D02*
X138425000Y-58925000D01*
%TO.C,SW9*%
X176575000Y-83095000D02*
X190545000Y-83095000D01*
X176575000Y-97065000D02*
X176575000Y-83095000D01*
X190545000Y-83095000D02*
X190545000Y-97065000D01*
X190545000Y-97065000D02*
X176575000Y-97065000D01*
%TO.C,SW4*%
X138435000Y-64015000D02*
X152405000Y-64015000D01*
X138435000Y-77985000D02*
X138435000Y-64015000D01*
X152405000Y-64015000D02*
X152405000Y-77985000D01*
X152405000Y-77985000D02*
X138435000Y-77985000D01*
%TO.C,U1*%
D12*
X155930000Y-44040000D02*
X173710000Y-44040000D01*
X155930000Y-77060000D02*
X155930000Y-44040000D01*
X171170000Y-46580000D02*
X171170000Y-49120000D01*
X171170000Y-46580000D02*
X173710000Y-46580000D01*
X171170000Y-49120000D02*
X173710000Y-49120000D01*
X173710000Y-44040000D02*
X173710000Y-77060000D01*
X173710000Y-77060000D02*
X155930000Y-77060000D01*
D10*
X158575365Y-52469030D02*
X158575365Y-53269030D01*
X158475365Y-53269030D01*
X158475365Y-52469030D01*
X158575365Y-52469030D01*
G36*
X158575365Y-53269030D02*
G01*
X158475365Y-53269030D01*
X158475365Y-52469030D01*
X158575365Y-52469030D01*
X158575365Y-53269030D01*
G37*
X158775365Y-52869030D02*
X158775365Y-52969030D01*
X158675365Y-52969030D01*
X158675365Y-52869030D01*
X158775365Y-52869030D01*
G36*
X158775365Y-52969030D02*
G01*
X158675365Y-52969030D01*
X158675365Y-52869030D01*
X158775365Y-52869030D01*
X158775365Y-52969030D01*
G37*
X158975365Y-52469030D02*
X158975365Y-52569030D01*
X158475365Y-52569030D01*
X158475365Y-52469030D01*
X158975365Y-52469030D01*
G36*
X158975365Y-52569030D02*
G01*
X158475365Y-52569030D01*
X158475365Y-52469030D01*
X158975365Y-52469030D01*
X158975365Y-52569030D01*
G37*
X158975365Y-52469030D02*
X158975365Y-52769030D01*
X158875365Y-52769030D01*
X158875365Y-52469030D01*
X158975365Y-52469030D01*
G36*
X158975365Y-52769030D02*
G01*
X158875365Y-52769030D01*
X158875365Y-52469030D01*
X158975365Y-52469030D01*
X158975365Y-52769030D01*
G37*
X158975365Y-53069030D02*
X158975365Y-53269030D01*
X158875365Y-53269030D01*
X158875365Y-53069030D01*
X158975365Y-53069030D01*
G36*
X158975365Y-53269030D02*
G01*
X158875365Y-53269030D01*
X158875365Y-53069030D01*
X158975365Y-53069030D01*
X158975365Y-53269030D01*
G37*
%TD*%
D13*
%TO.C,U1*%
X172440000Y-47850000D03*
D14*
X172440000Y-50390000D03*
X172440000Y-52930000D03*
X172440000Y-55470000D03*
X172440000Y-58010000D03*
X172440000Y-60550000D03*
X172440000Y-63090000D03*
X172440000Y-65630000D03*
X172440000Y-68170000D03*
X172440000Y-70710000D03*
X172440000Y-73250000D03*
X172440000Y-75790000D03*
X157200000Y-75790000D03*
X157200000Y-73250000D03*
X157200000Y-70710000D03*
X157200000Y-68170000D03*
X157200000Y-65630000D03*
X157200000Y-63090000D03*
X157200000Y-60550000D03*
X157200000Y-58010000D03*
X157200000Y-55470000D03*
X157200000Y-52930000D03*
X157200000Y-50390000D03*
X157200000Y-47850000D03*
%TD*%
M02*
